<?xml version="1.0" encoding="utf-8"?>
<!-- Generator: Adobe Illustrator 25.2.3, SVG Export Plug-In . SVG Version: 6.00 Build 0)  -->
<svg version="1.1" id="arrow_white.svg" xmlns="http://www.w3.org/2000/svg" xmlns:xlink="http://www.w3.org/1999/xlink" x="0px"
	 y="0px" viewBox="0 0 21.8 33.4" style="enable-background:new 0 0 21.8 33.4;" xml:space="preserve">
<style type="text/css">
	.st0{fill:#FFDD00;}
</style>
<path class="st0" d="M21.8,31.6c0,0.5-0.2,0.9-0.5,1.2c-0.3,0.4-0.8,0.6-1.3,0.6c-0.3,0-0.6-0.1-0.8-0.3L1.5,18.9
	c-1-0.8-1.5-1.6-1.5-2.3c0-0.7,0.5-1.5,1.5-2.3L19.3,0.3C19.4,0.1,19.7,0,20,0c0.5,0,1,0.2,1.3,0.6c0.3,0.3,0.5,0.7,0.5,1.2
	c0,0.5-0.3,1-0.9,1.5l-16.2,13c-0.3,0.2-0.5,0.4-0.5,0.5c0,0.1,0.2,0.2,0.5,0.5l16.2,13C21.5,30.6,21.8,31.1,21.8,31.6z"/>
</svg>
