<?xml version="1.0" encoding="utf-8"?>
<!-- Generator: Adobe Illustrator 25.2.3, SVG Export Plug-In . SVG Version: 6.00 Build 0)  -->
<svg version="1.1" id="圖層_1" xmlns="http://www.w3.org/2000/svg" xmlns:xlink="http://www.w3.org/1999/xlink" x="0px" y="0px"
	 viewBox="0 0 24 24" style="enable-background:new 0 0 24 24;" xml:space="preserve">
<style type="text/css">
	.st0{fill:none;}
</style>
<path class="st0" d="M0,0h24v24H0V0z"/>
<path d="M17,4h3c1.1,0,2,0.9,2,2v2h-2V6h-3V4z M4,8V6h3V4H4C2.9,4,2,4.9,2,6v2H4z M20,16v2h-3v2h3c1.1,0,2-0.9,2-2v-2H20z M7,18H4
	v-2H2v2c0,1.1,0.9,2,2,2h3L7,18L7,18z M18,8H6v8h12V8z"/>
</svg>
