<?xml version="1.0" encoding="utf-8"?>
<!-- Generator: Adobe Illustrator 25.2.3, SVG Export Plug-In . SVG Version: 6.00 Build 0)  -->
<svg version="1.1" id="圖層_1" xmlns="http://www.w3.org/2000/svg" xmlns:xlink="http://www.w3.org/1999/xlink" x="0px" y="0px"
	 viewBox="0 0 191 77" style="enable-background:new 0 0 191 77;" xml:space="preserve">
<style type="text/css">
	.st0{fill:#FFFFFF;}
</style>
<g>
	<g>
		<g>
			<path class="st0" d="M5.7,4.9L5.4,5.3C4.7,4.7,4.1,4.1,3.4,3.7l0.3-0.4C4.4,3.8,5.1,4.3,5.7,4.9z M6.1,6.4
				C5.6,7.8,4.9,9.3,4,10.7l-0.5-0.3c0.9-1.3,1.6-2.7,2.1-4.2L6.1,6.4z M6.4,2.1L6.1,2.5C5.4,1.9,4.8,1.4,4.1,1l0.3-0.4
				C5.1,1,5.8,1.5,6.4,2.1z M9.8,1.1v-1h0.5v1h3.4v0.5h-3.4v1h2.6V3h-2.6v1h3.9v0.5H6.1V4h3.7V3H7.2V2.5h2.6v-1H6.7V1.1H9.8z
				 M12.8,10c0,0.5-0.4,0.8-1.1,0.8c-0.3,0-0.7,0-1.2-0.1v-0.5c0.4,0.1,0.8,0.2,1.2,0.2c0.4,0,0.6-0.2,0.6-0.5V8.8H7.7V11H7.2V5.3
				h5.7V10z M12.3,6.8V5.8H7.7v1.1H12.3z M12.3,8.3V7.3H7.7v1.1H12.3z"/>
			<path class="st0" d="M30.5,7.6V8h-6.2c-0.2,0.3-0.4,0.6-0.8,1c-0.3,0.3-0.6,0.6-0.9,0.8c1.5,0,3.3-0.2,5.2-0.3
				c-0.4-0.3-0.8-0.6-1.2-0.9l0.3-0.4c1,0.6,2,1.4,2.8,2.2l-0.3,0.4c-0.4-0.4-0.7-0.7-1.1-1c-2.2,0.2-4.6,0.4-7.5,0.5l-0.1-0.5
				c0.4,0,0.8,0,1.2,0c0.3-0.2,0.6-0.6,1-0.9c0.3-0.3,0.5-0.6,0.7-0.9h-3.9V7.6H30.5z M29.6,0.7v0.5h-4.1V2H30v2.1h-0.5V2.5h-4.1
				v3.3h-0.5V2.5h-4.1v1.6h-0.5V2h4.6V1.2h-4.2V0.7H29.6z M29,6.2v0.5h-7.8V6.2H29z M24.3,3.3v0.5h-2.8V3.3H24.3z M24.3,4.8v0.5
				h-2.7V4.8H24.3z M28.9,3.3v0.5h-2.8V3.3H28.9z M28.9,4.8v0.5h-2.7V4.8H28.9z"/>
			<path class="st0" d="M39.2,3.4c-0.2,1-0.6,1.9-1,2.9c-0.5,0.9-1,1.7-1.6,2.4l-0.4-0.5c0.6-0.7,1.1-1.5,1.5-2.3
				c0.4-0.9,0.7-1.7,1-2.7L39.2,3.4z M42.1,0.3v9.4c0,0.7-0.4,1-1.3,1c-0.7,0-1.3-0.1-1.8-0.4l0-0.6c0.6,0.3,1.2,0.4,1.9,0.4
				c0.5,0,0.7-0.2,0.7-0.6V0.3H42.1z M47,8.6l-0.6,0.2c-0.7-2-1.5-3.8-2.5-5.3l0.5-0.3C45.4,4.8,46.3,6.6,47,8.6z"/>
			<path class="st0" d="M58.4,1.3h4.5v2.1h-0.5V1.7h-8.7v1.7h-0.5V1.3h4.6c-0.2-0.3-0.4-0.7-0.6-1L57.6,0C58,0.4,58.2,0.8,58.4,1.3z
				 M62,11h-0.5v-0.7h-6.9V11h-0.5V6.6H62V11z M61.6,2.5V3h-7.2V2.5H61.6z M57.8,8.2V7.1h-3.2v1.1H57.8z M57.8,9.8V8.6h-3.2v1.2
				H57.8z M61,3.8v2.1h-6V3.8H61z M60.5,5.4V4.2h-5v1.2H60.5z M58.3,8.2h3.3V7.1h-3.3V8.2z M61.5,9.8V8.6h-3.3v1.2H61.5z"/>
			<path class="st0" d="M72.7,1.3c-0.4,0.6-1,1.1-1.6,1.7c-0.7,0.6-1.3,1-1.8,1.3L69,3.8c0.5-0.3,1.1-0.7,1.7-1.2
				C71.4,2,71.9,1.5,72.3,1L72.7,1.3z M73,8.3c-1,0.6-2,1-3.2,1.5l-0.2-0.5c1.3-0.4,2.3-0.9,3.3-1.4L73,8.3z M74,5.3v4.8
				c0,0.5-0.3,0.7-0.8,0.7c-0.5,0-1,0-1.5-0.1v-0.5c0.6,0.1,1.1,0.1,1.5,0.1c0.2,0,0.3-0.1,0.3-0.4V5.8h-3.8V5.3H74z M72.7,7.4
				l-0.3,0.4c-0.6-0.4-1.3-0.8-2.2-1.2l0.2-0.4C71.3,6.6,72.1,6.9,72.7,7.4z M74.4,2c-0.2,0.4-0.5,0.8-0.9,1.3
				c-0.3,0.3-0.6,0.6-0.9,0.9c1-0.1,2.2-0.2,3.4-0.5c-0.3-0.3-0.7-0.5-1-0.8l0.3-0.3c0.9,0.6,1.8,1.3,2.5,1.9l-0.4,0.4
				c-0.3-0.3-0.6-0.6-0.9-0.9c-1.6,0.3-3.4,0.6-5.4,0.6l-0.1-0.5c0.3,0,0.6,0,0.9,0c0.4-0.4,0.7-0.7,1-1.1c0.4-0.4,0.6-0.9,0.9-1.3
				L74.4,2z M76.4,0.6c1,1.5,2.2,2.5,3.5,3.1l-0.3,0.5c-1.2-0.6-2.4-1.6-3.5-3.1h-2.3V0.6H76.4z M77.9,8.3c-1,0.6-2,1-3.2,1.5
				l-0.2-0.5c1.3-0.4,2.4-0.9,3.3-1.4L77.9,8.3z M78.8,5.3v4.8c0,0.5-0.3,0.7-0.8,0.7c-0.5,0-1,0-1.6-0.1v-0.5
				c0.6,0.1,1.1,0.1,1.6,0.1c0.2,0,0.3-0.1,0.3-0.4V5.8h-3.7V5.3H78.8z M77.6,7.3l-0.3,0.4C76.7,7.3,76,7,75.2,6.7l0.2-0.4
				C76.2,6.6,77,6.9,77.6,7.3z"/>
		</g>
	</g>
	<g>
		<path class="st0" d="M14,58.8h2.1h1.6h3.4V20.4h-3.4h-1.6H7.9H7.2H2.9v38.4h4.3h0.7h5.5c0.4,7.7,2.7,13.5,7.1,17.3
			c-1.1-3.7-0.6-6.2,1.3-7.6C17.5,66.1,14.9,62.9,14,58.8z M16.1,44.4H7.9v-9.4h8.2V44.4z M16.1,23v9.4H7.9V23H16.1z M7.9,46.9h8.2
			v9.4H7.9V46.9z"/>
		<path class="st0" d="M39.5,19.5h-5.8v13.3H22.1v2.5h11.6v3.2h-6.3c-0.7,11.3-3.6,20-8.7,26.1h2.1c6.3-7.5,10.5-15.5,12.6-24v29.8
			c-0.2,2.1-2.8,3.9-7.9,5.3l0.3,0.5c1.4,0,2.7-0.1,3.8-0.3c5.9-0.8,8.4-3.2,8.6-3.4c0,0,0,0,0,0l0,0c0.6-0.7,1-1.5,1-2.2V35.3h5
			v-2.5h-4.7V19.5z"/>
		<path class="st0" d="M0,76.1h2.1c1.3-0.8,3.4-3.3,4-3.9c3.4-4.3,5.3-7.8,5.6-10.5H5.8C5.4,68.4,3.5,73.2,0,76.1z"/>
		<path class="st0" d="M175.6,57c-0.2-0.8-0.4-1.7-0.5-2.7h-0.5c-0.4,3.7-0.4,8.7-0.3,14.8c1.4-1,2.5-2,3.2-3.2
			C177.2,65,176.6,62,175.6,57z"/>
		<path class="st0" d="M182.4,64.5c0,0-0.3-0.6-0.4-0.7c-0.2-0.4-0.3-0.8-0.5-1.1c-1-2.6-1.9-5.3-2.7-8c-0.1-0.2-0.1-0.4-0.2-0.7
			l-0.5,0.2c0,0.3,0,0.9,0,1c0,0.4,0,0.7,0,1.1c0,0.8,0,1.5,0.1,2.3c0.1,2.5,0.3,5,0.7,7.5c0.1,0.4,0.1,0.7,0.2,1.1
			c0,0.1,0.2,0.8,0.1,0.8C180,67.7,181,66.4,182.4,64.5z"/>
		<path class="st0" d="M171.2,55h-3.2v10c0,2.8-0.4,4.1-1.1,3.9v2.2c3.6-2.1,5.4-5.3,5.3-9.4V55h0H171.2z"/>
		<path class="st0" d="M147.7,24.7h6.3c0,1.9-0.1,8.1-0.2,9c-0.8,9.8-3.3,17.5-7.4,23h1.8c1.6-2,3.3-4.5,4.6-6.7v21.8h0.9h3.9h3h0.9
			h3.8V42.2h-3.8h-0.9h-3h-0.5c0.9-2.3,1.6-5.1,2.4-8.5c0.5-2.1,0.6-7.4,0.6-9h6.1V22h-18.4V24.7z M160.5,44.8v24.6h-3V44.8H160.5z"
			/>
		<path class="st0" d="M190.6,24.3V22h-17.9h-5v2.3v6.4V33v6.4v2.3v6.6v1.1v1.1h17.9v1.3v0.8v7.2v0.3v0.4c-0.3-0.4-0.5-0.9-0.8-1.3
			c-1.1-1.8-2-3.7-2.7-5.5l-0.5,0.2c0.7,5.3,1.5,9.6,2.4,12.6c0.1,0,0.3-0.2,0.7-0.5c0.2-0.2,0.5-0.5,0.9-0.9v3.4
			c0,2.6-2.5,5.2-8.7,7.1v0.5c2.1,0,5.1-0.6,5.1-0.6c6.1-1.8,8.3-3.7,8.3-7.2V52.7v-0.8v-1.3v-2.3h-4.7h-2.9v-6.6h6.3v-2.3h-6.3V33
			h6.3v-2.3h-6.3v-6.4H190.6z M177.9,48.3h-5.3v-6.6h5.3V48.3z M177.9,39.4h-5.3V33h5.3V39.4z M177.9,30.7h-5.3v-6.4h5.3V30.7z"/>
		<rect x="57" y="32.1" class="st0" width="27.8" height="2.3"/>
		<path class="st0" d="M57,48.1h3.3v0h21.3v0h3.2V37.7h-3.2h-2.1H62.3h-2H57V48.1z M79.5,40v5.9H62.3V40H79.5z"/>
		<path class="st0" d="M52.7,51.8v2v18.3v2.3H58h10.3h5.3h10.3h5.3v-2.3v-8v-2.3v-8v-2v-0.3H52.7V51.8z M58,53.8h10.3v8H58V53.8z
			 M58,72.1v-8h10.3v8H58z M83.8,72.1H73.5v-8h10.3V72.1z M83.8,61.8H73.5v-8h10.3V61.8z"/>
		<path class="st0" d="M86.7,24.7H72.8l0,0c0.7-0.8,1.3-1.8,1.8-3c-2.1-1.4-4.6-2.7-7.4-3.9l-0.3,0.2c1.1,2.6,2.1,4.8,3.2,6.6l0,0
			H55.1v-2.2h-5.3v9.6h5.3V27h31.6v4.3v0.1V34c1.4-2.3,3.2-2.9,5.3-1.8v-0.7v-0.1V23h-5.3V24.7z"/>
		<polygon class="st0" points="131.5,72.1 122.6,72.1 122.6,57 117.3,57 117.3,72.1 107.8,72.1 107.8,59.5 102.6,59.5 102.6,72.1 
			102.6,73.9 102.6,74.4 136.8,74.4 136.8,73.9 136.8,72.1 136.8,59.5 131.5,59.5 		"/>
		<path class="st0" d="M120.6,38.6c0.9-0.9,1.8-2.7,2.6-5.2c-1.6-1.3-3.7-2.6-6.3-4l-0.3,0.2C117.9,33.6,119.2,36.6,120.6,38.6z"/>
		<path class="st0" d="M140.3,43.8c-3.2-4.1-5.2-6.6-6.1-7.6H134c1.8,6.9,3.2,11.7,4.5,14.2c0.9-0.8,1.9-2.5,3.2-5.2
			C141.3,44.9,140.9,44.4,140.3,43.8z"/>
		<path class="st0" d="M102.7,44.8c0,1.9-1.1,3.3-3.2,4.3v1.4c4.9-0.9,7.5-3.5,7.9-7.6v-8h-4.7V44.8z"/>
		<path class="st0" d="M115.1,53.7h12.4c0.8,0,1.4-0.1,2-0.2l0,0c0.7-0.1,1.3-0.5,1.7-0.9c0.4-0.4,0.7-0.9,0.9-1.6
			c0.4-1.3,0.3-2.7,0.3-2.7l0,0c0-3.4-1-8.8-1-8.8h-0.8l-1.3,7.3c-0.4,1.7-1,2-2.9,2.1h-10.5c10-4.7,15.6-10.6,16.8-17.5h-5.8
			c-1.2,5.7-5.1,10.6-11.6,14.7V32.9h-5.3v16.8c-0.5,0.3-1.2,0.8-2.1,1.4c-4.2,2.7-7.6,4.7-10.3,5.9h2.9c3.2-1.3,6.5-3,10-5.2
			C110.6,53.3,112.1,53.9,115.1,53.7z"/>
		<path class="st0" d="M104.7,27h30v4.3v0.1V34c1.4-2.3,3.2-2.9,5.3-1.8v-0.7v-0.1V23h-5.3v1.7h-13.1l0,0c0.7-0.8,1.3-1.8,1.8-3
			c-2.1-1.4-4.6-2.7-7.4-3.9l-0.3,0.2c1.1,2.6,2.1,4.8,3.2,6.6l0,0h-14.4v-2.2h-5.3v9.6h5.3V27z"/>
	</g>
</g>
</svg>
