<?xml version="1.0" encoding="utf-8"?>
<!-- Generator: Adobe Illustrator 25.2.3, SVG Export Plug-In . SVG Version: 6.00 Build 0)  -->
<svg version="1.1" id="圖層_1" xmlns="http://www.w3.org/2000/svg" xmlns:xlink="http://www.w3.org/1999/xlink" x="0px" y="0px"
	 viewBox="0 0 36.8 42.7" style="enable-background:new 0 0 36.8 42.7;" xml:space="preserve">
<style type="text/css">
	.st0{fill:#FFFFFF;}
</style>
<g>
	<g>
		<g>
			<path class="st0" d="M5,41.5c0.5-1.7,0.9-3.3,1.1-4.9l0.8,0.2c-0.3,1.6-0.6,3.1-1.1,4.7h2.4v0.8H0v-0.8H5z M3.7,35.4v-1.1h0.8
				v1.1H8v0.8H0.2v-0.8H3.7z M2.1,41.1c-0.2-1.4-0.5-2.8-1-4.2l0.8-0.2c0.5,1.7,0.8,3.1,1,4.2L2.1,41.1z"/>
			<path class="st0" d="M12.8,41.7l-3.1,0.7l-0.2-0.8l0.4-0.1v-6.9c0-0.2,0.1-0.2,0.2-0.2h3.2c0.2,0,0.2,0.1,0.2,0.2v4.1
				c0,0.2-0.1,0.2-0.2,0.2h-2.6v2.4l1.8-0.4L12,39.8l0.7-0.3c0.5,1,0.8,1.9,1,2.7L13,42.4L12.8,41.7z M10.7,36.4h2.1v-0.9
				c0-0.1-0.1-0.2-0.2-0.2h-1.7c-0.1,0-0.2,0.1-0.2,0.2V36.4z M12.8,37.1h-2.1v1.1h2c0.1,0,0.1,0,0.1-0.1
				C12.8,38.1,12.8,37.1,12.8,37.1z M15,42.5h-0.8v-7.9c0-0.1,0.1-0.2,0.2-0.2h2.9c0.1,0,0.2,0.1,0.2,0.2v6.5c0,0.2,0,0.9-1.1,0.9
				c-0.3,0-0.6,0-1-0.1V41c0.4,0.1,0.7,0.2,0.9,0.2c0.3,0,0.4-0.2,0.4-0.4v-5.5c0,0,0-0.1-0.1-0.1h-1.7c0,0-0.1,0-0.1,0.1v7.2H15z"
				/>
			<path class="st0" d="M20.2,38.2H19v-0.7h1.4c-0.4-0.5-0.8-0.9-1.2-1.1l0.5-0.5c0.2,0.2,0.5,0.4,0.7,0.7c0.4-0.4,0.8-0.8,1-1.2
				c0,0,0,0,0-0.1c0,0,0-0.1-0.1-0.1h-2.2v-0.7h2.8l0.5,0.3c-0.3,0.8-0.8,1.6-1.5,2.2l0.2,0.3l-0.2,0.2h1.2l0.5,0.3
				c-0.1,0.8-0.3,1.5-0.6,2.1l-0.7-0.2c0.3-0.5,0.6-1.1,0.6-1.4c0-0.1,0-0.1-0.1-0.1H21v3.5c0,0.4-0.3,0.9-0.9,0.9
				c-0.3,0-0.6-0.1-1-0.2v-0.8l0.5,0.2c0.1,0,0.2,0,0.3,0c0.2,0,0.3-0.1,0.3-0.3C20.2,41.5,20.2,38.2,20.2,38.2z M25.7,40.9h-1.8
				l0.4,0.4c-0.6,0.6-1.2,1.1-1.9,1.3c-0.1-0.3-0.2-0.5-0.3-0.7c0.6-0.2,1-0.6,1.5-1.1h-0.9c-0.1,0-0.1,0-0.1-0.1V36
				c0-0.1,0-0.1,0.1-0.1H24l0.2-0.7h-1.7v-0.7H27v0.7h-2l-0.2,0.7h1.9c0.1,0,0.1,0,0.1,0.1v4.8c0,0.1,0,0.1-0.1,0.1H26
				c0.4,0.3,0.8,0.7,1.3,1.2l-0.5,0.5c-0.6-0.6-1-1-1.4-1.3L25.7,40.9z M23.5,37.3h2.7v-0.7l0,0h-2.7l0,0V37.3z M23.5,38.8h2.7V38
				h-2.7V38.8z M26.2,39.5h-2.7v0.7l0,0h2.7l0,0V39.5z"/>
			<path class="st0" d="M28.5,42c0.3-1.1,0.4-2,0.4-2.8l0.7,0.1c0,0.8-0.2,1.7-0.4,2.8L28.5,42z M30.2,38.7l-1.4,0.2
				c0-0.2-0.1-0.5-0.2-0.7l0.6-0.1c0.2-0.2,0.5-0.5,0.8-0.9c-0.5-0.5-0.9-0.8-1.4-1.1l0.4-0.6c0,0,0.2,0.1,0.4,0.3
				c0.2-0.4,0.5-0.9,0.7-1.5l0.6,0.4c-0.2,0.4-0.5,0.9-0.8,1.5l0.5,0.4c0.4-0.6,0.6-1.1,0.8-1.7l0.7,0.2c-0.2,0.7-0.8,1.6-1.8,2.7
				l1.2-0.2L31.1,37l0.7-0.2c0.3,0.8,0.6,1.5,0.7,1.9L31.8,39l-0.2-0.5l-0.7,0.1v4h-0.7C30.2,42.6,30.2,38.7,30.2,38.7z M31.9,39.3
				l0.5,2.4l-0.7,0.2l-0.5-2.3L31.9,39.3z M33.1,35.7c-0.2,0.4-0.4,0.9-0.8,1.3l-0.6-0.4c0.7-0.9,0.8-1.3,1-2.3l0.8,0.1L33.4,35h3.1
				c0.2,0.1,0.3,0.1,0.3,0.4c0,1.4,0,2.6-0.1,3.7c0,1.8-0.4,2.9-1,3.3c-0.2,0.1-0.5,0.2-1,0.2c-0.4,0-0.9-0.1-1.6-0.2L33,41.5
				c0.6,0.2,1.1,0.3,1.5,0.3c0.5,0,0.8-0.2,1.1-0.9c0.1-0.4,0.2-1,0.2-1.9c0-1,0-1.8,0-2.3s0-0.8,0-0.9l-0.1-0.1
				C35.7,35.7,33.1,35.7,33.1,35.7z M34.1,40.2c-0.2-0.9-0.6-2-1-3.1l0.7-0.2c0.5,1.2,0.8,2.3,1,3.2L34.1,40.2z"/>
		</g>
	</g>
	<g>
		<path class="st0" d="M27.8,3.5h-3.9V0h-2.4v3.5h-5.9V0h-2.4v3.5H9.5c-1.3,0-2.4,1.1-2.4,2.3v15.8c0,1.3,1.1,2.4,2.4,2.4H28
			c1.3,0,2.4-1.1,2.4-2.4V5.8C30.3,4.5,29.1,3.5,27.8,3.5z M28.6,21.7c0,0.4-0.3,0.9-0.9,0.9H9.4c-0.4,0-0.9-0.3-0.9-0.9V7.4h20
			V21.7z"/>
		<rect x="13.1" y="10.8" class="st0" width="2.3" height="2.3"/>
		<rect x="17.5" y="10.8" class="st0" width="2.3" height="2.3"/>
		<rect x="22" y="10.8" class="st0" width="2.3" height="2.3"/>
		<rect x="13.1" y="15.1" class="st0" width="2.3" height="2.3"/>
		<rect x="17.5" y="15.1" class="st0" width="2.3" height="2.3"/>
		<rect x="22" y="15.1" class="st0" width="2.3" height="2.3"/>
	</g>
</g>
</svg>
