<?xml version="1.0" encoding="utf-8"?>
<!-- Generator: Adobe Illustrator 25.2.3, SVG Export Plug-In . SVG Version: 6.00 Build 0)  -->
<svg version="1.1" id="圖層_1" xmlns="http://www.w3.org/2000/svg" xmlns:xlink="http://www.w3.org/1999/xlink" x="0px" y="0px"
	 viewBox="0 0 36.8 40.9" style="enable-background:new 0 0 36.8 40.9;" xml:space="preserve">
<style type="text/css">
	.st0{fill:#FFFFFF;}
</style>
<g>
	<g>
		<g>
			<path class="st0" d="M5.4,39.8H2.7l0.2,0.6C2,40.7,1,40.9,0,40.9c0-0.2,0.1-0.4,0.1-0.5s0-0.1,0-0.2c0.1,0,0.2,0,0.3,0
				c0.6,0,1.3-0.1,2-0.4H1.1c-0.1,0-0.1,0-0.1-0.1v-3.6C1,36,1,36,1.1,36h6.2c0.1,0,0.1,0,0.1,0.1v3.6c0,0.1,0,0.1-0.1,0.1H5.6
				c1.1,0.1,2,0.3,2.5,0.4L8,40.9c-1-0.2-1.9-0.3-2.7-0.4L5.4,39.8z M5.5,33.3C5.8,33,6,32.7,6.1,32.5L6.7,33l-0.2,0.3h1.2l0.6,0.3
				c0,0.5-0.1,1.1-0.3,1.7l-0.7-0.2c0.2-0.5,0.2-0.9,0.3-1.1c0-0.1,0-0.1-0.1-0.1H0.9c0,0-0.1,0-0.1,0.1v1.4H0.1v-1.9
				c0-0.1,0-0.1,0.1-0.1h1.6l-0.2-0.3l0.6-0.4c0.2,0.2,0.4,0.4,0.5,0.8h1v-0.7h0.8v0.7h1V33.3z M6.7,35.6
				C6.7,35.6,6.7,35.7,6.7,35.6l-5.1,0.1c-0.1,0-0.1,0-0.1-0.1v-1.3c0-0.1,0-0.1,0.1-0.1h5c0.1,0,0.1,0,0.1,0.1V35.6z M1.7,37.1h4.9
				v-0.4l0,0H1.7l0,0V37.1z M1.7,38.1h4.9v-0.4H1.7V38.1z M6.6,38.7H1.7v0.5l0,0h4.8l0,0L6.6,38.7L6.6,38.7z M6.1,34.7H2.2l0,0v0.4
				l0,0h3.9l0,0L6.1,34.7L6.1,34.7z"/>
			<path class="st0" d="M13.8,39.9v-0.7h-2.4v-0.7h2.4v-0.6L11.2,38L11,37.3h0.8c0.3-0.3,0.5-0.7,0.7-1.1h-1.6v0.4
				c0,1.6-0.4,3.4-0.8,4.1l-0.8-0.3c0.5-1.1,0.8-2.5,0.8-4.1V33c0-0.2,0.1-0.3,0.3-0.3h6.7c0.2,0,0.3,0.1,0.3,0.3v1.6
				c0,0.2-0.1,0.3-0.3,0.3h-6.2v0.6h6.7v0.7H16c0.5,0.4,1.1,1,1.7,1.7l-0.5,0.5l-0.6-0.6l-2.1,0.1v0.6H17v0.7h-2.4v0.7h3.2v0.7h-7
				v-0.7C10.8,39.9,13.8,39.9,13.8,39.9z M11,33.5c-0.1,0-0.1,0-0.1,0.1v0.5h5.7c0.1,0,0.1,0,0.1-0.1v-0.4c0-0.1,0-0.1-0.1-0.1H11z
				 M15.4,36.6l0.4-0.4h-2.3c-0.2,0.3-0.4,0.6-0.7,1l3.2-0.1L15.4,36.6z"/>
			<path class="st0" d="M24.7,39.3h-5.8v-0.7h5.8v-0.5l-5.4,0.2l-0.1-0.7l3.4-0.1V37h-2.9c-0.1,0-0.1,0-0.1-0.1v-2.6
				c0-0.1,0-0.1,0.1-0.1h2.9v-0.5H19V33h3.7v-0.6h0.7V33h3.7v0.7h-3.7v0.5h3c0.1,0,0.1,0,0.1,0.1v2.6c0,0.1-0.1,0.1-0.1,0.1
				c0.3,0.4,0.6,0.7,0.8,1l-0.6,0.4L26.3,38h-0.8v0.6h1.7v0.7h-1.7V40c0,0.4-0.2,0.9-1,0.9c-0.3,0-0.7-0.1-1.2-0.2v-0.8l0.7,0.2
				l0.5,0.1c0.1,0,0.4,0,0.4-0.4v-0.5H24.7z M22.6,35.3v-0.5h-2.3l0,0v0.5H22.6z M22.6,36.4v-0.5h-2.3v0.5l0,0H22.6z M21.9,40.7
				c-0.3-0.3-0.7-0.6-1-0.8l0.5-0.6c0.4,0.3,0.7,0.6,1,0.8L21.9,40.7z M23.4,34.8v0.5h2.3v-0.5l0,0H23.4z M23.4,35.9v0.5h2.3l0,0
				v-0.5H23.4z M25.5,37.1L25.5,37.1L23.4,37v0.4l2.3-0.1L25.5,37.1z"/>
			<path class="st0" d="M29.7,37l-1.2,0.2c0-0.2-0.1-0.4-0.2-0.7l0.7-0.1l0.6-0.8c-0.4-0.4-0.9-0.7-1.3-1l0.3-0.6l0.4,0.2
				c0.3-0.5,0.5-1.1,0.8-1.7l0.6,0.3c-0.2,0.4-0.5,1-0.9,1.7L30,35c0.3-0.5,0.5-1,0.6-1.4l0.7,0.2c-0.2,0.7-0.6,1.5-1.4,2.5l0.8-0.1
				l-0.1-0.5l0.6-0.2c0.2,0.6,0.4,1.1,0.4,1.6L31,37.2l-0.1-0.4l-0.5,0.1v3.9h-0.7C29.7,40.8,29.7,37,29.7,37z M28.4,40.2
				c0.1-0.7,0.2-1.6,0.3-2.7l0.7,0.1c0,0.9-0.1,1.8-0.3,2.7L28.4,40.2z M30.9,39.4c-0.1-0.5-0.2-1.1-0.3-1.7l0.6-0.1l0.3,1.8H30.9z
				 M31.8,37.1h1.3l0.4,0.2c-0.3,1.1-0.6,1.8-1.7,3l-0.5-0.5c1-0.9,1.4-1.8,1.4-1.9c0-0.1,0-0.1-0.1-0.1h-0.7v-0.7H31.8z M34.4,36.4
				c0.1,0.5,0.3,1,0.5,1.4c0.5-0.4,0.9-0.7,1.1-1l0.5,0.6c-0.3,0.4-0.7,0.7-1.3,1.1c0.3,0.5,0.8,1.1,1.4,1.6L36,40.5
				c-0.7-0.7-1.2-1.4-1.7-2.3V40c0,0.3-0.1,0.9-0.9,0.9c-0.3,0-0.6-0.1-1.1-0.2v-0.8c0.4,0.1,0.7,0.2,0.9,0.2s0.3,0,0.3-0.3v-3.4
				h-1.9c-0.1,0-0.1,0-0.1-0.1v-3c0-0.1,0-0.1,0.1-0.1h1.5c0.1-0.3,0.2-0.5,0.3-0.7l0.7,0.3L34,33.3h2.1c0.1,0,0.1,0,0.1,0.1v3
				c0,0.1,0,0.1-0.1,0.1L34.4,36.4L34.4,36.4z M32.4,34.5h3.2v-0.6l0,0h-3.2l0,0V34.5z M35.6,35.2h-3.2v0.6l0,0h3.2l0,0V35.2z"/>
		</g>
	</g>
	<path class="st0" d="M20.8,18.3c-1.1,0-4.1-2.3-5.1-3.4s-3.4-4.1-3.4-5.1s2.8-2.3,2.8-2.8L12.8,0c0,0-0.5,0-2.3,0
		c-1,0-3.9,3.4-3.9,5.7s1.1,6.9,6.3,12s9.7,6.3,12,6.3s5.7-2.8,5.7-4.1c0-1.8,0-2.3,0-2.3l-6.9-2.3C23.1,15.4,22,18.3,20.8,18.3z"/>
</g>
</svg>
