<?xml version="1.0" encoding="utf-8"?>
<!-- Generator: Adobe Illustrator 25.2.3, SVG Export Plug-In . SVG Version: 6.00 Build 0)  -->
<svg version="1.1" id="圖層_1" xmlns="http://www.w3.org/2000/svg" xmlns:xlink="http://www.w3.org/1999/xlink" x="0px" y="0px"
	 viewBox="0 0 37.1 41.6" style="enable-background:new 0 0 37.1 41.6;" xml:space="preserve">
<style type="text/css">
	.st0{fill:#FFFFFF;}
</style>
<g>
	<g>
		<g>
			<path class="st0" d="M1,39.6v-3.5H0.1v-0.8H1v-2.1h0.8v2.1h0.8v0.8H1.8v3.1l0.7-0.5L3,39.3c-0.6,0.5-1.4,1-2.5,1.4L0,40.1L1,39.6
				z M3.3,37l-0.7,0.3l-0.4-0.7l1.1-0.5v-2.2H4v1.9l1.2-0.5v-2.1H6V35l1.6-0.7l0.5,0.2v3.2c0,0,0,1.1-1.2,1.1c-0.2,0-0.4,0-0.6-0.1
				V38l0.5,0.1c0.5,0,0.5-0.5,0.5-0.7v-2v-0.1h0L6,35.8v3.7H5.2v-3.3L4,36.7V40c0,0.3,0,0.5,0.5,0.5h2.4c0.6,0,0.6-0.3,0.6-0.7
				c0-0.2,0-0.4,0-0.7l0.8,0.1c0,0.2,0,0.4,0,0.5c0,0.6-0.1,1-0.2,1.2c-0.2,0.3-0.4,0.4-0.9,0.4h-3c-0.9,0-1-0.8-0.9-1.2
				C3.3,40.1,3.3,37,3.3,37z"/>
			<path class="st0" d="M10.7,41.2v0.4H9.9v-8c0-0.2,0.1-0.2,0.2-0.2h7.3c0.2,0,0.2,0.1,0.2,0.3v8h-0.7v-0.4L10.7,41.2L10.7,41.2z
				 M14.2,36.1H17v-2c0-0.1,0-0.1-0.1-0.1h-6.1c-0.1,0-0.1,0-0.1,0.1v2h2.8v-0.4h-2.2c-0.1,0-0.1,0-0.1-0.1v-1.3c0,0,0-0.1,0.1-0.1
				h5c0.1,0,0.1,0,0.1,0.1v1.3c0,0.1,0,0.1-0.1,0.1h-2.1C14.2,35.7,14.2,36.1,14.2,36.1z M16.9,36.7h-6.3v3.8h6.3V36.7z M16.5,40.1
				C16.5,40.2,16.5,40.2,16.5,40.1l-5.4,0.1c-0.1,0-0.1,0-0.1-0.1V37c0-0.1,0-0.1,0.1-0.1h5.3c0.1,0,0.1,0,0.1,0.1
				C16.5,37,16.5,40.1,16.5,40.1z M15.8,37.6h-4l0,0v2l0,0h4l0,0V37.6L15.8,37.6z M15.7,35.2c0-0.1,0-0.3,0-0.3h-3.8l0,0
				c0,0.2,0,0.3,0,0.3H15.7z M15.5,39.2C15.5,39.3,15.4,39.3,15.5,39.2l-3.2,0.1c-0.1,0-0.1,0-0.1-0.1v-1.3c0-0.1,0-0.1,0.1-0.1h3.1
				c0.1,0,0.1,0,0.1,0.1V39.2z M14.8,38.3h-1.9l0,0v0.4l0,0h1.9l0,0V38.3L14.8,38.3z"/>
			<path class="st0" d="M25.1,40h-5.8v-0.7h5.8V39h-2.2c-1.1,0-1.8-0.4-2.2-1c-0.1,0.3-0.7,0.9-1.4,1.1L19,38.5
				c0.9-0.3,1.1-0.6,1.2-1.1v-1c0-0.1,0-0.1-0.1-0.1h-1v-0.7h1.6c0.1,0,0.2,0.1,0.2,0.2v1.5c0,0.2,0.3,0.7,0.9,1
				c0.2,0.1,1.1,0.2,2.6,0.2c0.8,0,1.7,0,2.9,0V39h-1.4v0.3h1.6V40h-1.6v0.6c0,0.1,0,1-1.2,1c-0.4,0-0.8-0.1-1.4-0.2v-0.8
				c0.6,0.2,0.9,0.2,1.3,0.2c0.5,0,0.5-0.2,0.5-0.4C25.1,40.4,25.1,40,25.1,40z M20.4,35c-0.4-0.5-0.8-0.9-1.1-1.2l0.5-0.6
				c0.4,0.3,0.8,0.7,1.2,1.2L20.4,35z M21.7,41.4c-0.3-0.3-0.6-0.6-0.8-0.8l0.5-0.5c0.3,0.2,0.5,0.5,0.8,0.8L21.7,41.4z M27,37.8
				C27,37.9,26.9,37.9,27,37.8l-5.2,0.1c-0.1,0-0.1,0-0.1-0.1v-3c0-0.1,0-0.1,0.1-0.1h1.8l0.1-0.3h-2.5v-0.6h1.4l-0.2-0.3l0.6-0.4
				c0.1,0.2,0.3,0.4,0.4,0.7h1.7c0.2-0.3,0.3-0.5,0.4-0.6l0.6,0.4L26,33.8h1.4v0.6h-2.9l-0.1,0.3l0,0h2.5c0.1,0,0.1,0,0.1,0.1V37.8z
				 M22.3,35.7h3.9v-0.4l0,0H24l0,0h-1.7l0,0C22.3,35.3,22.3,35.7,22.3,35.7z M22.3,36.6h3.9v-0.4h-3.9V36.6z M26.3,37h-3.9v0.3l0,0
				h3.9l0,0V37z"/>
			<path class="st0" d="M31,37.8v2.5h-0.7v-2.5h-0.5v0.3c0,1-0.2,2.1-0.5,3.3l-0.8-0.2c0.3-1.2,0.5-2.3,0.5-3.3h-0.4l-0.1-0.7
				l0.5-0.1V34c0-0.1,0.1-0.2,0.2-0.2H30l0.2-0.7l0.7,0.2l0.1,0.6h1c0.1,0,0.2,0.1,0.2,0.2v2.8l0.5-0.1l0.1,0.7l-0.5,0.1v2.9
				c0,0.8-0.4,0.9-1.1,0.9c-0.2,0-0.4,0-0.6,0l-0.1-0.8c0.4,0.1,0.6,0.1,0.8,0.1c0.3,0,0.3-0.2,0.3-0.4v-2.7L31,37.8z M29.9,37.2
				l1.7-0.2v-2.3c0-0.1,0-0.1-0.1-0.1H30c-0.1,0-0.1,0-0.1,0.1V37.2z M30.4,35.8l-0.2-0.6l0.6-0.2c0.2,0.7,0.4,1.2,0.5,1.5l-0.6,0.1
				L30.4,35.8z M34.1,36C34,36,34,36,34.1,36L34,38c0,1.6-0.3,2.7-1,3.5L32.3,41l0.3-0.4c0.4-0.6,0.6-1.6,0.6-2.8v-2.3v-0.1h0.1h2.2
				h0.1l0.1,0.1v4.9c0,0.3,0.1,0.3,0.3,0.4l0.1-0.1c0.1,0,0.1-0.2,0.1-0.5V39l0.7,0.1l0.1,1.6c-0.1,0.5-0.5,0.7-0.8,0.7h-0.5
				c-0.5,0-0.8-0.4-0.8-0.7v-4.6c0-0.1,0-0.1-0.1-0.1C34.8,36,34.1,36,34.1,36z M34.2,33.9v-0.6H35v0.6h1.8v0.8h-4.2v-0.8H34.2z"/>
		</g>
	</g>
	<path class="st0" d="M26.8,8c0-4.4-3.6-8-8-8s-8,3.6-8,8c0,1.5,0.4,2.8,1.1,4l0,0l6.9,12l6.9-12l0,0C26.4,10.8,26.8,9.5,26.8,8z
		 M18.7,12.2c-2.2,0-4.2-1.8-4.2-4.2s1.8-4.2,4.2-4.2s4.2,1.8,4.2,4.2S21,12.2,18.7,12.2z"/>
</g>
</svg>
