<?xml version="1.0" encoding="utf-8"?>
<!-- Generator: Adobe Illustrator 25.2.3, SVG Export Plug-In . SVG Version: 6.00 Build 0)  -->
<svg version="1.1" id="圖層_1" xmlns="http://www.w3.org/2000/svg" xmlns:xlink="http://www.w3.org/1999/xlink" x="0px" y="0px"
	 viewBox="0 0 37.1 43.5" style="enable-background:new 0 0 37.1 43.5;" xml:space="preserve">
<style type="text/css">
	.st0{fill:#FFFFFF;}
</style>
<g>
	<g>
		<g>
			<path class="st0" d="M2.9,41.4c-0.2-0.4-0.5-0.9-0.8-1.3v3.4H1.4v-3.2l-0.7,1.4L0,41.4c0.5-0.8,1-1.6,1.2-2.5H0.1v-0.7h1.3v-3.1
				h0.7v3.1h1v0.7h-1C2.6,39.6,3,40.3,3.5,41L2.9,41.4z M0.5,37.8c-0.1-0.6-0.2-1.3-0.4-2l0.7-0.1c0.2,0.7,0.3,1.4,0.4,2L0.5,37.8z
				 M2.4,37.7c0.2-0.6,0.4-1.3,0.6-2l0.7,0.2c-0.2,1-0.5,1.7-0.6,2.1L2.4,37.7z M2.8,42.8c1.3-0.7,2.1-1.9,2.2-3.6H4.2v-0.5
				C4,39,3.9,39.3,3.7,39.6c-0.2-0.2-0.4-0.4-0.6-0.4c0.6-0.8,0.9-1.7,1.1-2.7l0.7,0.2c-0.1,0.5-0.3,1.2-0.6,1.8h2.9
				C7,38,6.8,37.2,6.6,36.2c0,0,0,0-0.1,0H4.8v-0.8h2.3c0.1,0,0.2,0.1,0.2,0.2c0.2,1.9,0.6,2.7,1.2,3.6l-0.7,0.3L7.5,39v2.3
				C7.4,43,7,43.5,6.1,43.5c-0.3,0-0.6,0-1-0.1v-0.8c0.4,0.1,0.7,0.2,0.9,0.2c0.3,0,0.5-0.1,0.6-0.4c0.2-0.5,0.2-2.2,0.2-2.5
				s0-0.5,0-0.5H6.7h-1c-0.2,2-1,3.4-2.4,4.2L2.8,42.8z"/>
			<path class="st0" d="M11.5,39.5l-1.6,0.2c0-0.2-0.1-0.4-0.2-0.7l0.9-0.1c0.2-0.2,0.5-0.5,0.8-0.9c-0.5-0.5-1-0.8-1.5-1.1l0.3-0.6
				c0.1,0,0.2,0.1,0.5,0.3c0.3-0.4,0.5-0.9,0.8-1.4l0.6,0.4c-0.2,0.4-0.5,0.9-0.9,1.5l0.6,0.5c0.4-0.6,0.6-1.1,0.8-1.7l0.6,0.2
				c-0.2,0.7-0.8,1.6-1.7,2.8l1.2-0.2L12.4,38l0.7-0.3c0.3,0.6,0.6,1.3,0.7,1.9l-0.7,0.2l-0.2-0.5l-0.7,0.1v4h-0.7V39.5z M9.7,42.6
				c0.4-1,0.6-1.8,0.7-2.5l0.7,0.2c-0.3,1.1-0.5,1.9-0.7,2.5L9.7,42.6z M13.4,40.1l0.3,1.8L13,42.1l-0.3-1.8L13.4,40.1z M15.6,39.5
				l-1.5,0.2c0-0.2-0.1-0.5-0.2-0.7l0.8-0.1l0.6-0.7c-0.5-0.6-1.1-1-1.6-1.4l0.4-0.6c0.1,0,0.3,0.1,0.6,0.4c0.3-0.5,0.5-1,0.8-1.5
				l0.6,0.4c-0.2,0.4-0.5,0.9-0.9,1.6l0.6,0.6c0.4-0.6,0.7-1.2,0.9-1.8l0.7,0.2c-0.2,0.6-0.7,1.6-1.7,2.7l1.4-0.2l-0.3-0.7l0.7-0.3
				c0.3,0.6,0.6,1.3,0.8,1.9l-0.7,0.2l-0.1-0.4l-0.9,0.1v4h-0.7v-3.9H15.6z M13.7,42.7c0.4-0.9,0.6-1.8,0.8-2.7l0.7,0.2
				c-0.2,1.1-0.5,2-0.8,2.7L13.7,42.7z M17.5,39.9l0.6,2.8l-0.7,0.2l-0.6-2.7L17.5,39.9z"/>
			<path class="st0" d="M25.1,41.9h-5.8v-0.7h5.8v-0.5l-5.4,0.2l-0.1-0.7L23,40v-0.4h-2.9c-0.1,0-0.1,0-0.1-0.1v-2.6
				c0-0.1,0-0.1,0.1-0.1H23v-0.5h-3.7v-0.7H23V35h0.7v0.6h3.7v0.7h-3.7v0.5h3c0.1,0,0.1,0,0.1,0.1v2.6c0,0.1-0.1,0.1-0.1,0.1
				c0.3,0.4,0.6,0.7,0.8,1L26.9,41l-0.3-0.4h-0.8v0.6h1.7v0.7h-1.7v0.7c0,0.4-0.2,0.9-1,0.9c-0.3,0-0.7-0.1-1.2-0.2v-0.8l0.7,0.2
				l0.5,0.1c0.1,0,0.4,0,0.4-0.4v-0.5C25.2,41.9,25.1,41.9,25.1,41.9z M23,37.9v-0.5h-2.3l0,0v0.5H23z M23,39v-0.5h-2.3V39l0,0H23z
				 M22.2,43.3c-0.3-0.3-0.7-0.6-1-0.8l0.5-0.6c0.4,0.3,0.7,0.6,1,0.8L22.2,43.3z M23.8,37.4v0.5h2.3v-0.5l0,0H23.8z M23.8,38.5V39
				h2.3l0,0v-0.5H23.8z M25.9,39.7L25.9,39.7l-2.1-0.1V40l2.3-0.1L25.9,39.7z"/>
			<path class="st0" d="M28.8,42.7c0.9-0.1,1.7-0.3,2.4-0.8l0.4,0.7c-0.9,0.5-1.8,0.8-2.6,0.9L28.8,42.7z M36.3,41.8
				C36.3,41.9,36.3,41.9,36.3,41.8l-6.6,0.1c-0.1,0-0.1,0-0.1-0.1V37c0-0.1,0-0.1,0.1-0.1h2.4l0.2-0.7h-3.5v-0.7H37v0.7h-3.9
				l-0.2,0.7h3.2c0.1,0,0.1,0,0.1,0.1v4.8H36.3z M30.3,38.3h5.2v-0.7l0,0h-5.1l0,0v0.7H30.3z M35.5,40.5h-5.2v0.6l0,0h5.1l0,0v-0.6
				H35.5z M30.3,39.7h5.2V39h-5.2V39.7z M36.8,43.5c-1-0.4-1.9-0.7-2.6-0.8l0.1-0.8c0.8,0.1,1.7,0.4,2.7,0.8L36.8,43.5z"/>
		</g>
	</g>
	<path class="st0" d="M18.8,0C12.2,0,6.8,5.4,6.8,12.1c0,6,4.5,11,10.3,11.9V13.4h-1.9v-3.2H17V9.6c0-3.9,2.5-5.7,5.3-5.7
		c1,0,1.7,0.2,2.3,0.3l-0.3,3.3c-0.3-0.1-0.8-0.2-1.2-0.2c-1.8,0-1.8,1.8-1.8,2.8h2.5v3.2h-2.5v10.5c5.4-1.2,9.4-6,9.4-11.7
		C30.9,5.4,25.4,0,18.8,0z"/>
</g>
</svg>
