<?xml version="1.0" encoding="utf-8"?>
<!-- Generator: Adobe Illustrator 25.2.3, SVG Export Plug-In . SVG Version: 6.00 Build 0)  -->
<svg version="1.1" id="圖層_1" xmlns="http://www.w3.org/2000/svg" xmlns:xlink="http://www.w3.org/1999/xlink" x="0px" y="0px"
	 viewBox="0 0 297 104" style="enable-background:new 0 0 297 104;" xml:space="preserve">
<style type="text/css">
	.st0{fill:#F5E800;}
</style>
<g>
	<g>
		<path class="st0" d="M33.7,22.9H35c2.3,0,3.6,0.7,3.9,2.2c0,0.6-0.9,2.7-2.8,6.3C36,31.8,36,32.2,36,32.4c0,0.8,0.1,3.6,0.4,8.3
			c0,3.9-0.7,7.3-2.2,10c3.4,0,9.5,2.2,18.4,6.6c1,0.4,2.1,0.6,3.5,0.6h9.2c4.3,0,7.5-0.1,9.6-0.4h1c2,0,3.3,0.4,4,1.2v0.2
			c0,0.8-1.9,1.2-5.7,1.3c-3.3,0-8.2,0-14.7,0.1c-7.4,0-12.7-1.3-16-3.9c-5.3-3-8.8-4.5-10.5-4.5c-1.2,0.7-2.4,1.1-3.6,1.1
			c-2-0.2-3-0.5-3-1v-0.2c0.5-0.7,1.3-1.1,2.5-1.1c0.8,0,1.6-2.4,2.4-7.1c0.1-1.1,0.1-1.8,0.1-2.3c0-2.1-0.3-5.5-0.8-10.2
			c0-0.6,0.5-2.5,1.6-5.8v-0.4c-3.7,0.5-6.1,0.7-7.1,0.7c-1.7,0-2.9-0.4-3.4-1.1v-0.2C21.7,24,25.7,23.5,33.7,22.9z M59.4,3.6
			c2.3,0.1,3.5,0.4,3.5,1.1c-0.1,3-0.1,4.6-0.1,4.8h0.1l4.8-0.6c2.3,0.2,3.6,0.5,3.7,1.1v0.1c0,0.5-2.9,1.1-8.7,1.8v0.6
			c0,0.8,0,2.1-0.1,3.9c4-0.4,7-0.6,9.2-0.6h0.2c2.1,0,3.5,0.4,4.1,1.1c0,0.8-1.1,1.2-3.3,1.2C72.6,18,72.5,18,72.4,18
			c-11.5,0.9-20.9,1.9-28.2,3.3c0,0.1-0.9,0.2-2.7,0.4c-1.6,0-2.9-0.3-3.9-1c-0.6,0.2-1.2,0.2-1.7,0.2h-0.6c-2.5,0-3.7-0.6-3.7-1.7
			c-2-3.4-3.8-6.7-5.3-9.9V9.2c0-0.4,1.1-0.7,3.3-0.8c2.9,0,4.3,0.6,4.3,1.8c2.9,5.3,4.3,8.4,4.3,9.4c0.1,0,0.1,0,0.1,0.1
			c9-1.5,15-2.4,17.8-2.7v-4.2L44.6,14c-2.3-0.2-3.5-0.6-3.5-1.1v-0.2c0-0.5,4-1,11.9-1.7c1.8-0.3,2.9-0.5,3.4-0.6
			C56.4,6.1,56.6,4,57,4C57.7,3.7,58.5,3.6,59.4,3.6z M66.8,22.4h0.1c2.9,0,4.3,1,4.3,2.9v0.5c-0.3,3.8-1.1,5.7-2.7,5.7
			c0,0.1-0.6,0.1-1.7,0.2c-0.1-0.1-0.3-0.1-0.5-0.1h-0.6c-2.3,0-3.9,0.6-4.8,1.9c-0.2,0-1.8,1.3-4.8,3.9h0.7c1.7,0,3.5,1,5.4,3
			c1-0.7,2.9-2.3,5.9-4.9c0.2-0.2,1-0.3,2.3-0.4c2.2,0.2,3.3,0.5,3.3,1v0.1c-3.2,3.1-6.1,5.4-8.6,6.9v0.1c3.3,2.9,6.1,5,8.2,6.1
			c0.1,0,0.3,0.2,0.5,0.5v0.4c0,0.4-1,0.7-3,0.8c-2.5,0-4.4-0.8-5.8-2.4L60.8,45h-0.4c-1.7,0-2.7-0.3-3.1-0.8V44l1.4-1.2
			c-1.7-1.6-2.9-2.8-3.6-3.4v0.1c0.5,3,0.7,5.8,0.7,8.6v0.6c0,1.3-0.4,1.9-1.2,1.9c-0.3,0.1-0.7,0.1-1.1,0.1h-1.1
			c-1.8,0-2.8-0.5-2.8-1.6v-0.1c0-2.2-0.1-4.4-0.2-6.8h-0.1c-4.3,3-6.9,4.5-7.7,4.5h-1.4c-1.4-0.1-2.2-0.3-2.2-0.7
			c0.1-0.2,2.4-1.7,7-4.6c3.7-2.5,7-5.1,10.1-7.6h-0.2c-3.6,0.9-5.7,1.3-6.3,1.3h-0.1c-2.1,0-3.4-0.4-3.9-1.1c0-0.4,1.2-0.9,3.5-1.3
			v-0.1c-1-4.8-1.4-7.9-1.4-9.3c0.7-0.3,1.4-0.5,2.3-0.5h0.2c2.3,0,3.4,0.4,3.4,1.2C61.4,23,66.1,22.4,66.8,22.4z M53,26l0.8,5.4
			c3.2-0.7,6.2-1.3,9.2-1.8c0.7-2.6,1.1-4.2,1.1-4.8H64L53,26z"/>
		<path class="st0" d="M100.5,4.2c2.1,0.1,3.4,0.5,3.7,1.1l-0.4,5.8c3.8-0.5,6.4-0.7,8-0.7h0.6c1.3,0,2.2,0.3,2.8,0.8v0.4
			c0,0.4-3.3,0.9-10,1.6c-4.6,0.6-9.1,1-13.5,1h-0.8c-1.4,0-2.5-0.4-3-1.1v-0.1c0-0.5,3-0.9,8.9-1c0-0.1,0.4-0.1,1.2-0.1
			c0-1,0.1-3.3,0.2-7C98.6,4.4,99.4,4.2,100.5,4.2z M124.3,5.6c2.4,0.1,3.6,0.5,3.6,1.2c-2.1,3.9-4.3,7.6-6.5,11.1
			c0.5,0.2,0.9,1,1.1,2.4v0.5c0.8-0.2,4.4-0.5,10.7-1.1v-0.1c-1.8,0-2.8-0.6-2.8-1.8L128.7,8c0.5-0.2,1.1-0.4,1.7-0.4h0.7
			c2.4,0,3.6,0.6,3.6,1.9c0.6,3,1.1,5.8,1.3,8.4c-0.1,0.7-0.2,1.2-0.2,1.3h1.8c2.7,0.1,4,0.6,4,1.6c-0.3,0.3-0.8,0.5-1.6,0.5h-0.8
			c-0.5,0-1,0-1.6-0.1c-0.9,0.2-1.6,0.2-2.3,0.2c0.2,0.5,0.2,1.5,0.2,3.1v5.5c1.3-0.2,2.1-0.2,2.5-0.2c2,0,3.4,0.4,4.2,1.2v0.4
			c0,0.4-0.6,0.6-1.8,0.7h-1.3c-0.5,0-1.7,0.1-3.6,0.4v5.8h1.9c1.1,0,1.9,0.3,2.3,0.8v0.1c0,0.4-1.4,0.8-4.2,1.2
			c0,1-0.1,4.3-0.4,9.9h1.8c6.2,0,9.3,0.4,9.3,1.3v0.5c0,0.3-0.7,0.5-2.2,0.6h-5.4c-3.1,0-7.7,0.1-13.9,0.2l-1.6-0.2
			c-0.1,4.7-0.5,7-1.1,7c-0.1,0.1-0.3,0.1-0.5,0.1h-1.4c-1.7,0-2.5-0.4-2.5-1.3c0.5-8.8,0.7-15,0.7-18.7c0-5.2-0.2-10.7-0.7-16.5
			h-0.1c-0.3,0.2-0.5,0.2-0.7,0.2h-1.7l-1.4-0.1c-0.4,5.4-0.7,8.1-0.8,8.1c-0.6,0.2-1,0.2-1.4,0.2h-0.4c-1.8-0.1-2.9-0.4-3-0.8v-0.6
			c-5.4,1-9.4,1.6-12.1,1.6h-2c-2.9,0-4.6-0.6-5.2-1.9c-0.1-0.1-0.1-0.3-0.1-0.5l0.4-11.5c0.4-0.3,0.9-0.5,1.7-0.5H91
			c1.7,0,2.7,0.3,3.1,1l-0.5,11.5c0.1,0.2,0.1,0.3,0.1,0.4h0.4c3.9,0,8.6-0.8,14.1-2.4c0.3-6.4,0.7-9.5,1-9.5l0.8-0.1h1.8
			c1.5,0,2.3,0.4,2.3,1.3v0.4h0.1L122.5,6C122.7,5.8,123.3,5.7,124.3,5.6z M101.6,34.2h0.4c2.2,0.1,3.3,0.5,3.3,1.1
			c-0.4,1.3-0.7,2.1-0.8,2.4h0.1c3.3-0.8,5.6-1.2,6.8-1.2h0.4c3.1,0,4.7,0.9,4.7,2.7c0.2,0.1,0.4,1.5,0.5,4.2
			c-0.4,10.5-1.4,15.8-3,15.8c-0.4,0.1-0.8,0.1-1.1,0.1h-1c-2,0-3.6-0.7-4.9-2.2V57c0.2-0.4,0.8-0.6,1.8-0.6h1l0.2,0.1
			c1-4.8,1.4-9.2,1.4-13.1v-2.4c0-0.6-0.1-1.3-0.2-2.3c-5.1,1.1-7.7,1.8-7.7,2c-0.6,2.1-1.4,4.3-2.3,6.4h0.1
			c1.7-0.7,2.9-1.1,3.4-1.1c-0.5-1.6-0.7-2.5-0.7-2.8v-0.1c0-0.3,0.5-0.4,1.6-0.5h0.7c2.3,0,3.4,0.6,3.4,1.9
			c0.1,0.1,0.5,1.4,1.2,3.9v0.2c0,0.3-0.7,0.4-2,0.5c-1.5,0-2.6-0.3-3.4-1c-2.8,1.1-4.9,1.7-6.3,1.7h-0.1c-2.2,0-3.5-0.4-3.9-1.2
			l2.3-6.5h-0.1l-2.4,0.7c0,0.9-0.1,5.6-0.4,14.1c-0.3,0.3-0.7,0.5-1.2,0.5h-1.4c-1.8-0.1-2.7-0.5-2.7-1.1c0-4.8,0.1-9.4,0.2-13.9
			l-0.1-0.2c0.1-0.4,0.1-0.8,0.1-1.1v-1.9c0-0.8,0-2,0.1-3.6c0.4-0.2,0.9-0.4,1.6-0.4h1c1.3,0,2.2,0.3,2.8,0.8v4.1
			c2.5-0.5,3.7-0.9,3.7-1.3c0.9-3.1,1.5-4.6,2-4.6C101,34.2,101.3,34.2,101.6,34.2z M106.4,14.4c1.9,0.2,2.9,0.5,2.9,1
			c-0.7,1.1-2.4,3.2-4.8,6.5l3.6,2.9v0.1c0,0.3-0.6,0.5-1.9,0.6c-1.4,0-2.7-0.4-3.6-1.2c-2.1,3-3.4,4.5-4,4.5h-1.7
			c-1.1,0-1.8-0.3-2.2-0.8v-0.1l4.7-6c-2.6-2.2-4.7-4-6.1-5.4v-0.2c0-0.3,0.5-0.4,1.6-0.5h0.7c1.5,0,2.8,0.6,3.7,1.7l2,1.8
			c2.4-3.1,3.7-4.6,3.7-4.6C105.7,14.5,106.1,14.5,106.4,14.4z M122.7,22c0.3,1.4,0.6,4.6,0.8,9.6l6.5-0.7c-0.1-3.7-0.1-6.6-0.1-8.7
			v-0.1l-4.5,0.4C124.5,22.4,123.6,22.2,122.7,22z M123.8,40.6v0.1c0,0.8-0.1,4.2-0.2,10c2.6-0.1,4.4-0.1,5.7-0.1h0.4
			c0.2,0,0.2-0.1,0.2-0.2c0-0.7,0-1.3-0.1-1.7c0.1-1.5,0.1-2.9,0.1-4.1v-2.7l0.1-0.6h-1.2C126.7,41.3,125,41.1,123.8,40.6z
			 M124,33.8c-0.2-0.1-0.3-0.1-0.4-0.1v0.2c0,1.2,0,3.1,0.1,5.7c0.8-0.2,1.4-0.2,1.8-0.2c0.2,0,1,0.1,2.2,0.2
			c1.4-0.1,2.2-0.2,2.2-0.4c0-0.7,0-2.7,0.1-5.9h-0.1L124,33.8z"/>
		<path class="st0" d="M185.2,3.8h1.9c2.1,0,3.1,0.6,3.1,1.9l0.2,4.6h4.7c1,0,4-0.1,8.9-0.4c3.1,0.2,4.6,0.7,4.6,1.4v0.1
			c0,0.9-8.9,1.3-26.6,1.3c-3.2,0.1-5.8,0.1-7.8,0.1c-3.2-0.1-5.2-0.1-5.9-0.1v16c0,13.6-2.2,23.9-6.6,31.1c-0.4,0.2-1,0.4-1.8,0.4
			h-0.2c-1.5,0-2.3-0.3-2.4-0.8c2.7-5.7,4.1-12.4,4.1-20.1v-2.2c0-3.9-0.1-12.6-0.2-26.2c0.7-0.4,1.5-0.6,2.3-0.6
			c1.6,0,4.8,0.1,9.8,0.2c1.5,0,4.8-0.1,10.1-0.2c-0.2-1.1-0.3-3.1-0.5-5.9C183.2,4,184,3.8,185.2,3.8z M185.4,40.5h1.2
			c2.3,0,3.4,0.5,3.4,1.4v5.2c6.5-0.6,10-0.8,10.6-0.8h0.2c2.1,0.1,3.3,0.4,3.5,1v0.4c0,0.7-4.8,1.4-14.3,1.9v7.1
			c3.1-0.1,5.4-0.2,6.8-0.2c3.3,0,7.5,0.6,12.4,1.9c0.3,0.2,0.5,0.4,0.5,0.5v0.4c0,0.4-1,0.7-3.1,0.8c-1,0-3.4-0.4-7.2-1.2
			c-0.3-0.2-1-0.2-1.9-0.2H197c-1.1,0-6.9,0.3-17.5,1h-0.6c-6.2,0-9.4-0.5-9.5-1.4c0-0.5,0.9-0.8,2.7-1h1.1c0.5,0,1.4,0.2,2.8,0.5
			h0.2c2.4,0,4.7-0.1,7-0.4v-7.5h-8.4c-2.1-0.2-3.1-0.6-3.1-1.2c0.1-0.6,1.1-1,2.9-1h7.5l1.2-0.1v-6.3
			C183.3,40.7,184,40.5,185.4,40.5z M180.2,13c2.3,0.1,3.4,0.5,3.4,1V18c1.8-0.2,3-0.3,3.5-0.4V14c0.1-0.4,1-0.7,2.8-0.7
			c2.5,0.2,3.7,0.5,3.7,1.1v2.8c3-0.2,5.2-0.2,6.5-0.2c0.2-0.4,0.9-0.6,2.3-0.7c2.2,0,3.3,0.5,3.3,1.4c0.1,3.3,0.1,5.8,0.1,7.4
			c-0.6,0.3-1.2,0.5-1.7,0.5l0.1,0.6c0,0.7-3.6,1.2-10.9,1.7v1.3l-0.1,0.2h0.1c1.8,0,3,0.3,3.5,1l-0.4,2c0.4,0,2.7-0.1,6.9-0.4h0.2
			c1,0,1.7,0.2,2,0.7v0.1c0,0.6-2.6,1-7.7,1.1h-1.4c-0.2,0-0.4,1.6-0.6,4.8c0,1.1,0.5,1.9,1.4,2.3c2.6,0,4.3-1.2,5.2-3.5
			c0.5-0.5,1.3-0.7,2.7-0.7c2.3,0.2,3.4,0.5,3.4,1v0.8c0,1.3-0.8,2.4-2.5,3.3c-2,0.7-4.4,1.1-7,1.1h-1.4c-4,0-6.6-1-7.7-3.1v-0.7
			c0-0.8,0.1-2.2,0.2-4.1c-5,0.4-8.9,0.7-11.7,0.8c0.1,1.6,0.1,2.8,0.1,3.6v0.7h1c1.3,0,2.2,0.3,2.8,0.8v0.2
			c-2.6,2.6-4.7,3.9-6.4,3.9c-2.7-0.2-4-0.6-4-1.4l0.1-0.8v-2.8c0-3.1-0.1-6-0.4-8.9c0.5-0.4,1.3-0.6,2.4-0.6h0.7
			c2.3,0,3.4,0.5,3.4,1.6c0.1,0.5,0.1,1.2,0.1,2v0.1c0,0.2,0.1,0.2,0.2,0.2l10.6-0.7c0.3,0,0.7,0.1,1.2,0.2c0.1-1.3,0.2-2.5,0.5-3.6
			h-0.7c-1.9,0-2.9-0.5-2.9-1.6v-0.7h-0.1c-2,0.1-3.3,0.1-3.6,0.1c-0.1,0.4-0.8,0.6-2.3,0.7c-1.4,0-2.5-0.2-3.1-0.7h-4.9
			c-1.5,0-2.6-0.4-3.3-1.1v-0.4c0.3-0.6,1.3-0.8,3-0.8h4.8v-4.7h-0.1c-1.7,0.2-3,0.2-3.6,0.2h-0.5c-1.6,0-2.8-0.4-3.5-1.2v-0.2
			c0-0.5,2.6-1,7.7-1.4v-4.2C177.7,13.4,178.5,13,180.2,13z M183.6,20.7c-0.1,0.4-0.1,0.8-0.1,1.1v4.1c1.7-0.1,2.9-0.1,3.6-0.1v-5.5
			C185.3,20.4,184.1,20.5,183.6,20.7z M193.6,19.7v4.7l-0.1,0.8c4.3-0.3,6.4-0.5,6.4-0.7c0-1.1,0.1-2.9,0.4-5.3
			C196.5,19.5,194.3,19.6,193.6,19.7z"/>
		<path class="st0" d="M250.9,4.7c2.3,0,3.4,0.6,3.4,1.7c7.4-1,11.3-1.6,11.7-1.6h0.6c2.8,0,4.2,0.9,4.2,2.7v0.6
			c0,1.3-0.1,2.4-0.4,3.1c0.3,0,0.6,0.2,0.8,0.6c0,0.8-4.8,1.4-14.5,1.7h-1.1v0.1l0.1,0.8c3.4-0.2,6.4-0.2,9.2-0.2h0.7
			c3.9,0,6.3,0.4,7.1,1.2v0.5c0,0.4-1.1,0.7-3.4,0.7h-0.4c-6.5,0-12.6,0.3-18.4,1c0,0.3-1.3,1.8-4,4.6h0.1c8-1,12.5-1.6,13.6-1.6
			h1.6c2,0,3,1,3,2.9c0.1,1.5,0.1,3.2,0.1,4.9v0.8c0.4,0.3,0.6,0.5,0.6,0.6v0.4c0,0.1-0.2,0.3-0.6,0.6V38c0,0.5-0.2,0.9-0.5,1.2
			c5.9,1.2,8.9,2.1,8.9,2.5c0.2,0,0.2,0.1,0.2,0.2v0.1c-0.3,0.6-1.1,0.8-2.4,0.8h-1.1c-1.9,0-7.5-1.5-16.6-4.5
			c-0.2-0.2-0.2-0.3-0.2-0.4v-0.4c0.2-0.4,1-0.6,2.7-0.7c1.1,0.1,2.1,0.2,3,0.4v-1.9c-5.9,0.7-9.1,1.2-9.4,1.3
			c-4.6,3.1-8.7,5.4-12.4,7c-2.3,0.8-3.7,1.2-4.3,1.2h-0.7c-1.2,0-2-0.2-2.4-0.7v-0.1c0-0.2,1.8-0.9,5.2-2c0.6-0.3,1-0.5,1-0.6
			c-1.1,0-1.7-0.6-1.7-1.9v-0.1c-0.1-6.5-0.2-12-0.4-16.8c0.6-0.3,1.3-0.5,2.2-0.5h0.5c1.9,0.1,3,0.4,3.3,1c1.6-1.3,3.2-3,4.9-5.2
			c-2.7,0.2-6.3,0.4-10.7,0.4h-4.9c-1.6,0-2.7-0.4-3.4-1.2v-0.2c0-0.6,2.8-1,8.4-1c3.3,0,8.9-0.3,16.8-1c-0.7-2.5-1.4-5.8-2-9.8
			C249.2,4.9,249.9,4.8,250.9,4.7z M229.7,45h0.5c2.3,0,3.5,0.6,3.5,1.7v0.8c5.2-1,8.3-1.6,9.3-1.6h1.1c2.4,0,3.6,0.9,3.6,2.8v1.8
			c0,3.4-0.7,5.1-2.2,5.1c-0.9,0.3-4,1-9,1.9h-0.8l-1.4-0.1v1.7c-0.2,0.4-0.8,0.6-1.8,0.6h-1.6c-1.8,0-2.7-0.7-2.7-2
			c-0.2-5.2-0.5-9.3-0.7-12.1C227.9,45.2,228.6,45,229.7,45z M229.8,4.5h1c1.9,0,2.9,0.5,2.9,1.6v0.5c3.6-1,6.1-1.4,7.4-1.4h1.2
			c2.1,0,3.4,0.7,4,2.2c0.3,1,0.5,2.1,0.5,3.3v0.1l1.3,0.7c0.2,0,0.2,0.1,0.2,0.2v0.2c0,0.2-0.6,0.4-1.8,0.7c0,0.7-0.8,1.1-2.3,1.1
			h-0.5c-1.1,0-2-0.2-2.7-0.5c-3.5,0.6-5.6,0.8-6.4,0.8h-0.8v1.1c0,0.3-0.8,0.5-2.3,0.6c-2.2,0-3.3-0.5-3.3-1.4
			c-0.3-1.8-0.5-4.7-0.5-8.7V5.1C227.7,4.7,228.4,4.5,229.8,4.5z M233.8,11.9l6.8-1c0-0.2-0.1-1.4-0.4-3.6l-6.4,1.6V11.9z
			 M233.9,49.8c0.2,2.9,0.2,4.8,0.2,5.8c1.6-0.4,3.7-0.8,6.1-1.3c0.6-2.9,1-4.8,1-5.9c-2.9,0.6-5.3,1-7.4,1.3V49.8z M239.9,25v1.4
			c3.7-0.2,9.7-0.8,18-1.8h1.2c0.2,0,0.2-0.1,0.2-0.2v-0.2l-0.1-1.4C247.8,24.2,241.4,25,239.9,25z M240,28.5v3
			c2.1,0,8.5-0.8,19.3-2.4v-2.5C249.9,27.8,243.5,28.5,240,28.5z M240,33.9v1.4c2.1,0,8.5-0.8,19.2-2.3v-1.3
			C253.7,32.5,247.3,33.2,240,33.9z M240,37.5v2c1.5-0.7,2.7-1.5,3.7-2.3h-0.1C241.4,37.4,240.2,37.5,240,37.5z M252.9,45.6h0.8
			c1.8,0,2.7,0.6,2.7,1.7c0,0.5,0.1,0.7,0.2,0.7c5.5-0.6,8.7-1,9.4-1h1.1c2.6,0.2,3.9,0.8,3.9,1.8c0.3,0.2,0.5,1.8,0.6,4.9
			c0.6,0.2,1,0.4,1.1,0.7v0.2c0,0.3-0.4,0.5-1.2,0.6v0.7c0,1.7-0.7,2.5-2.2,2.5h-1.9c-1.6,0-2.5-0.4-2.8-1.1c0-0.1,0.1-0.4,0.2-0.7
			c-2.9,0.7-4.7,1.1-5.3,1.1h-1.3c-1.4-0.2-2.1-0.2-2.2-0.2c-0.2,0-0.5,0-1,0.1c-2.2,0-3.3-0.7-3.3-2c-0.4-3.9-0.7-7.1-0.8-9.6
			C251.3,45.7,252,45.6,252.9,45.6z M254.7,8.6l0.5,3l8.8-0.5c0.2-1,0.4-2.3,0.4-3.9L254.7,8.6z M256.7,49.8
			c0.3,3.1,0.5,5.1,0.5,5.9c0.1,0,0.1,0,0.1,0.1l8-1.8c0.1-1.1,0.1-1.9,0.1-2.4v-2l-0.1-0.6C260.6,49.5,257.8,49.8,256.7,49.8z"/>
		<path class="st0" d="M28.4,73.8h1.1c1,0.1,1.5,0.3,1.5,0.6c-1.4,3.3-2.8,5.9-4,7.8v0.1c1.1-0.1,1.7-0.3,1.7-0.7
			c1.4-2.8,2.3-4.4,2.5-4.8c0.3-0.1,0.7-0.2,1.2-0.2c1.1,0.1,1.6,0.2,1.6,0.5c-1.6,3.7-3.7,7.3-6,11.1v0.1c1.7-0.6,2.8-0.9,3.3-0.9
			l0.5,0.1c-0.6-1.3-0.9-2.1-1-2.5c0-0.1,0.3-0.2,0.9-0.3h1c0.7,0,1.2,0.5,1.4,1.5c0.1,0,0.2,0.3,0.4,1c1.4,0,2.9-0.3,4.4-0.9
			c0.6-0.1,1.1-0.2,1.3-0.2h0.5l0.5-0.1l0.1-3.9c0.2-0.1,0.6-0.2,1.2-0.3c1,0.1,1.5,0.2,1.5,0.5v1.8c0,0.4,0,1.1-0.1,2
			c0.2,0,0.5,0.4,0.9,1.3h0.1c1.3-1.3,2-2.4,2.1-3.2c0-0.3,0.5-0.4,1.4-0.4h0.5c1,0.1,1.6,0.3,1.7,0.5v0.1c0,1.1-1.4,2.9-4.3,5.4
			c0.7,1.3,2.3,3.1,4.8,5.5c1.2,0.8,1.7,1.2,1.7,1.3v0.1c-0.2,0.3-0.7,0.5-1.4,0.5h-0.5c-1.6,0-3.3-1-5-3c-0.5-0.6-1.3-1.5-2.2-2.7
			L44,92.1c0,4.8-0.2,7.2-0.6,7.2c-0.2,0.1-0.5,0.2-1,0.2c-1.3,0-2.2-0.5-2.8-1.5c0,0-0.5-0.6-1.5-1.9c0.1-0.2,0.4-0.3,0.9-0.3h0.3
			c0.8,0,1.4,0.3,1.6,0.8H41c0.1-2.4,0.1-4.1,0.1-5.1h-0.1l-4.3,2.9l-0.4,0.1h-0.9c-0.6,0-1-0.1-1.2-0.4v-0.1c2.2-1.7,4.6-3.2,7-4.4
			v-1.6l0.1-0.1h-0.1c-0.8,0.3-2.1,0.6-3.8,0.9c-0.6,0.3-1.1,0.5-1.5,0.5h-0.1l-0.7-0.1c0,0.4-0.2,0.5-0.7,0.5h-0.9
			c-0.7,0-1.2-0.3-1.3-0.9c0-0.1,0-0.2-0.1-0.3c-2.4,0.9-4.2,1.3-5.4,1.3h-0.5c-1.1,0-1.7-0.2-1.8-0.7v-0.1c0.5-0.9,1.6-2.6,3.2-5.2
			h-0.1c-1.4,0.4-2.3,0.6-2.9,0.6c-1.4-0.1-2.1-0.3-2.1-0.6v-0.1c0-0.2,0.8-1.5,2.3-4c0.6-1.2,1.5-3,2.6-5.6
			C27.8,73.9,28.1,73.8,28.4,73.8z M24.6,91.6h0.5c0.9,0,1.3,0.3,1.3,0.9c0.2,2,0.4,3.3,0.4,4c-0.3,0.2-0.7,0.3-1.2,0.3
			c-1.1,0-1.6-0.2-1.6-0.7c-0.2-1.3-0.4-2.7-0.5-4.2C23.8,91.7,24.1,91.6,24.6,91.6z M28.4,91.9c1,0,1.5,0.3,1.5,0.9
			c0,0.1,0.2,1,0.5,2.7c-0.2,0.1-0.6,0.2-1.1,0.3c-1.2,0-1.7-0.3-1.7-1c-0.3-1.4-0.5-2.2-0.5-2.5C27.4,92,27.8,91.9,28.4,91.9z
			 M32.1,91.2c1,0,1.5,0.4,1.5,1.1c0.4,1.7,0.7,2.6,0.7,2.9c-0.2,0.2-0.6,0.3-1.1,0.3c-1.1,0-1.6-0.4-1.6-1.1
			c-0.4-1.6-0.7-2.6-0.7-2.9C30.9,91.3,31.3,91.2,32.1,91.2z M39.4,69.9c1.2,0.1,1.8,0.3,1.8,0.5c-0.3,1.4-0.6,2.8-1,4.1l0.3-0.1
			c3.5-0.2,5.7-0.3,6.5-0.3h0.1c1.1,0.1,1.6,0.3,1.6,0.7c-0.2,0.7-1,2.4-2.2,5.2h0.1c1,0,1.6-0.1,2-0.1c1.2,0.1,1.7,0.3,1.7,0.5v0.1
			c0,0.2-0.4,0.3-1.1,0.3h-0.3c0,0-0.1,0-0.1-0.1c-0.1,0-0.2,0.1-0.2,0.1c-1.8,0-2.8,0.2-2.8,0.5c-0.1,0.3-0.6,0.4-1.5,0.4
			c-0.5,0-1.1-0.1-1.9-0.3L36.2,82c-1-0.1-1.5-0.3-1.5-0.5v-0.1c0-0.3,2.1-0.5,6.3-0.7c0-0.1,0.5-0.1,1.6-0.1
			c0.2-0.3,0.5-0.9,0.9-1.9h-0.1c-2.9,0.3-4.6,0.4-5.1,0.4h-0.9c-1,0-1.7-0.2-1.9-0.6v-0.1c0.3-0.2,0.5-0.8,0.8-1.9
			c0.7-1.8,1.3-3.9,1.8-6.3C38.4,70,38.8,69.9,39.4,69.9z M39.9,75.6c-0.4,1.2-0.6,1.9-0.7,2.3c0,0,0.1,0,0.1,0.1
			c1.1-0.2,2.7-0.3,4.8-0.4l1-2.2H45C42.7,75.5,41,75.6,39.9,75.6z"/>
		<path class="st0" d="M64.1,73.1c1.2,0.1,2.2,0.2,2.9,0.5L66.8,75v0.4c0,2.3,0.2,3.5,0.7,3.5l2.1-0.1l0.9,0.6l0.3,0v-0.7
			c0-1.2-0.2-2.1-0.6-2.6c0-0.3,0.5-0.5,1.6-0.8v0.3l0.5-0.3h0.2c0.1,0,0.1,0.1,0.1,0.3l0.5-0.3c1.2-0.1,1.8,1,1.8,3.3
			c0.1,0,0.2,0.1,0.2,0.3c-0.1,0.6-0.2,1.2-0.2,1.8l0.3,0c1.7-0.6,2.6-1.1,2.6-1.5v-3.4c0-0.8-0.3-1.7-1-2.7c0.9-0.4,1.5-0.7,2-0.7
			l0.2,0c2.1-0.1,3.2,0.1,3.2,0.6c-0.1,1.9-0.2,3.4-0.2,4.5v0.4l0.2,0.5l1.1-0.3l0.4,0l0.5,0.2v-1.6c0.1,0,0.3-0.1,0.6-0.2
			c0.1,0,0.1,0.1,0.1,0.2l1.2-0.3l0.2,0c0.7,0,1.5,0.2,2.5,0.7c0,5.6-0.6,10.4-1.9,14.3c-0.5,0.4-1.1,0.7-1.8,0.7
			c-2.8,0.1-4.2-0.4-4.2-1.7l-0.5,0c-2.1,0.1-3.1-0.4-3.1-1.6L77,89c0.4-1.8,0.6-3.9,0.6-6.3l0.3-0.6l-0.4,0
			c-1.7,0.6-2.6,1.2-2.6,1.7c0,0.3,0.1,0.5,0.2,0.5l-0.2,1.4v1.5c0,0.1-0.1,0.1-0.3,0.2l0.3,0.5v1.3l0.2,1.2
			c-0.1,0.3-0.2,0.5-0.2,0.7c0.4,2.3,0.9,3.4,1.6,3.4c3.5,0,6.3-0.1,8.3-0.2c2.2-0.1,3.3-1.3,3.3-3.6c0.3-0.7,0.6-1.1,0.8-1.1
			c1.3-0.1,2.1,1.3,2.5,4.1c0.1,0,0.6,0.5,1.3,1.4c0,0.4-0.9,0.7-2.7,1.1l-3.6,0.2c-0.2,0-0.3,0.1-0.3,0.2l-0.4-0.2l-5.3,0.3
			c-4.5,0.2-7.4-0.4-8.7-1.9c-0.7-1.2-1.1-3.5-1.1-6.7c0.1-1.5,0.2-2.7,0.2-3.7l-0.3,0c-0.2,0.2-0.5,0.2-0.8,0.3
			c-0.7,0-1.4-0.3-1.8-1.1v-0.6c0.6,0,0.9-0.1,0.9-0.2l0.3,0.2h0.3l0.7-0.5c0.1,0,0.1,0.1,0.1,0.3c0.3-0.2,0.6-0.3,0.8-0.3v-1.8
			c-1.2,0.1-1.9,0.3-1.9,0.7l-1-0.2l-0.7,1.2v6.3c0.4,0,0.7-0.1,0.9-0.3c0.6,0.3,1.2,0.4,1.8,0.4v0.7c-1.8,2.4-2.8,3.8-2.8,4.2
			c0,1-1.1,1.6-3.2,1.8c-0.9,1-1.8,1.6-2.5,1.6c-2.4,0.1-3.9-0.3-4.4-1.2v-0.6c2-1,3.8-2.2,5.3-3.7v-2.2c0-0.5-0.1-0.8-0.2-1.1
			l0.2-1.3v-1.9c0-0.1,0.1-0.1,0.3-0.2l-0.3-0.5l0.2-2.6l-0.5,0c-0.4,0-0.9,0.2-1.3,0.5c-1.4,0.1-2.7-0.2-4-0.8v-0.4
			c0-0.1,0.1-0.2,0.3-0.2l-0.3-0.5v-0.1L59,80l0.8-0.1c0.3,0,0.6,0.1,0.9,0.2c0.9-0.3,1.5-0.5,1.8-0.5c0-1.7-0.3-3.7-0.8-6
			L64.1,73.1z M82.2,82.2l0.2,3c-0.1,1.5-0.2,2.7-0.2,3.7l0.6,0c0.7-2.3,1.1-3.8,1.1-4.6l-0.2-0.4c0.4-1.2,0.6-1.9,0.6-2.2L84,81.2
			c0.1-0.2,0.2-0.5,0.2-0.9v-0.5c-1.4,0.1-2.1,0.8-2.1,2.1V82.2z"/>
		<path class="st0" d="M116.7,71.6c2.3,0.2,3.4,0.7,3.4,1.4c0,1.4-1.9,5.1-5.6,11v0.7c1,1.1,2.7,3.2,5.2,6.3c2,2.8,4.1,4.6,6.2,5.3
			l0.2,0.4V97c-0.2,0.5-0.6,0.8-1.2,0.8c-4.3-0.6-7-1.6-8-2.9c-2.8-3.2-4.4-5.3-5-6.4l-0.7,0.1c0,0.4-1.3,1.7-3.9,3.9
			c-2.1,1.9-5.4,3.3-9.7,4.2l-0.5,0v-0.5c0.4,0,1.1-0.7,2.2-2c4.5-3.4,7.6-6.7,9.3-9.8c-3.6-5.1-5.4-8.4-5.4-9.9
			c-0.5,0-0.9,0.1-1.1,0.3c-2-0.1-3-0.4-3-0.8v-0.4c1.8-0.6,3.9-1,6.3-1.1l4.7-0.2c1.1-0.1,2.4-0.2,3.9-0.4c0.2,0.1,0.5,0.2,0.9,0.2
			C115.8,71.7,116.3,71.6,116.7,71.6z M106.9,74.2c1.8,2.8,3.3,4.8,4.4,5.9l0.3,0l3.4-6.5c-0.2,0-0.3-0.1-0.3-0.2
			C112,73.8,109.4,74.1,106.9,74.2z"/>
		<path class="st0" d="M143.3,86.9l1-0.1c0.8,0,1.2,0.2,1.2,0.5v2.3c-1,3.9-2.7,6.9-5.1,8.9c-1.2,0.6-2.8,1.3-4.9,1.9l-0.3,0v-0.1
			c4.7-4.5,7-8.8,7-12.9C142.5,87.1,142.9,86.9,143.3,86.9z M140.2,69.7c1.3-0.1,2,0.4,2,1.3l3.6-0.2c4.4-0.2,6.7-0.7,6.7-1.4
			c0-0.2,0.3-0.3,1-0.4l0.8-0.1c0.8,0,1.4,0.2,1.8,0.7l-0.2,2v6.8c0,1.8,0.1,4.2,0.2,7c0,1.5-0.6,2.3-1.8,2.3l-1.8,0.1
			c-0.2,0-0.4-0.2-0.6-0.5v-0.6l0.3-0.5l-0.3,0c-4.2-0.1-7.8,0-10.7,0.1l-0.8,0.1c-0.2,0-0.9-0.2-2-0.7V77c0-1.4,0.1-3.6,0.2-6.5
			C139.2,70,139.8,69.8,140.2,69.7z M142.4,76.9v3.3l-0.3,0.5l9.9-0.5v-3.9L142.4,76.9z M142.7,72.2l-0.5,0l0.2,2.1v1.3l9.6-0.5
			v-3.6C147.8,71.8,144.6,72.1,142.7,72.2z M142.2,81.9v3.5l4.2-0.2c1.2,0,3.1-0.1,5.7-0.1v-2.4l-0.2-1.1
			C146.6,81.7,143.4,81.8,142.2,81.9z M149.2,86.8c0.9,0,1.4,0.2,1.4,0.5c0,1-0.1,3.4-0.2,7.2c0,2.4,0.6,3.6,1.9,3.5l4.9-0.3
			c0.3,0,0.8-1.1,1.3-3.2l1.2-0.1c1-0.1,1.8,1,2.2,3.3c-0.2,0.5-0.7,0.8-1.4,0.8l-9.5,0.5c-3,0.2-4.5-1.1-4.5-3.8v-0.8
			c0-4.9,0.3-7.4,0.8-7.4C148.2,87,148.8,86.9,149.2,86.8z"/>
		<path class="st0" d="M178.3,70.8c1.3-0.1,2.2,0.9,2.6,2.9v0.7l0.3,0l0.4-0.2l0.4,0.2c0.9-0.3,1.5-0.5,1.9-0.5l0.4,0
			c0.9,0,1.4,0.1,1.4,0.4l0.5-0.3l0.1,0c0,0.4,0.3,0.7,0.8,1c0,0.6-1.2,1-3.7,1.1l1.8,1.4c-0.4,1.1-1,2-1.6,2.7v0.3
			c1.6,0.2,2.5,0.6,2.7,1.1v0.7c-0.1,0-0.3,0.1-0.5,0.2v-0.2c-0.6,0.3-1,0.5-1.2,0.5c0-0.1-0.1-0.2-0.4-0.2c0,0.1,0,0.2-0.1,0.2
			v-0.5l-0.6,0.5c0-0.2-0.1-0.3-0.3-0.3l-0.8,0.5l-0.8-0.2c-0.3,0.2-0.4,0.2-0.5,0.3c0-0.1-0.1-0.2-0.4-0.2v0.4
			c0.2,0,0.5,0.3,0.8,0.9l-0.2,1v1.3h0.3c0.5,0,1.7-0.2,3.5-0.4c1.1,0.2,1.6,0.4,1.6,0.7v0.2c0,0.4-1.1,0.6-3.2,0.7l-2.1,0.1V89
			c0,2-0.1,4.7-0.2,8.1c0,0.7-0.6,1-1.8,1.1c-0.9,0-2.1-0.2-3.7-0.6v-0.3c0.8-0.5,1.2-1.1,1.2-1.8c0.1-1.3,0.2-2.6,0.2-3.9v-3.8
			c-0.5,0-1.8,0.2-4,0.4c-1.2-0.1-1.8-0.3-1.8-0.7v-0.4l2-0.3l3.5-0.2c0.3,0,0.5-0.2,0.5-0.5v-1c0-0.3-0.2-0.9-0.7-1.9l-2.1,0.1
			l-1.3-0.2c-0.9,0.3-1.4,0.5-1.6,0.5c0-0.2-0.7-0.5-2.1-0.7l-0.4-0.6v-0.2c0-0.3,0.6-0.6,1.8-0.9c0.1,0,0.1,0.1,0.1,0.3l0.5-0.3
			h0.2l0.6,0.4l1.5-0.1v-0.7c0-1.2-0.4-2.6-1.3-4c-1.6,0.1-2.7-0.3-3.1-1.2v-0.9l2-0.1c0.3,0,1,0.1,2.1,0.3l3.4-0.4
			c0-0.5-0.3-1.6-1-3.3C176.6,71,177.3,70.8,178.3,70.8z M173.5,89.1c2,0,3,0.3,3,0.8c0,1.7-1.5,3.6-4.5,5.8l-1.2,0.3l-0.2-1v-0.2
			c0.8-3.7,1.6-5.6,2.2-5.7L173.5,89.1z M176,76.6c1,0.8,1.6,1.7,2,2.7c0.1,0,0.2,0.1,0.2,0.3l-0.2,1.1l0.7,0.4l0.5,0
			c0-0.4-0.1-0.7-0.2-0.9c1.2-1.8,1.8-3.1,1.8-3.9l-0.5-0.2c-0.2,0-0.3,0.1-0.3,0.2l-1-0.2l-0.9,0L176,76.6z M182.5,89.1l1.2-0.1
			c1.6-0.1,2.4,1.1,2.4,3.5v0.6c-0.6,0.6-1.2,0.9-1.8,0.9c-1.5,0.1-2.2-1.5-2.2-4.7L182.5,89.1z M197.3,72.1
			c1.5,0.4,2.3,0.8,2.5,1.4v0.6c-4.2,2.7-6.8,4-7.7,4.1V80c0,0.4,0.1,1,0.4,1.9c1.8-0.1,3.8-0.4,6.1-0.9h0.2c1.1-0.1,2,0.2,2.8,0.6
			V82c0,0.2-0.2,0.4-0.6,0.6l-0.8,0.1c-0.8,0-1.8,0.2-3,0.5v-0.7c-0.1,0.5-0.9,0.7-2.2,0.8v0.3c2.5,0,3.8,0.3,3.8,1
			c-0.1,5.4-0.2,9.5-0.2,12.3v1.4l-1,0.2l-0.4,0c-2,0.1-3-0.6-3-2v-0.6c0-0.7,0.1-1.8,0.2-3.2c-0.1,0-0.2,0-0.2-0.1h0.3l-0.3-0.5
			v-0.6c0-0.1,0.1-0.2,0.3-0.2l-0.3-0.5v-0.2c0-0.1,0.1-0.2,0.3-0.2l-0.3-0.5c0-0.1,0.1-0.1,0.2-0.1c0-0.2-0.1-0.4-0.2-0.4l0.2-1
			v-2.5c0-0.5-0.1-1.1-0.2-1.8c0.1-0.3,0.2-0.5,0.2-0.7l-1.7,0.1c-0.5,0-0.8,1.9-0.9,5.7c-0.2,0-0.5,1.1-0.8,3.4
			c-1.3,3.5-2.8,5.3-4.5,5.4c-0.2,0-0.4-0.1-0.4-0.3v-0.6c0-0.1,0.1-0.2,0.2-0.2c0-0.2-0.1-0.4-0.2-0.4c0.1-1,0.4-2,0.8-3.3
			c0-0.2-0.1-0.3-0.2-0.3c0.8-2.9,1.2-4.7,1.2-5.4c0-0.2-0.1-0.3-0.2-0.3l0.2-1v-5.2c0-2.2-0.4-3.9-1.2-4.9V76
			c0.9-0.2,1.5-0.3,1.8-0.5c1,0.1,1.9,0.3,2.9,0.5c2-1.4,3-2.3,3-2.6l0.4,0.1c0.6-0.2,0.9-0.6,0.9-1.1l1.4-0.1
			C197.2,72.3,197.3,72.3,197.3,72.1z"/>
		<path class="st0" d="M227.7,70.5c1.4-0.1,2.8,0.4,4.1,1.4c0,3-0.3,4.9-1,5.8v1.6l2.6-0.3c1.5-0.1,2.7,0.3,3.6,1v0.3
			c-1.2,0.5-2.2,0.7-3,0.8l-3.4-0.3v0.9c0,5.2-0.3,7.8-0.8,7.8c-0.2,0-0.4,0.1-0.7,0.3c-0.2,0-1.5-0.2-3.9-0.6l-1.5,0.1
			c-0.1,1.5-0.3,2.3-0.5,2.3l-1.5,0.1c-1.1,0.1-1.8-0.3-2.2-1.1c0.1-1.4,0.2-2.4,0.2-3.1v-6.3l-3.5,0.2v2.1c0,2.1,0.1,5.4,0.2,9.8
			c5.5,0.1,9.5,0.1,11.9,0l4-0.2c0.4,0,1.2,0.2,2.2,0.5v0.2c0,0.4-0.9,0.7-2.6,0.9l-0.8,0c-2.8,0.1-7.7,0.1-14.6-0.1v3.8
			c0,0.3-0.3,0.5-1,0.6c-2.2-0.1-3.4-0.4-3.4-0.8v-2.1l-0.2-0.9l0.3,0l-0.3-0.5V81.9l-0.7,0c-1,0.1-2.1-0.1-3.5-0.6v-0.2
			c0-0.4,1.3-0.7,3.9-1v-4.4l1-0.2c2.3-0.1,3.4,0.6,3.4,2c0.1,1,0.2,1.8,0.2,2.5l3.3-0.2v-6.7l0.2-1.1c-0.6-0.2-0.9-0.4-0.9-0.5
			c0-0.2,0.1-0.4,0.3-0.4l1.3-0.1c1.9-0.1,3.3,0.3,4.1,1l-0.8,5.6v1.5c0.1,0.3,0.2,0.5,0.5,0.5l2.2-0.1c0.1-2.8,0.4-5.3,0.6-7.4
			c-0.3,0-0.4-0.1-0.4-0.3v-0.3c0.2,0,0.5-0.4,1-1.1L227.7,70.5z M223.9,80.9v7l1.5-0.1l0.5,0.2c0.3-2,0.4-4.4,0.4-7.3L223.9,80.9z"
			/>
		<path class="st0" d="M250.5,70.6c1,0.4,1.7,0.5,2.1,0.5c1.8-0.1,3.7-0.3,5.6-0.7c1.9,0.1,3,0.2,3.3,0.3l0.4-0.3l1,0.2l4.2-0.6
			c1.7-0.1,2.6,0.9,2.6,2.9c0,0.8,0.1,2.5,0.2,5.2c-0.5,1.2-1,2-1.6,2.3l-2.5,0.1c0,0.4-0.1,0.6-0.4,0.6v0.3
			c2.9,3.5,5.9,5.7,8.8,6.7c0.8,0.3,1.2,0.5,1.2,0.7c0,0.2-0.1,0.3-0.3,0.4l-0.4,0c-0.8,0-1.7,0.2-2.9,0.4c-2.9-0.7-6.2-2.9-9.9-6.5
			c-0.4-0.8-1.3-1.2-2.5-1.1c-0.6,0-1.2,0.8-1.7,2.4c-0.2,0-0.6,0.6-1.1,1.6c1.3,0.1,1.9,0.4,1.9,1l-0.3,0l0.3,0.5
			c0,4.8-0.7,7.7-2.2,8.8c-1,1-2.4,1.8-4.1,2.3c-1.5,0.1-2.2-0.2-2.2-0.8c2.6-1.7,3.9-3.5,3.9-5.4c0.1-1.1,0.2-2.2,0.2-3.4l-0.5-0.3
			c-1.4,1.8-3.8,3.2-7.1,4.3c-0.9,0-1.4-0.1-1.4-0.6l-1.9,0.1v-0.3c3.3-1.4,5.2-2.6,5.6-3.6c0.2,0,1.4-1.2,3.5-3.5
			c0.2,0,0.7-1.1,1.6-3.2l-1.4,0.1c0,0.8-0.3,1.3-1,1.5c-1.7,0.1-3-0.3-3.8-1.2V79c0-2.5-0.1-4.1-0.4-4.8c0-0.1,0.1-0.1,0.2-0.1
			c-0.3-1.5-0.4-2.4-0.4-2.7l0.3-0.2l0.4,0.2C247.9,71.1,248.9,70.8,250.5,70.6z M251.9,72.6v0.3c0.1,2.4,0.4,3.6,0.9,3.6
			c1.4-0.2,2.4-0.3,3.2-0.4v-0.3c0-0.7-0.1-1.9-0.2-3.6l-0.3,0C255,72.3,253.8,72.4,251.9,72.6z M252.1,79.3c0.2,1,0.4,1.5,0.7,1.5
			l3.2-0.2l0.2-1.1v-1.5l-0.2-0.5C253.4,77.7,252.1,78.3,252.1,79.3z M260.9,86.5l0.4,0.2c0.1,0,0.4-0.1,0.9-0.2
			c2.2-0.1,3.2,0.4,3.2,1.4c0.1,1.2,0.3,5,0.4,11.4c-0.3,0.3-0.6,0.4-0.8,0.4c-2.4-0.2-3.6-0.5-3.6-1c0-0.1,0.1-0.5,0.2-1.2
			l-0.2-0.8c0-0.1,0.1-0.1,0.2-0.2l-0.4-3.8c0-0.1,0.1-0.1,0.2-0.1c-0.4-3.8-0.7-5.7-1.1-5.7v-0.1C260.5,86.7,260.7,86.6,260.9,86.5
			z M260.4,71.8v0.3c0.1,0.8,0.2,1.4,0.2,1.9v0.7c0.2,0,0.4-0.1,0.7-0.3l1.4,0.2l0.4-0.3l1.9,0.4v-1.1c0-1.2-0.4-1.7-1.3-1.7
			c-0.2,0-0.4,0.1-0.6,0.2C263.1,71.9,262.1,71.8,260.4,71.8z M262.3,77.1c-0.1,0-0.1-0.1-0.1-0.2l-0.5,0.3l-0.4-0.2l-0.5,0.7V78
			c0,0.3,0.1,0.6,0.2,0.8c-0.1,0.3-0.2,0.5-0.2,0.6c0.1,0.3,0.2,0.5,0.2,0.7l2.6-0.1c0-0.3,0.4-0.8,1.3-1.6c0-0.8,0.2-1.2,0.4-1.2
			c-0.2-0.9-0.3-1.4-0.5-1.4C263.5,76.4,262.7,76.8,262.3,77.1z"/>
	</g>
	<g>
		<rect x="295.2" y="0.1" class="st0" width="1.7" height="103.9"/>
	</g>
	<g>
		<rect x="0.2" y="0.1" class="st0" width="1.7" height="103.9"/>
	</g>
</g>
</svg>
