<?xml version="1.0" encoding="utf-8"?>
<!-- Generator: Adobe Illustrator 25.2.3, SVG Export Plug-In . SVG Version: 6.00 Build 0)  -->
<svg version="1.1" id="圖層_1" xmlns="http://www.w3.org/2000/svg" xmlns:xlink="http://www.w3.org/1999/xlink" x="0px" y="0px"
	 viewBox="0 0 566 245" style="enable-background:new 0 0 566 245;" xml:space="preserve">
<style type="text/css">
	.st0{fill:#FFDD00;}
</style>
<g>
	<g>
		<path class="st0" d="M222.3,201.3v-4.5h5.8v-1.6h-5c-0.4,0-0.6-0.2-0.6-0.6v-19.1c0-0.4,0.2-0.6,0.6-0.6h5v-1.6h-5.4v-4.5h5.4
			v-2.2h4.5v2.2h4.8v4.5h-4.8v1.6h5c0.4,0,0.6,0.2,0.6,0.6v4.1c1.6-2,3-4.4,4.1-7.3l4.4,2.2c-1.4,2.5-2.6,4.4-3.6,5.6
			c-0.3,0.2-0.3,0.5,0,0.9c0.9,1.1,2.1,3,3.6,5.8l-4.3,2.4c-1.3-3.5-2.7-6.2-4.1-8v13.3c0,0.4-0.2,0.6-0.6,0.6h-5v1.6h5.2v4.5h-5.2
			v4.7h-4.5v-4.7L222.3,201.3L222.3,201.3z M228.1,179.4h-1.2c-0.1,0-0.2,0.1-0.2,0.2v3.3h1.4V179.4z M228.1,187.4h-1.4v3.1
			c0,0.1,0.1,0.2,0.2,0.2h1.2V187.4z M232.6,182.9h1.4v-3.3c0-0.1-0.1-0.2-0.2-0.2h-1.2V182.9z M232.6,190.7h1.2
			c0.1,0,0.2-0.1,0.2-0.2v-3.1h-1.4V190.7z M247.6,194.7h-7.5v-4.9h20.2v4.9h-7.8v6.2h8.9v4.9h-22.6v-4.9h8.8L247.6,194.7
			L247.6,194.7z M260.9,167.1v4.9h-21.3v-4.9H260.9z M253.7,174.9c-1.3,2.3-2.6,4.1-3.8,5.4c-0.2,0.1-0.2,0.4,0,0.8
			c0.9,0.9,2.1,2.9,3.7,5.8l-4.3,2.5c-1.2-2.9-2.4-5.3-3.8-7.3c-0.9-1.1-1.1-1.9-0.5-2.4c1.6-1.8,3.1-4.1,4.3-7.1L253.7,174.9z
			 M260.6,175.2c-1.5,2.2-2.8,3.9-3.9,5.2c-0.2,0.1-0.2,0.3,0,0.6c1,1,2.3,2.9,3.9,5.6l-4.2,2.6c-1.3-3-2.6-5.4-4-7.2
			c-0.9-1.1-1.1-2-0.5-2.6c1.6-1.7,3.1-3.9,4.6-6.8L260.6,175.2z"/>
		<path class="st0" d="M278.8,205.8h-4.9v-7.7c-0.1,0.2-0.2,0.3-0.3,0.4c-1.8,2-3.4,3.5-5,4.5l-3.6-3.5c3.2-2,5.9-4.5,8-7.4h-6.2
			v-4.6h7.1v-2.6h4.9v2.6h5.9v4.7h-4.9c1.8,1.5,3.6,3.1,5.3,4.8l-3.2,3.4c-0.9-1.1-1.9-2.2-3.1-3.3V205.8z M266.9,185
			c-0.3-0.9-0.6-1.9-0.9-2.9l2.2-0.2c0.4-0.6,0.7-1.3,1-2h-2.7v-3.4h2.7V168c0-0.6,0.3-0.9,0.9-0.9h14.7v3.5h-10.7
			c-0.3,0-0.4,0.1-0.4,0.4v0.3h10.8v1.8h-10.8v0.7h10.8v1.8h-10.8v0.8h12.1v3.4h-2.3c0.6,1,1.1,2.1,1.7,3.3l-3,1.7
			c-0.3-0.5-0.6-1-0.8-1.5L266.9,185z M279.4,179.9h-5.1c-0.2,0.4-0.4,0.9-0.6,1.4l6.2-0.7C279.7,180.3,279.5,180.1,279.4,179.9z
			 M284.7,206.4c-0.4-1.4-0.8-3-1.4-4.6l4.2-0.4c1.7-3.2,3.2-6.7,4.5-10.4l4.3,1.9c-0.7,2.2-1.8,4.9-3.3,8.1l4.8-0.4
			c-1-1.6-1.6-2.6-2-3.1l4.1-2.2c2.4,3.8,4.2,6.9,5.4,9.3l-4.2,2c-0.3-0.6-0.6-1.1-0.9-1.7L284.7,206.4z M291.7,188
			c-0.9,3.6-2.1,6.6-3.8,8.9c-1.3-1.3-2.5-2.1-3.6-2.6c1.5-2.1,2.4-4.6,2.8-7.3L291.7,188z M302.3,169.3c-4.2,2-9.1,3.6-14.9,4.8
			l-0.6-4.2c3.5-0.7,6.3-1.4,8.2-2c1.5-0.5,3.3-1.2,5.3-2.3L302.3,169.3z M305.9,179.4c-4.7,2.3-10.8,4.2-18.3,5.7l-0.6-4.2
			c4.5-0.9,7.9-1.7,10.3-2.4c1.9-0.6,4.1-1.5,6.7-2.8L305.9,179.4z M303.6,174.4c-3.9,2-9.1,3.7-15.6,5.1l-0.7-4.2
			c3.7-0.8,6.6-1.5,8.7-2.2c1.6-0.5,3.5-1.3,5.6-2.5L303.6,174.4z M300.6,184.7c0.6,0,1,0.3,1.1,0.9c0.4,1.9,0.9,3.5,1.7,4.8
			c0.7,1.2,1.9,2.5,3.6,3.9l-4.2,2.6c-2-1.9-3.5-4.2-4.3-7c0-0.4-0.2-0.6-0.4-0.6H292v-4.5L300.6,184.7L300.6,184.7z"/>
		<path class="st0" d="M315.1,178.6h-3.6v-4.9h3.6v-6.4h4.9v6.4h2.8v4.9H320v7.5c0.9-0.4,1.6-0.7,2.1-0.9l2,4.5
			c-0.9,0.5-2.2,1.1-4.1,1.8v11.3c0,0.8-0.2,1.4-0.6,2c-0.5,0.7-1.1,1.2-2,1.5c-1.3,0.6-3.3,0.5-6-0.1v-5.1c1.6,0.7,2.6,0.9,3.1,0.7
			c0.4-0.2,0.6-0.6,0.6-1.1v-7.6c-1,0.3-1.9,0.6-2.7,0.8l-1.9-4.5c1.4-0.4,2.9-0.9,4.6-1.4V178.6z M350.2,201.1v4.7h-12.9
			c-1.2,0-1.7-0.6-1.7-1.8v-12.1c-0.3,1.3-0.9,3.1-1.8,5.5c-1.9,3.7-5.2,6.8-9.9,9.2l-3.1-3.9c4.3-2,6.8-3.8,7.7-5.5l-6.7,1.3
			c-0.3-1.3-0.7-2.8-1.4-4.4l2.6-0.5c1.1-1.4,2.3-3.1,3.5-5.2c-2-2.1-4-3.8-6.1-5.1l2.4-3.9c0.1,0,0.5,0.3,1.1,0.7
			c0.8-2,1.6-4,2.3-6.2h-2.9v-4.4h10.4v-2.9h5v2.9h11.5v4.5h-4.5l2.8,1.1c-0.3,1.1-0.7,2.2-1.3,3.4h2.9l-0.3,4.7h-3.4v2.8h3.4v4.7
			h-3.4v2.8h3.4v4.7h-3.4v2.9L350.2,201.1L350.2,201.1z M335.3,179.9c0.7-1.6,1.3-3.6,1.9-5.9h-9.3l2.8,1.2c-0.7,2-1.8,4.5-3.4,7.8
			c0.5,0.4,0.9,0.8,1.4,1.2c1-2.3,1.7-4.6,2.2-6.7l4.4,0.9c-0.2,1-0.5,2.1-1,3.4C334.6,181.1,335,180.5,335.3,179.9z M335.6,187.4
			c-0.2,0.3-0.4,0.5-0.6,0.8c-0.9-1-1.8-1.8-2.6-2.3c-1.1,2.1-2.3,4.3-3.8,6.5l2.1-0.4c0.2-0.8,0.4-1.8,0.6-2.7l4.3,0.8V187.4z
			 M342,178.5c0.8-1.8,1.5-3.3,1.9-4.5h-5l2.6,0.8c-0.4,1.2-0.8,2.5-1.3,3.7H342z M342.2,183.3H341c-0.5,0-0.7,0.2-0.7,0.7v2.1h1.9
			L342.2,183.3L342.2,183.3z M342.2,190.7h-1.9v2.8h1.9V190.7z M342.2,198.2h-1.9v2.2c0,0.5,0.2,0.7,0.7,0.7h1.2L342.2,198.2
			L342.2,198.2z"/>
		<path class="st0" d="M368.5,206h-5.2v-21.5c-1.9,1.5-3.8,2.8-5.9,4L354,184c4.4-2.3,8.5-5.5,12.3-9.6h-10.4v-5h14
			c0.7-1.2,1.4-2.4,2.2-3.8l4.7,2.6c-0.3,0.4-0.5,0.8-0.7,1.2h17.8v5h-21c-0.2,0.2-0.4,0.5-0.5,0.7c-0.8,1-1.5,1.9-2.2,2.7h21.3
			c0.9,0,1.3,0.4,1.3,1.3v23.3c0,1.6-0.8,2.7-2.5,3.5c-2.3,1.1-6,1.2-11.2,0.4l-0.3-5.8c3.6,1,6,1.3,7.3,0.8
			c0.9-0.4,1.4-0.9,1.4-1.5v-1.2h-19L368.5,206L368.5,206z M387.5,185.8v-2.4c0-0.3-0.2-0.4-0.5-0.4h-18.2c-0.3,0-0.4,0.1-0.4,0.4
			v2.4H387.5z M387.5,193.7v-3.1h-19v3.1H387.5z"/>
		<path class="st0" d="M409.5,175.7c-1.2,6.4-3.7,13.8-7.4,22.2l-4.6-2c3.7-8.7,6.1-15.8,7.1-21.4L409.5,175.7z M420.7,166.9v34
			c0,1-0.4,2-1.2,2.9c-0.9,1-1.9,1.7-3.1,2c-1.4,0.4-2.6,0.5-3.5,0.5c-2-0.1-4.3-0.5-6.9-1.2l0.4-5.6c3.8,1.4,6.5,1.8,7.9,1.3
			c0.8-0.4,1.3-0.9,1.3-1.5v-32.4H420.7z M430.4,174.4c2.8,6,5.1,13.5,7.1,22.6l-4.9,1.4c-2.2-9.5-4.5-17-7-22.4L430.4,174.4z"/>
		<path class="st0" d="M443.5,206.3c0-1.4-0.3-3.1-0.7-4.9l4.5-0.2c1.2-1.4,2.2-2.8,2.9-4H443v-4.7h5.8v-10.6
			c-1.8,0.8-3.7,1.5-5.5,2l-2-4.5c3.8-1.2,7.4-2.8,10.7-4.8c0.3-0.2,0.5-0.4,0.8-0.6h-9.6v-4.7H458c1-1.1,2.1-2.3,3.2-3.6l3.7,3.1
			c-0.1,0.1-0.3,0.3-0.4,0.5h16.1v4.7h-9c2.8,2.2,6.4,3.9,10.9,4.9l-2.5,4.4c-2.3-0.7-4.6-1.6-6.6-2.7H454c-0.3,0-0.5,0.2-0.5,0.5
			v0.7h21.1v4h-21.1v1.2H475v4h-21.5v1.4h27.2v4.7h-5c2.6,3.3,4.4,5.7,5.4,7.3l-4.1,2.5c-0.5-0.7-0.9-1.3-1.4-2L443.5,206.3z
			 M472.2,197.2h-16.4c-1.3,2-2.1,3.2-2.5,3.8l18.8-0.8c-0.7-0.9-1.2-1.5-1.5-1.9L472.2,197.2z M467.3,176.2
			c-0.8-0.7-1.5-1.5-2.3-2.2h-4.8c-0.8,0.8-1.7,1.5-2.5,2.2H467.3z"/>
		<path class="st0" d="M504.5,197.2c-1.8,4.4-4.4,7.6-7.8,9.6l-3.8-3.7c4.9-2.6,7.6-6.7,8.1-12.4h-5.9V186h11.2v-1.5h-11.8v3.1
			c-0.1,6.7-1.2,13-3.3,18.7l-5.1-2.8c2-5.1,3.1-10.4,3.1-16v-18.9c0-1.2,0.5-1.7,1.6-1.7c11.4,0.4,21.8,0,31.2-1.2l1.4,4.9
			c-9.1,1-18.5,1.5-28.2,1.3c-0.6,0-0.9,0.3-0.8,0.9v0.7h28.8c1,0,1.5,0.5,1.5,1.5v7.8c0,1-0.5,1.5-1.5,1.5h-11.7v1.5H525v4.7h-19
			c-0.1,0.5-0.1,1.1-0.2,1.6h17.3c0.4,0,0.7,0.1,1,0.2c0.6,0.4,0.8,1.2,0.8,2.5c0,2.3-0.1,4.4-0.3,6.2c-0.2,1.8-0.7,3.1-1.7,3.9
			c-2.5,2.3-7.5,2.5-15,0.8l0.3-5.7c4.7,1.5,8.2,2,10.6,1.3c0.6-0.2,0.9-0.5,1-1c0.3-1.2,0.3-2.2,0-3.1c-0.1-0.3-0.3-0.4-0.6-0.4
			h-14.6C504.5,197.1,504.5,197.1,504.5,197.2z M494.6,178.3v1.7h25c0.3,0,0.5-0.2,0.5-0.5v-0.8c0-0.3-0.2-0.4-0.5-0.4H494.6z"/>
	</g>
	<g>
		<path class="st0" d="M56.9,173.1v4.7H38.5v-4.7H56.9z M43.4,205.7h-4.9v-14c0-1,0.5-1.5,1.5-1.5h15.2c1,0,1.6,0.5,1.6,1.5v10
			c0,1.1-0.6,1.7-1.7,1.7H43.4V205.7z M54.7,178.7v4.7H40.2v-4.7H54.7z M54.7,184.3v4.7H40.2v-4.7H54.7z M54.5,167.3v4.7H40.4v-4.7
			H54.5z M44.2,194.8c-0.5,0-0.8,0.3-0.8,0.8v3H51c0.7,0,1-0.4,1-1v-2c0-0.5-0.3-0.8-0.8-0.8H44.2z M57.7,172.6v-5h19.4v5h-4.6v29.8
			c0,0.8-0.2,1.5-0.6,2c-0.5,0.6-1.2,1.1-2.1,1.6c-2.1,1-5.6,0.9-10.5-0.1v-5.3c0.2,0,0.4,0.1,0.6,0.2c3.4,1,5.7,1.2,7,0.6
			c0.4-0.3,0.6-0.7,0.6-1.2v-27.6H57.7z"/>
		<path class="st0" d="M86.6,193.3l2.9-1.2h-6.8v-5H99v-4.5h-9.7v-2.4c-2.1,0.8-4,1.4-5.8,1.9l-2.7-5.4c6.8-1.9,13.1-5.1,18.7-9.7
			h2.2h2.1c6.3,4.8,12.5,8.1,18.6,9.9l-2.8,5.3c-1.6-0.4-3.5-1.1-5.7-2v2.3h-9.8v4.5h16v5h-5.9l2.3,1c-1,2.7-1.9,5.1-2.8,7.2h6v5H83
			v-5h6.5C88.5,197.4,87.6,195,86.6,193.3z M99,200.3v-8.2h-7.3c1.2,2.2,2.3,5,3.3,8.2H99z M108.6,177.5c-2.5-1.4-4.8-2.9-6.8-4.5
			c-2.3,1.7-4.6,3.2-6.9,4.5H108.6z M108.5,200.3c1.1-2.3,2.2-5,3.3-8.2h-7.5v8.2H108.5z"/>
		<path class="st0" d="M148.4,192c0,3.4-1,6.1-3.1,8.3s-4.7,3.3-8,3.3c-3,0-5.5-1-7.6-2.9c-2.1-1.9-3.3-4.4-3.5-7.2h5.8
			c0.1,1.3,0.7,2.4,1.6,3.4c0.9,0.9,2,1.4,3.2,1.4c1.8,0,3.1-0.5,4.1-1.6c1-1,1.5-2.5,1.5-4.3c0-1.7-0.5-3.1-1.5-4
			c-1-1-2.4-1.5-4.1-1.5c-0.7,0-1.5,0.2-2.3,0.6s-1.4,1-1.8,1.7l-5.2-1.4l3.1-16.8h14.6v5.5H135l-1.1,5.7c1.2-0.5,2.5-0.7,3.9-0.7
			c3,0,5.5,1,7.5,3C147.4,186.3,148.4,188.9,148.4,192z"/>
		<g>
			<path class="st0" d="M166.2,173.1v1h-5v-1h-8.9v-4.7h8.9V167h5v1.4h10.4V167h5v1.4h8.8v4.7h-8.8v1h-5v-1H166.2z M159.6,202.6
				l-0.8-4.8l10-0.7v-2.4h-10.7c-0.3,0-0.4,0.1-0.4,0.4v10.8h-4.9v-14.4c0-0.8,0.4-1.1,1.1-1.1h14.8v-1.1h-12.5
				c-0.4,0-0.6-0.2-0.6-0.7v-13.2c0-0.4,0.2-0.6,0.6-0.6h29.9c0.5,0,0.7,0.2,0.7,0.6v13.2c0,0.5-0.2,0.7-0.7,0.7h-12.5v1.1h15.1
				c0.8,0,1.2,0.4,1.2,1.1v11c0,1.4-0.8,2.5-2.3,3.3c-1.9,0.9-4.9,1.2-9.1,0.9l-0.6-5.4c0.7,0.1,1.3,0.2,1.9,0.3
				c-0.1-0.3-0.3-0.6-0.3-0.8L159.6,202.6z M168.8,178.8h-8.3c-0.1,0-0.2,0.1-0.2,0.2v1h8.4v-1.2H168.8z M168.8,183.5h-8.4v1.1
				c0,0.1,0.1,0.2,0.2,0.3h8.3v-1.4H168.8z M173.7,180h8.4v-1c0-0.1-0.1-0.2-0.2-0.2h-8.2V180z M173.7,184.9h8.2
				c0.1-0.1,0.2-0.1,0.2-0.3v-1.1h-8.4V184.9z M178.4,194.6h-4.7v2l3.7-0.2c-0.2-0.3-0.4-0.7-0.6-0.9L178.4,194.6z M181.4,201.8
				c1.1,0,2-0.1,2.5-0.3c0.8-0.3,1.3-0.8,1.3-1.4v-5c0-0.3-0.1-0.4-0.4-0.4h-3.4c1,1.6,1.9,3.6,2.8,5.9L181.4,201.8z"/>
			<g>
				<path class="st0" d="M198.7,197.7v-1.5c0-0.1-0.1-0.1-0.1-0.1h-1.7c-0.1,0-0.1,0-0.1,0.1v1.6h1.8
					C198.6,197.8,198.7,197.8,198.7,197.7z"/>
				<path class="st0" d="M195.2,192.1c-4.1,0-7.3,3.3-7.3,7.3c0,4.1,3.3,7.3,7.3,7.3c4.1,0,7.3-3.3,7.3-7.3
					C202.5,195.4,199.2,192.1,195.2,192.1z M199.9,204.3h-3.3c-0.8,0-1.6-0.1-2.3-0.2c-0.3-0.1-0.8-0.2-1.5-0.5
					c-0.1,0-0.4-0.3-1-0.7c-0.1,0.5-0.3,1-0.5,1.4l-1.3-0.2c0.6-1.5,0.9-3,0.8-4.6l1.2-0.1c0,0.7,0,1.4-0.1,1.9
					c0.2,0.3,0.4,0.5,0.6,0.7v-3.3h-2.1v-1.2h2.1v-0.8h-1.8v-1.2h1.8v-1h1.2v1h1.2v1.2h-1.2v0.8h1.3v1.2h-1.3v1.1h1.3v1.2h-1.3v1.7
					c0.6,0.2,1.4,0.2,2.3,0.2h4.1L199.9,204.3z M199.9,201.9c-0.3,0.5-0.7,0.7-1,0.7H197c-0.5,0-0.9-0.1-1.1-0.4
					c-0.2-0.2-0.3-0.5-0.3-1v-6.1c0-0.2,0.1-0.3,0.3-0.3h3.8c0.2,0,0.3,0.1,0.3,0.3v3.6c0,0.2-0.1,0.3-0.3,0.3h-2.8v1.7
					c0,0.3,0,0.4,0.1,0.5s0.2,0.2,0.4,0.2h1.2c0.2,0,0.3,0,0.4-0.1c0.1-0.1,0.2-0.2,0.3-0.3c0.1-0.2,0.1-0.5,0-1.1l1.3,0.1
					C200.3,200.9,200.1,201.5,199.9,201.9z"/>
			</g>
		</g>
	</g>
</g>
<g>
	<g>
		<path class="st0" d="M54,90.8h-6.6V75.7c-0.5,3.6-1.3,7.6-2.4,11.9l-5.9-1.1c1.7-6.8,2.6-12.4,2.8-16.5l5.5,0.8v-3.9l-6.7,0.6
			c-0.2-1.9-0.6-4.1-1.4-6.5l3.9-0.4c1-1.2,2.1-2.6,3.3-4.2c-2.4-2.8-4.9-5.1-7.4-6.9l3.8-5.3c0.2,0.1,0.5,0.3,1,0.7
			c1.5-3,2.9-6.2,4.2-9.7l5.9,2.9c-1.1,2.8-2.9,6.5-5.4,11.1c0.5,0.5,1,1,1.5,1.5c1.6-3,2.8-5.9,3.6-8.8l6.3,1.9
			c-1,4.2-4,9.4-8.8,15.9l2.8-0.3c-0.2-0.7-0.4-1.4-0.5-2l5.6-1.2c0.7,2.3,1.3,5.2,1.8,8.5V40.5c0-1.1,0.6-1.7,1.7-1.7h9.3
			c0.6-1.7,1-3.1,1.2-4.3l6.4,2c-0.2,0.7-0.4,1.5-0.6,2.4h14.4c1.1,0,1.7,0.6,1.7,1.7V67c0,1.1-0.6,1.7-1.7,1.7H62.6
			c-1.1,0-1.7-0.6-1.7-1.7v-0.2l-5.4,0.7c-0.1-0.6-0.2-1.1-0.2-1.6L54,66.1v4.2l5-0.7c0.7,3.3,1.2,6.7,1.7,10.1
			c0.7-2.1,1.1-4.8,1.1-8.2l6.4,0.8v-2h6.6v11.2c0,0.9,0.3,1.6,0.7,2.1c0.5,0.5,1.3,0.8,2.3,0.8h2.7c0.7,0,1.3-0.3,2-0.8
			c0.2-0.1,0.4-0.3,0.4-0.7c0.1-0.6,0.3-1.4,0.4-2.5l-4.8,1.2c-0.8-4.4-1.7-7.8-2.7-10.4l5.9-1.7c1,2.5,1.9,5.5,2.5,9l4.3,1.4
			c-0.9-3-1.9-5.6-2.9-7.8l6.2-2.3c2.2,4.5,4,10.2,5.6,17.1L91,88.7c-0.5-2-1-3.9-1.5-5.5c-0.6,2.9-1.1,4.6-1.4,5.1
			c-1.6,1.7-3.2,2.6-4.7,2.6H73.1c-1.3,0-2.5-0.6-3.5-1.7c-0.9-1-1.3-2.1-1.3-3.2V75.4c-0.9,5.5-2.5,10.3-4.7,14.2
			c-2.1-1.6-3.9-2.7-5.6-3.2c0.6-1.1,1.1-2.1,1.5-3.1l-4.2,0.2c-0.3-3.5-0.8-6.7-1.4-9.4L54,90.8L54,90.8z M73.9,47.5
			c0.7-0.9,1.4-1.9,2-2.8h-8.2c-0.2,0-0.3,0.1-0.2,0.3v7.2c0.8-0.4,1.5-0.7,2.2-1.1c-0.7-0.5-1.3-0.9-1.8-1.2l3.3-4.3
			C72.1,46.1,73,46.8,73.9,47.5z M73.8,54.4c-1.5,1-3.3,2-5.2,2.9L67.5,55v7.4c0,0.2,0.1,0.3,0.2,0.4h2.6L68,58.7
			c2.4-0.6,5-1.5,7.8-2.5C75.1,55.5,74.4,54.9,73.8,54.4z M79.9,60c-0.6,0.3-1.2,0.7-1.8,1c-1.3,0.6-2.6,1.2-3.8,1.8h8.4
			C81.7,61.8,80.8,60.9,79.9,60z M80.5,53.1c0.6-0.6,1.1-1.2,1.6-1.7h-3.5C79.3,51.9,79.9,52.4,80.5,53.1z M88.4,47.8V45
			c0-0.2-0.1-0.3-0.3-0.3h-6.7c-0.3,0.4-0.5,0.9-0.7,1.2h4.6L88.4,47.8z M84.6,62.8h3.6c0.2-0.1,0.3-0.2,0.3-0.4V50.9
			c-1.1,2-2.5,3.9-4.2,5.8c1.1,1.1,2.2,2.2,3.3,3.3L84.6,62.8z"/>
		<path class="st0" d="M91.7,107c0.6,0,0.9,0.3,0.9,0.8v11.7c0,0.6-0.3,0.9-0.9,0.9H53.4c-0.6,0-0.8-0.3-0.8-0.9v-11.7
			c0-0.6,0.3-0.8,0.8-0.8h10.3v-1.8h-11v-2.9c-0.8,3.2-1.7,6.2-2.7,9v42.2h-6.8v-29c-0.8,1.1-1.6,2.1-2.3,3.1l-4.4-5.8
			c5-6.9,8.4-14.9,10-24.2l6.2,1.7h39.7v5.9h-11v1.8C81.4,107,91.7,107,91.7,107z M55.6,146.2c-0.6,0-0.9-0.3-0.9-0.9v-22.6
			c0-0.6,0.3-0.9,0.9-0.9H90c0.6,0,0.9,0.3,0.9,0.9v22.5c0,0.6-0.3,0.9-0.9,0.9h-5.5c2.6,0.6,5.4,1.4,8.4,2.4l-2.1,6.2
			c-5.7-1.9-10.3-3-13.8-3.3l0.8-5.3H67.2l1.4,5.3c-3.9,1.4-8.8,2.5-14.6,3.3l-1.2-6.5c3.9-0.6,7.4-1.3,10.4-2H55.6z M63.7,112.6
			h-4.3c-0.2,0-0.3,0.1-0.2,0.3v1.6c0,0.2,0.1,0.3,0.2,0.4h4.3V112.6z M83.9,128.8v-1.3c0-0.2-0.1-0.3-0.3-0.3H62
			c-0.2,0-0.3,0.1-0.2,0.3v1.3H83.9z M83.9,134.7V133H61.8v1.7H83.9z M61.8,138.9v1.5c0,0.2,0.1,0.3,0.2,0.4h21.6
			c0.2-0.1,0.3-0.2,0.3-0.4v-1.5H61.8z M74.9,105.2h-4.6v1.8h4.6V105.2z M74.9,112.6h-4.6v2.2h4.6V112.6z M81.4,114.8h4.3
			c0.2-0.1,0.3-0.2,0.3-0.4v-1.5c0-0.2-0.1-0.3-0.3-0.3h-4.3V114.8z"/>
	</g>
	<g>
		<path class="st0" d="M417.6,56v3h-14.8v-3h-26.1V42.2h26.1V38h14.8v4.2H448V38h14.8v4.2h25.9V56h-25.9v3H448v-3H417.6z
			 M398.3,142.5l-2.2-14.2l29.3-2.1v-7.1h-31.3c-0.7,0-1.1,0.4-1.1,1.1v31.6h-14.3v-42.1c0-2.2,1.1-3.4,3.4-3.4h43.4v-3.4h-36.7
			c-1.2,0-1.9-0.7-1.9-2V62.2c0-1.2,0.6-1.9,1.9-1.9h87.5c1.3,0,2,0.6,2,1.9V101c0,1.3-0.7,2-2,2h-36.5v3.4H484
			c2.3,0,3.5,1.1,3.5,3.4v32.6c0,4.1-2.2,7.3-6.7,9.6c-5.6,2.7-14.4,3.6-26.6,2.6l-1.6-15.8c2.1,0.3,3.9,0.7,5.5,1
			c-0.4-0.9-0.7-1.7-1-2.2L398.3,142.5z M425.4,72.7h-24.2c-0.4,0.1-0.6,0.3-0.5,0.6v3h24.7V72.7z M425.4,86.6h-24.7V90
			c0,0.4,0.2,0.7,0.5,0.7h24.2V86.6z M439.7,76.3h24.8v-3c-0.1-0.4-0.3-0.6-0.6-0.6h-24.1L439.7,76.3L439.7,76.3z M439.7,90.7h24.1
			c0.4-0.2,0.6-0.4,0.6-0.7v-3.4h-24.7V90.7z M453.5,119.1h-13.8v6l10.8-0.6c-0.7-1-1.2-1.9-1.7-2.7L453.5,119.1z M462.2,140
			c3.3-0.1,5.7-0.4,7.2-0.9c2.5-1,3.7-2.4,3.7-4.1v-14.7c0-0.7-0.4-1.1-1.2-1.1h-10.1c2.8,4.7,5.6,10.4,8.3,17.2L462.2,140z"/>
		<g>
			<path class="st0" d="M516.2,124.2v-4.9c0-0.3-0.2-0.5-0.5-0.5h-5.5c-0.3,0-0.5,0.2-0.5,0.5v5.4h5.9
				C516,124.7,516.2,124.5,516.2,124.2z"/>
			<path class="st0" d="M504.7,105.3c-13.7,0-24.8,11.1-24.8,24.8s11.1,24.8,24.8,24.8c13.7,0,24.8-11.1,24.8-24.8
				S518.4,105.3,504.7,105.3z M520.3,146h-11c-2.8-0.1-5.4-0.3-7.7-0.6c-1-0.2-2.6-0.7-4.9-1.6c-0.3-0.2-1.3-0.9-3.2-2.4
				c-0.4,1.7-0.9,3.2-1.5,4.6l-4.2-0.8c2.1-4.8,3-9.9,2.7-15.1l4-0.2c0,2.4,0,4.5-0.2,6.4c0.5,0.9,1.2,1.7,1.9,2.4v-10.8h-6.7v-4
				h6.8v-2.5h-5.8v-4h5.8v-3.2h4v3.2h4v4h-4v2.5h4.4v4h-4.4v3.6h4.2v4h-4.2v5.6c2,0.6,4.5,0.8,7.5,0.8h13.6L520.3,146z M520.3,138.2
				c-1,1.6-2.2,2.3-3.4,2.3h-6.4c-1.6,0-2.8-0.4-3.7-1.3c-0.7-0.6-1-1.7-1-3.3v-20.1c0-0.6,0.3-1,1-1h12.4c0.7,0,1,0.4,1,1v11.8
				c0,0.7-0.3,1-1,1h-9.4v5.5c0,0.9,0.1,1.4,0.3,1.7c0.3,0.4,0.7,0.6,1.2,0.6h3.9c0.5,0,0.9-0.2,1.3-0.4c0.4-0.3,0.7-0.6,0.9-0.9
				c0.2-0.5,0.2-1.7,0.1-3.5l4.1,0.4C521.4,134.9,521,136.9,520.3,138.2z"/>
		</g>
	</g>
	<g>
		<path class="st0" d="M186.6,76c0,9.1-3.4,17.6-10.3,25.8c-5.4,6.3-17.3,17.6-35.8,33.8h46.1v19.9h-75.4v-9.9v-10
			c25.2-22.9,40.6-37.5,46.2-44c5.7-6.4,8.5-12.5,8.5-18.3c0-5-1.6-9.2-4.9-12.3c-3.3-3.2-7.5-4.8-12.7-4.8c-5.5,0-9.8,2-12.9,6
			c-3.1,4-4.7,9.5-4.7,16.5h-21c0-12.9,3.6-23.2,10.9-30.9s16.9-11.5,29-11.5c10.9,0,19.7,3.7,26.6,11.1
			C183.2,54.8,186.6,64.4,186.6,76z"/>
		<path class="st0" d="M238.2,38.8h24.7l-25.8,39.4c1.9-0.4,3.8-0.5,5.9-0.5c9.5,0,17.6,3.7,24.3,11.1s10.1,16.4,10.1,27
			c0,11.8-3.9,21.7-11.7,29.8c-7.8,8.1-17.4,12.2-28.9,12.2c-11.8,0-21.5-3.9-29.1-11.8c-7.6-7.9-11.4-17.9-11.4-30
			c0-5.4,1-10.5,3-15.3c2-4.9,6.1-11.9,12.2-21.3L238.2,38.8z M217.2,117.1c0,5.9,1.9,10.9,5.6,15c3.8,4.1,8.3,6.1,13.7,6.1
			c5.7,0,10.3-1.9,13.9-5.7c3.6-3.8,5.4-8.8,5.4-14.8s-1.8-10.9-5.4-14.7c-3.6-3.8-8.3-5.7-13.9-5.7c-5.6,0-10.2,1.9-13.9,5.6
			C219,106.7,217.2,111.4,217.2,117.1z"/>
		<path class="st0" d="M346.6,90.6c2.3,1.3,4.4,2.9,6.6,4.8c7.5,6.6,11.2,14.9,11.2,24.8c0,10.7-3.7,19.6-11.2,26.8
			s-16.8,10.8-27.8,10.8c-11.1,0-20.3-3.6-27.8-10.8c-7.5-7.2-11.2-16.2-11.2-26.8c0-9.9,3.7-18.2,11.2-24.8c2-1.8,4.2-3.4,6.5-4.7
			l-1.8-1.5c-6.2-5.6-9.3-12.6-9.3-20.9c0-9.1,3.1-16.6,9.3-22.7c6.2-6.1,13.9-9.1,23-9.1c9.2,0,16.9,3,23.1,9.1s9.3,13.7,9.3,22.7
			c0,8.3-3.1,15.3-9.3,20.9L346.6,90.6z M325.3,101.8c-5,0-9.2,1.7-12.6,5.2c-3.3,3.5-5,7.8-5,13.1c0,5.2,1.7,9.5,5,13
			s7.5,5.2,12.6,5.2c5,0,9.2-1.7,12.6-5.2c3.4-3.4,5.1-7.8,5.1-13s-1.7-9.6-5.1-13.1S330.3,101.8,325.3,101.8z M325.3,81.4
			c3.6,0,6.6-1.2,9-3.6s3.6-5.4,3.6-9.1s-1.2-6.7-3.6-9.1c-2.4-2.4-5.4-3.7-9-3.7c-3.5,0-6.5,1.2-8.9,3.7c-2.4,2.4-3.6,5.5-3.6,9.1
			s1.2,6.7,3.6,9.1C318.8,80.2,321.7,81.4,325.3,81.4z"/>
	</g>
</g>
</svg>
