<?xml version="1.0" encoding="utf-8"?>
<!-- Generator: Adobe Illustrator 25.2.3, SVG Export Plug-In . SVG Version: 6.00 Build 0)  -->
<svg version="1.1" id="圖層_1" xmlns="http://www.w3.org/2000/svg" xmlns:xlink="http://www.w3.org/1999/xlink" x="0px" y="0px"
	 viewBox="0 0 295 118" style="enable-background:new 0 0 295 118;" xml:space="preserve">
<style type="text/css">
	.st0{fill:#F5E800;}
</style>
<g>
	<g>
		<path class="st0" d="M91.7,29.4c4.3-0.2,6.6,0.9,6.9,3.5c0,21.1-1,31.7-2.9,31.8L90.4,65c-0.2,0-0.3-0.2-0.3-0.5L89.1,65l-2.2,0.1
			c-5.5-0.5-8.2-1.2-8.2-2v-0.9c0.3-0.8,1.1-1.2,2.5-1.3c0.3,0,0.7,0.1,1.3,0.4l0.9-0.5l2.2,0.4c1-1.2,1.5-5.7,1.5-13.5v-3.5
			c0-0.2,0.1-0.3,0.4-0.3c0-0.5-0.1-0.7-0.4-0.7l0.4-2.1v-4.4c0-0.7-0.5-1-1.6-1c-0.5,0.3-0.9,0.5-1.1,0.5v-0.5
			c-4.8,1.2-8.9,1.8-12.1,2l-4.9,0.2l-2,0.5v-0.5c-1.7,0.4-2.5,0.8-2.5,1l-1.6-0.3c-1.4,0-4.5,0.5-9.3,1.3c-1.6-0.2-3-0.2-4.1-0.2
			v8.1c0,0.7,0.1,1.3,0.4,1.8l-0.4,0.9c0.3,1.6,0.4,2.9,0.4,4l-0.5,3.3c0.6,0,0.9,0.3,0.9,0.6v0.4c-0.5,1-1.1,3.1-1.7,6.2
			c-0.6,0-1.2,0.2-1.7,0.5c-4.9,0.3-7.3-1-7.3-3.8v-7.1c0-0.2,0.2-0.3,0.6-0.3l-0.5-1l0.4-0.9c0-0.4-0.1-0.6-0.4-0.6l0.4-2.1v-0.9
			l-0.4-2l0.5,0l-0.6-1v-5.3L38.1,36l2.1-1.4l2.6-0.1c3.7-0.2,5.6,0.6,5.6,2.4l6.6-1.7v0.5l1.1-0.6c0.9,0,1.9,0.1,3,0.3
			c7.9-0.7,13-1.4,15.3-2v0.4c0.3,0,2.2-0.5,5.7-1.6v0.4c0.5,0,0.7-0.2,0.7-0.4l2.1,0.3l2.4-0.1c0-1.5,2.1-2.3,6.2-2.5
			C91.4,29.6,91.5,29.4,91.7,29.4z M67.1,3.3c0.2,0,0.2,0.2,0.2,0.6l1.1-0.6h0.4c2.5,1,4.3,2.7,5.2,5c0.9,0.6,1.3,1,1.3,1
			c-0.3,0-0.5,0.3-0.5,0.9l1.1-0.6l1,0.5V9.1l0.7,0.3l5.6-1.2v0.5l1.1-0.6c6,0.4,9.1,1.1,9.1,2v0.9c0,0.4-0.7,0.9-2.1,1.3
			c-2.5-0.2-4.5-0.2-6.1-0.1l-0.5,0c-1,0-3.9,0.6-8.7,1.7v-0.5l-2.4,1.1l-0.9-0.4c-0.4,0-0.8,0.2-1.4,0.5l-1.7-0.4
			C67.2,14.5,66,15,66,15.9h-0.7l-2.2-1.2c-5.1,0.6-7.7,1.2-7.7,1.7c-3-0.1-4.5-0.3-4.5-0.6c-0.5,0-0.8,0.2-0.8,0.5l-1.6-0.4l-4,0.6
			c-2.8-0.5-4.2-1.2-4.2-2.3c0-0.7,1.3-1.4,3.8-2.2l0.8,0.4l3.1-0.1c1.5-0.1,2.9,0,4,0.2c1.6-0.4,3-0.6,4.4-0.7l3.1-0.2
			c0.7,0,1.3-0.2,1.7-0.5c0.5,0.3,1.1,0.4,1.8,0.3l2.4-0.6C64.8,8.6,64,7,63.2,6V5.1C63.2,4.6,64.5,4,67.1,3.3z M53.8,40.6l2.2-0.1
			c3.3-0.1,5.3,0.6,6.1,2.4h0.6l2.7-0.6c0.2,0,0.2,0.2,0.2,0.5c5.6-1.5,9.5-2.3,11.6-2.4c2.3-0.1,4.3,0.6,6,2.2l-0.5,2.2
			c0,2.8,0.2,5.3,0.5,7.5c0,4.9-0.8,7.4-2.5,7.5l-0.5,0c-4.6,0.2-6.9-0.9-6.9-3.2c-0.6,0-0.9-0.1-0.9-0.5l-1.1,0.6l-2.1,0.1
			c-0.2,0-0.3-0.2-0.3-0.5l-1.1,0.6c-0.1,0-0.2-0.2-0.2-0.5c-0.7,0.4-1.2,0.6-1.5,0.6l-2.4-0.4V58c0,2.2-1.6,3.7-4.7,4.5
			c-4.6,0.2-6.8-0.5-6.8-2.1s0.1-7.7,0.4-18.1C53.1,41.2,53.4,40.6,53.8,40.6z M60,16.5c3.7,0.1,5.8,0.1,6.6,0.1
			c0.7,0,2.9-0.2,6.6-0.7l1.8,0.4c1.2-0.4,2.3-0.6,3.4-0.6v0.5l1.1-0.6l3.8,1.5c-0.3,9.6-0.8,14.4-1.6,14.4l-2.7,0.1
			c-3.4,0.2-5.5-0.6-6.5-2.3c-1.3,0.1-4.1,0.5-8.3,1.3l0.5,1c0,0.6-1.3,1.3-3.8,2.2c-4.3,0.2-6.4-1.2-6.4-4.4c0-0.2,0.1-0.3,0.4-0.3
			c-0.6-6.1-0.9-9.6-0.9-10.6C57.1,17.8,59.1,17.1,60,16.5z M62.4,46.5l0.5,1c-0.3,0.5-0.4,1.2-0.4,2l0.7,0c-0.2,0.4-0.5,1.7-0.8,4
			l7.7-0.4l3.2-1.1v-0.5c0-0.7-0.1-1.3-0.4-1.8c0.3-0.5,0.4-1.1,0.4-1.7v-1.5l-1,0C70.3,46.5,66.9,46.5,62.4,46.5z M65.7,20.7
			l-1.4,0.1l-1,0.5c0.6,2.9,1.2,4.4,2,4.6c4.8-0.6,7.2-1.5,7.2-2.6c0.6-1,0.9-1.9,0.9-2.7v-0.6C69.8,20.4,67.2,20.7,65.7,20.7z"/>
		<path class="st0" d="M128.4,0.6c3-0.1,5.7,1,8.1,3.4c-0.9,1.9-1.3,4.2-1.3,7v5.5l2.4-0.1c2.8,0.2,4.2,0.6,4.2,1.4V18l-5.2,0.7
			l-1.4,0c0.3,5.4,0.4,8.9,0.4,10.6c5.5-3.2,8.2-5.2,8.2-5.9c0.9-8.2,1.4-15.6,1.7-21.9l1.6-0.1c1.7-0.1,3.9,1,6.6,3.2l2.2-0.1
			c1.7-0.1,2.8-1,3.2-2.8c0.5-0.3,1-0.5,1.6-0.5l1.3-0.1c1.2,0,2.9,0.4,5.1,1.5v8.2c0,2.9-0.1,7.4-0.4,13.4l3.7-0.2
			c3.7,0.4,5.5,1,5.5,1.8v0.7l-5.1,0.7c-7.8,0.1-12.1-0.7-12.9-2.3c0.3-7.2,0.4-12.9,0.4-17.1v-2L156,6.3l-2.8,0.1v2.7
			c0,12.4-2,20.4-6.1,23.9c-4.3,2.8-6.9,4.2-7.8,4.3c2-1.9,3.4-5.6,4.2-11c-5.5,5.3-8.3,8.6-8.3,10.1v2.2c0,19.8-0.8,29.7-2.5,29.8
			l-2.2,0.1c-4.2-0.1-6.5-0.7-6.9-1.7v-1.3l0.5-2.6c-0.3-1.7-1-2.9-1.9-3.7l0.9-0.1l3.2,0.3l1.4-18.1c-4.1,3.6-6.6,5.4-7.6,5.4
			l-3.8-0.6v-0.7c0-0.4,3.8-3.9,11.4-10.6c0.3-4.2,0.5-7.7,0.5-10.6v-4.6c-5.5,0.6-8.9,0.9-10.2,1l-2.9-0.7v-0.3
			c0-0.8,4.4-1.7,13.2-2.8v-6.2c0-2.8,0.5-5.2,1.4-7.3c-0.5,0-1.3-0.6-2.3-1.9V1.1C127.4,1.1,127.9,0.9,128.4,0.6z M165.2,29.5
			c3.7-0.2,5.6,0.8,5.6,3V36c0,1.3-1.8,6.2-5.3,14.7c6.8,8.3,11.2,13.1,13.2,14.3v0.6c-0.3,0-0.7,0.2-1.2,0.5
			c-7,0.4-11.6-2.3-13.9-8c-0.7,0-1.1-0.6-1.3-1.9c-4.5,5.3-9.5,8.1-15,8.4l-3.8,0.2v-0.6c3.5-0.2,8.1-4.8,13.6-14
			c-5.6-7-8.3-11.3-8.3-12.7v-1.2l2.1-0.5c2.9-0.1,5.6,2.2,8.2,7l1,0.4l0.6,0c1-2.3,2-5.4,3.1-9.2l-1-0.5c-3.3,0.5-6,0.7-8.4,0.9
			c-0.5,0-1.6-0.2-3.3-0.6v-1l2.9-0.2c2-0.1,5.3-0.4,9.8-1C163.6,30.3,164.1,29.5,165.2,29.5z"/>
		<path class="st0" d="M210.3,1.1c2.7,0.2,4,0.6,4,1.3c0,2.7-0.1,5.2-0.3,7.4h1.9c1.5,0,2.5,0.3,2.9,1c0,0.5-1.6,0.9-4.8,1.3v0.1
			l-0.4,7.8h0.1c4.5-0.4,7.6-0.6,9.3-0.6c2.1,0.3,3.1,0.6,3.1,1.1v0.1c0,0.6-3.3,1-9.8,1.4v0.1c2.7,0,4.2,0.3,4.4,0.9v0.1
			c-0.1,1.5-1.8,5.3-4.8,11.4c-0.1,0-0.4,0.4-1,1.3v0.1h3.6c2.1,0,3.6,0.4,4.6,1.3v0.4c0,0.4-1,0.7-3.1,0.9l-0.3-0.1
			c-4.8,0.7-7.3,1.1-7.3,1.3c-0.1,0.2-0.1,0.3-0.1,0.4c0,1.5-0.1,3.5-0.3,6c2.4-0.6,3.9-0.9,4.6-0.9h1.1c1.8,0.1,2.9,0.4,3.1,1v0.1
			c0,0.5-3,1.4-9,2.9c-0.5,12-0.9,18-1.1,18c-0.5,0.3-1,0.4-1.4,0.4h-1.6c-1.8-0.1-2.8-0.4-3-1l1-16c-1.6,0.2-2.8,0.3-3.7,0.3h-1.6
			c-3.2-0.2-5-0.6-5.4-1.3v-0.3c0-0.5,1.1-0.8,3.3-0.9c1.2,0,1.9,0.1,1.9,0.3c2.2-0.4,4.1-0.8,5.7-1.3l0.4-7.1
			c-4.9,0.8-7.7,1.1-8.4,1.1h-1.1c-2.3,0-3.8-0.5-4.4-1.4v-0.1c0-0.6,3.9-1.4,11.7-2.3c1.6-0.3,2.4-0.5,2.4-0.7c0-1,0.6-1.4,1.7-1.4
			h0.9c1.2-1.2,3.2-5.5,5.8-13c0.3-0.2,0.6-0.3,1-0.3v-0.1h-0.4c-1.3,0.1-2,0.2-2,0.3c0,1.1-0.6,1.7-1.9,1.7h-1.7c-2,0-3-0.4-3-1.3
			c-0.5,0.1-1.1,0.1-2,0.1v0.1c0.5,0,1.1,0.2,1.9,0.7l-0.1,2c0,1.8,0.3,4.2,0.9,7.3c-0.6,0.3-1.4,0.4-2.3,0.4
			c-2.2,0-3.3-0.5-3.3-1.6c-0.6-2-0.9-4-0.9-6v-1.6l0.1-1c-1.1,0.1-1.9,0.1-2.4,0.1H197c-1.9-0.1-3-0.5-3.4-1.1v-0.1
			c0-0.7,3.2-1.1,9.6-1.4c0-0.1,1.1-0.2,3.4-0.4c0.1-3.1,0.2-5.7,0.4-8c-2.6,0.2-5,0.3-7,0.3h-0.6c-1.9-0.2-2.9-0.5-2.9-1v-0.3
			c0-0.5,3.5-0.9,10.4-1.1l0.1-0.3c0.3-5.2,0.4-8,0.4-8.4C207.5,1.5,208.4,1.3,210.3,1.1z M242.9,7.8h1.1c4.4,0,7,1.3,7.7,4
			c0.1,0.8,0.1,1.5,0.1,2v0.4c0,3.7-1.3,7.7-3.8,12c-1.4,0.9-2.8,1.3-4.4,1.3c-3.2,0-6.1-1.1-8.8-3.4c0-0.3,0.5-0.6,1.6-0.7h1.6
			c1,0,2.3,0.4,3.8,1.3v-0.1c2.1-4.2,3.1-8,3.1-11.3c0-1.3-0.3-2.4-1-3.3c-0.1,0.1-3.7,0.5-10.8,1.1v0.1c0,3.7-0.1,10.9-0.3,21.8
			l-0.1,0.7h0.6c0.9,0,1.9,0.1,3.1,0.4c7-2.3,11.5-3.4,13.7-3.4h0.9c2.9,0,4.3,1.1,4.3,3.3c0,3.1-2.3,8.9-7,17.4v0.1
			c5.1,7,8.2,11.1,9.4,12.4c0.6,0,0.9,0.3,0.9,1c0,0.5-1.2,0.8-3.6,1c-3.4,0-5.6-1-6.4-2.9c-1.3-2.5-2.7-4.7-4-6.7
			c-3.3,2.6-5.9,3.8-7.8,3.8h-0.1c-1.9,0-3.2-0.3-3.8-1v-0.1c0-0.2,1-0.8,3.1-1.9c2.7-2.4,4.5-4.4,5.4-6.3c-0.5-0.6-3.4-5-8.6-13.1
			h-0.1v0.1c-0.7,17.8-1.4,26.7-2.1,26.7c-0.6,0.2-1,0.3-1.3,0.3h-1.3c-1.7-0.1-2.7-0.4-3-1c1.2-23.3,1.9-41.7,1.9-55.2
			c0.4-0.4,1.1-0.6,2-0.6h1.3c0.7,0,1.5,0.1,2.4,0.4C237.9,8.1,241.4,7.8,242.9,7.8z M237.9,36.2c3.5,5.5,5.6,8.6,6.4,9.6
			c3.2-5.9,4.8-10.1,4.8-12.5v-0.1L237.9,36.2z"/>
		<path class="st0" d="M45,79.9l0.8,0c1.8,0.2,2.7,0.5,2.7,1v2.7c0.4,0,0.9-0.7,1.2-2.1c0,0,0.4-0.1,0.9-0.3
			c1.2,0.3,2.1,0.9,2.7,1.8c0,1.2-1.5,2.8-4.6,4.8l-0.3,0v1.5l1.9-0.4c2.5,0.2,3.8,0.5,3.8,1v0.4c-3,0.3-4.8,0.5-5.5,0.5l0.3,0.6
			c-0.2,0.7-0.2,1.7-0.2,3c1.1-0.1,2.8,1.3,5.1,4.1v0.2c0,0.3-0.1,0.4-0.4,0.4l-0.8,0c-1.5,0.1-2.7-0.6-3.8-2.1l-0.4,0v13.5
			c0,1.8-0.3,2.8-0.9,2.8c-2-0.1-3-0.5-3-1v-12.1c-4.2,4.3-7.2,6.4-9,6.5c0.1-1.3,2.6-4.9,7.5-10.8c1-1.7,1.6-3,1.6-4v-0.9l-2.7,0.4
			l-2.1,0.1c-2.2,0-3.3-0.3-3.3-0.8v-0.3c0-0.3,0.2-0.4,0.4-0.4l3.4-0.2l2.6-0.4v-0.4c-1.2,0.1-2.5-1.7-3.9-5.2
			c-0.1,0-0.2,0-0.2-0.1v-0.3c0-0.3,0.2-0.4,0.4-0.5l0.8,0c1.8-0.1,3.1,1.2,4.1,3.9l0.4,0v-6.5C44.6,80.1,44.8,79.9,45,79.9z
			 M61.8,78.3c1.8-0.1,3.1,0.4,4,1.5v1.9l2.9-0.1c1.7,0.1,2.5,0.4,2.5,0.8v0.4l-5.4,0.8v1.5l2.2-0.1c2.2,0,3.3,0.2,3.3,0.7V86
			c0,0.3-0.2,0.4-0.7,0.5c-0.7,0-2.3,0.2-4.7,0.5v3c1.8-0.3,3.1-0.4,4-0.5l0.5,0c2.5,0,3.8,0.4,4,1c0,0.3-0.1,0.4-0.4,0.4
			c-5.6,0.3-8.4,0.9-8.4,1.8c0,0.1-0.1,0.2-0.4,0.2c-0.8,0-2-0.2-3.9-0.6l-3.9,0.2c-1.1,0.1-2.2-0.1-3.3-0.6v-0.6l1.2-0.3l5.7-0.3
			v-3.3l-2.1,0.1c-1.7-0.1-2.5-0.4-2.5-0.8v-0.4l1.2-0.3l3.4-0.2v-2l-3.2,0.1c-1.2,0.1-1.9-0.1-2-0.6v-0.2c0.1-0.5,0.7-0.8,2-0.8
			l3.2-0.1v-0.4l0.3-2.4c-0.2-0.3-0.3-0.6-0.3-0.9C61.4,78.4,61.6,78.3,61.8,78.3z M57.7,94c2.5-0.1,3.8,0.5,3.8,1.9
			c3.4-0.2,5.1-0.6,5.1-1.3c0-0.6,0.1-1,0.4-1c3.2-0.2,4.8,0.9,4.8,3.3c-0.3,8.2-0.5,14.5-0.5,18.9c-0.3,0.8-0.6,1.2-1,1.3l-0.5,0
			c-2.5,0-3.8-0.4-4-1v-0.5c0-0.6,0.1-1.4,0.3-2.4l-0.2-0.5c0.3-0.6,0.5-1.3,0.5-2.1v-2.7l-3.5,0.2l-1.3-0.2l-0.3,1.4v5.9
			c0,0.2-0.2,0.5-0.7,0.7c-2.2,0.1-3.7-0.2-4.5-1C56.3,101,56.7,94,57.1,94L57.7,94z M61.4,96.7V97c0,2.7,0.2,4,0.6,3.9
			c2.7-0.1,4.3-0.7,4.7-1.6v-2.7l-4,0.2L61.4,96.7z M61.4,102.9v3.5c3.2-0.2,4.8-0.6,4.8-1.4c0-0.2,0.1-1.1,0.3-2.7l-0.4,0
			C64.1,102.7,62.5,102.8,61.4,102.9z"/>
		<path class="st0" d="M96.1,83.6l1.4,0.2c0-0.2,0-0.3,0.1-0.3l1,1.2v0.2c0,0.4-1.3,0.9-3.9,1.4c0,2.4-0.2,6.7-0.5,12.7
			c2.1-1,3.8-1.6,5.3-1.6l0.7,0c0,0.2,0.2,0.5,0.5,0.9v0.2c-1.5,1.4-4.1,3.2-8,5.3c-2.4,2-4.9,3.1-7.5,3.2l-0.8,0
			c-0.4-0.3-0.7-0.5-1-0.5V106c0-0.1,1.4-0.8,4.1-2.2c1.1-0.4,1.6-2.3,1.6-5.6l0.8-7.8c0-0.3-0.1-0.4-0.3-0.4l0.3-1.2v-1.3l-0.3-0.6
			l-4.5,0.7c-0.6-0.5-1-1-1-1.6c2.4-0.5,4.5-1,6.3-1.6v0.3c0.8-0.4,1.4-0.7,1.8-0.7v0.4C92.6,84.2,93.9,83.9,96.1,83.6z M113.5,80.7
			l1.6-0.1c1.5,0.3,2.2,0.6,2.2,1.1c0,0.4-2.7,0.9-8,1.6c0,1.2-0.5,3.1-1.6,5.9c0,0.8-0.2,1.6-0.6,2.5c2.5-0.3,4.2-0.5,5.4-0.5
			L114,91c3.2-0.2,4.8,0.8,4.8,2.8v3.4c0,0.4-0.2,1.2-0.5,2.4c0,0.2,0.1,0.5,0.2,0.8c0,5-1,9.5-3.1,13.6c-0.3,0.2-0.6,0.3-1,0.3
			l-2.6,0.1c-2.2,0.1-4.3-0.7-6.2-2.5c-0.8-0.8-1.2-1.5-1.2-1.9l0.5-0.3l1,0c1.3-0.1,2.9,0.8,4.9,2.6l0.4,0c1.6-1.2,2.6-7,2.9-17.4
			c0-0.8-0.2-1.5-0.6-2.2c-3.2,0.2-5.9,1.3-8.1,3.3c-0.2,0-0.4-0.1-0.8-0.2c-0.9,0.2-1.7,0.3-2.3,0.4c-0.2,0-0.6-0.4-1.2-1.2
			c0.7-1.4,1.6-4.9,2.9-10.7c-0.5,0.2-0.8,0.3-0.9,0.4c-0.2,0-0.4-0.1-0.8-0.2l-1.6,0.3l-0.3,0c-1,0.1-1.4-0.5-1.4-1.5l0.2,0
			c0.8-0.4,1.6-0.6,2.2-0.7v0.3c0.5-0.2,1.6-0.4,3.4-0.7v0.3l2.2-0.7c0.1,0,0.1,0.1,0.1,0.3C110.7,81.2,112.8,80.7,113.5,80.7z"/>
		<path class="st0" d="M156.1,81.7l1.8-0.1c0.3,0,1.3,0.3,3,1.1v0.7c-0.9,3.2-2.2,4.9-3.9,5c0,0.4-0.3,0.6-1,0.6v1.5l8.1-0.4
			l1.2,0.2v0.4c-0.2,0.5-0.7,0.7-1.5,0.8l-7.2,0.4l-0.6-0.3v4c0,0.2-0.2,0.5-0.7,0.7c-1,0-5.5,0.1-13.4,0.1
			c-1.2,0.2-2.3,0.4-3.1,0.4c-0.8-0.2-1.2-0.4-1.2-0.6v-1l0.3-1.9l-0.4,0c-1.2,0.1-3.6,0.3-7,0.6l-1.2-0.2v-0.4
			c0-0.4,2.9-0.9,8.8-1.7c0.2-3.4,1-5.2,2.5-5.3l0.8,0c1.3,0.1,2,0.2,2,0.6l-0.3,0.7l8.2-0.4c2.6-0.5,3.9-1,3.9-1.3l0.5-2l-0.4,0
			c-0.6,0.2-0.9,0.3-1,0.3c-7.3,0.2-12.7,0.4-16.4,0.5v3.2c0,1.3-0.5,2-1.4,2.1l-1.8,0.1l-1.7-0.2c0.2-1.7,0.2-2.9,0.2-3.8l-0.3-2.2
			c1.1-0.4,1.8-0.6,2.2-0.6c1.7,0.3,2.7,0.4,2.9,0.4l11.6-0.6c0.6,0,1.4,0,2.4,0.2c0.2-0.2,0.8-0.3,1.8-0.4l1.6-0.1
			C155.5,82.1,155.7,81.7,156.1,81.7z M154.5,97.3c1.1,0.2,1.7,0.4,1.7,0.8v9.8c-0.1,0.5-0.7,0.7-2,0.8l-7.9,0.4
			c0,2.3-2,4.7-6.1,7.3l-2,0.1v-0.4c1.7-2.3,3.2-4.5,4.5-6.6l-3.8,0.2c-0.4,0-1.2-0.1-2.2-0.4v-1.7c0-2,0.1-5,0.3-9l1.2-0.3l0.8,0
			c0.9,0,1.7,0,2.3,0.1c0.9-0.2,1.4-0.3,1.6-0.3c3.2,0,5.2,0,6,0C151.9,97.6,153.8,97.3,154.5,97.3z M141.3,99.6v0.6l0.3,1.4
			l0.6-0.3l9.6-0.5v-2l-7.3,0.4L141.3,99.6z M141.3,105.8v2.5l10.5-0.5V105l-2.2,0.1C147.8,105.2,145,105.4,141.3,105.8z
			 M141.8,102.6l-0.3,0.6v1.2l3.7-0.2c1.5-0.1,3.6-0.3,6.5-0.6v-1.5c-0.2,0-0.9,0-2.2-0.1C145.2,102.4,142.6,102.6,141.8,102.6z
			 M141.8,95.3l2-0.1c0-0.5,0.2-1.3,0.6-2.5l-1.7,0.1C142.2,92.8,141.9,93.6,141.8,95.3z M142.8,88.6l-0.3,1.9v0.9
			c1.5-0.2,2.2-0.6,2.2-1.3l-0.3-1.2c0.2,0,0.3-0.2,0.3-0.5L142.8,88.6z M145.5,77.8c2.4-0.1,3.5,0.8,3.5,2.8v0.8
			c0,0.2-0.4,0.6-1.3,1.3l-2,0.1c-0.7,0-1.4-1.4-2.2-4.3C143.8,78.4,144.4,78.2,145.5,77.8z M146.1,95.1l5.2-0.3l0.3-2.8l-3.2,0.2
			C148.1,92.2,147.3,93.2,146.1,95.1z M148.7,88.3l0.6,0.9c0,0.3-0.2,0.8-0.6,1.7l2.8-0.2v-2.2l-1.4,0.1L148.7,88.3z M150.4,109.9
			l0.3,0c1.9-0.1,3.4,2,4.6,6.4v0.4l-1.7,0.6c-1.5,0.1-2.7-1.6-3.8-5c-0.4,0-0.8-0.6-1-1.9v-0.2L150.4,109.9z"/>
		<path class="st0" d="M177.1,99l2.1-0.1c0.4,0,1.2,0.3,2.6,0.9c0.8-0.4,1.9-0.6,3.4-0.7l3.4-0.2c2-0.1,3,0.8,3,2.8l-0.3,0l0.3,0.6
			v3.1c0,0.1-0.1,0.2-0.3,0.2l0.3,0.6l-0.3,1.3c0.2,0.9,0.3,1.7,0.3,2.5l-0.3,0l0.3,0.6c0,0.1-0.1,0.2-0.3,0.2l0.3,0.6
			c0,0.3-0.2,0.4-0.6,0.4l0.3,0.6v1.4c-0.4,0-0.5,0.1-0.5,0.2c-0.6-0.3-1.5-0.4-2.7-0.3l-1.3,0.1c-0.3,0-0.4-0.1-0.4-0.4v-2
			c-1,0.2-1.5,0.4-1.7,0.4c-0.1,0-0.2-0.1-0.2-0.3c-0.5,0-1.8,0.4-3.8,1l0.3,1.3l-1.7,0.1c-2.2,0.1-3.3,0-3.3-0.5v-1l0.5-0.8v-2.9
			c0-3.4-0.2-6.6-0.5-9.5L177.1,99z M181.4,101.7v5.3c0,0.4,0.1,0.8,0.3,1.1c0,0.1-0.1,0.2-0.3,0.2l0.3,1.4v0.9l2.7-0.1l1.9-0.4
			v-8.7l-0.3-0.6C185.6,100.9,184.1,101.2,181.4,101.7z M184.6,81.8l1.3-0.1l3.6,0.9c2.8-0.3,4.9-0.7,6.3-1.1c0.1,0,0.1,0.1,0.1,0.3
			c1.4-0.3,2.3-0.5,2.7-0.7c2.5-0.1,3.8,0.8,3.8,2.8c0,0.7,0.1,2.2,0.3,4.6l-0.3,0.5c0,0.3,0.1,0.4,0.3,0.4l-0.3,1.2v3.3l-0.9,0
			c-0.4,0-0.8,0.1-1,0.3L200,94c-1,0.2-1.7,0.4-2.3,0.4l-0.2,0l-0.3-1.2v-0.9c-1.3,0.3-2.1,0.5-2.4,0.6v-0.2
			c-1.1,0.4-1.9,0.6-2.2,0.7c-0.1,0-0.1-0.1-0.1-0.3l-7.4,1.2l-0.5-0.3c-0.4,0.2-0.6,0.3-0.7,0.3l-0.5-0.7c0.2-3,0.3-4.9,0.3-5.7
			l-0.2-2.2l0.3,0c-0.5-1.5-0.8-2.6-0.8-3.2v-0.5L184.6,81.8z M188.7,84.2v0.4l0.3,3l-0.3,0l0.3,0.6c-0.2,1.2-0.3,2.2-0.3,2.9v0.3
			l0.3,0.6c5.7-0.8,8.5-1.4,8.5-1.8c0-3.5-0.2-5.8-0.6-6.9C194.2,83.8,191.5,84.1,188.7,84.2z M206.2,97.3l0.5,0.2l0.6-0.3
			c2.5-0.1,3.8,1,3.8,3.3v0.3c-0.2,1.2-0.3,2-0.5,2.3l0.3,1.6c0,0.8-0.2,1.2-0.6,1.3l0.6,1.1c-0.2,0.9-0.3,1.7-0.3,2.4l0.5,0.7
			c-0.2,0.3-0.2,0.6-0.2,0.8l0.2,0.5c-0.2,0.3-0.2,0.6-0.2,0.9l-1.2-0.2c-1.2,0.2-2.2,0.4-3,0.4c-0.2-0.4-0.3-1.2-0.5-2.6l-4,0.2
			c-0.4,0-0.8,0.1-1,0.3c-0.3-0.1-0.6-0.2-0.8-0.2l-0.3,0.6v1.5l-0.2,0c-0.2,0-0.9,0-2.2-0.1v0.2l-0.4-0.2h-0.3
			c-0.4,0.1-0.6,0.3-0.6,0.5c-1.1,0-1.6-1.4-1.6-4.3c-0.4-5.8-0.6-9-0.8-9.8l1.2-0.3l1.3-0.1c0.6,0,1.6,0.2,3.1,0.6l2.2-0.6v0.3
			L206.2,97.3z M199,101.2c0.2,0.3,0.5,2.2,0.9,5.9l-0.3,0c0.2,0.3,0.3,0.9,0.3,1.7l3.2,0.1c1.2-0.2,2.1-0.4,2.9-0.4v-2.1
			c0-1.5-0.1-3.7-0.3-6.6C202.6,100.2,200.4,100.7,199,101.2z"/>
		<path class="st0" d="M230.2,77.8l1.5-0.1c2.4,0,3.5,0.3,3.5,1c-0.2,0.3-0.3,0.7-0.3,1.2l6.3-0.3c1.3-0.1,2.2-0.3,2.9-0.7
			c0.1,0,0.1,0.1,0.1,0.3c4-0.6,6.7-1.1,8.2-1.5l1-0.1c0.4,0,1.7,0.3,3.8,1.1V79c0,0.5-0.4,1.3-1.1,2.6l0.3,0.5
			c-0.5,2.4-1.5,3.6-2.9,3.7c0-0.4-0.2-0.5-0.5-0.5l0.2-0.4v-0.4l-0.5,0c0,0.5-0.4,0.8-1.2,0.8l-0.7,0v-0.5c-5.4,1.1-9,2-10.8,2.6
			l-0.5-0.2c-3.6,0.2-5.3,0.8-5.3,2c0.2,0,0.3,0.1,0.3,0.2l18.1-1.7c2.2,0.4,3.3,0.9,3.3,1.3c0,1-0.7,1.5-2.1,1.6v-0.3l-0.7,0.3
			l-1.4,0c0-0.5-0.3-0.7-0.9-0.7c-1.5,0.1-2.5,0.9-3,2.5l-5.6,6.9l2-0.1c0.4,0,0.8-0.1,1-0.3l0.5,0.2c0.9-0.4,1.7-0.6,2.3-0.7
			l-2.7-2.1v-0.4c0.7-0.2,1-0.4,1-0.6c3-0.1,6.2,1.2,9.5,3.9c1,0.6,1.6,1.2,1.8,1.9c-0.2,0.3-0.3,0.6-0.3,0.7l-0.4,0
			c-0.1,0-0.2-0.1-0.4-0.2c0,0.1-1.1,0.2-3.2,0.3c-0.6-1.2-1.5-1.7-2.9-1.7c-1.6,0.1-2.4,0.6-2.4,1.5l0.3,2.7h0.4
			c0.3-0.2,0.6-0.3,1-0.3l3.9-0.2c1.5,0.5,2.2,0.8,2.2,1.1c-0.4,0.5-1.8,0.9-4.2,1.2v-0.4c-0.3,0.3-1.4,0.6-3.3,0.8v0.9l-0.3,3.2
			c2.8,0.2,5.9,0.3,9.4,0.1c0,0.3,0.6,0.5,1.8,0.7v0.7c0,0.3-0.5,0.6-1.5,1c-0.3-0.1-0.7-0.2-1.1-0.2c0,0.3-0.1,0.5-0.4,0.5
			c-1.2-0.6-3.2-0.9-6-0.8l-1.2,0.3l-0.3-0.5c-0.3,0.2-1.2,0.4-2.8,0.7v-0.3l-0.6,0.4c-0.9-0.1-1.6-0.2-2.1-0.2
			c-0.4,0-0.6,0.1-0.6,0.3l-1.2-0.2l-1,0.1c-0.4,0-0.8,0.1-1.1,0.3l-0.5-0.2c-0.2,0-0.4,0.1-0.4,0.3c-2.7-0.1-4.3-0.2-4.6-0.3
			c-0.4,0.2-0.6,0.3-0.7,0.3c-0.2-0.9-0.6-1.3-1-1.2v-0.6l0.2,0c0.9,0,1.7-0.2,2.4-0.4c1.6,0.1,3.2,0.1,4.7,0l3.2-0.2v-2.2
			c0-0.1,0.1-0.2,0.3-0.2c-0.2-0.4-0.3-0.7-0.3-0.9l-0.4,0l-1.6,0.3c-0.1,0-0.1-0.1-0.1-0.3c-1.6,0.4-2.9,0.7-3.9,0.7
			c0-0.2-0.1-0.3-0.4-0.2c0,0.2,0,0.3-0.1,0.3c-0.5-1.2-0.8-1.8-0.8-1.9l0.2,0l2-0.6c0,0.2,0.1,0.2,0.4,0.2l0.3-0.5l0.5,0.2
			c0.6-0.2,0.9-0.4,0.9-0.5l0.4,0.2c1.8-0.2,2.7-0.6,2.7-1v-2.9l-0.6,0l-1.2,0.3v-0.3c-0.7,0.4-1.5,0.7-2.2,0.7
			c-0.1,0-0.2-0.1-0.2-0.3c-0.8,0.4-1.3,0.7-1.6,0.7c0-0.2-0.1-0.3-0.4-0.3c0,0.4-0.1,0.6-0.4,0.6c-1.6,0.1-2.7-0.4-3.3-1.3v-0.2
			c0-0.2,0.7-0.6,2.1-1.3c0-0.3,1.4-1.8,4.1-4.3l3.5-5.5l-1.2,0.1c-0.4,0-0.8,0.1-1,0.3c-0.3-0.1-0.6-0.2-0.8-0.2l-1.3,0.3l-0.5-0.2
			l-1.6,0.3h-0.3c-0.4,0-1-0.1-1.6-0.5c-0.4,2.5-1.8,7.9-4.4,16.2c-1.7,2-2.6,3.6-2.6,5.1c-0.6,0.2-1.3,1.3-2.1,3.2
			c-1.6,1.1-2.7,1.7-3.3,1.7l-0.5,0l-1.4-0.9c6.6-10.2,9.8-23,9.8-38.4L230.2,77.8z M244.7,81.6c-0.3-0.2-0.7-0.2-1.1-0.2
			c-0.3,0.2-0.5,0.3-0.6,0.3v-0.3l-0.7,0.4l-1.5,0.1l-1.5,0.4c-0.3-0.2-0.7-0.2-1.1-0.2l-0.5,0.3l-1.5-0.2l-0.6,0
			c-0.4,1.4-0.5,2.6-0.5,3.3l2.2-0.1c1.8-0.1,4.6-0.7,8.4-2l1.3-0.1c0.1,0,0.2,0.1,0.2,0.3l0.6-0.4c1.2,0.3,1.9,0.4,2.1,0.4l0.6,0
			c0.2-1.4,0.4-2.3,0.6-2.8l-0.7,0C247.4,81,245.6,81.2,244.7,81.6z"/>
	</g>
	<g>
		<rect x="292.7" y="0.2" class="st0" width="1.9" height="117.5"/>
	</g>
	<g>
		<rect x="0.4" y="0.2" class="st0" width="1.9" height="117.5"/>
	</g>
</g>
</svg>
