<?xml version="1.0" encoding="utf-8"?>
<!-- Generator: Adobe Illustrator 25.2.3, SVG Export Plug-In . SVG Version: 6.00 Build 0)  -->
<svg version="1.1" id="圖層_1" xmlns="http://www.w3.org/2000/svg" xmlns:xlink="http://www.w3.org/1999/xlink" x="0px" y="0px"
	 viewBox="0 0 287 104" style="enable-background:new 0 0 287 104;" xml:space="preserve">
<style type="text/css">
	.st0{fill:#F5E800;}
</style>
<g>
	<g>
		<path class="st0" d="M36.6,17.3l0.8,0c1.7-0.1,3.2,0.5,4.4,1.8c-3.2,8.2-6.2,13.8-9,16.7c-3,3.2-5.4,4.8-7.1,4.9v-0.2
			c0-1,2.6-5.7,7.8-14.3c1.7-3.3,2.9-6,3.7-8.2c-0.4,0-0.6-0.1-0.6-0.5V17.3z M34.5,34.9l1.1-0.1c1.3,0,2.4,0.4,3.5,1.3
			c-0.2,3.7-0.3,6.4-0.3,8.1v12.1c0,2.5-0.3,3.8-0.8,3.9c-3.1-0.3-4.7-1-4.7-2.1v-0.3c0.6-1,0.9-2.8,0.9-5.5V40
			C34.2,38.9,34.3,37.2,34.5,34.9z M52.4,31.3h0.2c2.1-0.1,4,0.6,5.6,2c0.2,2.1,0.3,3.3,0.3,3.7l0.4,0c1,0,3.4-0.4,6.9-0.9l3.5,1
			v0.2c0,0.3-0.2,0.5-0.5,0.5c-0.2,0-0.5-0.1-0.9-0.2c-2.9,0.5-5.6,0.9-8,1V39c4.6,4.8,8.8,9.6,12.7,14.5v0.5h-0.2
			c-4.3,0.2-7.7-2-10.2-6.7L59,43.7l-0.5,0v0.4c0,3.6,0.2,8,0.6,13.2c-0.4,1.2-0.8,1.8-1.4,1.8c-4.4-0.7-6.5-1.7-6.5-3
			c-0.4,0-0.6-0.1-0.6-0.3l0.5,0l2.2,0.5v-0.4C53.1,52.2,53,49,53,46.3c-4.3,4.5-7.4,6.9-9.3,7c0,0.4-0.1,0.6-0.4,0.6l-0.2-0.4
			c0.1,0,0.6-1.1,1.4-3.4l8.6-10.9l-0.8,0c-4.6,0.2-7.9,0.1-9.9-0.4v-0.7L53,37.6v-0.4C53,35.4,52.8,33.4,52.4,31.3z M61.6,16
			c2.1-0.1,3.7,0.5,4.7,1.8c0,1.9,0.1,3.6,0.3,5.1c-0.2,2.4-0.3,5.1-0.3,8.1l-2,0.1c-1.1,0-2.3-0.3-3.3-1l-10.7,0.5v1.8
			c-1.4,0.1-3.2-0.3-5.5-1.2V18.6c0-0.3,0.2-0.5,0.5-0.5l0.9,0c0.2,0,1.6,0.2,4.2,0.7l9.7-0.5c0.4,0,0.7-0.8,1-2.2L61.6,16z
			 M50.3,20v9.3l9.5-0.5l0.7,0.3l0.3-3.2v-6.5L50.3,20z"/>
		<path class="st0" d="M101.7,18.8l2.6,0.5v0.5c0,1.2-0.6,2.6-1.8,4c0,0.8-1.7,3.8-5,8.9c0.3,0,0.4,0,0.4,0.1c-0.5,0-1,0.6-1.5,1.6
			v0.8l1.6-0.4c0.3,0,1.3,0.1,3.2,0.4c-0.2,1.7-0.3,2.7-0.3,3c0,0.5,0.1,0.7,0.3,0.7l-0.3,2v8.8c0,0.1-0.1,0.2-0.4,0.2l0.4,0.7V52
			c0,0.1-0.1,0.2-0.3,0.2c0,0.4,0.1,0.5,0.3,0.5l-0.3,2.9l0.3,2.6c-0.2,0-0.8,0.5-1.7,1.3c-2.9,0.1-4.4-0.5-4.4-1.8l0.6-6.4
			c-0.2-1.5-0.3-3.3-0.3-5.5c0-0.1,0.1-0.2,0.4-0.2l-0.4-0.7v-1.5c0-0.1,0.1-0.2,0.3-0.2c0-0.3-0.1-0.5-0.3-0.5l0.3-1.4V41L95,37
			c-1.4,2.2-2.3,3.4-2.6,3.4c-0.5,0.9-1.7,1.8-3.4,2.7v0.9c-1.5-0.1-2.2-0.8-2.2-2.2v-0.3C94,30.1,97.5,23.8,97.5,22.7l0.9-1.3v-1.5
			C98.7,19.9,99.8,19.6,101.7,18.8z M116.3,16.3l1.2-0.1c2.1,0.3,3.2,0.8,3.2,1.2v0.2c-0.5,0-0.9,0.8-1.2,2.4c0.4,0,0.6,0.2,0.6,0.4
			l-0.4,0.8c1.2-0.3,3.4-0.6,6.6-1c1.6,0.4,2.3,0.7,2.3,1v0.5c-0.8,0-1.8,0.3-2.9,0.7c0-0.1-0.2-0.2-0.5-0.2v0.5
			c-0.3-0.1-0.6-0.2-0.9-0.2c-1.4,0.3-2.2,0.4-2.3,0.4v-0.3c-1.2,0.3-1.7,0.5-1.7,0.7l-0.5-0.2h-0.7c-1,2.8-1.5,4.4-1.5,4.5l0.7,0.3
			c1.3-0.2,1.9-0.5,1.9-0.7c0,0,0.1,0.1,0.1,0.3l1.6-0.4l2.1-0.1c1.4,0.3,2.2,0.5,2.3,0.5c-0.2,6.1-0.3,10.7-0.3,13.6
			c0,3.9,0.2,6.4,0.6,7.6c-0.2,0.3-0.3,0.9-0.3,1.6c0.2,2.5,0.3,3.8,0.3,4l1.3,0c3.1,0.1,4.8,0.5,5.1,1.2v0.2l-1.5,0.4l-0.9,0
			c-0.1,0-0.2-0.1-0.2-0.4l-0.8,0.4l-0.8,0l-0.8-0.3c0,0.2,0,0.4-0.1,0.4v-0.7l-0.7,0.4c-0.3-0.2-0.8-0.3-1.3-0.2v0.9l-3.9-0.4
			c-3.3,0.4-6.3,0.6-8.8,0.8l-0.3,0c-1.5,0-2.6,0.3-3.4,0.8c-4.8-0.2-7.2-0.4-7.2-0.5l-0.2-0.5c0.6,0,1.5-0.6,2.9-1.6l0.7,0V53
			c0-0.1,0.1-0.2,0.4-0.2L106,52l0.3-2.7c0-0.3-0.1-0.4-0.3-0.4l0.3-1.4V45c0-0.5-0.1-0.9-0.3-1.2c0.2-0.3,0.3-0.7,0.3-1.2v-2.4
			c0-0.7-0.1-1-0.3-1l0.3-1.4v-4.9c0-0.1,0.1-0.2,0.4-0.2l-0.4-0.7v-0.6c0-0.4,1-0.8,2.9-1c0.4,0.2,0.8,0.3,1.1,0.3v-0.4l-0.3-0.6
			c0-0.7,0.9-1.3,2.8-1.9c0-0.2,0.1-0.3,0.3-0.3c0-0.3-0.1-0.5-0.3-0.5c0.4-1.3,0.6-2.3,0.6-3.1c-1.6,0.1-3.7,0.5-6.2,1.2
			c-2.4-0.2-3.5-0.5-3.5-0.9c0-0.4,3.4-1.2,10.3-2.3c0.3-1.2,0.6-1.8,1-1.9c0-0.4-0.1-0.5-0.3-0.5l0.3-1.4l-0.3-1.1
			C115.2,16.6,115.8,16.3,116.3,16.3z M114.6,48.7v-0.3l-0.8,0.4l-3.1,0.1v2.6c0,0.1-0.1,0.2-0.4,0.2l0.4,0.7v2.7
			c0.1,0.5,0.3,0.7,0.7,0.7l1.2-0.1c2-0.1,5.1-0.3,9.2-0.8c0-0.8,0.1-1.2,0.4-1.2c-0.4-1.4-0.6-3.6-0.6-6.6L114.6,48.7z M118.1,41
			l-6.4,0.3c-0.4,0-0.7,0.9-1,2.6l0.3,0.6v2.4l-0.4,0.8c7.3-0.8,11-1.4,11-1.9c0-0.7-0.1-2.4-0.3-5.3L118.1,41z M110.9,36.7l0.3,0.7
			c0,0.1-0.1,0.2-0.3,0.2l0.3,0.7v0.9l-0.3,0.8l3.8-0.2c0.1,0,0.2,0.1,0.2,0.4l0.8-0.4c0.1,0,0.1,0.2,0.1,0.5
			c0.3-0.3,2.1-0.7,5.4-1.1l0.3-1.6v-1.1l-1.6-0.2l-4,0.2c-0.5,0-0.9,0.1-1.3,0.4c-1.5-0.1-2.3-0.3-2.3-0.6
			C112,36.6,111.5,36.7,110.9,36.7z M112.9,30.6c-0.1,0-0.8-0.1-2-0.2c0.2,1.5,0.4,2.4,0.6,2.9l-0.3,1.8v0.4l10-0.5
			c0-0.6,0.1-0.9,0.3-0.9l-0.3-1.3l0.3-2.8l-1-0.6C117.8,30,115.2,30.4,112.9,30.6z"/>
		<path class="st0" d="M157.9,21.1c1.8,0.1,3.2,0.3,4.3,0.7l-0.3,2.1v0.6c0,3.4,0.4,5.1,1.1,5.1l3.1-0.1l1.3,0.9l0.4,0v-1
			c0-1.8-0.3-3.1-0.9-3.8c0-0.4,0.8-0.8,2.3-1.2v0.4l0.8-0.4h0.3c0.1,0,0.2,0.1,0.2,0.4l0.8-0.4c1.8-0.1,2.7,1.5,2.7,4.9
			c0.2,0,0.3,0.1,0.3,0.5c-0.2,0.8-0.3,1.7-0.3,2.7l0.5,0c2.5-0.9,3.8-1.6,3.8-2.2v-5c0-1.2-0.5-2.5-1.5-3.9c1.3-0.7,2.3-1,3-1
			l0.3,0c3.1-0.1,4.6,0.2,4.6,0.9c-0.2,2.7-0.3,4.9-0.3,6.6v0.6l0.3,0.7l1.7-0.4l0.6,0l0.8,0.3v-2.3c0.2,0,0.5-0.1,0.9-0.3
			c0.1,0,0.1,0.1,0.1,0.3l1.7-0.4l0.3,0c1,0,2.3,0.3,3.7,1.1c0,8.2-0.9,15.2-2.8,21c-0.8,0.7-1.7,1-2.7,1c-4.1,0.2-6.1-0.6-6.1-2.5
			l-0.8,0c-3,0.1-4.6-0.6-4.6-2.3l-0.3,0c0.6-2.7,0.9-5.7,0.9-9.3l0.4-0.8l-0.5,0c-2.6,0.9-3.8,1.7-3.8,2.5c0,0.5,0.1,0.7,0.3,0.7
			l-0.3,2.1v2.2c0,0.1-0.1,0.2-0.4,0.2l0.4,0.7v1.8l0.3,1.8c-0.2,0.4-0.3,0.8-0.3,1c0.6,3.4,1.3,5,2.3,5c5.1-0.1,9.2-0.2,12.2-0.3
			c3.2-0.1,4.8-1.9,4.8-5.3c0.5-1,0.9-1.5,1.2-1.5c1.9-0.1,3.1,1.9,3.7,6.1c0.2,0,0.8,0.7,1.8,2c0,0.5-1.3,1.1-4,1.6l-5.3,0.2
			c-0.3,0-0.4,0.1-0.4,0.3l-0.5-0.2l-7.8,0.4c-6.6,0.3-10.9-0.6-12.7-2.8c-1-1.8-1.5-5.1-1.5-9.9c0.2-2.2,0.3-4,0.3-5.5l-0.5,0
			c-0.4,0.2-0.8,0.4-1.2,0.4c-1.1,0.1-2-0.5-2.7-1.6v-0.8c0.8,0,1.3-0.1,1.3-0.3l0.5,0.2h0.4l1-0.7c0.1,0,0.1,0.1,0.1,0.4
			c0.5-0.3,0.9-0.4,1.2-0.4v-2.7c-1.8,0.1-2.7,0.5-2.7,1.1l-1.5-0.2l-1,1.7v9.2c0.6,0,1-0.2,1.4-0.4c0.9,0.4,1.8,0.6,2.7,0.5v1.1
			c-2.7,3.5-4.1,5.6-4.1,6.2c0,1.4-1.6,2.3-4.7,2.7c-1.4,1.5-2.6,2.3-3.7,2.4c-3.6,0.2-5.7-0.4-6.5-1.8v-0.8c3-1.4,5.6-3.2,7.8-5.4
			v-3.2c0-0.7-0.1-1.2-0.3-1.5l0.3-1.9v-2.9c0-0.1,0.1-0.2,0.4-0.2l-0.4-0.7l0.3-3.9l-0.7,0c-0.6,0-1.2,0.3-1.9,0.7
			c-2,0.1-3.9-0.3-5.8-1.2v-0.5c0-0.2,0.1-0.2,0.4-0.2l-0.4-0.7v-0.2l3-0.4l1.2-0.1c0.5,0,0.9,0.1,1.3,0.3c1.3-0.5,2.2-0.7,2.6-0.8
			c0-2.5-0.4-5.5-1.2-8.7L157.9,21.1z M184.5,34.3l0.3,4.4c-0.2,2.2-0.3,4-0.3,5.5l0.8,0c1.1-3.3,1.6-5.6,1.6-6.8l-0.3-0.5
			c0.6-1.7,0.9-2.8,0.9-3.2l-0.3-0.6c0.2-0.4,0.3-0.8,0.3-1.3v-0.8c-2,0.1-3,1.1-3,3V34.3z"/>
		<path class="st0" d="M254.2,14.7c2.7,0.1,4,0.5,4,1.2c0,0.7-1,1-2.9,1c-0.2,0-0.9-0.1-2.1-0.2c-0.3,0-1.7,0.1-4,0.2v0.1
			c0.8,0,1.3,0.2,1.6,0.6v3.3c2.9-0.3,4.7-0.4,5.6-0.4h0.2c2.2,0,3.3,0.7,3.3,2v1.1c-0.4,5.2-0.9,7.8-1.5,7.8
			c-0.3,0.5-1.1,0.7-2.5,0.8c-1.5,0-2.5-0.3-2.9-0.9c0.4-0.4,0.7-1,0.8-1.7h-0.1c-2,0.2-2.9,0.4-2.9,0.5c0,0.5-0.8,0.8-2.3,0.8
			c-0.8,0-1.5-0.2-2.2-0.5c-3.5,0.3-6.3,0.4-8.5,0.4c-0.6,0-1-0.1-1.4-0.2v0.2c0,0,0,0.3,0.1,0.8c-0.4,0.3-1,0.5-1.8,0.5h-0.4
			c-1.8,0-2.7-0.5-2.7-1.4c-0.1-2.2-0.1-3.5-0.1-3.8c0,0.3-1.4,0.6-4.3,0.8v2.8c0,0,0.2,0.2,0.5,0.5v0.3c-0.4,0.2-0.6,1.1-0.6,2.8
			v0.8c1.4,0.4,3.1,1,5.1,1.9c0.7-0.2,1.3-0.3,1.9-0.4c1.4,0.1,2.5,0.1,3.3,0.1h3c1.1,0,5.4-0.2,12.8-0.7h2.2c1.8,0,3.1,0.4,3.7,1.1
			v0.2c-0.4,0.7-1.2,1.1-2.3,1.1h-1.4c-0.5,0-1.2-0.1-2.2-0.4c-6.6,0.4-10.7,0.6-12.2,0.6c-2.2-0.1-4.3-0.1-6.3-0.1
			c0,0-0.3,0-0.8-0.1c0,0.3-0.6,0.4-1.8,0.5h-0.3c-1.2,0-2.8-0.6-4.9-1.7v0.1c0,11.5-0.3,17.2-0.9,17.2c-0.4,0.2-1,0.3-1.6,0.3
			c-1.4,0-2.2-0.2-2.5-0.7V39c-1.6,2.2-2.9,3.8-4,4.6c-0.3,0.1-0.6,0.2-1.1,0.2h-1.1c-1.5-0.1-2.3-0.4-2.3-0.8
			c2.1-2.7,4.9-6.5,8.5-11.5V31c0-0.7,0-1.6,0.1-2.9c-1.6,0.1-3.3,0.2-4.9,0.2h-1.2c-1,0-1.8-0.2-2.2-0.7v-0.3c0-0.4,2.7-0.7,8-0.9
			c0-0.1,0.1-0.1,0.3-0.1V17c0-0.6,0.6-0.9,1.8-0.9h1.3c0.9,0,1.6,0.3,2,0.8c-0.1,0.9-0.1,1.5-0.1,2v6.9c0.7-0.1,1.1-0.1,1.5-0.1
			h0.8c1,0,1.7,0.2,2.1,0.6v-0.1c0-1,0-2.7,0.1-5.1c0.4-0.3,0.9-0.4,1.5-0.4h1.4c0.9,0,1.5,0.2,1.9,0.7v1.5c1.3-0.1,2-0.3,2-0.5
			c0.1-2.7,0.3-4.2,0.4-4.7c-1.3,0.1-2.3,0.1-2.9,0.1h-0.3c-1.2,0-2.1-0.3-2.8-0.9v-0.3c0-0.5,3.4-1,10.3-1.3
			C247.8,14.9,251.5,14.7,254.2,14.7z M254.1,41.1h1.5c1.6,0,2.6,0.3,3,1v0.2c0,0.3-0.7,0.6-2.2,0.8c-0.2,0-0.8,0-1.9-0.1
			c-3.9,0.2-5.9,0.3-5.9,0.5c-0.5,3-0.7,7.1-0.7,12.2c-0.3,3.6-0.9,5.4-1.8,5.4c-0.6,0.2-1.2,0.3-1.7,0.3h-0.7
			c-2.3,0-3.9-0.9-4.9-2.8v-0.1c0-0.3,0.7-0.5,2.2-0.6h0.6l0.5,0.1c0.4-2,0.8-6.6,1.2-13.8c0.1,0,0.1-0.2,0.1-0.5h-0.1
			c-5.5,0.3-8.9,0.5-10.2,0.5h-0.6c-1.3,0-2.1-0.3-2.6-1c0-0.6,2.7-1,8-1.2c3.6-0.3,5.7-0.4,6.4-0.4c0-0.2,0.5-0.4,1.5-0.5h1.4
			c0.8,0,1.2,0.1,1.2,0.2C250.2,41.2,252.1,41.1,254.1,41.1z M237.8,47.1c1.5,0.1,2.2,0.3,2.4,0.7V48c-3.4,5.4-5.7,8.2-7,8.2h-1.5
			c-0.9,0-1.4-0.2-1.7-0.6v-0.1c2.4-2.9,4.4-5.6,5.9-8.1C236.5,47.2,237.2,47.1,237.8,47.1z M236.5,24.7c0.1,2.5,0.1,3.9,0.1,4.2
			h0.1c0.9-0.1,1.5-0.1,2.1-0.1c-0.1-0.3-0.2-1-0.2-2.1v-2.5h-0.1C237.1,24.5,236.5,24.6,236.5,24.7z M242.5,17.3L242.5,17.3
			c0.6,0.1,1.1,0.3,1.3,0.8c-0.1,1.8-0.2,3-0.2,3.6c1.7-0.2,2.6-0.3,2.6-0.5v-3.8c0-0.2,0.1-0.3,0.4-0.3V17h-0.1L242.5,17.3z
			 M243.5,23.5v5c0.5,0,1.3-0.1,2.7-0.2v-5.2L243.5,23.5z M250.8,22.6v5.3c2.3-0.1,3.4-0.2,3.4-0.3c0.5-2.7,0.7-4.4,0.7-5.1
			c-0.1-0.1-0.1-0.2-0.1-0.3L250.8,22.6z M253.5,48h0.6c2.1,0,3.4,0.7,3.8,2.2c0.7,1.1,1.5,3.3,2.4,6.6c-0.5,0.4-1.2,0.6-2,0.6h-1.7
			c-1.8,0-2.8-0.6-2.9-1.8c-0.9-3.8-1.8-5.9-2.7-6.6v-0.3C251.2,48.3,252,48.1,253.5,48z"/>
		<path class="st0" d="M38.5,62.6l0.2,0c0,0.2,0.8,0.5,2.3,0.7l0.2,0.3c0,0.2-0.1,0.4-0.2,0.6c0,0.2,0,0.2,0.2,0.2l-0.2,1.5v1.6
			l0.2,0.4c3.3-0.4,4.9-0.8,4.9-1.1l0.9-0.1c0.7,0,1.6,0.3,2.7,1.1l0.2,0.9v6.1c0,0.8-0.3,1.2-0.9,1.3c-0.7,0-1,0.1-1,0.2
			c-1.5-0.3-2.3-0.6-2.3-1l-4.4,0.2v2.1l-0.3,0l0.3,2c-0.2,1.2-0.3,1.9-0.3,2.3c0,0.1,0,0.2,0.2,0.2l-0.2,0.8c0,0.9,0.1,3,0.2,6.2
			l-0.8,0.2l-0.3,0c-2.1,0-3.2-0.1-3.2-0.6c0-0.8,0.1-1.6,0.2-2.3c-0.1-2.2-0.2-4.2-0.2-6.1v-1.6c0-0.1,0.1-0.1,0.2-0.1l-0.2-0.4
			c0.1-0.7,0.2-1.4,0.2-1.9c-0.1-0.2-0.2-0.4-0.2-0.5c-0.3,0.1-0.4,0.2-0.4,0.4c0,0,0-0.1,0-0.2l-0.9,0.2l-0.1,0L34.8,76
			c0,0.1,0,0.2-0.1,0.2v-0.2c-0.2,0-0.3,0.1-0.3,0.2l-0.7-0.1L33,76.3c0-0.1-0.3-0.2-1-0.3c0,0.1-0.1,0.2-0.2,0.2l0.2,0.4v0.6
			c0,0.2-0.2,0.3-0.6,0.3v1.1l-0.7,0.2l-0.3,0c-1.6,0.2-2.5,0.1-2.5-0.4v-1c0-1.9,0.1-5.2,0.3-9.7l0.7-0.2l1-0.1
			c1.6,0.1,2.3,0.3,2.3,0.7l0.4-0.2l0.3,0c0.4,0,1.1,0.2,2.2,0.5v-0.3l0.8,0.1v-0.1l0.2,0.1c0.2,0,0.2,0,0.2-0.1l0.2,0.1h0.2
			c0-0.2-0.1-0.3-0.2-0.3c0.1-1.7,0.2-3.1,0.2-4v-0.6c0-0.1,0.2-0.3,0.5-0.5l1.1-0.1V62.6z M36.1,69.9l-4.5,0.2
			c0,0.1-0.1,0.3-0.2,0.5c0,0.3,0.1,0.4,0.2,0.4c-0.1,0.5-0.2,1-0.2,1.2c0,0.3,0.1,0.7,0.2,1.3c-0.1,0.4-0.2,0.8-0.2,1.2
			c0.1,0,0.2,0.1,0.2,0.2l0.5-0.2l0.8,0c0.4,0,0.5,0,0.5,0.2l1.1-0.2l2.3-0.1c-0.1-2-0.2-3.5-0.2-4.4v-0.4L36.1,69.9z M41.3,68.9
			l-0.2,1v0.4c0,0.3,0.1,0.5,0.2,0.7c-0.3,0.6-0.4,1.3-0.4,2.2c0,0.7,0.2,1,0.5,1c1.2-0.1,2.4-0.2,3.4-0.5c0.3,0.1,0.5,0.2,0.7,0.2
			c0-0.3,0.2-0.4,0.6-0.4c0.3-2.8,0.4-4.3,0.4-4.7L41.3,68.9z"/>
		<path class="st0" d="M78.5,64.6c1.5,0,2.4,0.2,2.8,0.7v0.2c-0.6,0.5-1.1,0.7-1.5,0.7h-0.5c-0.5,0-1.1-0.1-1.6-0.3
			c-5.4,0.4-8.8,0.5-10.2,0.5v1.9c0,0.2,0,0.5,0.1,0.9c3.9-0.8,6.4-1.3,7.3-1.3H75c0.8,0,1.3,0.1,1.7,0.4l0.3-0.1h0.5
			c0.1,0,0.3-0.1,0.5-0.3h0.8l1.9,0.3c0.3,0,0.5,0.1,0.5,0.3v0.1c0,0.2-0.6,0.2-1.7,0.3c-0.1,1.2-0.2,1.9-0.2,2.1h0.1
			c0.3,0,0.6-0.1,0.8-0.1h0.3c0.7,0.1,1,0.2,1,0.3v0.1c0,0.2-0.7,0.3-2.2,0.4v0.5c0.4,0,0.6,0.1,0.8,0.3c-0.4,0.4-0.7,0.6-0.8,0.6
			v0.8c0,0.1,0.8,0.3,2.3,0.8c0.7,0.3,1.1,0.5,1.2,0.6v0.1c0,0.1-0.2,0.2-0.7,0.2h-0.3c-0.4,0-1.2-0.3-2.5-0.9
			c0.1,1.4,0.1,2.5,0.1,3.2c-0.2,0.1-0.4,0.2-0.5,0.2h-0.4c-0.7,0-1.1-0.2-1.1-0.4v-2.7h-0.1c-1.2,1-2.1,1.5-2.5,1.5h-0.3
			c-0.8-0.1-1.1-0.2-1.1-0.3v-0.1l0.8-0.7h-0.1c-1.2,0.1-1.9,0.2-1.9,0.2c0,0.5,0,1.4-0.1,2.7c-0.1,0.1-0.3,0.2-0.5,0.2h-0.8
			c-0.7,0-1-0.3-1-0.8l-0.1-1.7c-0.7,0.6-1.1,0.9-1.4,0.9h-0.7c-0.3-0.1-0.5-0.1-0.7-0.1c-0.2,2-0.6,3.9-1.3,5.7
			c-0.3,0.8-0.9,1.9-1.9,3.2c-0.4,0.5-0.8,0.8-1.1,0.8h-0.2c-0.8,0-1.1-0.2-1.1-0.4c1.5-2.1,2.3-4.1,2.6-5.8
			c-1.6,0.7-3.4,1.6-5.4,2.6h-0.8c-0.8,0-1.4-0.2-1.6-0.5v-0.1c0.8-0.5,1.7-1,2.6-1.4c-0.1-0.1-0.2-0.3-0.2-0.3
			c0-0.5,0.1-3.1,0.4-7.8h-0.1c-0.9,0.2-1.6,0.3-2.1,0.3c-0.9,0-1.7-0.2-2.2-0.6v-0.2c0-0.2,0.9-0.5,2.7-0.8
			c0.6-0.2,1.1-0.3,1.7-0.4c0.1-2,0.2-4.1,0.3-6.2c0.2-0.1,0.4-0.2,0.8-0.2h0.7c0.9,0.1,1.3,0.2,1.3,0.5c0,1.3-0.1,3-0.2,5.3
			l0.7-0.1h0.7c0.4,0,0.8,0.1,1.4,0.2c0-2.9-0.1-4.7-0.1-5.5c0.2-0.1,0.5-0.2,0.8-0.2c0.8,0,1.2,0.1,1.3,0.1
			C67.4,65.3,71.2,65.1,78.5,64.6z M61.9,72.6c-0.2,3.5-0.4,6-0.5,7.3h0.1c0.7-0.3,1.3-0.5,1.8-0.6h1.1c0.2-1.5,0.3-4,0.3-7.7
			c-1.7,0.4-2.6,0.6-2.7,0.7C61.9,72.5,61.9,72.5,61.9,72.6z M73.6,77.9h0.7c0.7,0,1.1,0.2,1.3,0.4v3.3c1.6,0,2.7-0.1,3.1-0.2
			c1.1,0.1,1.6,0.2,1.7,0.5v0.1c0,0.3-1.6,0.5-4.8,0.5V86h0.1c4.7,0,7.1,0.3,7.1,0.9c-0.1,0.3-0.6,0.4-1.5,0.4
			c-2-0.1-3.6-0.2-4.7-0.3c-0.2,0-0.5,0.1-0.7,0.1h-0.2c-1.2,0-3.6,0-7.3,0.1c-1-0.1-1.5-0.3-1.5-0.5v-0.1c0-0.3,0.7-0.4,2.2-0.4
			v-0.1c-0.1-0.7-0.2-1.7-0.2-3v-1.2c0-0.9,0.1-1.4,0.2-1.4c0.1-0.1,0.4-0.1,0.9-0.2c0.9,0.1,1.4,0.2,1.5,0.4c0,1.5-0.1,2.6-0.1,3.3
			v2c0,0.1,0,0.1,0.1,0.1c0.6,0,1.1-0.1,1.4-0.1H73c-0.1-0.5-0.2-2.4-0.3-5.7c0-0.2,0.1-0.6,0.1-1.1v-1C72.8,78,73,78,73.6,77.9z
			 M67.4,73.1l-0.1,0.3c0,0.9-0.1,2-0.2,3.2c0.5-0.4,1.4-1.2,2.7-2.4c0-0.6,0.1-0.9,0.1-1h-0.1c-0.5,0.1-1.1,0.1-1.7,0.1
			C67.9,73.2,67.7,73.2,67.4,73.1z M68.5,70.4c-0.1,0-0.5,0-1.1-0.1c0,0.5-0.1,0.9-0.1,1.2v0.9l2.5-0.2v-0.1c0-0.7,0.1-1.2,0.1-1.7
			v-0.2l0.1-0.1h-0.1C69.2,70.4,68.7,70.4,68.5,70.4z M77.5,69.2c-0.9,0-1.5,0.1-1.6,0.1c-0.1,0-0.4,0-0.9-0.1
			c-1.7,0.3-2.5,0.5-2.5,0.6v0.3c0,0.4,0,1-0.1,1.7h0.5c0.8,0.1,1.2,0.2,1.2,0.4v0.1c0,0.1-0.6,0.3-1.8,0.5v0.7l0.1,0.2l-0.1,0.2
			v0.2c0,0.3,0,0.7-0.1,1.2h0.1c0.9-0.1,1.4-0.1,1.7-0.1c0.3,0,0.5,0.1,0.8,0.2c0.6-0.4,1.5-1.1,2.6-2.1v-0.3l0.1-0.7
			c-1.1,0.1-1.9,0.2-2.3,0.2c-0.8-0.1-1.2-0.2-1.2-0.4v-0.1c0-0.2,1.2-0.4,3.6-0.5l0.2-2.2C77.6,69.1,77.6,69.1,77.5,69.2z"/>
		<path class="st0" d="M93.9,69.4c1.4,0.1,2.1,0.4,2.1,0.8c0,0.5-0.9,2.2-2.7,4.9c0.4,0,0.9,0.2,1.7,0.7c-0.2,3.3-0.4,6.8-0.5,10.4
			c0.1,0.4,0.2,0.9,0.2,1.3l-0.3,0.2l-0.5,0c-1.2,0.1-2-0.2-2.5-0.8l0.2-1.1V77c-0.7,0.6-1.8,1.4-3.3,2.3c0,0.1,0,0.2-0.1,0.2
			l-0.7,0c-0.2,0-0.3-0.1-0.3-0.2c1.2-2.1,2.9-4.7,5.4-8C93,70,93.4,69.4,93.9,69.4z M92.6,64.5l0.3,0c1.4-0.1,2.2,0.2,2.6,0.8v0.3
			c-2.3,2.9-4.1,4.4-5.6,4.4l-0.1-0.3V69C89.7,68.4,90.7,66.9,92.6,64.5z M102,63.7l1,0c0.4,0,1,0.1,1.8,0.4v0.1
			c0,0.8-1.2,2.4-3.6,4.8l1.7,0.1c1.5-2.2,2.4-3.3,2.5-3.3l0.7,0c1.2,0.1,1.8,0.3,1.8,0.7c-0.4,1.1-2.1,3.3-5,6.5l0.3,0
			c2.2-0.3,3.5-0.5,3.8-0.5l-0.2-0.4l0.2-0.8l0.8,0c1.6-0.1,2.5,0.9,2.5,2.8c-0.1,0.3-0.3,0.5-0.8,0.8l-0.6,0.1
			c-1.1-0.6-1.6-1.3-1.6-2c-1.6,0.7-3,1-4.3,1.1c0.6,0.5,1,0.8,1,0.8V75c-0.4,1.2-0.7,1.9-0.7,2.1c1.8-0.1,3-0.4,3.4-0.9l0.7,0
			c1.2,0.1,1.8,0.3,1.8,0.7v0.2c0,0.9-1.1,2.6-3.2,5.2v0.2c1.5,1.5,3.2,3.2,4.9,5.1c0,0.2-0.1,0.3-0.3,0.3l-1,0.1
			c-1.9,0.1-3.4-0.8-4.5-2.8l-0.9-0.8l-0.2,0c-2.8,2.5-5.1,3.8-7,3.9V88c0-0.2,0.8-1,2.4-2.4c1.9-2,2.9-3.1,2.9-3.2
			c-0.5-0.3-1-0.7-1.6-1.1c-0.7,0.7-1.4,1.1-2.2,1.1l-0.6,0l-0.2-0.8v-0.2c0-0.3,1.1-2.5,3.4-6.8l-0.3,0l-0.8,0.2
			c-1.5-0.2-2.3-0.4-2.3-0.7v-0.3c0-0.2,0.6-0.4,1.8-0.7l2.5-3v-0.3L98.8,70c-0.5-0.3-0.9-0.5-1.1-0.5v-0.4c1,0,1.5-0.5,1.5-1.5
			C100.9,65.1,101.8,63.7,102,63.7z M102.4,77.9c-0.5,0.9-0.7,1.5-0.7,1.7l1.8,1.1c1.1-1.2,1.8-2.2,1.9-3l-0.4,0.2l-1.3,0.1
			L102.4,77.9z"/>
		<path class="st0" d="M124.8,70.4c1.2,0.1,1.8,0.2,1.8,0.4v0.5c0,0.3-0.4,0.5-1.3,0.7c-0.1,0-0.1-0.1-0.1-0.2l-0.4,0.2l-0.2,0
			c-0.1,0-0.1-0.1-0.1-0.2l-0.4,0.2l-0.6,0l-0.4-0.2c0,0.3-0.1,0.4-0.3,0.4l-0.9-0.1c-0.5,0.3-0.8,0.4-0.9,0.4v-0.2
			c-1.1,0.4-1.7,0.6-1.9,0.6v-0.2c-0.2,0-0.3,0.1-0.3,0.2l-1.6-0.2v-0.5c0-0.5,2.5-1,7.4-1.7C124.7,70.4,124.7,70.4,124.8,70.4z
			 M126,82.3c0.1,0,0.1,0.1,0.1,0.2l0.4-0.2l0.6,0v0.6c-0.7,0.5-3.6,1.6-8.6,3.3c-0.7-0.1-1.1-0.3-1.1-0.6v-0.2
			c0-0.1,1.8-0.7,5.5-1.7c0.2-0.3,0.4-0.6,0.4-0.7c0.1,0,0.2,0,0.5,0.1C125,82.8,125.8,82.6,126,82.3z M120.3,75.2l0.3,0
			c0.4,0.2,0.9,1.5,1.6,3.9c-0.4,0.3-1.1,0.6-2.3,0.9c-0.6-0.5-1.1-1.4-1.5-2.7c0-0.1-0.2-0.4-0.7-1v-0.4
			C118.8,75.4,119.6,75.2,120.3,75.2z M121.5,66c0,0,0,0.1,0,0.2l0.4-0.2l0.8-0.1c0.7,0.2,1.1,1.2,1.1,3c-0.2,0-0.3,0.2-0.3,0.5
			c-1-0.1-1.6-0.1-1.8-0.2l-0.5,0L120,67v-0.1c0-0.1,0.2-0.3,0.5-0.5l1.1,0V66z M126.3,72.7l0.1,0.3v0.1c0,0.1-0.1,0.1-0.2,0.1
			l0.2,0.4v0.3c0,0.1-0.1,0.1-0.2,0.1c0.1,0.3,0.2,0.4,0.2,0.5c-0.6,3-1.6,5.6-3,7.8v0.1l-0.3-0.2c0,0.4-0.5,0.8-1.6,1.1
			c-0.2-0.1-0.4-0.2-0.6-0.2v-0.1c1.8-3.8,2.7-6.7,2.7-8.8c-0.3-0.4-0.5-0.8-0.5-1C123,73.3,124.1,73,126.3,72.7z M133.3,64.3
			c1,0.2,1.4,1.1,1.4,2.9l-0.2,0l0.2,0.4v2.1l0.6,0c0.4,0,0.6,0,0.6,0.2l1.3-0.2l3.5-0.2v0.4c0,0.3-0.6,0.6-1.8,0.7
			c-0.3,0-0.7,0-1.4-0.1c-0.7,0.2-1.5,0.3-2.4,0.3h-0.2c-0.2,0.9-0.4,1.7-0.4,2.5v3.4c0.3,0,1-0.2,2-0.4v0.2
			c1.4-0.4,2.7-0.7,3.9-0.7v0.1c0,2.8-0.3,6.3-0.8,10.5v0.6c-1.3,0.4-2.2,0.6-2.7,0.6l0.4-2.9l-0.3,0c-1.5,0.5-4.1,1.2-7.8,2.1
			l-0.3,0c-0.2,0-0.3-0.1-0.3-0.4c0-0.5-0.1-1.5-0.2-3l0.2-0.3c0-0.2-0.1-0.3-0.2-0.3l0.2-0.6c0-0.4-0.1-0.7-0.2-0.8
			c0.1-1,0.2-1.7,0.2-2.4c0-0.3-0.1-1.1-0.2-2.5c1.1-0.4,1.9-0.6,2.3-0.6V76l0.4-0.2l0.1,0l0.2,0.9c-0.1,0-0.2,0.1-0.2,0.3l0.3,0
			c0.1-0.7,0.2-1,0.3-1c0-0.2-0.1-0.3-0.2-0.3l0.2-0.8V72c0-0.1,0.1-0.1,0.2-0.1c0-0.2-0.1-0.3-0.2-0.3l0.2-0.8v-0.5l-0.2-1.6h0.2
			c-0.2-1.5-0.5-2.8-1-3.7h0.1L133.3,64.3z M131,82l0.4,3.3l0.4,0c3.8-0.8,5.6-1.4,5.6-1.7v-0.2c0.2-2.9,0.4-4.6,0.4-5.1v-1
			l-0.2-0.4c-4.1,0.8-6.2,1.4-6.2,1.9L131,82z M131.2,77c0,0.3,0.2,0.5,0.4,0.5l0.2,0c0-0.3-0.1-0.5-0.4-0.5H131.2z"/>
		<path class="st0" d="M151.9,64.9c2.4,0.1,3.6,0.3,3.6,0.8v0.2c-1.6,2.5-2.4,3.9-2.4,4.3l0.2,0c1.1-0.4,2.6-0.7,4.6-1.1
			c0.4,0.1,0.6,0.1,0.6,0.2c-0.8,3.5-1.2,6.4-1.2,8.6l-0.2,0l0.2,0.4l-0.2,1c0,0.2,0,0.2,0.2,0.2l-0.2,0.8v1.4c0,0.8-0.1,1.4-0.4,2
			c0.1,0,0.2,0,0.2,0l-2.7,0.5c-0.5,0-0.8-0.4-0.8-1.2l-2.8,0.8v2.4c-0.4,0.7-1,1-1.6,1l-0.3-0.2l-0.4,0.2c-0.5-0.1-0.9-0.5-1.1-1.1
			l0.2-1.2v-0.2c0-0.9-0.2-3-0.5-6.2c0-0.1,0.1-0.1,0.2-0.1l-0.2-1.2v-1.2c0-1.4-0.1-2.7-0.3-3.9l0.2-0.4c-0.1-0.2-0.2-0.8-0.4-1.6
			c0.3-0.2,0.7-0.4,1-0.4l2.6-0.1c0-0.7,0.4-1.5,1.3-2.3l0.4-1.2v-0.2l-0.2-0.8C151.8,65.3,151.9,65.2,151.9,64.9z M150.1,72.7
			l0.2,0.4l-0.2,1.5c0.1,1.8,0.3,2.8,0.6,2.7c1.4-0.3,2.4-0.5,3.2-0.5l0.4,0l0.7-5.9l-0.3,0C152.3,71.6,150.8,72.2,150.1,72.7z
			 M150.2,79l0.4,1.9c0,0.1-0.1,0.1-0.2,0.1l0.2,0.9v0.6h0.2c0.6,0,1.4-0.2,2.3-0.5l0.2,0.3c0.3-0.1,0.5-0.2,0.6-0.2
			c0.1-1.4,0.2-2.3,0.2-2.9v-1.4C152,78.2,150.7,78.6,150.2,79z M162,63.9l0.3,0.1l1-0.1l1.6,0.1c0,0.9-0.5,2.8-1.6,5.8l0.8,0
			c0.6,0,2.1-0.3,4.6-0.7c1.5-0.1,2.3,0.2,2.3,0.8c0.3,0.6,0.5,1,0.5,1.3c-0.4,2.5-0.6,3.7-0.7,3.7c0,0.2,0,0.3,0.2,0.3
			c-0.8,6.4-1.4,9.6-2,9.6c-0.4,1.9-1,2.9-2,3l-0.4,0c-0.1,0-0.1-0.1-0.1-0.2l-0.4,0.2l-0.8,0c-1.3-0.8-2.2-1.5-2.5-2.1h-0.2v-0.4
			c0.2,0,0.4,0,0.6,0.2c0.4-0.3,0.9-0.4,1.3-0.4c0,0.2,0.4,0.4,1.3,0.8c0.6-1.4,0.9-2.3,0.9-2.8c0.4-2,0.9-5.4,1.4-10l0.2,0
			l-0.2-0.4c0.1-0.3,0.2-0.4,0.4-0.5c-0.1-1.1-0.3-1.8-0.6-2.1c-3.4,0.5-5.2,0.9-5.2,1.2c-1.1,3.1-2,4.6-2.5,4.6
			c-0.6,0.4-1.2,0.6-2,0.6l-0.2-0.3c0.3-1,0.6-1.7,0.9-2.2l-0.2-0.3c1.3-2.5,2.3-5.3,3-8.4v-1.2L162,63.9z M161.9,76.6v0.2
			c0.3-0.2,0.5-0.2,0.6-0.2c0.7,0,1.3,0.3,1.6,0.9c1,1,1.6,2,1.8,2.9c0,0.3-0.6,0.6-1.8,0.9l-0.7,0c-0.1,0-0.5-0.6-1.1-2
			c-1.2-1.3-1.8-2.2-1.8-2.5l0.6,0L161.9,76.6z"/>
		<path class="st0" d="M181.4,67.1h0.9c0.8,0.1,1.3,0.2,1.3,0.5c-1.2,2.7-2.2,4.8-3.2,6.4V74c0.9-0.1,1.4-0.3,1.4-0.5
			c1.2-2.3,1.9-3.6,2.1-3.9c0.2-0.1,0.5-0.2,1-0.2c0.9,0.1,1.3,0.2,1.3,0.4c-1.3,3-3,6-4.9,9v0.1c1.4-0.5,2.2-0.7,2.7-0.7l0.4,0.1
			c-0.5-1.1-0.7-1.7-0.8-2c0-0.1,0.2-0.2,0.7-0.2h0.8c0.6,0,1,0.4,1.1,1.3c0,0,0.2,0.3,0.3,0.8c1.2,0,2.4-0.3,3.6-0.8
			c0.5-0.1,0.9-0.2,1.1-0.2h0.4l0.4-0.1l0.1-3.2c0.2-0.1,0.5-0.2,1-0.2c0.8,0.1,1.3,0.2,1.3,0.4v1.5c0,0.4,0,0.9-0.1,1.6
			c0.2,0,0.4,0.4,0.8,1.1h0.1c1-1.1,1.6-1.9,1.7-2.6c0-0.2,0.4-0.3,1.1-0.3h0.4c0.8,0.1,1.3,0.2,1.4,0.4v0.1c0,0.9-1.2,2.3-3.5,4.4
			c0.5,1,1.9,2.5,3.9,4.5c0.9,0.6,1.4,1,1.4,1v0.1c-0.2,0.3-0.6,0.4-1.1,0.4H200c-1.3,0-2.7-0.8-4-2.4c-0.4-0.5-1-1.2-1.8-2.2
			l-0.1,0.4c0,3.9-0.2,5.8-0.5,5.8c-0.2,0.1-0.4,0.2-0.8,0.2c-1,0-1.8-0.4-2.2-1.2c0,0-0.4-0.5-1.2-1.5c0.1-0.2,0.3-0.3,0.7-0.3h0.3
			c0.7,0,1.1,0.2,1.3,0.7h0.1c0.1-2,0.1-3.4,0.1-4.2h-0.1l-3.5,2.4l-0.3,0.1h-0.8c-0.5,0-0.8-0.1-1-0.3v-0.1
			c1.8-1.4,3.7-2.6,5.7-3.6v-1.3l0.1-0.1h-0.1c-0.7,0.3-1.7,0.5-3.1,0.8c-0.5,0.3-0.9,0.4-1.3,0.4h-0.1l-0.5-0.1
			c0,0.3-0.2,0.4-0.5,0.4h-0.8c-0.6,0-1-0.3-1.1-0.8c0-0.1,0-0.2-0.1-0.2c-1.9,0.7-3.4,1.1-4.4,1.1h-0.4c-0.9,0-1.3-0.2-1.5-0.6
			v-0.1c0.4-0.7,1.3-2.2,2.6-4.3h-0.1c-1.1,0.3-1.9,0.5-2.4,0.5c-1.1-0.1-1.7-0.3-1.7-0.5v-0.1c0-0.2,0.7-1.3,1.9-3.3
			c0.5-0.9,1.2-2.5,2.1-4.5C180.9,67.2,181.2,67.1,181.4,67.1z M178.3,81.6h0.4c0.7,0,1.1,0.3,1.1,0.8c0.2,1.6,0.3,2.7,0.3,3.3
			c-0.3,0.1-0.6,0.2-1,0.2c-0.9,0-1.3-0.2-1.3-0.6c-0.2-1-0.3-2.2-0.4-3.4C177.6,81.7,177.9,81.6,178.3,81.6z M181.4,81.8
			c0.8,0,1.3,0.2,1.3,0.7c0,0.1,0.2,0.8,0.4,2.2c-0.2,0.1-0.5,0.2-0.9,0.2c-0.9,0-1.4-0.3-1.4-0.8c-0.3-1.1-0.4-1.8-0.4-2.1
			C180.6,81.9,180.9,81.8,181.4,81.8z M184.4,81.3c0.8,0,1.3,0.3,1.3,0.9c0.4,1.4,0.5,2.2,0.5,2.4c-0.2,0.1-0.5,0.2-0.9,0.2
			c-0.9,0-1.3-0.3-1.3-0.9c-0.4-1.3-0.5-2.1-0.5-2.4C183.5,81.4,183.8,81.3,184.4,81.3z M190.4,63.9c1,0.1,1.5,0.2,1.5,0.4
			c-0.2,1.1-0.5,2.2-0.8,3.3l0.3-0.1c2.9-0.1,4.6-0.2,5.3-0.2h0.1c0.9,0,1.3,0.2,1.3,0.6c-0.2,0.6-0.8,2-1.8,4.3h0.1
			c0.8,0,1.3-0.1,1.6-0.1c0.9,0.1,1.4,0.2,1.4,0.4v0.1c0,0.2-0.3,0.2-0.9,0.3h-0.3c0,0-0.1,0-0.1-0.1c-0.1,0-0.1,0.1-0.2,0.1
			c-1.5,0-2.2,0.1-2.2,0.4c-0.1,0.2-0.5,0.3-1.3,0.3c-0.4,0-0.9-0.1-1.5-0.3l-5.1,0.3c-0.8-0.1-1.2-0.2-1.3-0.4v-0.1
			c0-0.2,1.7-0.4,5.1-0.5c0-0.1,0.4-0.1,1.3-0.1c0.1-0.2,0.4-0.7,0.7-1.5h-0.1c-2.3,0.2-3.7,0.3-4.2,0.3h-0.7
			c-0.8,0-1.4-0.2-1.6-0.5v-0.1c0.2-0.1,0.4-0.6,0.7-1.5c0.5-1.5,1-3.2,1.5-5.1C189.5,64,189.9,63.9,190.4,63.9z M190.7,68.6
			c-0.3,0.9-0.5,1.6-0.6,1.9c0,0,0.1,0,0.1,0.1c0.9-0.1,2.2-0.3,3.9-0.3l0.8-1.8h-0.1C193,68.5,191.6,68.6,190.7,68.6z"/>
		<path class="st0" d="M210.3,65.1l0.8,0c0.9,0,1.5,0.2,1.8,0.8l-0.5,0.9v2.7c0,1.5-0.3,2.3-0.9,2.4l-1.3,0.1
			c-0.3,0-0.6-0.1-0.9-0.3l0.7-5.8c-0.2,0-0.4-0.1-0.4-0.3v-0.3L210.3,65.1z M218,62.7c1.3-0.1,2,0.6,2,2l-0.4,0.8l0.3,0
			c3.9-0.3,6.5-0.6,7.9-0.7c1,0,1.4,0.4,1.4,1.4c-0.3,0.8-1.6,1.8-3.9,3c0,0.1,0,0.2-0.1,0.2l-0.3,0v-0.1l0.2-0.4l-1,0l-0.9,0.2
			c0.2,0.6,0.4,1.1,0.4,1.4l1.5-0.1v0.3c0,0.2-0.5,0.4-1.5,0.7c0,0.7-0.1,1.3-0.2,2l0.7,0l1.2,0.1v-0.9c0.2-0.5,0.7-0.8,1.4-0.9
			c0.7,0,1.2,0.2,1.5,0.6c-0.3,1.9-0.6,2.8-1,2.8c-0.4,0.1-0.8,0.2-1.3,0.2c0-0.1-0.1-0.2-0.3-0.2v0.2c-0.1,2.4-0.2,4.3-0.2,5.7
			c0,0.7-0.5,1.1-1.4,1.2c-0.8,0-1.3-0.2-1.3-0.6l-6.5,0.3c0,0.6-0.3,0.9-0.8,0.9l-1.2,0.1c-0.5,0-0.9-0.1-1-0.4v-4.4
			c0-0.6-0.1-1.5-0.2-2.8l0.3-0.2l2-0.1c0.3,0,0.4,0.2,0.4,0.7c3.9-0.4,7-0.7,9.2-0.8v-1.1c-2.4,0.2-4.5,0.6-6.3,1.1l-0.2,0
			l-1.1-0.1v-1.5h-0.3c-1.3,0.8-2.4,1.2-3.3,1.4l-1.8,0.1c-0.2,0-0.3-0.1-0.3-0.2c0-0.2,0.8-0.5,2.4-0.9l-0.4-2.1l-1.1,0.1
			c-0.2,0-0.3-0.1-0.3-0.3v-0.1c1-0.2,1.5-0.4,1.5-0.6v-1.4l-0.8-0.1v-0.4l1.1-0.2l3.5-0.2l0.9,0.1c0.1-0.7,0.5-1,1.3-1.1
			c0.6,0,0.9,0.2,0.9,0.4v0.2l-0.2,0.9l2.1-0.3l2-0.1c0.2-0.7,0.5-1.5,1.1-2.4c-0.2,0-0.2,0-0.2-0.2c-2.9,0.3-5,0.4-6.3,0.5l-1,0.1
			c-0.3,0-0.5,0.1-0.7,0.2c-0.2-0.1-0.4-0.1-0.7-0.1l-1,0.1c-2,0.1-3,0-3-0.3V66l1.1-0.2l2.8-0.1c-0.5-1.3-0.7-2.1-0.7-2.5
			C217,62.9,217.5,62.7,218,62.7z M218,83.2c0.7,0.2,1.1,0.3,1.1,0.3c0,0.9-1.1,2.1-3.3,3.6l-1,0.2l-0.9,0.1c0-0.5,0.9-1.7,2.7-3.6
			C216.5,83.6,217,83.4,218,83.2z M216.2,76.5l0.2,1c3.2-0.4,5.5-0.6,6.8-0.7v-1L216.2,76.5z M222.5,77.7c-0.4,0-2.5,0.2-6.1,0.5
			v0.9l4.1-0.2c0.6,0,1.4-0.1,2.6-0.3v-1.2C222.8,77.6,222.6,77.7,222.5,77.7z M216.4,79.8v1.1l2.1,0l1.7-0.1c1,0,2-0.2,2.9-0.5
			v-0.9c-0.8,0-1.6,0.1-2.6,0.3C219.1,79.7,217.8,79.7,216.4,79.8z M217.6,69l-1.1,0.1v1.1c0,0.3,0.2,0.4,0.4,0.4l0.8,0
			c0.2,0,0.5-0.6,0.7-1.7l-0.3,0C218.1,68.9,217.9,69,217.6,69z M218.5,71l-0.4-0.2c-1,0.2-1.6,0.7-1.6,1.3V73
			c0.7,0,1.2-0.4,1.4-1.1l0.6,0l-0.2-0.4c0-0.2,0.1-0.3,0.3-0.3l2.4-0.1c0-1.1,0.2-1.7,0.5-1.7v-0.3l-0.8,0.1
			C219.9,70.3,219.1,70.9,218.5,71z M219.7,71.8c0.4,0.4,0.6,1.1,0.6,2.2c0.2-0.2,0.6-0.2,1-0.3l-0.2-1.7v-0.2L219.7,71.8z
			 M223.4,84c1.3-0.1,2.3,1,2.8,3.2v0.5c-0.3,1.1-0.7,1.7-1.2,1.7c-1.1-1.2-1.7-2-1.7-2.2c-0.3-1-0.7-1.8-1.2-2.5
			C222.1,84.4,222.5,84.2,223.4,84z"/>
		<path class="st0" d="M256.8,65.9c0.2,0.1,0.4,0.1,0.7,0.1l0.2,0c0.4,0,0.7-0.1,0.9-0.2c1.1,0.1,1.9,0.3,2.3,0.5v0.4l-1.7,0.6v-0.2
			l-0.4,0.2c-0.1,0-0.1-0.1-0.1-0.2l-0.4,0.2c-0.1,0-0.1-0.1-0.1-0.2l-0.4,0.2l-0.7-0.1c-0.6,0.1-1.1,0.2-1.6,0.3v-0.2l-0.4,0.2
			l-0.2,0c-0.1,0-0.1-0.1-0.1-0.2c-1.5,0.1-2.3,0.5-2.3,1.2c-0.5,0.1-1.2,1.4-2.2,3.9l-1.6,2.7c0.1,0,0.2,0,0.2,0l-0.3,0v0.5
			l2.6-0.2c2.9-0.1,4.3-0.3,4.3-0.5l0.3,0.1c0.2,0,0.2-0.1,0.2-0.2l0.3,0.1l1.1-0.2v0.2l0.4-0.2l0.8,0c1.2-0.1,2.2,0.1,2.8,0.5
			l-0.3,1.3v0.6c-0.2,0-0.3,0.2-0.3,0.4c0,0.3,0,0.4,0.2,0.4c-0.1,0.5-0.2,0.9-0.2,0.9c0.1,2.9,0.2,4.6,0.2,5.1l0.2,0.3l-0.2,0.4
			l0.2,0.3c-0.2,0.5-0.4,0.8-0.4,0.8l-1-0.1l-0.8,0.2c-0.7-0.1-1.1-0.2-1.1-0.4v-0.3c0-0.1,0.1-0.1,0.2-0.1l-0.2-0.4v-0.2
			c0-0.1,0.1-0.1,0.2-0.1c-0.1-0.3-0.2-0.5-0.2-0.6l-1.1,0c-0.3,0-0.5,0.1-0.7,0.2l-0.3-0.1c-0.1,0-0.3,0.1-0.5,0.2l-1-0.1l-0.4,0
			l-0.3,0.2v-0.2l-0.4,0.2l-0.3-0.2l-1,0.4l-1-0.1l-0.5,0l-0.2,0.2c0-0.1-0.1-0.1-0.3-0.1v0.3h0.2c-0.1,0.7-0.3,1.1-0.4,1.1
			l-0.5-0.3h-0.2c-0.6,0.1-0.9,0.2-0.9,0.4c-0.2,0-0.7-0.1-1.5-0.4l0.1-0.3v-0.2c0-0.2,0-0.2-0.1-0.2c0.1-0.2,0.1-0.3,0.1-0.5v-0.5
			l0.2,0v-1.7c0-0.2,0-0.2-0.1-0.2l0.1-0.3v-2c0-0.2,0-0.2-0.1-0.2l0.1-0.3v-0.4l-0.3,0c-2.3,2.8-3.5,4.2-3.7,4.2
			c-0.8,0.7-1.2,1.1-1.2,1.3c-1.8,0.6-3.1,1-3.8,1l-0.1-0.3c1-0.9,2.5-2.6,4.4-5.3c2.8-3.5,5-7.5,6.8-12l-0.3,0
			c-0.2,0-0.2,0.1-0.2,0.2c-1.2,0-1.7-0.1-1.7-0.3c-0.6,0.3-1.8,0.5-3.6,0.6l-2.2,0.1c-0.4-0.1-0.6-0.5-0.6-1.1v-0.1
			c0,0,0.2-0.1,0.6-0.2c0.6,0,1.1,0,1.5,0.1c1.5-0.2,2.8-0.3,3.9-0.4l3.6-0.2c0.1,0,0.1,0,0.1,0.2c0.2,0,0.3-0.1,0.3-0.2
			c0,0,0.4,0,0.9,0.1c2.2-0.2,3.7-0.3,4.4-0.4v0.2L256.8,65.9z M255.1,76.6l-0.4-0.2c-0.8,0.2-1.4,0.2-1.9,0.3l-0.2,0
			c-0.1,0-0.1-0.1-0.1-0.2l-0.4,0.2l-2,0.1c-0.3,0-0.4,0.2-0.4,0.4v1l0.3,0.5v0.1c0,0.2-0.1,0.3-0.4,0.3l0.2,0.4
			c-0.2,1.5-0.3,2.5-0.3,2.9l0.2,0.9c1.3-0.2,2.1-0.4,2.4-0.5c0.2,0.1,0.4,0.2,0.5,0.2c1.5-0.2,2.5-0.3,2.8-0.3V83
			c0.2,0,0.3-0.1,0.3-0.2l1.1,0.1l0.7,0l-0.2-1.7v-5C256.2,76.3,255.4,76.5,255.1,76.6z"/>
	</g>
	<g>
		<rect x="285.2" y="0.1" class="st0" width="1.7" height="103.9"/>
	</g>
	<g>
		<rect x="0.2" y="0.1" class="st0" width="1.7" height="103.9"/>
	</g>
</g>
</svg>
