<?xml version="1.0" encoding="utf-8"?>
<!-- Generator: Adobe Illustrator 25.2.3, SVG Export Plug-In . SVG Version: 6.00 Build 0)  -->
<svg version="1.1" id="圖層_1" xmlns="http://www.w3.org/2000/svg" xmlns:xlink="http://www.w3.org/1999/xlink" x="0px" y="0px"
	 viewBox="0 0 276 97" style="enable-background:new 0 0 276 97;" xml:space="preserve">
<style type="text/css">
	.st0{fill:#F5E800;}
</style>
<g>
	<g>
		<path class="st0" d="M59.5,29.5v0.4l0.8-0.4l0.9-0.1c3.5-0.1,5.3,0,5.3,0.5l0.8-0.4c1.2,0.4,1.8,0.7,1.8,1c0,0.6-4.1,1.4-12.4,2.4
			v0.5c1.7-0.1,2.5,0.5,2.5,1.7c0,2.5-0.6,5.2-1.9,8.1c0.2,0.4,0.3,0.7,0.3,0.9l-0.3,1.9c0.2,3,0.9,4.5,2,4.5c3.1-0.2,5.4-0.5,6.9-1
			v0.3c1.6-0.5,2.4-1,2.4-1.6c-0.2,0-0.3,0-0.3-0.1c0.2,0,0.3-0.2,0.3-0.6h-0.3c0.4-0.8,0.6-1.9,0.6-3.4v-1.6c0-0.4,0.2-0.6,0.5-0.6
			h0.3c1.7,4,3,5.9,3.8,5.9v1.5c0.6,0.9,1,1.6,1,2.1c-1.2,0.3-2,0.7-2.5,1.1l-1.2,0.1c-0.1,0-0.2-0.1-0.2-0.4l-0.8,0.4L63.1,53
			c-0.1,0-0.2-0.1-0.2-0.4L62.1,53c-7.1,0.3-10.6-2.2-10.6-7.6c0-1.3,0.5-5.2,1.6-11.7c-0.4,0-0.7-0.1-0.7-0.3
			c-1.8,1.1-2.8,2.5-2.8,4.1c-1.6,3.3-2.8,5-3.5,5.2l0.3,0.7c-1.1,0.7-2.2,2.2-3.4,4.5c-0.5,0-2.1,1-4.7,2.8
			c-4.3,1.5-6.9,2.2-7.6,2.3l-1.9,0.1c-0.4,0-0.5-0.1-0.5-0.5v-0.3c4.4-1.4,8.4-4.6,12.1-9.5c0.4,0,1.5-2.6,3.3-7.7l-3,0.2
			c-0.1,0-0.2-0.1-0.2-0.4l-0.8,0.5c-0.1,0-0.2-0.1-0.2-0.4l-0.8,0.5c-0.1,0-0.2-0.1-0.2-0.4l-0.8,0.4C34.5,35.5,33,35,33,33.8
			l-0.3,0v-0.7l2.1-0.1c0.7,0,1.2,0,1.6,0.2c7.1-0.8,13-1.7,17.6-2.8c0-0.2,0.1-0.3,0.2-0.3c0.2,0,0.5,0.1,0.9,0.3L59.5,29.5z
			 M44.8,7.7l1.4-0.1c0.1,0,0.2,0.1,0.2,0.4l0.8-0.5c3.1,0.2,4.6,0.9,4.6,1.8c0,0.3,0.3,2.2,1,5.8c2.8-0.3,6.4-1.1,10.6-2.1
			c3.8,0.4,6.1,1,6.9,1.8v0.3c-0.7,1.1-1.9,4.2-3.8,9.4c-0.7,0.7-1.4,1-2.1,1C62.1,25.2,61,25,61,24.9c0.2-0.4,0.3-0.8,0.3-1.1
			c-0.3,0-0.7-0.2-0.9-0.8c1.2-3,1.9-5.2,1.9-6.4l-0.8,0.4l-0.9,0.1l-13.2,1.9v-0.4l-5.1,1.2v-0.4L41.4,20l-3,0.1v0.4l0.3,1.5
			c-0.2,0-0.3,0.2-0.3,0.6c0.4,0,0.6,0.1,0.6,0.2c0,0.6-0.3,0.9-0.9,0.9V25l-0.3,3c-0.7-0.3-1.5-0.5-2.4-0.4l-0.7,0L33.2,28
			c-0.8-1.5-1.2-2.5-1.2-2.9h0.4L32,24.4c0-1.7-0.2-5-0.6-9.7c4.2-0.2,6.8,0.6,7.8,2.5c0.4-0.2,0.8-0.4,1.2-0.4v0.4l0.8-0.4l1.2-0.1
			l3.9-0.6C45.9,11.7,45.4,8.9,44.8,7.7z M54.2,23.7c3.7,0.1,5.6,0.6,5.6,1.5v0.8h-0.2c-0.1,0-0.2-0.1-0.2-0.3
			c-0.5,0.3-0.9,0.4-1.1,0.4c-1.6,0.1-5.5,0.6-11.8,1.6c-4.1-0.1-6.2-0.6-6.2-1.5v-0.6c0.8-0.2,1.3-0.4,1.3-0.7
			c0.1,0,0.4,0.1,0.8,0.3C46.6,24.9,50.5,24.4,54.2,23.7z"/>
		<path class="st0" d="M115.4,5.7c2-0.1,3.8,0.5,5.5,1.8c0,2.7-2.5,5.4-7.5,8.1l-0.4,0.1v0.6l9.9-0.5c2,0.2,3,0.5,3,1V17
			c0,0.3-0.2,0.5-0.5,0.5l-13,0.6l-3.3,0.5c0,0.3,0.5,0.8,1.6,1.4c0,0.1,0.1,1.5,0.3,4.1l9-0.4c2,0.1,3,0.5,3,1v0.5l-2.4,0.1
			c-2.1,0.1-5.3,0.4-9.6,0.8v5.6c2.6-0.4,4.4-0.6,5.5-0.6l3.2-0.2c4.7,0,7.2,0.5,7.5,1.4v0.5c-3.9,0-6.6,0.1-8.1,0.2
			c-4.9,0.4-7.4,0.7-7.7,0.7l0.4,0.7v2.6c0.6,0,1.6,0.5,2.9,1.7c0.9,0,4.7-0.3,11.4-0.9c2,0.3,3.1,0.8,3.1,1.3v0.5
			c-0.4,0-0.6,0.1-0.6,0.4l-2.7-0.2c-0.7,0-3.9,0.3-9.4,0.8c4.9,4.9,9,9,12.4,12.2v0.9c0,0.4-0.2,0.5-0.5,0.6l-2.5,0.1
			c-3.3,0.2-5.8-1.5-7.5-5c-1.3-1.8-4.2-4.6-8.6-8.5c-4.5,7-8.9,11.7-13.3,14l-3.8,0.5l-2.1,0.1v-0.1c6.2-6.2,10.2-10.9,12-14
			c-0.5-0.2-0.9-0.4-1.1-0.4c-1.8,0.1-5.5,0.6-11.1,1.5c-1.7,0.1-3-0.5-4-1.6v-0.2c0,0,0.4-0.1,1.2-0.3l1.5,0.2
			c2.3-0.5,4.9-0.9,7.9-1l6.6-0.3c0.7,0,1.5-1.6,2.3-4.6V34l-3,0.2c-6.2,0.3-10,0.2-11.5-0.4V33l2.1-0.4l11.4-0.6v-5.3l-8.3,0.4
			c-1.5,0.1-2.3-0.2-2.4-0.7v-0.5l1.5-0.4l9.2-0.5v-5.9l-2.6,0.1c-1.3,0.1-3.7,0.4-7.3,1c-2.1,0.1-3.6-0.6-4.6-1.9V18l1.8-0.1
			c1,0,1.5,0.2,1.5,0.6c11.7-0.7,17.6-1.9,17.6-3.5c0-0.5,1.1-2.6,3.4-6.4c0.2-0.4,0.3-0.9,0.3-1.5l-0.6,0.1V6
			C114.7,6,115,5.9,115.4,5.7z M100.8,7c3-0.1,4.7,1.7,5.2,5.6c0,0.2,0.5,0.9,1.6,2.2v0.8l-1.8,0.1c-2.7,0.1-4.6-1.4-5.6-4.7
			c-0.4-1.6-0.6-2.7-0.6-3.1C99.7,7.5,100,7.2,100.8,7z"/>
		<path class="st0" d="M164.8,5.3c2.9,2.2,4.4,4.9,4.4,8.1l1.4-0.1c0.7-0.1,1.1-0.2,1.1-0.4l1.5,0.2l5.7-0.3c1.8,0.3,2.7,0.6,2.7,1
			v0.3c0,0.3-0.2,0.5-0.5,0.5c-0.1,0-0.2-0.1-0.2-0.4l-2,0.8l-0.6-0.3l-1.6,0.4l-2.8-0.2c-0.2,0-1,0.1-2.5,0.4
			c-0.6-0.2-0.8-0.4-0.8-0.6c-1,0.3-1.5,0.5-1.5,0.7l-0.5-0.2c-0.5,0-1,0.2-1.3,0.4l-0.6-0.3c-0.4,0-1.2,0.2-2.4,0.7v-0.3
			c-5.7,1.4-8.5,2.3-8.5,2.8l-2.2,12.9l0.3,0.6c0,1.1-0.4,3.1-1.3,6.1v0.4l0.8-0.1c1.1-1.6,2.5-4.8,4.2-9.5c0-0.3-0.1-0.4-0.3-0.4
			c0.5-3,0.8-4.6,1-4.6l-0.4-0.7v-2.2c0.1-0.4,0.2-0.6,0.5-0.6l1.6-0.1c2.7,0,4,0.3,4,0.9c-0.2,3.5-0.7,6.2-1.3,8.3v0.5
			c0.9-0.1,2.1,0.5,3.6,1.7l0.5,0l-0.4-0.7v-0.6c0.1-1,0.3-1.5,0.7-1.5l-0.4-0.8v-0.9l0.3-1.9l-0.3-0.6c0-0.2,0.1-0.5,0.3-0.9
			c0-0.8-0.2-3-0.6-6.6c0.4,0,0.8-0.1,1.1-0.4c0.4,0.2,0.7,0.3,0.9,0.3c0.3,0,0.4-0.1,0.4-0.3c1.5,0.1,2.7,0.4,3.9,0.7V20
			c0,6.8-0.4,10.6-1.1,11.6l0.9,0c0.4-1.5,0.8-2.3,1.1-2.3l-0.4-0.7c0.8-2.1,1.4-3.1,1.6-3.2c0-0.4-0.1-0.5-0.3-0.5l0.3-3.7v-1.2
			l0.5,0c0.5,0,0.9,0.1,1.3,0.3c0.4-0.2,0.8-0.4,1.3-0.4c1.6-0.1,2.6,0.4,3.1,1.3c0,1-0.2,1.5-0.6,1.5c0,0.4,0.1,0.5,0.3,0.5
			c-0.2,2.4-0.7,4.2-1.4,5.1c1.4-0.1,4.1,1.5,8.1,4.6v0.2c-2.2,0.5-3.5,0.8-4,0.8c-0.9-0.3-2.4-1.2-4.5-2.7c-2.5,2.7-4.3,4-5.4,4.1
			l-1.7,0.1c-0.2,1.6-0.3,2.5-0.3,2.8c0.2,0,0.3,0.1,0.3,0.4l0.8-0.4c2.4-0.1,6-0.4,10.9-0.9c0,0.6,0.8,1,2.5,1.1v1.1
			c-2.4,0.3-4.2,0.5-5.3,0.6h-0.3c-0.4,0-1.5-0.1-3.2-0.5c-3.7,0.3-5.5,0.7-5.5,1c-0.2,0.4-0.3,0.8-0.3,1.3v0.3
			c0,1.4,0.1,2.7,0.3,4.1c0,1.4-0.3,2.1-0.9,2.2v0.9c7.7-1,12.5-1.6,14.4-1.7c1.2,0.6,2,0.9,2.4,0.9v0.5c0,0.6-6.3,1.4-18.8,2.4
			v-0.3c-0.4,0-0.6,0.2-0.6,0.4c-2-0.1-3.6-0.1-4.7-0.1l-7,0.3c-0.1,0-0.2-0.1-0.2-0.4l-0.8,0.5h-0.3c-0.5,0-1.5-0.3-3.1-1.1v-0.8
			c0.7,0,1.2-0.1,1.5-0.4c3,0.1,5.5,0.1,7.6-0.1l1.9-0.1c0.1,0,0.2,0.1,0.2,0.4l0.8-0.4l2.3-0.1v-0.9c-0.4,0-0.6,0-0.6-0.2
			c0-0.6-0.1-1.4-0.3-2.2c0.2-1.1,0.3-2.2,0.3-3.2v-1l-0.4-0.7l-0.7,0.4l-6,0.3c-1.4-0.9-2.1-1.4-2.1-1.6l2.1-0.4l4.5-0.2l1.4-0.4
			v0.4c0.5-0.3,1-0.5,1.6-0.5l-0.4-1.6v-0.3c0-0.1,0.1-0.2,0.4-0.3c-0.3-0.5-0.4-0.8-0.4-1c0.2-0.4,0.3-0.8,0.3-1.2
			c-0.2,0-0.3-0.1-0.3-0.3c-0.4,0-0.5,0.1-0.5,0.3c-2.4,0-3.6-0.6-3.6-1.7l-1.2,0c0,0.6-0.6,1.4-1.9,2.4c0,1.7-1.6,2.7-4.8,3.1
			c0,0.4-0.5,0.7-1.4,0.7c0-0.2-0.2-0.3-0.5-0.3c-0.9,2.7-1.3,4.2-1.3,4.3c-0.2,2.2-1.3,5.4-3.5,9.6l-2.2,2.3l-1.5,0.1l-2.7,0.4
			c1.3-1.1,3.2-6.1,5.7-15c0.3-4.3,0.7-6.5,1.3-6.7l-0.3-1.6c1.1-6.6,1.6-10,1.6-10.3l-0.3-0.6l0.3-0.6c0-1.4-0.5-2-1.4-2
			c-0.8,0.1-1.4-0.3-1.8-1.1v-0.3c0.1-0.6,0.9-0.9,2.4-1c0.2,0,0.2,0.1,0.2,0.4l1.7-0.8l0.6,0.3c3.2-0.4,6.7-1.2,10.7-2.4v0.4
			c0.4-0.3,1.2-0.4,2.3-0.5c-0.5-0.5-0.9-1.8-1.1-3.9c-0.2-0.1-1-1.3-2.5-3.7V5.9h0.2L164.8,5.3z"/>
		<path class="st0" d="M238.4,6.2c2.8,0.1,4.2,0.5,4.2,1.2c0,0.7-1,1-3,1c-0.3,0-1-0.1-2.2-0.2c-0.3,0-1.7,0.1-4.2,0.2v0.1
			c0.8,0,1.4,0.2,1.6,0.6v3.5c3-0.3,4.9-0.4,5.8-0.4h0.2c2.3,0,3.5,0.7,3.5,2.1v1.1c-0.4,5.4-0.9,8.1-1.5,8.1
			c-0.3,0.5-1.1,0.8-2.6,0.8c-1.6,0-2.6-0.3-3.1-0.9c0.4-0.4,0.7-1,0.8-1.7H238c-2.1,0.2-3.1,0.4-3.1,0.5c0,0.5-0.8,0.8-2.4,0.8
			c-0.8,0-1.6-0.2-2.3-0.5c-3.6,0.3-6.6,0.4-8.8,0.4c-0.6,0-1.1-0.1-1.4-0.2v0.2c0,0.1,0,0.3,0.1,0.8c-0.4,0.3-1,0.5-1.8,0.5h-0.4
			c-1.8,0-2.8-0.5-2.8-1.4c-0.1-2.3-0.1-3.6-0.1-4c0,0.3-1.5,0.6-4.5,0.8v2.9c0,0.1,0.2,0.2,0.5,0.5v0.3c-0.4,0.2-0.6,1.2-0.6,2.9
			V27c1.5,0.4,3.2,1.1,5.3,1.9c0.7-0.2,1.4-0.3,1.9-0.4c1.4,0.1,2.6,0.1,3.5,0.1h3.2c1.2,0,5.6-0.2,13.3-0.7h2.3
			c1.9,0,3.2,0.4,3.9,1.1v0.2c-0.4,0.8-1.2,1.1-2.4,1.1h-1.4c-0.5,0-1.3-0.1-2.3-0.4c-6.9,0.4-11.1,0.6-12.7,0.6
			c-2.3-0.1-4.5-0.1-6.6-0.1c-0.1,0-0.3,0-0.8-0.1c0,0.3-0.6,0.4-1.8,0.5h-0.3c-1.2,0-2.9-0.6-5.1-1.7v0.1c0,12-0.3,18-0.9,18
			c-0.4,0.2-1,0.3-1.6,0.3c-1.4,0-2.3-0.2-2.6-0.7V31.5c-1.7,2.3-3.1,3.9-4.2,4.8c-0.3,0.1-0.7,0.2-1.1,0.2h-1.1
			c-1.6-0.1-2.4-0.4-2.4-0.8c2.2-2.8,5.2-6.8,8.8-12v-0.5c0-0.7,0-1.7,0.1-3.1c-1.7,0.1-3.4,0.2-5.1,0.2H199c-1.1,0-1.8-0.2-2.3-0.7
			v-0.3c0-0.5,2.8-0.8,8.3-0.9c0-0.1,0.1-0.1,0.3-0.1V8.7c0-0.6,0.6-0.9,1.8-0.9h1.3c1,0,1.6,0.3,2.1,0.8c-0.1,0.9-0.1,1.6-0.1,2.1
			v7.2c0.7-0.1,1.2-0.1,1.5-0.1h0.8c1,0,1.7,0.2,2.2,0.6v-0.1c0-1.1,0-2.9,0.1-5.3c0.4-0.3,1-0.4,1.5-0.4h1.4c0.9,0,1.6,0.2,1.9,0.7
			v1.5c1.4-0.1,2.1-0.3,2.1-0.5c0.2-2.8,0.3-4.4,0.4-4.9c-1.4,0.1-2.4,0.1-3.1,0.1h-0.3c-1.3,0-2.2-0.3-2.9-0.9V8.1
			c0-0.6,3.6-1,10.8-1.3C231.8,6.4,235.6,6.2,238.4,6.2z M238.3,33.8h1.5c1.7,0,2.7,0.3,3.2,1V35c0,0.3-0.8,0.6-2.3,0.8
			c-0.2,0-0.9,0-1.9-0.1c-4.1,0.2-6.2,0.4-6.2,0.5c-0.5,3.2-0.7,7.4-0.7,12.7c-0.4,3.8-1,5.6-1.8,5.6c-0.6,0.2-1.2,0.3-1.7,0.3h-0.7
			c-2.4,0-4.1-1-5.1-2.9V52c0-0.4,0.8-0.6,2.3-0.6h0.6l0.5,0.1c0.4-2.1,0.8-6.9,1.2-14.4c0.1,0,0.1-0.2,0.1-0.5h-0.1
			c-5.7,0.3-9.3,0.5-10.7,0.5h-0.6c-1.4,0-2.2-0.3-2.7-1c0-0.7,2.8-1.1,8.3-1.2c3.7-0.3,6-0.4,6.7-0.4c0-0.3,0.5-0.4,1.5-0.5h1.4
			c0.8,0,1.2,0.1,1.2,0.2C234.3,33.9,236.3,33.8,238.3,33.8z M221.3,40.1c1.5,0.1,2.3,0.3,2.5,0.7V41c-3.6,5.7-6,8.5-7.3,8.5h-1.5
			c-0.9,0-1.5-0.2-1.7-0.6v-0.1c2.5-3,4.6-5.8,6.2-8.4C220,40.2,220.7,40.1,221.3,40.1z M220,16.7c0.1,2.6,0.1,4.1,0.1,4.4h0.1
			c0.9-0.1,1.6-0.1,2.2-0.1c-0.1-0.4-0.2-1.1-0.2-2.2v-2.6H222C220.7,16.4,220,16.5,220,16.7z M226.2,9v0.1c0.7,0,1.1,0.2,1.3,0.7
			c-0.1,1.9-0.2,3.1-0.2,3.8c1.8-0.2,2.7-0.3,2.7-0.5v-4c0-0.2,0.1-0.3,0.4-0.3V8.7h-0.1L226.2,9z M227.3,15.4v5.2
			c0.5,0,1.4-0.1,2.8-0.2V15L227.3,15.4z M235,14.4v5.5c2.4-0.1,3.6-0.2,3.6-0.3c0.5-2.8,0.7-4.6,0.7-5.3c-0.1-0.1-0.1-0.2-0.1-0.3
			L235,14.4z M237.7,41h0.6c2.2,0,3.5,0.8,4,2.3c0.8,1.1,1.6,3.4,2.5,6.9c-0.5,0.4-1.2,0.6-2.1,0.6H241c-1.8,0-2.9-0.6-3.1-1.8
			c-1-3.9-1.9-6.2-2.8-6.9v-0.3C235.3,41.3,236.2,41,237.7,41z"/>
		<path class="st0" d="M54.8,64.7h0.5c1.3,0,2.2,0.3,2.8,0.9c0,0.6-1.5,2.5-4.4,5.7l-0.1,0.4c0.1,0.1,1.1,0.7,3.1,1.7
			c1.9,1.3,2.9,2.8,2.9,4.8c0,1.4-0.9,2.8-2.5,4.1c-0.7,0.4-1.6,0.6-2.5,0.6c-1.4,0-2.5-0.2-3.4-0.6v0.1c0,0.4,0,2.7,0.1,7
			c0,0.4-0.3,0.6-1,0.6h-0.3c-1.4,0-2.1-0.4-2.1-1.1v-6.1l-2.6,0.6c0,4.8-0.2,7.2-0.5,7.2l-0.4,0.1h-0.9c-1.1,0-1.6-0.3-1.6-1v-0.3
			c0-0.9,0-2.7,0.1-5.4c-0.5,0.1-1,0.1-1.6,0.1h-0.8c-1.2-0.1-1.8-0.4-1.9-0.8c0.7-3,1.1-4.7,1.1-5h-0.1c-0.3,0-0.7-0.1-1.3-0.2
			c-0.4,1.7-0.9,3.1-1.7,4.2c-0.7,1.4-1.9,3-3.7,4.8c-0.4,0.4-0.7,0.6-1.1,0.6H31c-1.1,0-1.6-0.2-1.7-0.5V87c1.8-1.9,3-3.4,3.5-4.5
			v-0.1l-1.2-0.3c-0.2,0.7-0.7,1-1.3,1H30c-1.1,0-1.9-0.2-2.2-0.6v-0.1c1.5-3.4,2.3-5.6,2.3-6.5c0.2-1.2,0.5-1.9,0.8-1.9
			c0.3,0,0.6-0.1,0.8-0.1h0.1c1.6,0.1,2.3,0.3,2.3,0.7l-0.3,1.6c0.6-0.3,1.2-0.4,1.7-0.4c1.4,0,2.1,0.4,2.1,1.1h0.1l4.5-1v-1.6
			c0-0.2,0.4-0.3,1.1-0.3c1.4,0.1,2.1,0.3,2.1,0.6v0.8h0.6c0.8,0,1.3,0.2,1.7,0.6v0.2c0,0.1-0.7,0.3-2.2,0.6c0,0.1-0.1,0.2-0.1,0.2
			c0,3.1-0.1,4.8-0.1,5.1c0.6-0.2,1-0.3,1.2-0.3c0.7,0.1,1.2,0.1,1.3,0.1v-0.4c0-1.8,0-3.1,0.1-3.9c-0.1-4.8-0.2-8.3-0.3-10.4
			c-0.5,0-1-0.2-1.5-0.7v-0.1c0-0.2,0.5-0.4,1.5-0.6c0-0.2,0.2-0.3,0.6-0.3h0.9c0.2,0,0.4,0,0.8,0.1C52.3,65,53.9,64.7,54.8,64.7z
			 M35.9,59h0.3c1.1,0,1.7,0.2,2,0.6v2.5c0,0.7,0,1.7-0.1,2.9c1.6-0.2,2.3-0.4,2.3-0.6c0-0.1-0.1-0.2-0.1-0.2
			c0.4-3.1,0.6-4.7,0.8-4.7c0.2-0.1,0.4-0.1,0.8-0.1h0.8c0.9,0,1.5,0.2,1.8,0.6c-0.3,2.8-0.6,4.3-0.9,4.3c0,0.1-0.1,0.3-0.3,0.5
			c0,0,0,0.1,0.1,0.2v0.1c0,0.3-1.8,0.7-5.3,1.2v0.1c0,0.2,0,0.6-0.1,1.2h0.1c1,0,3,0.4,6.1,1.2v0.1c0,0.1-0.1,0.1-0.2,0.2h-0.8
			c-3.1-0.6-4.8-0.9-5.1-0.9c-0.2,4.3-0.4,6.4-0.7,6.4l-0.7,0.1h-0.1c-0.9,0-1.5-0.2-1.8-0.5v-4.1c0-0.3,0-0.8,0.1-1.5h-0.1
			c-2.5,1.8-4,2.8-4.4,2.8h-0.1c-0.7,0-1.2-0.1-1.4-0.4c0,0,1.1-0.8,3.2-2.2l2.4-1.9h-0.1c-2.1,0.4-3.4,0.6-3.9,0.7
			c-1.2-0.1-1.9-0.3-2-0.6v-0.1c0-0.2,1.1-0.4,3.4-0.8c0.1,0,1.1-0.2,2.9-0.6c0-2,0.1-3.5,0.1-4.6v-1.7C35,59.1,35.3,59,35.9,59z
			 M30.5,59.9h0.2c1.5,0,2.2,0.3,2.2,1c0.2,1.2,0.4,2.3,0.8,3.1c-0.2,0.2-0.6,0.3-1.2,0.3c-1.5-0.1-2.2-0.5-2.2-1
			c-0.2,0-0.5-1-0.8-3v-0.1C29.5,59.9,29.8,59.9,30.5,59.9z M34,77.6h-0.4c-0.1,0.1-0.4,0.7-0.8,2.1c-0.3,0.5-0.5,0.9-0.5,1.2
			c0.7,0.1,1.1,0.2,1.2,0.2c0.9-1.9,1.3-3.1,1.3-3.7h-0.1C34.5,77.6,34.2,77.6,34,77.6z M41.7,77.7l0.2,0.3c-0.4,1.8-0.8,3.4-1.2,5
			c0.1,0,0.6-0.1,1.4-0.2c0.1-2.8,0.1-4.5,0.1-5.2C41.9,77.7,41.8,77.7,41.7,77.7z M51,67.1c0,0.4,0,1.2,0.1,2.5c0,0,0.7-1,1.9-2.8
			v-0.1C51.6,66.9,51,67,51,67.1z M51.1,72.1l0.2,6.4c0.4,0,0.9,0.7,1.5,2c0.4,0.7,0.7,1.1,0.9,1.2c1.7-1.1,2.6-2.3,2.6-3.7v-0.8
			c0-2-1.7-3.6-5-4.9C51.4,72.3,51.3,72.2,51.1,72.1z"/>
		<path class="st0" d="M73.5,70.4l1.1-0.1l1,0.2v0.3c-0.6,2.8-1.3,4.2-2.3,4.3v0.3c0.6,0.4,0.8,1.6,0.8,3.7v0.2
			c0,3.1-0.4,5.1-1.2,5.9l3.2-0.2c0.6,0,4.5,0.6,11.7,1.7l8.2,0.4v0.3c0,0.4-1.1,0.6-3.3,0.7l-0.8,0c-2.5,0.1-8.1-0.7-17-2.3
			l-0.6,0.1c-2.4,0.1-3.7,0.7-3.7,1.7l-1.2,0.1c-0.7,0-1.1-0.1-1.2-0.5v-0.2c0-0.4,1-1,3-1.6L70.8,83v-7.2c0.3-0.3,0.5-1.1,0.6-2.5
			c0.3,0,0.4-0.4,0.4-1.2l-0.3,0c-0.8,0.2-1.4,0.3-1.9,0.3c-1.5,0.1-2.3-0.1-2.3-0.4v-0.3l1.4-0.1C70.5,71.4,72,71.1,73.5,70.4z
			 M69.4,62.8c2-0.1,3.3,1,3.9,3.3v1.2c-0.7,1-1.5,1.5-2.4,1.6c-0.8-0.9-1.2-2.3-1.2-4.4c-0.3,0-0.5-0.5-0.6-1.4
			C69.1,62.9,69.2,62.8,69.4,62.8z M87.9,61l1.8-0.1c0.7,0,1.3,0.3,1.6,0.9c0,0.5-2.3,1-6.9,1.5l-1.3-0.2l-1.6,0.3l0.2,0.5
			c0.1,2.5,0.2,4.5,0.2,6.1v0.5l5.6-0.3c2.1-0.4,3.2-0.6,3.4-0.6l0.8-0.1l1,0.2v0.4c0,0.3-1.1,0.6-3.4,0.9c0.3,1.2,0.4,2.4,0.4,3.6
			v9.1c0,0.2-0.1,0.4-0.4,0.4l-2.1,0.1c-0.4,0-0.8-0.1-1.2-0.3l0.2-1.4v-6c0-1.2-0.1-3-0.2-5.4l-0.9-0.2c-2.3,0.2-3.5,0.4-3.5,0.7
			c0,4.3-1.5,7.5-4.5,9.4c0.8-7.2,1.3-11.6,1.3-13c0-1-0.1-2.8-0.4-5.5l1.4-0.2c0.7,0,1.3,0.1,1.9,0.5l0.5,0c3.3-0.7,5.3-1.3,6-1.6
			V61z"/>
		<path class="st0" d="M114.2,60.4l1,0c2.4-0.1,3.5,0.4,3.5,1.6c-0.3,0.1-0.4,0.2-0.4,0.5v0.7l4.4-0.2c0-0.7,0.1-1.1,0.3-1.1l0.4,0
			c2.1,0.3,3.1,0.8,3.1,1.4c-1.1,1.6-2.6,3.7-4.5,6.2c1.1,0.6,4.1,3.1,8.8,7.4c2.1,1.4,3.2,2.1,3.2,2.3c0,0.2-0.2,0.4-0.6,0.6
			c-1.7,0.1-3.4-0.5-5.1-1.7v0.6c0,6.2-0.8,9.3-2.5,9.4l-0.9,0.1c-1.1,0-1.9-0.2-2.5-0.9v-0.6l0.3-0.6l-4,0.2v2.2
			c0,0.2-0.2,0.4-0.6,0.6c-2.3,0.1-3.5-0.5-3.5-1.9v-3.6c0-2.8-0.2-4.7-0.5-5.6c-2.9,2-5.6,3.2-8.1,3.8l-0.6,0
			c-0.2,0-0.3-0.1-0.3-0.3v-0.2c2.6-1.2,6.8-5.3,12.7-12.1v-0.2c0-0.2-0.5-0.6-1.5-1.3l-0.3,0c0,0.9-1.6,2.3-4.8,4.3l-0.5,0v-0.3
			c0.7,0,1.1-1.1,1.3-3.1c1.8-3.9,2.8-6.3,2.8-7.4c-0.3,0-0.4-0.1-0.4-0.3V60.4z M115,77.3c1.6,0.1,2.4,0.3,2.4,0.5l8.9-0.9
			c0,0.1,0.1,0.2,0.4,0.2v-0.3l-6-5.3l-0.3,0L115,77.3z M117.2,65.7l2,1.2l0.3,0c0.5-0.3,1.2-1.2,2.2-2.7v-0.3l-1.3,0.1
			c-1.9,0.1-2.8,0.4-2.8,1.1C117.4,65.2,117.3,65.4,117.2,65.7z M118.2,78.9c0.1,1.7,0.2,2.9,0.2,3.7V85l4.3-0.2
			c0.4,0,0.8-2.1,1.2-6.1L118.2,78.9z"/>
		<path class="st0" d="M154.9,59.9l0.8-0.1c1.2-0.1,2.6,0.6,4.2,1.9V62c0,1.6-0.3,4.6-0.9,8.9l4.6-0.2c0.1,0,0.2,0.1,0.2,0.3
			l0.5-0.3l0.4,0c0.8,0,1.9,0.1,3.1,0.5v0.7c-0.1,0-0.5,0.1-1.2,0.3c-0.9,0.1-1.8,0-2.8-0.1c-1.4,0.2-2.9,0.4-4.5,0.4l-0.6,0
			c3,5.4,5.3,8.7,6.9,9.8c1.9,2,3.6,3.7,5.1,5.1v0.3c-0.4,0-0.6,0.4-0.6,1.1h-0.3c-2.5,0.1-4.9-0.7-7-2.4l-5.1-7.4l-0.3,0
			c-1.7,4.4-4.5,7.7-8.5,9.8l-4,1c-0.7-0.1-1-0.3-1-0.5V89c1.7-0.6,4.1-3.1,7.2-7.6c1.1-2.2,2-5,2.6-8.4l-5.6,0.3
			c-1.8,0-2.7-0.2-2.7-0.6v-0.4c0.7-0.2,3.5-0.5,8.3-0.8c0.3,0,0.8-3.5,1.6-10.5c-0.2,0-0.5-0.2-0.7-0.6v-0.2
			C154.6,60.1,154.7,59.9,154.9,59.9z"/>
		<path class="st0" d="M196.4,58.8l1.7-0.1c0.2,0,0.3,0.1,0.3,0.3c0,0.1-0.4,0.8-1.3,2v0.3c1.1,1,1.7,1.7,1.7,2.2
			c-0.5,0.4-1,0.6-1.4,0.7l-0.4,0c-0.9-0.5-1.4-0.9-1.4-1.3c-1.2,1-2,1.4-2.2,1.4c-0.3-0.1-0.5-0.2-0.6-0.2V64
			c0.3-0.4,0.7-1.2,1.1-2.2c-0.9-0.7-1.7-1-2.4-1c-1.7,0.2-2.7,0.4-2.8,0.4v1.3l0.2,1.1l2.6-0.1l1,0.1v0.5l-1,0.3l-2.6,0.1v2.9
			l2-0.1c0.2,0,0.3,0.1,0.3,0.3c0,0.2-0.1,0.3-0.3,0.4l-2,0.1v4l14.2-0.7l-0.2-0.5v-3.2l-3.9,0.2c-0.2,0-0.4-0.1-0.4-0.3v-0.4
			l1.4-0.3l2.8-0.1v-2.3l-3.7,0.2l-0.6-0.3l0.3,0.6c0,0.2-0.5,0.8-1.5,2l1.9,2v0.6l-1,0.3H198c-0.8,0-1.8-0.4-2.9-1.3l-0.5,0
			c0,0.2-0.2,0.4-0.6,0.7l-1.4,0.1v-0.5c0.8-0.9,1.3-1.4,1.3-1.6c-1.1-1.1-1.8-1.6-2.1-1.6v-0.3c0-0.3,0.1-0.4,0.3-0.4l0.4,0
			c1-0.1,2.2,0.2,3.5,0.7c0-0.4,0.7-0.8,2-1l0.5,0.2c0-0.6,1.2-1,3.7-1.1l0.5,0v-2.7l-3,0.2c-0.2,0-0.3-0.1-0.3-0.3
			c0-0.2,0.1-0.4,0.3-0.4l2.4-0.1c1.4-0.4,2.1-0.5,2.3-0.6c0.8,0.1,1.2,0.3,1.2,0.5v10.6c0,0.2-0.3,0.4-0.9,0.4v0.4l1.6-0.1
			c0.4-0.9,1.2-1.3,2.3-1.4c1.2,0,1.8,0.3,1.8,0.9c-0.3,2.7-1.5,4-3.6,4.2c0,0.1,0,0.2-0.1,0.2c-0.2,0-0.5-0.4-1-1.1
			c0.3-1.1,0.4-1.7,0.4-1.8c-2.9,0-5,0.1-6.4,0.1l-6.4,0.3c-0.9,0-1.8,0-2.8-0.1c-0.5,0.2-1.3,0.3-2.3,0.3l-1.9,0.1l-2.2-0.1v2.2
			c0,0.8-0.4,1.5-1.2,2.1l-1.9,0.1l-1-0.1v-0.1c0.6-1.6,1-3.3,1.3-4.9l0.8-0.6l0.4,0l1.3,0.8l1.2,0v-7.7c0-3.2,0.2-4.8,0.6-4.8
			l2.3-0.1c0.5,0.4,0.8,0.6,1.1,0.6c0.5,0,1.1-0.4,1.9-0.9c2.2,0.4,3.7,0.7,4.5,0.6C195.3,59.6,195.7,59.3,196.4,58.8z M203.1,73.5
			c0.5,0.3,0.8,0.4,1,0.4V74c0,0.2-0.8,0.6-2.3,1.1c-1.5,1.5-3.1,2.3-4.8,2.4c0.9,0.9,1.4,2.3,1.4,4.1l4.3-0.2
			c2.3-0.1,3.7,0.3,4.2,1.2c0,0.4-0.8,0.6-2.3,0.7l-0.2,0c-0.8,0-1.6-0.2-2.3-0.7l-3.7,0.2v1.7c-0.5,4.1-1.5,6.2-2.9,6.2l-1.3,0.1
			c-1.6,0.1-2.5-0.2-2.7-0.9v-0.2l0.2-1.4l0.8-0.1l0.7,0.4h0.4c0.6,0,1-1.7,1.4-5v-0.7c-0.9,0.2-4.1,0.6-9.6,1.1
			c-0.9-0.1-1.4-0.2-1.4-0.5c0-0.4,3.7-1,11-1.8c0-1.7-0.5-3.1-1.5-4.1v-0.3l1-0.2l1.5-0.1c1.4-1.1,2.2-1.7,2.2-1.9l-0.3,0
			c-4.2,0.5-7.3,0.8-9.1,0.9c-0.3-0.1-0.5-0.2-0.6-0.2v-0.5C193.6,74.3,198.5,73.7,203.1,73.5z"/>
		<path class="st0" d="M232,59.1c3.1-0.1,4.6,0.6,4.6,2.3c1.4,0.3,2.1,0.8,2.1,1.4l0.5-0.3c0.3,0.1,0.5,0.2,0.7,0.2l1.1-0.3l0.4,0.2
			c0.9-0.2,1.3-0.4,1.3-0.5c2.9-0.1,4.3,0.4,4.3,1.6c-0.1,0.5-0.4,0.8-0.9,0.8l0.2,0.5c-0.2,0.1-0.4,0.2-0.5,0.2
			c-0.4,0-1-0.2-1.7-0.8l-3.8,0.6v-0.2l-3.3,1l-2.2-0.1l-0.3,0.5l0.2,0.4c0,0.4-0.6,1.4-1.7,3c-1,1.8-1.5,2.9-1.5,3.2l0.3,0l1.1-0.3
			c0.3,0.1,0.5,0.2,0.7,0.2c0.3-0.2,0.5-0.2,0.6-0.2v0.2l1.8-0.6c0.1,0,0.1,0.1,0.1,0.2l2.2-0.3l2.4-0.1c0-1.4-0.4-3.4-1.1-6
			l0.4-0.2l0.4,0l1.3,0.1l0.4-0.2c1.3-0.1,2,0.8,2,2.6c0.1,2,0.3,3.1,0.5,3.3c0.8-0.2,1.4-0.3,1.7-0.3c1.8,0.4,2.7,0.6,2.7,0.8v0.2
			c0,0.1-0.4,0.4-1.2,0.8l-1.1-0.2l-1.8,0.1l-0.4,1.6v1.7c0,0.1-0.1,0.1-0.3,0.2l0.3,0.5v0.6c0,0.5-0.1,0.8-0.2,1.1
			c0.1,1.5,0.3,2.2,0.4,2.2c-0.2,1.7-0.3,2.8-0.4,3.1c0.1,0.2,0.2,0.5,0.2,0.8c0,1.2-0.8,2.8-2.3,4.8c-0.2,0.1-0.5,0.2-0.8,0.2
			l-1.9,0.1c-0.7-0.5-1.2-0.8-1.4-0.8c0,0,0.1-0.1,0.3-0.1c-0.7-1.3-1.1-2.2-1.1-2.6c0-0.2,0.2-0.4,0.6-0.6c0.9,0.4,1.6,0.5,1.9,0.5
			l0.7-0.1c0.3-1.4,0.5-3.6,0.7-6.5c-0.2-3-0.4-5.2-0.7-6.4c-2.9,0.3-4.9,0.6-6.1,0.9l-1.1-0.2c-0.3,0.2-0.5,0.3-0.6,0.3
			c-0.5,0-0.8-0.2-0.8-0.6l-0.6,0c0,0.5,0.1,0.9,0.2,1.1l-0.6,3.4c0.1,0.3,0.2,0.5,0.2,0.6c0,0.1-0.1,0.1-0.2,0.2l0.2,1.1
			c0,0.8-0.1,1.6-0.4,2.4l0.4,1.9c-0.3,1-0.4,1.8-0.4,2.4L231,88c-0.1,0-0.6,0.4-1.4,1.1c-0.5,0-1.1,0.1-1.8,0.3
			c0-0.2-0.3-0.4-0.9-0.7l0.6-12.1l-2.1,0.8V77l-0.6,0l-0.2,1.2c0,0.3,0.1,0.6,0.2,0.8c-0.3,0.7-0.7,2.5-1.2,5.3
			c-0.3,0-0.7,0.9-1.1,2.6c-0.2,0-0.6,0.5-1.3,1.6c-1.3,1-2.4,1.7-3.4,2c-0.5-0.1-0.8-0.4-0.8-1.1c1.5-2.8,2.6-5.4,3.2-7.9l-0.2-0.3
			c0.2,0,0.7-2.8,1.4-8.2c0-2.2,0.2-3.4,0.5-3.4l-0.3-0.5c0.1-2.3,0.2-3.9,0.2-4.9c0.5-0.3,1-0.4,1.6-0.5c1.3-0.1,3.7-0.2,7-0.6
			c0.8,0.1,1.4,0.1,1.8,0.1c0-0.3,0.2-0.4,0.5-0.4c-0.6-1.6-1-2.4-1.3-2.4v-1C231.7,59.2,231.8,59.1,232,59.1z M225.3,74.3
			c0.1,0.3,0.2,0.5,0.2,0.8c-0.1,0-0.2,0.1-0.2,0.4l0.8-0.1c2.1-3.4,3.5-5.9,4.3-7.7l0.7-1.6c-0.4,0-0.7,0-1-0.2
			c-0.2,0-0.3,0.1-0.3,0.2l-1-0.1l-0.4,0c-1.5,0.6-2.2,1.2-2.2,1.9L225.3,74.3z M233.1,77.2l2.5,0.5l0.8,0c0,0.3,0.9,1.3,2.6,3v0.4
			c0,0.4-0.7,0.8-2.1,1.1c-0.4,0-1.7-1.1-3.8-3.4c-0.7,0-1.1-0.1-1.2-0.5v-0.4C231.8,77.6,232.2,77.4,233.1,77.2z"/>
	</g>
	<g>
		<rect x="274.6" y="-0.2" class="st0" width="1.6" height="96.4"/>
	</g>
	<g>
		<rect x="0.8" y="-0.2" class="st0" width="1.6" height="96.4"/>
	</g>
</g>
</svg>
