<?xml version="1.0" encoding="utf-8"?>
<!-- Generator: Adobe Illustrator 25.2.3, SVG Export Plug-In . SVG Version: 6.00 Build 0)  -->
<svg version="1.1" id="圖層_1" xmlns="http://www.w3.org/2000/svg" xmlns:xlink="http://www.w3.org/1999/xlink" x="0px" y="0px"
	 viewBox="0 0 284 104" style="enable-background:new 0 0 284 104;" xml:space="preserve">
<style type="text/css">
	.st0{fill:#F5E800;}
</style>
<g>
	<g>
		<g>
			<path class="st0" d="M33.5,14.9c1.6,0.1,2.3,0.3,2.3,0.7c-0.7,2.4-2.1,5.2-4,8.3c1.6-0.2,2.4-0.4,2.5-0.5c1-2.1,1.6-3.1,1.9-3.1
				l1.2-0.1c1.3,0.1,2,0.3,2,0.6c-0.9,2.1-2.5,4.6-4.7,7.5h0.1c0.3-0.2,0.7-0.2,1.1-0.2h0.7c1.2,0,1.9,0.4,1.9,1.2l1.8,5.6
				c-0.3,0.3-0.8,0.4-1.5,0.4h-0.1c-1.6,0-2.3-0.4-2.3-1.2c-0.1-0.2-0.2-0.6-0.4-1.2c-2.9,0.8-5,1.2-6.1,1.2h-0.5c-1.3,0-2-0.3-2-1
				c3.4-4.4,5.4-7,6-8h-0.1c-1.6,0.3-2.6,0.5-3.1,0.5h-0.9c-1.1,0-1.7-0.2-1.9-0.5v-0.1c0-0.1,0.9-1.9,2.8-5.3l1.8-4.4
				C32.2,15.1,32.8,15,33.5,14.9z M29.1,37h0.5c0.9,0,1.3,0.3,1.3,0.8c0.3,3.4,0.4,5.5,0.4,6.5c-0.2,0.2-0.6,0.2-1,0.2h-0.5
				c-0.9,0-1.4-0.3-1.4-1L28,37.2C28.3,37,28.6,37,29.1,37z M31.2,32.5L31.2,32.5L31.2,32.5c2.4-0.6,3.8-0.9,4.3-0.9
				c-0.6-2-0.9-3-0.9-3.2L31.2,32.5z M36.7,36.6c1.3,0,2,0.4,2,1.2c0.5,1.1,1,2.6,1.6,4.6c-0.3,0.2-0.7,0.3-1.3,0.3h-0.2
				c-1.2,0-1.9-0.3-1.9-0.8c-0.5-1.1-1-2.6-1.7-4.6h-0.1v0.1c0.3,1.7,0.6,3.6,0.9,5.8c-0.3,0.2-0.5,0.2-0.8,0.2h-1
				c-1,0-1.5-0.6-1.5-1.7C32.3,39,32,37.5,32,37c0-0.2,0.4-0.3,1.2-0.3h0.3c0.7,0,1.2,0.1,1.5,0.4h0.1
				C35.1,36.8,35.6,36.6,36.7,36.6z M53.5,26.9c1.6,0.1,2.3,0.5,2.3,1.2v0.3c-0.3,4.9-0.7,7.3-1.1,7.3c-0.3,0.3-0.7,0.5-1.3,0.5h-1
				c-1.1,0-1.7-0.3-1.7-0.8c-0.8,0-1.2,0.1-1.2,0.3c0,0.5-0.4,0.7-1.3,0.7h-0.3c-1,0-1.5-0.2-1.6-0.5c-1,0.1-1.5,0.1-1.8,0.1
				l-0.4-0.1v2.2c0,1.8,0.2,2.9,0.7,3.3c1.3,0.7,2.8,1.1,4.4,1.1h0.1c2.1,0,3.1-0.6,3.1-1.7c0.1-0.2,0.3-1,0.7-2.6
				c0.2-0.2,0.6-0.3,1.3-0.3h0.1c1.2,0,1.8,0.3,1.8,0.8v0.5c0,1.9-0.5,3.1-1.4,3.6c-1.5,0.5-2.9,0.8-4.2,0.8h-1.9
				c-2,0-4.2-0.5-6.4-1.4c-1-0.5-1.5-1.7-1.5-3.6v-0.8c0-3.2,0.1-6.2,0.2-9c-1.4-0.1-2.1-0.3-2.2-0.6v-0.2c0-0.2,0.9-0.4,2.6-0.5
				c0-0.1,0.4-0.2,1.2-0.2c0.9,0.1,1.4,0.2,1.4,0.2c0,0,0.1,0,0.3-0.1C46,27.3,49,27.1,53.5,26.9z M51.2,15.9c2.2,0,3.3,0.4,3.3,1.2
				c0,0,0.1,0.1,0.1,0.3v1.2c0,2.3-0.4,4.7-1.1,7.1c-0.3,0.4-0.9,0.6-1.7,0.6H51c-1,0-1.8-0.3-2.4-1v-0.1c0-0.1,0.3-0.3,1-0.5
				c0.4-2.2,0.6-4.5,0.8-7c0-0.1-0.1-0.2-0.1-0.4c-1,0-1.6,0.2-1.6,0.5c-1.2,2.7-3.2,5.5-5.9,8.4c0,0.1-0.3,0.2-0.9,0.2h-0.8
				c-1,0-1.5-0.2-1.6-0.5c3-3.7,4.8-6.5,5.5-8.2h-0.1c-1.1,0.1-1.9,0.1-2.5,0.1c0,0-0.1,0-0.2,0.1c-1.6-0.2-2.4-0.4-2.4-0.7V17
				c0-0.3,2.5-0.6,7.6-0.8C48.5,16,49.7,16,51.2,15.9z M44.4,28.6L44.4,28.6c-0.1,1.8-0.2,3.8-0.2,6.2c0.9-0.1,1.5-0.2,2-0.2
				c0.2-0.5,0.2-2.5,0.2-6.1C46.1,28.5,45.4,28.5,44.4,28.6z M49.9,28.4c-0.2,3.4-0.2,5.3-0.2,5.8c0.4-0.3,0.8-0.5,1.3-0.5
				c0.5-3.2,0.7-5,0.7-5.4h-0.5C50.8,28.3,50.5,28.4,49.9,28.4z"/>
			<path class="st0" d="M75.6,14c1.2,0.1,1.9,0.4,1.9,0.7c-0.8,2.9-2.6,6.5-5.3,10.8c0.4,0.2,1,0.3,2,0.4v0.4
				c-0.3,1-0.4,1.6-0.4,1.8v2.2c0,0.3-0.1,0.6-0.2,0.9c0.2,0.3,0.2,0.5,0.2,0.8v0.9c0,0.1-0.1,0.2-0.3,0.2l0.3,0.5v0.9
				c0,0.1-0.1,0.1-0.3,0.2l0.3,0.5c-0.1,0.8-0.2,1.2-0.2,1.3c0,0.2,0.1,0.3,0.2,0.3l-0.9,9.1c-0.7,0.3-1.1,0.5-1.2,0.5
				c-1.1,0-1.7-0.2-1.7-0.4l-0.5,0.3l-0.6,0c-0.2,0-0.4-0.2-0.4-0.5c0-0.8,0.2-1.6,0.7-2.3l-0.5,0c0-1.4,0.2-2,0.4-2
				c0-0.2-0.1-0.4-0.2-0.4l0.2-1v-8.3c0-0.1,0.1-0.1,0.3-0.2l-0.3-0.5v-1.2l-0.3,0c-0.4,0.4-1.6,0.8-3.7,1.3l-0.4-0.2
				c-0.3,0.2-0.5,0.3-0.6,0.3c0-0.3-0.2-0.4-0.7-0.4v-0.5c0.9-0.2,2.7-2.2,5.2-5.8c0-0.3,0.4-1.1,1.3-2.5c1.7-4.2,2.7-6.6,3-7.1
				C73.4,14.8,74.3,14.6,75.6,14z M84.4,28.7c0.1,0,0.1,0.1,0.1,0.2l1.2-0.3l0.2,0c0.3,0,0.6,0.1,0.9,0.2c0.3-0.2,0.6-0.3,0.9-0.3
				c0.3,0.1,0.7,0.3,1.2,0.7l-0.2,1.1v0.8c0.3,0,0.4,0.1,0.4,0.2l0.5-0.3c0.5,0,0.8,0,1.1,0.2L92,31l0.9-0.1
				c1.6-0.1,2.3,0.4,2.3,1.3c-1.1,1-1.9,1.6-2.3,1.6c-0.6,0-1.8-0.1-3.5-0.5l-0.2,0c-0.6,0-1,1.4-1.2,4.1c0.1,1.2,0.3,1.8,0.5,1.8
				c0.3,0.1,0.6,0.2,0.9,0.1l1.6-0.1c1.9-0.1,3.6,0.3,5.2,1v0.2c0,0.1-0.1,0.4-0.2,0.6l0.2,1.3l-1,0.2l-0.6,0
				c-2,0.1-3.3-0.4-3.9-1.5C90.2,41,89.9,41,89.6,41l-0.4,0l-1.3,0.3c-0.1,0-0.1-0.1-0.1-0.2c-2.6,0.5-4.8,1-6.4,1.4L80,42.5
				c-1.1,0-2.2-0.2-3.4-0.7v-0.3c4.2-0.9,6.3-1.5,6.3-1.9v-2.8c0-0.3,0.1-0.6,0.2-0.9c-0.2-0.3-0.2-0.5-0.2-0.7l-0.7,0.1
				c-0.4,0-0.7,0.1-0.9,0.3c-0.1,0-0.1-0.1-0.1-0.2L80,35.6h-0.2c-1.7-0.9-2.6-1.4-2.6-1.5l1.2-0.9l0.4,0.2h0.3l1.5-1.2l0.9,0.4
				c0.3-0.2,0.5-0.2,0.6-0.2c0.3,0.1,0.5,0.2,0.7,0.2c0.3-2.3,0.6-3.5,0.8-3.5C84,28.8,84.2,28.7,84.4,28.7z M86.3,13.3
				c1.8-0.1,2.7,0.3,2.7,1.1l-0.2,1.1v0.4c0,1.7,0.2,2.5,0.7,2.5l1.5-0.1c2.3-0.1,3.4,0,3.4,0.4c0,0.5-0.9,0.9-2.8,0.9l-1.1,0.1
				c-0.1,0-0.1-0.1-0.1-0.3L90,19.7l-1.1,0.1l-0.5,6l0.6,0.3v-0.2l0.3,0.2l1-0.2V26l0.6-0.3l0.5,0v0.4l0.7,0c0.2,0,0.3-0.1,0.3-0.2
				c2.1,0.2,3.1,0.7,3.1,1.5c-0.1,0.3-0.2,0.5-0.2,0.6c-0.9-0.1-1.4-0.2-1.4-0.4l-0.5,0.3c-0.3-0.1-0.5-0.2-0.7-0.2
				c0,0.3-0.2,0.4-0.6,0.5c-0.7,0-1-0.3-1-1l-7.7,0.4l-1.3-0.2c-0.2,0.2-0.6,0.3-1.1,0.3l-0.5,0c-0.1,0-0.1-0.1-0.1-0.2
				c-0.2,0-0.4,0.1-0.4,0.2c-1.8-0.1-2.7-0.3-2.7-0.6c0-0.2,0.4-0.4,1.2-0.7c0.3,0.1,0.5,0.2,0.7,0.2c0.8-0.2,1.4-0.3,1.7-0.3v0.3
				l0.5-0.3l1.6-0.1c0.2-0.4,0.3-0.7,0.5-0.7l-0.2-1.4c0-0.4,0.1-1.5,0.2-3.4L83,20.5l-0.9,0.3l-1.5-0.2c-0.5,0.2-0.8,0.3-0.9,0.3
				c-0.8-0.1-1.2-0.2-1.2-0.4L78,20.8h-0.1c0-0.3-0.1-0.4-0.4-0.4v-0.5c0.1,0,0.3-0.1,0.5-0.2c0,0.1,0.1,0.2,0.4,0.2l0.2-0.5l1,0.2
				c0.4,0,0.7-0.1,0.9-0.3c0.1,0,0.1,0.1,0.1,0.2c2-0.4,3-0.7,3-0.9l0.9-5C84.9,13.6,85.5,13.5,86.3,13.3z"/>
			<path class="st0" d="M120.9,12.7c1.4,0,2.1,0.3,2.1,0.7v3.8l0.3,0c1.2-0.1,2.7-0.2,4.6-0.5c1.4,0.2,2.1,0.4,2.1,0.7v0.4
				c0,0.4-0.8,0.6-2.3,0.7c-2.1,0.1-3.6,0-4.6-0.2c0,2.9-0.7,4.9-2.2,5.8l-0.4,0.2l-1,0c-0.4-1-0.6-1.6-0.6-1.7l-0.3,0
				c-1.8,0.1-2.7,0.4-2.7,0.9c0,0.8-0.8,1.3-2.4,1.3v0.4l0.5,0c4.3-0.4,7.9-0.6,10.9-0.8l2.9-0.1c0-0.6,0.4-0.9,1.2-1l0.9,0
				c1.1-0.1,2,0.2,2.5,0.9v0.3c-1.3,0.5-2.5,0.8-3.6,0.8l-9.2,0.5l0.2,1.6V28l7.2-0.4l1,0.1c-0.8,6.5-1.5,9.7-2.3,9.8
				c-0.2,0.2-0.6,0.3-1.1,0.3l-2.2,0.1c-0.2,0-0.4-0.3-0.4-1.1l-7,0.6c-1.3-0.1-2.1-0.1-2.5-0.1l0.2,1.1c-1,0.3-1.7,0.5-2.3,0.5
				c-1.4,0.1-2.1-0.4-2.1-1.6c-0.6-3.5-0.9-6.4-0.9-8.6c0.5-0.3,1.1-0.5,1.7-0.5h0.2c1.4,0.2,2.2,0.3,2.4,0.3l3.8-0.2l0.2-1
				l-0.2-1.2l-0.7,0c-4.3-0.1-6.6-0.1-6.9-0.1l-3.5,0.2c-0.7,0-1.1-0.1-1.2-0.5c0.1-0.4,0.6-0.6,1.7-0.7l2.8-0.1
				c1.2-0.1,2.7-0.1,4.6,0l0.3,0v-0.4c-0.9,0-1.3-0.5-1.3-1.6v-3.7c0-0.4-0.2-0.5-0.5-0.5l-4.3,0.2c-1,0.1-1.6-0.1-1.6-0.5
				c0-0.4,0.8-0.6,2.3-0.7l4-0.2c-0.3-1.8-0.4-2.9-0.4-3.3c0.5-0.4,1.1-0.7,1.9-0.7l0.7,0c1.4-0.1,2.1,0.7,2.1,2.4
				c0.1,0.8,0.2,1.2,0.2,1.4l3.2-0.2v-1.8c0-1.8,0.6-2.8,1.9-2.9L120.9,12.7z M114.1,38.7c1.4,0,2.1,0.3,2.1,0.7
				c0,1.3-1.9,3.3-5.6,5.8c-1.3,0.6-2.3,1-3,1l-0.4,0v-0.2c0-0.2,1.7-2.4,5.2-6.5C112.5,39.1,113,38.8,114.1,38.7z M111.4,29.6
				c0.4,2.2,0.6,3.4,0.7,3.4c0.7,0,1.9-0.2,3.6-0.6v-3L111.4,29.6z M114.1,34l-1.5,0.1l-0.5,0.3l0.2,1.1v1l3.4-0.2v-2.5L114.1,34z
				 M115.6,18.7v3.2c1.6-0.4,2.6-0.6,3-0.6v-2.8L115.6,18.7z M120.7,38.6c1.6,0,4.3,2.1,8,6.3c0.1,0.2,0.2,0.5,0.2,0.8
				c0,0.3-0.6,0.6-1.9,0.9c-1.2,0.1-2.7-1.4-4.5-4.3c-0.9-0.6-1.9-1.7-2.8-3.1C119.6,39,120,38.8,120.7,38.6z M119.7,28.9v2.8
				l3.6-0.2c0-0.5,0.2-1.4,0.5-2.8l-0.3,0c-0.2,0-1.2,0-3-0.1C120.1,28.8,119.9,28.9,119.7,28.9z M119.9,33v2.7l2.5-0.1
				c0.3-1.4,0.4-2.3,0.4-2.8c-0.8-0.1-1.5-0.2-1.8-0.1L119.9,33z"/>
			<path class="st0" d="M153.5,13.9l3.2-0.2c1.3,0.1,1.9,0.4,1.9,0.8v0.3l-0.4,0.8c1.1-0.1,3.6,2.3,7.6,7.1l10.8,8.7V32
				c-0.7,0.2-1.1,0.3-1.2,0.4c-2.7,0.1-5.2-1.1-7.5-3.5l-3.3-2.5l-1,0.7l-9.5,0.5c-1.1,0-2.2-0.2-3.3-0.9c-1.6,2.3-5.1,4.9-10.5,7.8
				c-0.4-0.2-0.7-0.3-0.9-0.3v-0.5c0.7,0,4.1-3.6,10.2-10.7l4.3-7.8l-0.3-0.7V13.9z M156.1,27.9l2.2-0.1c1.7-0.1,2.5,0.5,2.5,1.7v4
				l1.7-0.1c1.6-0.1,2.8-0.4,3.6-0.8c1.5,0.3,2.2,0.7,2.2,1.1v0.3c-0.1,0.6-1,1-2.5,1.1l-5,0.2V41l0.4,1.7l0.4,0
				c0.3,0,1.4-2.1,3.3-6.4l2.3-0.1l1.6,0.2V38c-2.4,2.7-4,4.1-4.9,4.2v0.5l7-0.4c1.6-0.1,2.4,0.2,2.5,0.8c0,0.4-0.2,0.6-0.6,0.6
				l-22,1.1c-0.2,0-1.1,0.3-2.6,0.8l-1.6,0.1c-1.6,0.1-2.4-0.2-2.5-0.8c0-0.8,1.3-1.3,3.8-1.4l8.7-0.4l-0.4-0.7v-6.6l-0.4,0
				c-1.5,0.1-3.9,0.3-7.2,0.7c-1-0.2-1.6-0.5-1.6-0.8c0-0.8,3.1-1.4,9.2-1.7V27.9z M149.4,37.7c2.4-0.1,3.5,0.7,3.5,2.3V42l-1.6,0.4
				c-2.1,0.1-3.2-0.6-3.2-2.1C148.2,38.6,148.6,37.8,149.4,37.7z M156.6,18.1c-1.1,2.2-2.8,4.9-5.1,8l2.1-0.1
				c2.1-0.1,4.6-0.3,7.6-0.7c0.4,0,1.2,0.2,2.4,0.6v-0.5C162.5,24.8,160.1,22.4,156.6,18.1z"/>
			<path class="st0" d="M191.2,17.5c1.3,0.1,2.3,0.2,3.1,0.5l-0.2,1.5V20c0,2.5,0.3,3.7,0.8,3.6l2.2-0.1l0.9,0.7l0.3,0v-0.7
				c0-1.3-0.2-2.2-0.7-2.7c0-0.3,0.5-0.6,1.6-0.8v0.3l0.6-0.3h0.2c0.1,0,0.1,0.1,0.1,0.3l0.6-0.3c1.3-0.1,1.9,1.1,1.9,3.5
				c0.2,0,0.2,0.1,0.2,0.3c-0.2,0.6-0.2,1.2-0.2,1.9l0.3,0c1.8-0.6,2.7-1.1,2.7-1.6v-3.6c0-0.8-0.4-1.8-1.1-2.8
				c0.9-0.5,1.6-0.7,2.1-0.7l0.2,0c2.2-0.1,3.3,0.1,3.3,0.7c-0.2,2-0.2,3.5-0.2,4.7v0.5l0.2,0.5l1.2-0.3l0.4,0l0.5,0.2v-1.6
				c0.1,0,0.3-0.1,0.6-0.2c0.1,0,0.1,0.1,0.1,0.2l1.2-0.3l0.2,0c0.7,0,1.6,0.2,2.6,0.8c0,5.9-0.7,10.9-2,15.1
				c-0.5,0.5-1.2,0.7-1.9,0.7c-2.9,0.2-4.4-0.4-4.4-1.8l-0.5,0c-2.2,0.1-3.3-0.4-3.3-1.6l-0.2,0c0.4-1.9,0.7-4.1,0.7-6.7l0.3-0.6
				l-0.4,0c-1.8,0.6-2.8,1.2-2.8,1.8c0,0.4,0.1,0.5,0.2,0.5l-0.2,1.5v1.6c0,0.1-0.1,0.1-0.3,0.2l0.3,0.5v1.3l0.2,1.3
				c-0.2,0.3-0.2,0.6-0.2,0.7c0.4,2.4,1,3.6,1.7,3.6c3.7,0,6.6-0.1,8.8-0.2c2.3-0.1,3.4-1.4,3.4-3.8c0.4-0.7,0.6-1.1,0.8-1.1
				c1.4-0.1,2.3,1.4,2.6,4.4c0.1,0,0.6,0.5,1.3,1.4c0,0.4-1,0.8-2.9,1.2l-3.8,0.2c-0.2,0-0.3,0.1-0.3,0.2l-0.4-0.2l-5.6,0.3
				c-4.8,0.2-7.8-0.4-9.1-2c-0.7-1.3-1.1-3.7-1.1-7.1c0.1-1.6,0.2-2.9,0.2-3.9l-0.3,0c-0.3,0.2-0.5,0.3-0.9,0.3
				c-0.8,0-1.4-0.3-1.9-1.2v-0.6c0.6,0,0.9-0.1,0.9-0.2l0.4,0.2h0.3l0.7-0.5c0.1,0,0.1,0.1,0.1,0.3c0.4-0.2,0.6-0.3,0.8-0.3v-1.9
				c-1.3,0.1-2,0.3-2,0.8l-1.1-0.2l-0.7,1.2v6.6c0.4,0,0.7-0.1,1-0.3c0.7,0.3,1.3,0.4,1.9,0.4v0.8c-1.9,2.5-2.9,4-2.9,4.5
				c0,1-1.1,1.6-3.4,1.9c-1,1.1-1.9,1.7-2.6,1.7c-2.6,0.1-4.1-0.3-4.6-1.3v-0.6c2.1-1,4-2.3,5.6-3.9v-2.3c0-0.5-0.1-0.9-0.2-1.1
				l0.2-1.3v-2c0-0.1,0.1-0.1,0.3-0.2l-0.3-0.5l0.2-2.8l-0.5,0c-0.4,0-0.9,0.2-1.4,0.5c-1.4,0.1-2.8-0.2-4.2-0.9v-0.4
				c0-0.1,0.1-0.2,0.3-0.2l-0.3-0.5v-0.1l2.2-0.3l0.9-0.1c0.3,0,0.6,0.1,0.9,0.2c0.9-0.3,1.6-0.5,1.9-0.5c0-1.8-0.3-3.9-0.9-6.3
				L191.2,17.5z M210.3,27l0.2,3.1c-0.1,1.6-0.2,2.9-0.2,3.9l0.6,0c0.8-2.4,1.1-4,1.1-4.9l-0.2-0.4c0.4-1.2,0.7-2,0.7-2.3l-0.2-0.4
				c0.1-0.3,0.2-0.6,0.2-0.9v-0.5c-1.4,0.1-2.2,0.8-2.2,2.2V27z"/>
			<path class="st0" d="M255.2,25.5c1.7,0.1,2.5,0.4,2.5,0.8c-1.7,2.2-3.3,3.4-4.7,3.5c-1-0.2-1.4-0.4-1.4-0.7L253,27l-3.2,0.2
				c-1.4,0.1-3.6,0.3-6.6,0.6v0.4c0.9,0,1.3,1,1.3,3.2c0.7,0,3-0.2,6.8-0.6c0.5,0.2,0.8,0.3,0.8,0.5v0.4c0,6.3-0.6,9.5-1.9,9.6
				l-2.2,0.1c-1.2,0-1.9-0.8-2.1-2.7v-1.2l0.8,0l0.9,0.6h0.3c0.3-3.5,0.5-5.5,0.7-5.8l-4.2,0.2l0.3,0.5v7.2c0,1.4,0.1,3.6,0.2,6.5
				c-0.5,0.3-1.1,0.5-1.7,0.5l-0.4,0c-1.2,0.1-1.9-0.5-1.9-1.8v-5.2c0-1.2-0.1-2.5-0.2-4.1c0.2-0.3,0.2-0.5,0.2-0.7l-0.2-0.4
				l0.2-0.5c-0.2-0.2-0.2-0.5-0.2-0.8L241,33l-0.4,0l-3.1,0.4v5.9c0,1-0.6,1.5-1.9,1.5l-0.2,0c-1,0-1.6-0.1-1.6-0.5v-9.3
				c0.1-0.4,0.6-0.6,1.6-0.7h0.2c1,0,1.6,0.1,1.7,0.5v1.4l0.7,0c1.2-0.1,2.2-0.3,2.9-0.6l-0.2-2.6v-0.4c0-0.2,0.3-0.4,0.9-0.4v-0.4
				l-9.5,0.5c0.2,2,0.2,3.4,0.2,4.3l-1.9,0.3c-1.2,0.1-1.9-0.3-1.9-1.1c-0.2-2.3-0.2-3.6-0.2-4.1c0.3,0,0.4-0.1,0.4-0.4
				c0.8,0,2.5,0,5.1,0c9.3-0.6,15.7-1,18.9-1.2C253.1,26.1,253.9,25.9,255.2,25.5z M249.8,12.3c1.1,0,1.7,0.6,1.7,2V17l2-0.1
				c1,0,1.6,0.1,1.7,0.5v0.4l-1,0.2l-2.7,0.2v3.1c0,1.6,0.3,2.4,1,2.4c0-0.4,0.4-1,1.3-1.8l0.8-0.1c1.3,0.6,1.9,1.4,1.9,2.4
				c-1,0.5-1.5,0.7-1.6,0.7c-4.3,0.2-6.4-0.2-6.4-1.2c-0.2,0-0.4-0.5-0.4-1.4v-4l-1.2,0.1v4.8c-0.1,0.4-0.5,0.6-1.2,0.7l-0.9,0
				c-1,0.1-1.4-0.1-1.4-0.6c-0.7,0-1.4,0.5-1.9,1.4L240,25c-1.2,0.1-1.9-0.4-1.9-1.3v-4.9l-1.6,0.1c-0.3,0-0.7,1.1-1.4,3.4
				c-0.8,1.2-2,2.5-3.4,3.8l-0.8,0v-0.5c0.3-0.2,0.9-2.4,1.7-6.7L230,19l-1-0.2v-0.1c0.1-0.4,0.5-0.6,1.2-0.7l2.7-0.1v-2.5l-0.4-0.6
				v-0.2c0-0.3,0.2-0.4,0.4-0.4l1.7-0.1c1.1-0.1,1.7,0.2,1.9,0.7v2.9l1.7-0.1l-0.2-2.7v-0.9c0.1-0.4,0.6-0.6,1.7-0.7h0.2
				c1.3-0.1,1.9,1.3,1.9,4l1.5-0.1V14c0.8-0.2,1.3-0.3,1.7-0.3c1.1-0.1,1.6,1.1,1.6,3.6l1.5-0.1v-4
				C247.9,12.8,248.5,12.5,249.8,12.3z M241.7,18.7V22l0.3,0.5c0.3-0.2,0.7-0.3,1.2-0.3v-3.6L241.7,18.7z"/>
		</g>
		<g>
			<path class="st0" d="M35.7,58.6c1.2,0.1,1.8,0.4,1.8,0.7c-0.6,1.5-1.7,3.5-3.5,6c0,0,0,0.1,0.1,0.1c0.8,0.2,1.1,0.4,1.1,0.6
				c0,1.7-0.1,2.9-0.1,3.7v3.2c0,3,0.1,7.4,0.2,13.4v0.4c0,0.6-0.5,0.9-1.4,0.9c-1.6,0-2.5-0.4-2.5-1.3c-0.2-2.8-0.4-6.3-0.4-10.7
				v-6.6c-0.4,0.6-1,0.8-1.8,0.8c-1,0-1.8-0.2-2.2-0.6V69c3.1-4,5.1-6.9,6.1-8.8c0.3-1,0.7-1.6,1.2-1.6H35.7z M57.6,58.7
				c1.7,0.1,2.6,0.4,2.6,0.8c0,0.6-2.4,0.9-7.1,1h-0.2l0.1,0.7v1.2H53c2.4-0.2,3.9-0.3,4.3-0.3h0.5c1.3,0,2,0.4,2.2,1.3v0.8
				c-0.2,3.4-0.6,5.2-1.2,5.2c0,0.1-0.3,0.2-0.8,0.2h-0.3c-1.1,0-1.8-0.2-2.1-0.6V69l0.1-0.2v-0.1C53.9,68.8,53,68.9,53,69
				c0,0.2-0.2,0.4-0.6,0.4h-0.6c-0.5,0-0.9-0.1-1.3-0.3c-1.6,0.1-2.6,0.2-3,0.2c0,0.1-0.2,0.2-0.6,0.2h-0.8c-0.4,0-1.4,0-3,0.1
				c-0.2,0-0.5,0-1.1-0.1c0,0.4,0.1,0.6,0.1,0.7c-0.1,0.3-0.3,0.4-0.6,0.4h-1c-1.1,0-1.6-0.4-1.6-1.3l-0.2-5.4
				c0.2-0.1,0.3-0.2,0.5-0.2h1.1c0.3,0,0.6,0.1,1.1,0.2c1.4-0.2,2.6-0.4,3.6-0.6c0-0.8,0.1-1.4,0.1-1.8v-0.7
				C43.3,61,41.9,61,40.8,61c-1.5-0.2-2.2-0.5-2.2-0.8v-0.2c0-0.3,2.2-0.6,6.5-0.6l11.5-0.6C56.7,58.8,57,58.7,57.6,58.7z
				 M47.5,82.2h0.2c0.9,0,1.5,0.2,1.8,0.5v0.1c-3.9,3.9-6.1,5.9-6.6,5.9h-0.8c-0.9,0-1.5-0.2-1.7-0.6v-0.1c1.9-1.5,4.1-3.4,6.6-5.8
				L47.5,82.2z M53.5,71.1c2.3,0,3.4,0.8,3.4,2.5C57,74,57,74.6,57,75.5v5.2c0,1.8-0.2,2.7-0.5,2.7c-0.4,0.1-0.7,0.2-1,0.2h-0.4
				c-1.1,0-1.8-0.2-2.1-0.6v-0.1c0.2-0.2,0.4-0.5,0.4-0.9c-2,0.1-3.4,0.2-4.5,0.2h-4.2v0.8c0,0.4-0.4,0.6-1.2,0.6
				c-1.5,0-2.2-0.4-2.2-1.1v-0.1l-0.2-10.6c0.2-0.1,0.5-0.2,0.7-0.2h0.7c1.3,0,2,0.3,2,0.8C49.3,71.5,52.3,71.1,53.5,71.1z
				 M41.9,65.2c0,0.3,0,1.4,0.1,3.2h0.1c0.3,0,1.3-0.1,3-0.2v-3.6C45,64.7,43.9,64.8,41.9,65.2z M44.5,73.6V74l0.1,0.8
				c1.4,0,4.3-0.2,8.9-0.6v-0.1c0-0.5-0.1-1.2-0.3-1.8C50.7,72.7,47.8,73.1,44.5,73.6z M44.6,76.1c0,0.4,0,1,0.1,1.8
				c0.4,0.1,0.7,0.2,0.9,0.2c0.4,0,3-0.3,7.9-0.8v-0.8l0.1-0.8C50.1,75.9,47.1,76.1,44.6,76.1z M46.9,79.3h-0.5c-0.4,0-1,0-1.8-0.1
				v1.6c0,0.1,0.1,0.1,0.1,0.1h2c1,0,3.1-0.1,6.5-0.4l0.1-0.1v-0.4c0-0.2,0-0.6,0.1-1.1c-0.1,0-0.4,0-0.8-0.1
				C50,79.1,48.1,79.3,46.9,79.3z M47.4,60.8L47.4,60.8L47.4,60.8c0.1,0.1,0.3,0.2,0.4,0.4c0,0.9-0.1,1.5-0.1,1.8h0.1
				c1.3-0.1,2.1-0.2,2.3-0.2v-0.1c0-0.4,0-1.1-0.1-2H50C49.6,60.7,48.8,60.7,47.4,60.8z M47.7,65.1v0.8c0,0.5,0,1.2-0.1,2.1l2.7-0.2
				v-0.1c0-0.4,0-1.6-0.1-3.7c-1.6,0.1-2.5,0.2-2.5,0.4C47.7,64.7,47.7,64.9,47.7,65.1z M52.6,83.9c1.6,0,2.6,0.4,3,1.2
				c0.6,0.9,1.7,2.6,3.2,4.9v0.2c0,0.2-0.5,0.3-1.4,0.4c-2,0-3.3-0.7-3.7-2c-1.8-2.7-2.8-4.1-2.8-4.3C51.2,84,51.7,83.9,52.6,83.9z
				 M53,63.7c0,1.5,0.1,2.6,0.1,3.3v0.6c0.8,0,1.4-0.1,1.8-0.1h1l0.1,0.1c0.4-1.8,0.6-3.1,0.6-3.9v-0.4C56.1,63.4,54.9,63.5,53,63.7
				z"/>
			<path class="st0" d="M80.2,60.8l1.9,0.3v0.4c0,0.9-0.4,1.8-1.3,2.9c0,0.6-1.2,2.7-3.6,6.4c0.2,0,0.3,0,0.3,0.1
				c-0.4,0-0.7,0.4-1.1,1.2v0.6l1.2-0.3c0.2,0,1,0.1,2.3,0.3c-0.1,1.2-0.2,1.9-0.2,2.1c0,0.3,0.1,0.5,0.2,0.5l-0.2,1.5v6.4
				c0,0.1-0.1,0.1-0.3,0.2l0.3,0.5v0.8c0,0.1-0.1,0.2-0.2,0.2c0,0.3,0.1,0.4,0.2,0.4l-0.2,2.1l0.2,1.9c-0.2,0-0.6,0.3-1.2,0.9
				c-2.1,0.1-3.2-0.3-3.2-1.3l0.4-4.6c-0.2-1-0.2-2.4-0.2-3.9c0-0.1,0.1-0.1,0.3-0.2l-0.3-0.5v-1.1c0-0.1,0.1-0.1,0.2-0.2
				c0-0.2-0.1-0.4-0.2-0.4l0.2-1v-0.2l-0.2-2.9c-1,1.6-1.7,2.4-1.9,2.4c-0.4,0.7-1.2,1.3-2.4,1.9v0.6c-1.1-0.1-1.6-0.6-1.6-1.6v-0.2
				c5.1-8.2,7.6-12.7,7.6-13.5l0.7-0.9v-1.1C78,61.6,78.8,61.3,80.2,60.8z M90.7,59l0.9-0.1c1.5,0.2,2.3,0.5,2.3,0.9V60
				c-0.3,0-0.6,0.6-0.9,1.7c0.3,0,0.5,0.1,0.5,0.3l-0.3,0.6c0.8-0.2,2.4-0.5,4.7-0.7c1.1,0.3,1.7,0.5,1.7,0.7V63
				c-0.6,0-1.3,0.2-2,0.5c0-0.1-0.1-0.2-0.4-0.2v0.4c-0.2-0.1-0.4-0.1-0.6-0.1c-1,0.2-1.6,0.3-1.6,0.3v-0.2
				c-0.8,0.2-1.3,0.4-1.3,0.5L93.3,64h-0.5c-0.7,2-1.1,3.1-1.1,3.3l0.5,0.2c0.9-0.2,1.4-0.3,1.4-0.5c0,0,0.1,0.1,0.1,0.2l1.2-0.3
				l1.5-0.1c1,0.2,1.6,0.4,1.7,0.4c-0.1,4.4-0.2,7.7-0.2,9.8c0,2.8,0.1,4.6,0.4,5.4c-0.2,0.2-0.2,0.6-0.2,1.1
				c0.2,1.8,0.2,2.8,0.2,2.9l1,0c2.2,0.1,3.4,0.4,3.6,0.8v0.1l-1,0.3l-0.6,0c-0.1,0-0.1-0.1-0.1-0.3l-0.5,0.3l-0.6,0l-0.5-0.2
				c0,0.2,0,0.3-0.1,0.3v-0.5l-0.5,0.3c-0.2-0.1-0.6-0.2-1-0.2V88l-2.8-0.3c-2.4,0.3-4.5,0.5-6.3,0.5l-0.2,0c-1.1,0-1.9,0.2-2.4,0.6
				c-3.4-0.2-5.2-0.3-5.2-0.4l-0.2-0.3c0.4,0,1.1-0.4,2.1-1.2l0.5,0v-1.6c0-0.1,0.1-0.1,0.3-0.2l-0.3-0.5l0.2-1.9
				c0-0.2-0.1-0.3-0.2-0.3l0.2-1v-1.8c0-0.3-0.1-0.6-0.2-0.9c0.1-0.2,0.2-0.5,0.2-0.9v-1.7c0-0.5-0.1-0.7-0.2-0.7l0.2-1v-3.5
				c0-0.1,0.1-0.1,0.3-0.2l-0.3-0.5v-0.4c0-0.3,0.7-0.5,2.1-0.7c0.3,0.1,0.5,0.2,0.8,0.2V69l-0.2-0.4c0-0.5,0.7-1,2-1.3
				c0-0.1,0.1-0.2,0.2-0.2c0-0.2-0.1-0.4-0.2-0.4c0.3-0.9,0.4-1.7,0.4-2.2c-1.1,0-2.6,0.3-4.5,0.9c-1.7-0.1-2.5-0.4-2.5-0.7
				S84,63.8,89,63c0.2-0.9,0.4-1.3,0.7-1.3c0-0.3-0.1-0.4-0.2-0.4l0.2-1l-0.2-0.8C89.9,59.2,90.3,59,90.7,59z M89.4,82.3V82
				l-0.5,0.3l-2.2,0.1v1.8c0,0.1-0.1,0.1-0.3,0.2l0.3,0.5v2c0,0.3,0.2,0.5,0.5,0.5l0.9-0.1c1.5-0.1,3.7-0.2,6.6-0.5
				c0-0.6,0.1-0.9,0.3-0.9c-0.3-1-0.5-2.6-0.5-4.8L89.4,82.3z M92,76.7l-4.6,0.2c-0.3,0-0.5,0.6-0.7,1.9l0.2,0.4V81l-0.3,0.6
				c5.3-0.6,7.9-1,7.9-1.4c0-0.5-0.1-1.8-0.2-3.8L92,76.7z M86.9,73.7l0.2,0.5c0,0.1-0.1,0.1-0.2,0.1l0.2,0.5v0.6L86.9,76l2.7-0.1
				c0.1,0,0.1,0.1,0.1,0.3l0.5-0.3c0.1,0,0.1,0.1,0.1,0.3c0.2-0.2,1.5-0.5,3.9-0.8l0.2-1.1v-0.8l-1.2-0.2l-2.8,0.1
				c-0.4,0-0.7,0.1-0.9,0.3c-1.1-0.1-1.6-0.2-1.6-0.4C87.6,73.6,87.2,73.7,86.9,73.7z M88.3,69.2c-0.1,0-0.6-0.1-1.4-0.2
				c0.2,1.1,0.3,1.8,0.5,2l-0.2,1.3v0.3l7.2-0.4c0-0.4,0.1-0.7,0.2-0.7l-0.2-0.9l0.2-2l-0.7-0.4C91.8,68.8,89.9,69.2,88.3,69.2z"/>
			<path class="st0" d="M121.7,59.2h0.4c1,0,1.7,0.2,2,0.6V60c-0.8,1.4-1.5,2.5-2,3.2h0.1c9-0.8,14.9-1.2,17.5-1.3
				c1.4,0.1,2.1,0.3,2.1,0.7c0,0.4-0.7,0.6-2,0.7c-0.4,0-0.9,0-1.5-0.1c-10.6,0.8-16.3,1.3-16.9,1.3h-0.4c0,0.1-0.1,0.2-0.3,0.4V65
				h0.8c0.6,0,1.1,0.2,1.3,0.5c0,0.2-0.1,1.9-0.3,4.9h0.1c0.1,0,0.6,0,1.7-0.1v-0.1c0-0.6-0.1-1.8-0.1-3.7c0.3-0.2,0.9-0.4,1.6-0.4
				h0.1c1,0,1.5,0.3,1.5,0.8c0,0.6,0,1.6,0.1,3c1.1,0,1.7-0.1,2-0.1l0.1-0.1c0-1.9,0.1-3.2,0.1-3.9c0.3-0.2,0.9-0.4,1.6-0.4h0.1
				c1,0,1.5,0.3,1.5,0.8v3.2h0.1c0.5,0,1.2,0,2.1-0.1v-4.4c0-0.2,0.5-0.4,1.6-0.5h0.9c0.9,0.1,1.4,0.3,1.4,0.5v6.5
				c0,2.8-0.1,4.8-0.2,5.9c2.3,0,3.7,0.3,4.2,0.9v0.1c-0.3,0.5-1.1,0.7-2.4,0.7c-1.4-0.2-2.5-0.3-3.2-0.3h-0.8
				c-4.1,0-9,0.2-14.6,0.6c0,0.9-0.2,1.3-0.6,1.3l-1,0.1c-1.1,0-1.6-0.2-1.6-0.7v-0.6c-0.6,0.2-1.3,0.4-2,0.4h-0.6
				c-1.2-0.1-1.8-0.3-1.8-0.6v-0.1c0-0.5,1.5-0.8,4.5-1c0-1.6,0.2-3.8,0.4-6.4c-1.3,0.1-2.1,0.1-2.4,0.1c-1.3-0.1-1.9-0.3-1.9-0.7
				c0-0.4,1.5-0.7,4.4-0.8l0.2-4.2c-1.9,2-3.3,3-4.2,3c-0.1,0-0.4,0.1-0.8,0.1h-0.1c-1.1,0-1.8-0.2-2.1-0.6v-0.1
				c2.8-2.7,4.7-4.8,5.6-6.4c1.2-1.9,1.8-2.9,2-3C120.2,59.3,120.9,59.2,121.7,59.2z M118.2,82.8h0.5c0.7,0,1.1,0.2,1.3,0.5
				c-0.8,2.8-1.6,4.8-2.1,5.9c-0.3,0.2-0.8,0.3-1.5,0.3h-0.4c-0.8,0-1.2-0.2-1.4-0.5c0.3-0.9,1-2.9,2-5.9
				C117.1,82.9,117.6,82.8,118.2,82.8z M122.5,71.8l-0.4,6.5c0.2,0,1-0.1,2.4-0.1v-0.1l-0.1-6.4C123.4,71.8,122.8,71.8,122.5,71.8z
				 M124.1,83.2c1.3,0,1.9,0.3,1.9,1c0.6,2,0.8,3.9,0.8,5.5c-0.4,0.2-0.9,0.4-1.7,0.4h-0.3c-1,0-1.6-0.3-1.6-1
				c-0.3-2.5-0.6-4.3-1-5.4C122.7,83.4,123.3,83.2,124.1,83.2z M132.8,71l-0.1,0.1v2.2c0,0.9,0,2.2-0.1,3.9
				c-0.3,0.2-0.7,0.4-1.2,0.4h-0.8c-0.8,0-1.2-0.2-1.2-0.6v-5.7c-0.2,0-0.9,0-2,0.1V78c4.2-0.2,6.7-0.3,7.4-0.3V71h-0.1
				C134.7,71,134,71,132.8,71z M130.9,82.8c1.2,0,1.8,0.3,1.8,1c0.5,1.9,0.7,3.1,0.7,3.6c0,0.2-0.6,0.4-1.7,0.5
				c-1.2,0-1.8-0.4-1.8-1.1l-0.8-3.5C129.5,83,130.1,82.8,130.9,82.8z M136.8,82.7c1.4,0,2,0.3,2,1c1.3,2.4,1.9,4.1,1.9,5
				c0,0.2-0.7,0.4-2,0.5c-1.3,0-2-0.4-2-1.3c-0.3-1-0.9-2.6-1.8-4.7C135,83,135.6,82.8,136.8,82.7z"/>
			<path class="st0" d="M166.5,59.6l1.7-0.1l1.3,0.2c0.3-0.2,0.5-0.2,0.8-0.2c0.4,0,1,0,1.6,0.1l2.2-0.3c2.4,0,3.6,0.3,3.6,0.8
				c-0.2,0.6-0.7,0.8-1.4,0.9l-0.4,0c-1,0-1.4-0.1-1.4-0.4c-0.3,0-0.4,0.1-0.4,0.2c-1.9-0.1-3.1-0.2-3.4-0.2
				c-0.3,0.2-0.6,0.3-0.9,0.3l-0.7,0v2.7c0,0.3,0.2,0.5,0.5,0.5h0.2c3.8-0.6,7-1,9.6-1.1c0.8,0.3,1.3,0.8,1.3,1.4l-0.2,2.2v2.8
				c-0.1,0.4-0.5,0.6-1.2,0.7l-1.7,0.1c-0.4,0-0.8-1.1-1-3.5l-1.2,0.3l-1.7,0.1c-0.8,0.1-1.8,0.2-3.1,0.4c-0.2-0.1-0.6-0.2-0.9-0.2
				l-0.2,0.5v1.8c0,0.3,0.2,0.5,0.5,0.5c2.1-0.2,3.8-0.4,5.2-0.5h0.2c0.2,0,0.4,0.1,0.4,0.3c-0.5,0.3-1.3,0.5-2.3,0.5l-3.2,0.2
				l-0.5-0.2c-0.3,1.7-0.7,2.7-1.2,3.2l0.6,0.2c0.2,0,0.4-0.1,0.7-0.2c0.1,0,0.3,0.1,0.6,0.2l4.2-0.6c2.8,0,5.1,0.2,6.9,0.5
				c0,0.2-0.9,0.5-2.8,0.9c-0.3,0-0.6,0-0.8-0.2c-0.2,0-0.3,0.1-0.3,0.2l-2.1-0.1l-5.7,0.3c-0.7,0.3-1.2,1.2-1.6,2.5
				c-0.2,0-0.2,0.3-0.2,1c0.4,0,0.7,0,0.7,0.2L170,78l3.5-0.2c0.2,0,1.4-0.2,3.5-0.6c0.3,0,0.6,0,0.8,0.2c0.3-0.2,0.5-0.3,0.6-0.3
				c0.2,0.6,0.5,1,1.1,1.2c-0.2,2.3-0.2,3.7-0.2,4.1l0.2,3c-0.3,2.4-0.7,3.7-1.4,3.7c-2.7-0.1-4.1-0.6-4.1-1.7v-0.4
				c0.9,0,1.3-0.4,1.3-1c0-0.6,0.1-1.4,0.2-2.4c-0.3-1.4-0.4-2.9-0.4-4.3c0-0.4-0.2-0.5-0.5-0.5c-1.4,0.1-2,0.6-2,1.5v3.5
				c0,0.7,0.1,1.8,0.2,3.2l-0.6,0.4l-2.8,0.1c-0.6,0-1.1-0.8-1.5-2.5l0.2-1.1v-3.7c0-0.4-0.2-0.5-0.5-0.5L166,80
				c0,0.5,0.1,0.8,0.2,0.8l-0.2,1v3.7l-0.2,1.4c0.1,0.2,0.2,0.6,0.2,1c-0.4,0.3-0.9,0.4-1.2,0.5l-2.6,0.1c-0.1,0-0.4-0.3-1-1
				c0.3-2.6,0.4-4.2,0.4-4.8c-0.1-1.5-0.4-2.3-0.8-2.2l-0.9,0.9l-0.5-0.2l-0.2,1c0,1,0.1,2.6,0.4,4.6c-0.1,2.1-0.4,3.2-0.8,3.2
				c-2.1-0.1-3.2-0.4-3.2-0.8v-3.5c0-1.7-0.1-4-0.4-6.9c1.8-0.4,2.9-0.6,3.2-0.6c0.1,0,0.6,0.3,1.3,0.8l1.8-0.1
				c1.6-0.1,2.5-1.3,2.9-3.5l-0.5-0.2c-5.5,0.4-8.7,0.7-9.4,0.9c-1.2-0.3-1.9-0.8-2.3-1.3c0.2-0.1,0.4-0.2,0.5-0.2
				c1.3-0.1,3.2-0.1,5.7-0.1l1.1-0.3c0.1,0,0.1,0.1,0.1,0.2l1.6-0.3l3.2-0.2c0.6,0,1-1.8,1.2-5.5c-0.3,0-0.4-0.1-0.4-0.5
				c-0.6,0.3-1,0.5-1.4,0.5l-0.2,0c-1.9-0.3-2.9-0.5-3.1-0.5l-2.2,0.1c-0.3,0.1-0.5,0.2-0.5,0.5v1.6c0.1,0.3,0.3,0.5,0.5,0.5
				c3.3-0.6,5.1-0.9,5.6-0.9v0.5c-0.7,0.3-2.2,0.7-4.7,1.1l-1.4-0.2c0,0.3-0.1,0.5-0.4,0.5l-1.7,0.1c-1,0-1.6-0.1-1.7-0.5v-4.6
				l-0.2-2.2c0.3-0.2,1.3-0.6,3-1c0.5,0,1,0.5,1.5,1.5c1.7-0.4,2.9-0.6,3.5-0.6l0.7,0l2.7,0.1l0.2-0.5v-2.4l-0.5-0.7
				c-1.6,0.4-3.5,0.6-5.5,0.7l-0.2,0c-0.9,0-1.9,0-3-0.3v-0.5l1.2-0.1c1.5-0.1,2.3-0.2,2.3-0.5l0.8,0.2
				C163.4,59.9,165.4,59.7,166.5,59.6z M157.9,66.3v0.7l0.3,0.5l2.2-0.3l3.9-0.2l1.1,0.2l0.2-0.5v-0.5c0-0.3-0.8-0.5-2.5-0.6
				c-0.2,0-0.3,0.1-0.3,0.2l-1-0.1c-0.4,0-0.5,0.1-0.5,0.2l-1-0.1l-2,0.1C158.1,65.8,157.9,66,157.9,66.3z M172.6,64.8
				c-0.3-0.2-0.5-0.2-0.7-0.2c0,0.2-0.9,0.6-2.6,1v0.3c0,0.3,0.2,0.5,0.7,0.5c0.6,0,2.4-0.2,5.5-0.5l1.1,0.2v-0.5
				c0-0.8-0.2-1.3-0.7-1.4C175.5,64.2,174.5,64.4,172.6,64.8z"/>
			<path class="st0" d="M200.8,57.6c1.8,0.2,3,0.7,3.6,1.5c0.9,1.3,1.3,2.2,1.3,2.7v0.4l-0.4,0.7v0.3l7.2-0.4
				c1.6-0.1,2.5,0.2,2.7,0.9v0.1c-1.4,0.3-3.2,0.6-5.6,0.7c-0.9,0-2,0-3.2-0.1c-3.2,0.5-5.2,0.7-5.9,0.7c-5.7-0.1-9-0.2-9.7-0.4
				l-0.2-0.3v-0.4l1.5-0.5l1.5-0.1c0.4,0,2.9,0,7.6,0l1.1-0.3V63c-0.8,0-1.8-1.6-3-4.9L200.8,57.6z M194.9,77.8
				c2.5,0.1,3.8,0.7,3.8,1.8l3.1-0.2c1.2-0.1,3.2-0.2,6-0.5c0-0.7,0.1-1.1,0.4-1.1c0.1,0,0.4-0.1,0.9-0.3c1.7-0.1,3.2,0.3,4.5,1.3
				v0.4c-0.6,8.2-1.5,12.4-2.8,12.5h-0.4c-2.4-0.2-3.6-0.5-3.6-1v-0.4c0-0.8,0.1-2,0.2-3.8c-1.7,0.1-4.3,0.3-7.8,0.6
				c0,1.9-0.6,2.9-1.9,3.1c-2.2,0.1-3.4-0.6-3.4-2.1c-0.2-0.6-0.2-1.7-0.2-3.2v-4.6l-0.2-1.5L194.9,77.8z M194.7,68.3l12.2-0.6
				c2.6,0.1,3.8,0.4,3.8,1v0.1l-1,0.3L198,69.7c-2,0.1-3.2-0.3-3.6-1C194.4,68.4,194.5,68.3,194.7,68.3z M196.7,73.2l3.9-0.2
				c7-0.3,10.6-0.2,10.6,0.5v0.2c-0.1,0.4-0.5,0.6-1.2,0.7l-3.7,0.2c-2.1,0.1-4.3,0.1-6.6-0.1c0,0.3-0.5,0.6-1.5,1
				c-2.2,0-3.4-0.3-3.4-0.8v-0.8C195.7,73.4,196.3,73.2,196.7,73.2z M203,81.2l-1.3,0.1l-2.7-0.1V85l0.2,0.5c2-0.2,3.5-0.4,4.4-0.4
				l3.8-0.2c0-0.5,0.1-1.9,0.4-4.1c-0.2,0-0.2-0.1-0.2-0.3C206.8,80.8,205.2,81.1,203,81.2z"/>
			<path class="st0" d="M225.8,66c0.3,0,3.3,0,8.9,0l3.5-0.2l1,0.2v0.5l-2.9,0.8c0-0.3-0.2-0.4-0.5-0.4l-2.6,0.1
				c-3.6,0.2-6.4,0.1-8.6-0.2v-0.5L225.8,66z M236.7,74.4h0.2l1,0.1v0.4c0,0.3-0.8,0.6-2.3,0.9l-1.1-0.2c-3.4,0.8-5.8,1.2-7,1.2
				l-1.7,0.1c-0.2,0-0.3-0.1-0.3-0.3C225.5,76,229.2,75.2,236.7,74.4z M238,70.6l1,0.1v0.5c-1.9,0.4-4.6,0.7-8.2,0.8l-3,0.1
				l-2.1-0.1v-0.3c0-0.3,0.2-0.4,0.6-0.4C227.9,71.3,231.8,71.1,238,70.6z M228,78.5l1.1-0.1c1.1,0,1.6,0.5,1.6,1.4l0.5,0
				c0.7,0,2-0.4,4.1-1.1c1-0.1,1.6,0.1,1.7,0.5v5.6c0,1-0.8,1.5-2.5,1.6l-2.2-0.5L231,86v1.7l-1.5,0.3l-1.3,0.1l-1-0.2v-6
				c0-0.7-0.1-1.8-0.2-3.2L228,78.5z M229.8,61l1.9-0.1c1.2-0.1,2.2,0.8,3.2,2.6c-0.1,0.5-0.9,1.2-2.3,2l-0.2,0l-0.3-0.2l0.2-0.4
				v-0.3c-0.2,0-1.4-1.1-3.5-3.3v-0.1L229.8,61z M232.8,80.7l-1.8,0.1v4.3l2.1-0.1v-2.9l0.2-1.7L232.8,80.7z M252.5,60.8l0.7,0
				l1,0.1v0.4c0,0.5-2,1-5.9,1.5c0,1.2-0.2,2.9-0.7,5.2l1.6-0.1l3-0.8c0.7,0.2,1.2,0.4,1.4,0.3c0,0.3-0.4,2.6-1.3,6.8l2.9-0.2l1,0.2
				v0.5l-1,0.2l-3.9,0.2c-2.9,0.2-6.6,0.4-10.9,0.7l-1.2-0.1v-0.4c0-0.2,0.2-0.4,0.4-0.4l3.3-0.2v-0.3c0-1.2,0.2-2.9,0.7-5.1
				l-1.6,0.3l-1.1,0.1l-1-0.1v-0.5c2.6-0.5,3.9-0.8,3.9-0.9l0.9-5.1l-1.4,0.1c-1.3,0.1-2.5,0-3.6-0.2v-0.5l1-0.2c2.3,0,3.7,0,4.1,0
				C248.9,61.3,251.5,60.8,252.5,60.8z M243.2,78.2l1.1-0.1c0.8,0,1.2,0.4,1.2,1.5l1.8-0.1c1.6-0.1,3.7-0.2,6.3-0.5
				c0.5,0.2,0.8,0.3,0.8,0.5c-0.1,4.3-0.2,7.1-0.2,8.4c-0.5,0.3-1.1,0.5-1.7,0.5l-1.3,0.1l-1-0.1V87l-0.7,0c-0.8,0-2,0-3.7-0.1
				c-0.2,0.4-0.6,0.7-1.2,0.7l-2.2,0.1c-0.2,0-0.4-0.2-0.6-0.6v-8.2C242,78.5,242.5,78.2,243.2,78.2z M245.7,80.3v5.8l4.5-0.2v-0.3
				c0-1.2,0.1-3.1,0.2-5.5L245.7,80.3z M246.8,74.5l1.7-0.1c0-0.6,0.4-2.5,1.3-5.7l-1.9,0.1C247.4,68.9,247,70.8,246.8,74.5z"/>
		</g>
	</g>
	<g>
		<rect x="282.7" y="0.1" class="st0" width="1.7" height="103.9"/>
	</g>
	<g>
		<rect x="0.7" y="0.1" class="st0" width="1.7" height="103.9"/>
	</g>
</g>
</svg>
