<?xml version="1.0" encoding="utf-8"?>
<!-- Generator: Adobe Illustrator 25.2.3, SVG Export Plug-In . SVG Version: 6.00 Build 0)  -->
<svg version="1.1" id="圖層_1" xmlns="http://www.w3.org/2000/svg" xmlns:xlink="http://www.w3.org/1999/xlink" x="0px" y="0px"
	 viewBox="0 0 625 51" style="enable-background:new 0 0 625 51;" xml:space="preserve">
<style type="text/css">
	.st0{fill:#FFFFFF;}
	.st1{fill:#FFDD00;}
</style>
<g>
	<g>
		<path class="st0" d="M2.1,45.2v-2.8H0.9v-0.9h1.2v-1.8h0.9v1.8h1.1v0.9H3.1v2.3l0.8-0.5L4.4,45c-0.5,0.4-0.9,0.6-1.3,0.7v2.9
			c0,0.2-0.1,1.1-1,1.1c-0.3,0-0.7-0.1-1.2-0.2l0-1c0.3,0.1,0.7,0.3,0.9,0.3c0,0,0.3,0,0.3-0.4v-2.3l-0.9,0.4l-0.5-0.8L2.1,45.2z
			 M10.5,49.9c-1.1-0.4-2.1-0.9-3.1-1.6c-1.1,0.7-2.3,1.3-3.5,1.5L3.4,49c1.3-0.3,2.4-0.7,3.3-1.3c-0.6-0.5-1.2-1.2-1.8-2l0.7-0.6
			c0.7,0.8,1.3,1.5,1.8,2c1.1-0.9,1.7-2.1,1.7-2.2c0-0.1-0.1-0.1-0.2-0.1H4.8v-0.9h5.1l0.4,0.4c-0.4,1.2-1,2.3-1.9,3.2l-0.3,0.3
			c0.8,0.5,1.8,0.9,3,1.3L10.5,49.9z M6.4,40.8c-0.1,0-0.1,0-0.1,0.1v0.7c0,1.3-0.9,1.9-1.7,2.2L4,42.9c0.7-0.3,1.3-0.6,1.3-1.7
			v-1.2l0.1-0.1l0.1-0.1h3.2l0.1,0.1L9,40.1v2.1c0,0.4,0.1,0.4,0.4,0.4h0.4l0.3-0.1c0.1,0,0.1-0.1,0.1-0.4v-0.7l0.9,0.1l0,1.3
			c0,0.4-0.5,0.7-0.8,0.7H9c-0.8,0-0.9-0.6-0.9-0.9v-1.7c0-0.1-0.1-0.1-0.2-0.1H6.4z"/>
		<path class="st0" d="M11.8,42.9c0.8-0.2,1.6-0.6,2.3-1.2l0.6,0.7c-0.9,0.7-1.7,1.1-2.4,1.3L11.8,42.9z M18.5,48.5h-3.2l0.2,0.7
			c-0.9,0.3-2,0.6-3.3,0.8L12,49c1.1-0.2,1.9-0.3,2.7-0.5h-1.3c-0.1,0-0.1,0-0.1-0.1v-4.6c0-0.1,0-0.1,0.1-0.1h7.3
			c0.1,0,0.1,0,0.1,0.1v4.6c0,0.1,0,0.1-0.1,0.1h-1.2c0.7,0.1,1.6,0.3,2.5,0.5l-0.2,0.9c-1.3-0.4-2.4-0.6-3.3-0.6L18.5,48.5z
			 M12.1,40.1h2.4V41h-2.4V40.1z M14.1,44.9h5.7v-0.5l0,0h-5.6c0,0,0,0,0,0V44.9z M14.1,46.3h5.7v-0.6h-5.7V46.3z M19.9,47.1h-5.7
			v0.5l0,0h5.6l0,0V47.1z M21.6,43.6c-1.6-0.2-2.9-0.8-3.7-1.9c-0.7,0.9-1.7,1.5-2.9,1.7l-0.3-0.9c0.5-0.1,0.9-0.2,1.3-0.3
			c0.4-0.2,0.9-0.6,1.4-1.2h-1.2c-0.4,0.4-0.7,0.7-0.9,0.8l-0.7-0.6c0.7-0.4,1.2-1,1.5-1.6l0.8,0.5l-0.2,0.2h4.6l0.5,0.5
			c-0.4,0.5-0.9,1.1-1.5,1.5l-0.7-0.6l0.7-0.6h-2c0.6,0.9,1.8,1.5,3.5,1.6L21.6,43.6L21.6,43.6z"/>
		<path class="st0" d="M23.5,46.8v-6.5c0-0.1,0-0.2,0.2-0.2c0.6-0.1,1.1-0.2,1.5-0.3l0.5,0.8c0-0.5,0-0.6,0.3-0.6h4
			c0.2,0,0.3,0.1,0.3,0.3v6.6h1.3v-1.3h-1v-0.9h1v-1.4h-1v-0.9h1v-1.3c0-0.1,0-0.1-0.1-0.1h-0.9V40h1.7c0.1,0,0.2,0.1,0.2,0.2v6.6
			H33v0.9H22.8v-0.9H23.5z M26.5,48.8c-1.2,0.6-2.3,0.9-3.4,1c0-0.1,0-0.3,0-0.4c0-0.2,0-0.4-0.1-0.5c1.1-0.1,1.9-0.3,3-1L26.5,48.8
			z M24.3,46.8h1.3v-6.2c-0.4,0.1-0.8,0.2-1.2,0.3c-0.1,0-0.1,0-0.1,0.1v1.3h1v0.9h-1v1.4h1v0.9h-1V46.8z M26.5,46.8h2.9v-5.9
			c0-0.1,0-0.1-0.1-0.1h-2.7c-0.1,0-0.1,0-0.1,0.1V46.8z M29.1,46.2c0,0.1,0,0.1-0.1,0.1h-2.1c-0.1,0-0.1,0-0.1-0.1v-3.5
			c0-0.1,0-0.1,0.1-0.1H29c0.1,0,0.1,0,0.1,0.1V46.2z M26.8,41.3H29V42h-2.2V41.3z M28.3,43.3h-0.8l0,0v2.2l0,0h0.8c0,0,0,0,0,0
			L28.3,43.3L28.3,43.3z M32.7,49.8c-1.2-0.5-2.2-0.7-3-0.9l0.2-0.9c0.9,0.1,1.9,0.4,3.1,0.9L32.7,49.8z"/>
		<path class="st0" d="M35,45c0.2,0.6,0.4,1.1,0.6,1.6c0.4-0.8,0.6-1.6,0.6-2.3c0-0.1,0-0.1-0.1-0.1h-1.6l-0.4-0.6l1.5-2.7v0h-1.5
			v-0.9h2.4l0.4,0.6l-1.6,2.7h1.4c0.2,0,0.3,0.1,0.3,0.3c0,1.4-0.4,2.8-0.9,4c0.5,0.5,1.1,1.1,3,1.1h4.9l-0.3,1h-4.3
			c-2.2-0.1-3-0.5-3.8-1.3c-0.3,0.5-0.7,1.1-1.2,1.6l-0.8-0.7c0.6-0.6,1-1.2,1.3-1.7c-0.3-0.5-0.6-1.2-1-2.3L35,45z M39.8,47.3h-2.7
			v-0.9h2.7v-0.6h-2.3v-0.9h2.3v-0.7h-1.9v-0.8h1.9v-0.7H37v-0.8h2.8v-0.7h-1.9v-0.8h1.9v-0.7h0.9v0.7H43c0.2,0,0.3,0.1,0.3,0.3v1.2
			H44v0.8h-0.7v1.3c0,0.2-0.1,0.3-0.3,0.3h-2.2v0.7h2.7v0.9h-2.7v0.6h3v0.9h-3v1.1h-0.9V47.3z M40.8,41.2v0.7h1.6v-0.6
			c0-0.1,0-0.1-0.1-0.1H40.8z M40.8,42.7v0.7h1.5c0.1,0,0.1,0,0.1-0.1v-0.6H40.8z"/>
		<path class="st0" d="M49.6,40.1h0.7v9.4h-0.7V40.1z"/>
		<path class="st0" d="M65.5,43.3c-1.7-0.7-3.2-1.6-4.5-2.7c-0.9,0.9-2.4,1.8-4.6,2.7l-0.5-0.9c2.5-0.8,4.2-1.8,4.9-2.8l0.9,0.2
			L61.5,40c1.3,1.1,2.8,1.9,4.5,2.5L65.5,43.3z M60.5,48.6v-2.7h-4.3V45h4.3v-1.3H58v-0.9h6v0.9h-2.5V45h4.3v0.9h-4.3v2.7h4.3v0.9
			h-9.6v-0.9H60.5z M58.2,48.5c-0.4-0.9-0.8-1.5-1.2-2l0.8-0.5c0.4,0.5,0.8,1.2,1.2,2.1L58.2,48.5z M62.8,47.9
			c0.5-0.6,0.9-1.3,1.3-1.9l0.8,0.5c-0.5,0.8-0.9,1.5-1.3,2L62.8,47.9z"/>
		<path class="st0" d="M68.7,49.2v0.5h-1v-9.4c0-0.2,0.1-0.3,0.3-0.3h7.8c0.2,0,0.4,0.1,0.4,0.3v9.4h-1v-0.5H68.7z M75.2,41.1
			c0-0.1,0-0.1-0.1-0.1h-6.2c-0.1,0-0.1,0.1-0.1,0.1v3.1h6.5V41.1z M68.7,48.3h6.5v-3.1h-6.5V48.3z"/>
		<path class="st0" d="M79.3,49.3v0.5h-0.9v-4.5c0-0.2,0.1-0.3,0.3-0.3h8.5c0.2,0,0.3,0.1,0.3,0.3v4.5h-0.9v-0.5H79.3z M86.9,44
			c0,0.2-0.1,0.3-0.3,0.3h-7.4c-0.2,0-0.3-0.1-0.3-0.3v-3.7c0-0.2,0.1-0.2,0.3-0.2h7.4c0.2,0,0.3,0.1,0.3,0.2V44z M79.3,46.7h7.3V46
			c0-0.1,0-0.1-0.1-0.1h-7.1c-0.1,0-0.1,0.1-0.1,0.1V46.7z M86.6,47.5h-7.3v0.9h7.3V47.5z M80,41.7h6V41c0,0,0,0,0,0H80
			c0,0-0.1,0,0,0V41.7z M86,42.6h-6v0.7l0,0.1h5.9l0-0.1V42.6z"/>
		<path class="st0" d="M90,45c0.2,0.6,0.4,1.1,0.6,1.6c0.4-0.8,0.6-1.6,0.6-2.3c0-0.1,0-0.1-0.1-0.1h-1.6l-0.4-0.6l1.5-2.7v0h-1.5
			v-0.9h2.4l0.4,0.6l-1.6,2.7h1.4c0.2,0,0.3,0.1,0.3,0.3c0,1.4-0.4,2.8-0.9,4c0.5,0.5,1.1,1.1,3,1.1h4.9l-0.3,1h-4.3
			c-2.2-0.1-3-0.5-3.8-1.3c-0.3,0.5-0.7,1.1-1.2,1.6l-0.8-0.7c0.6-0.6,1-1.2,1.3-1.7c-0.3-0.5-0.6-1.2-1-2.3L90,45z M94.8,47.3h-2.7
			v-0.9h2.7v-0.6h-2.3v-0.9h2.3v-0.7h-1.9v-0.8h1.9v-0.7H92v-0.8h2.8v-0.7h-1.9v-0.8h1.9v-0.7h0.9v0.7H98c0.2,0,0.3,0.1,0.3,0.3v1.2
			H99v0.8h-0.7v1.3c0,0.2-0.1,0.3-0.3,0.3h-2.2v0.7h2.7v0.9h-2.7v0.6h3v0.9h-3v1.1h-0.9V47.3z M95.8,41.2v0.7h1.6v-0.6
			c0-0.1,0-0.1-0.1-0.1H95.8z M95.8,42.7v0.7h1.5c0.1,0,0.1,0,0.1-0.1v-0.6H95.8z"/>
		<path class="st0" d="M99.9,41.5h4.1v0.9h-4.1V41.5z M101.1,49.1v0.5h-0.9v-3.7c0-0.2,0.1-0.3,0.3-0.3h3c0.2,0,0.3,0.1,0.3,0.3v2.9
			c0,0.2-0.1,0.3-0.3,0.3H101.1z M100.4,42.9h3.1v0.8h-3.1V42.9z M100.4,44.2h3.1v0.8h-3.1V44.2z M100.4,40h3.1v0.9h-3.1V40z
			 M102.9,46.6c0-0.1-0.1-0.1-0.2-0.1h-1.5c-0.1,0-0.1,0-0.1,0.1v1.7h1.6c0.1,0,0.2-0.1,0.2-0.2V46.6z M105.9,40.8
			c-0.1,0-0.1,0-0.1,0.1v0.4c0,1.1-0.5,1.9-1.3,2.5l-0.6-0.7l0.4-0.3c0.5-0.4,0.7-1,0.7-1.9v-0.9L105,40l0.1-0.1h3.1l0.1,0l0.1,0.1
			v2.3c0,0.4,0.1,0.4,0.4,0.4c0.1,0,0.1,0,0.3-0.1c0.1,0,0.1-0.1,0.1-0.3l0-0.7l0.8,0.1l-0.1,1.2c-0.1,0.4-0.5,0.6-0.8,0.6h-0.8
			c-0.6,0-0.9-0.5-0.9-0.8V41c0-0.1-0.1-0.1-0.1-0.1H105.9z M109.6,49.9c-1.1-0.3-2-0.7-2.7-1.2c-0.6,0.4-1.4,0.8-2.3,1.2l-0.6-0.8
			c0.9-0.3,1.6-0.6,2.1-1c-0.6-0.6-1.1-1.3-1.6-2.2l0.8-0.4c0.4,0.9,1,1.6,1.6,2.2c0.9-0.7,1.4-1.5,1.6-2.4c0-0.1-0.1-0.1-0.3-0.1
			h-3.7v-0.9h4.5l0.5,0.4c-0.2,1.4-0.8,2.6-1.9,3.6c0.6,0.4,1.4,0.7,2.5,0.9L109.6,49.9z"/>
		<path class="st0" d="M119.4,44.3l-0.3,0.5l-0.9-0.4c1-1.5,1.6-3.1,1.8-4.8l0.9,0.1c-0.2,1-0.4,1.8-0.6,2.5v7.4h-0.9V44.3z
			 M128.4,49.8c-2.3,0-3.9-0.3-4.9-0.7c-0.6,0.3-1.4,0.6-2.4,0.8l-0.4-0.9c0.5,0,1.4-0.2,1.9-0.4c-0.5-0.4-1-1-1.5-1.7l0.7-0.6
			c0.6,0.8,1.1,1.4,1.6,1.8c0.5-0.5,0.7-1.2,0.7-2.2h-2.9c-0.1,0-0.1,0-0.1-0.1v-3.2c0-0.1,0-0.1,0.1-0.1h2.9v-1H121v-0.9h3.1v-0.7
			h0.9v0.7h3.3v0.9H125v1h2.9c0.1,0,0.1,0,0.1,0.1v3.2c0,0.1,0,0.1-0.1,0.1h-3c0,1.1-0.3,1.9-0.8,2.6c0.7,0.2,1.8,0.3,3.2,0.3
			c0.3,0,0.7,0,1.1,0L128.4,49.8z M124.1,44.9v-1.7H122c0,0,0,0,0,0v1.6c0,0,0,0,0,0.1H124.1z M125,43.2v1.7h2.1l0-0.1v-1.6
			c0,0,0,0,0,0H125z"/>
		<path class="st0" d="M131,46.5c-0.2,1.1-0.5,2.2-0.9,3.1l-1-0.3c0.6-1.6,1-3,1-4.3v-4.8c0-0.2,0.1-0.3,0.3-0.3h7.9
			c0.2,0,0.3,0.1,0.3,0.3v8.3c0,1.2-1,1.2-1.4,1.2c-0.4,0-0.9,0-1.4-0.1l0-1.1c0.6,0.2,1.1,0.3,1.4,0.3c0.3,0,0.5-0.1,0.5-0.5v-1.7
			h-2.9v3h-0.9v-3H131z M131.1,45.6h2.8v-1.9h-2.8V45.6z M133.9,42.8V41h-2.7c-0.1,0-0.1,0-0.1,0.1v1.7H133.9z M134.8,41v1.8h2.9
			v-1.7c0-0.1,0-0.1-0.1-0.1H134.8z M134.8,45.6h2.9v-1.9h-2.9V45.6z"/>
		<path class="st0" d="M142.2,47.8h-2v-0.8h2v-1.1h-1.8V45h0.9l-0.3-1.6h-0.8v-0.9h2v-1h-1.8v-0.9h1.8v-1h0.9v1h1.7v0.9h-1.7v1h2
			v0.9h-0.8l-0.3,1.6h0.9v0.8h-1.8v1.1h2v0.8h-2v2h-0.9V47.8z M142.2,45h0.9l0.3-1.6h-1.5L142.2,45z M146.8,46.7
			c-0.2,0.7-0.9,2.4-1.6,3.1l-0.9-0.3c1-1.1,1.6-2.4,1.9-3.9l-1.2-2l0.8-0.4l0.6,0.9v-2.6h-1.1v-0.9h1.1v-0.9h0.9v0.9h1.6
			c0.3,0,0.3,0.1,0.3,0.2c0,1.4-0.1,2.5-0.1,3.5c0,2.1,0.1,3.5,0.2,4c0,0.1,0.1,0.1,0.2,0.1c0.1-0.3,0.1-1,0.1-1.6l0.9,0.2
			c-0.1,1.7-0.3,2.8-1,2.8c-0.2,0-0.3-0.1-0.5-0.2l-0.2-0.3c-0.4-0.7-0.6-2.6-0.6-5.7c0-0.3,0-1.7,0-2c0-0.1-0.1-0.1-0.1-0.1h-0.9
			V44c0,0.4-0.1,0.8-0.2,1.4c0.5,0.8,0.8,1.5,1.1,2.2l-0.8,0.4L146.8,46.7z"/>
		<path class="st0" d="M151.4,49.3c0.6-0.5,1-1.2,1.3-2l0.9,0.3c-0.4,0.9-0.8,1.7-1.4,2.2L151.4,49.3z M154.7,47
			c0,0.1,0,0.1-0.1,0.1h-2.8c-0.1,0-0.1,0-0.1-0.1v-7c0-0.1,0-0.1,0.1-0.1h2.8c0.1,0,0.1,0,0.1,0.1V47z M152.6,43h1.3v-2.2l0,0h-1.2
			l0,0V43z M153.8,43.9h-1.3v2.3l0,0h1.2c0,0,0,0,0,0V43.9z M154.6,49.8c0.2-0.9,0.2-1.6,0.2-2.2l0.9,0.1c0,0.6,0,1.4-0.2,2.2
			L154.6,49.8z M155,42.7c1.1-0.2,1.8-0.8,2.4-1.9h-2.1V40h5.5c0.5,0,0.5,0.2,0.5,0.6c0,0.4,0,0.7-0.1,0.9c-0.2,1.7-0.6,2.2-1.6,2.2
			c-0.5,0-1.1-0.1-1.8-0.4l0.1-1c0.7,0.2,1.2,0.3,1.6,0.3c0.2,0,0.3,0,0.4-0.1c0.3-0.1,0.4-1.2,0.4-1.4c0-0.1,0-0.1-0.1-0.2h-1.9
			c-0.6,1.5-1.5,2.4-2.9,2.7L155,42.7z M161,46.8c0,0.1,0,0.1-0.1,0.1h-5.4c-0.1,0-0.1,0-0.1-0.1V44c0-0.1,0-0.1,0.1-0.1h5.4
			c0.1,0,0.1,0,0.1,0.1V46.8z M160,44.7h-3.8c0,0,0,0,0,0v1.4l0,0h3.8l0,0L160,44.7L160,44.7z M157.7,49.9c-0.2-0.8-0.5-1.5-0.7-2
			l0.9-0.3c0.3,0.5,0.5,1.2,0.7,2L157.7,49.9z M160.7,49.8c-0.5-0.9-0.9-1.6-1.3-2l0.8-0.5c0.4,0.5,0.9,1.2,1.3,2.1L160.7,49.8z"/>
		<path class="st0" d="M167,40.1h0.7v9.4H167V40.1z"/>
		<path class="st0" d="M175.1,50.4c-0.7-1-1.5-2.6-1.5-5.1c0-2.5,0.8-4.1,1.5-5.1h1c-0.8,1.2-1.4,2.8-1.4,5.1c0,2.2,0.6,3.8,1.4,5
			H175.1z"/>
		<path class="st0" d="M180.9,45.2c-0.4,0.5-1,0.8-1.7,0.8c-1.3,0-2.3-1-2.3-2.5c0-1.5,1-2.9,2.7-2.9c1.7,0,2.6,1.4,2.6,3.5
			c0,2.7-1.3,4.7-3.8,5c-0.3,0.1-0.7,0.1-0.9,0.1v-1c0.2,0,0.5,0,0.8,0C180.1,47.8,180.7,46.2,180.9,45.2L180.9,45.2z M178.1,43.4
			c0,1,0.5,1.7,1.3,1.7c0.6,0,1.1-0.4,1.3-0.8c0.1-0.1,0.1-0.3,0.1-0.5c0-1.4-0.5-2.3-1.4-2.3C178.7,41.5,178.1,42.3,178.1,43.4z"/>
		<path class="st0" d="M183.2,40.7h5v0.8l-3.3,7.5h-1.3l3.3-7.2v0h-3.7V40.7z"/>
		<path class="st0" d="M190,40.3c0.7,1,1.5,2.6,1.5,5.1c0,2.5-0.8,4.1-1.5,5.1h-1c0.8-1.2,1.4-2.8,1.4-5.1c0-2.2-0.6-3.9-1.4-5.1
			H190z"/>
		<path class="st0" d="M195.1,44.4v5.4h-0.9v-5c-0.2,0.6-0.5,1.3-0.8,1.9l-0.8-0.4c0.6-1.4,1.1-2.6,1.4-3.6h-1.2v-0.9h1.4v-2.2h0.9
			v2.2h1.1v0.9h-1.1V43c0.5,0.6,1,1.3,1.5,1.9l-0.7,0.6L195.1,44.4z M195.5,46.3c0.9-0.5,1.7-1.1,2.4-1.9v-4.6h0.9v5.3
			c0,0.3-0.1,0.8-0.2,1.5c-0.3,1.4-1,2.5-2.2,3.3l-0.7-0.7c1.3-0.7,2-1.9,2.1-3.6c-0.6,0.6-1.2,1.1-1.7,1.4L195.5,46.3z M196.8,43.5
			c-0.2-0.9-0.4-1.8-0.8-2.8l0.9-0.2c0.3,1.1,0.6,2,0.8,2.9L196.8,43.5z M202.4,46.6c-0.5-0.5-1.1-1-1.8-1.6v3.1
			c0,0.3,0.2,0.5,0.5,0.5h0.7c0.1,0,0.2,0,0.3-0.1c0,0,0.1-0.5,0.1-1.2l0.9,0.1c0,1-0.1,1.6-0.2,1.7c-0.2,0.2-0.4,0.4-0.6,0.4h-1.5
			c-0.4,0-0.9-0.4-0.9-0.9v-8.9h0.9v2.4c0.5-0.6,0.9-1.2,1.2-1.6l0.7,0.5c-0.5,0.7-1.1,1.6-2,2.4v0.7c0.8,0.6,1.6,1.2,2.4,1.8
			L202.4,46.6z"/>
		<path class="st0" d="M205.6,46.9c-0.3,1.1-0.7,2-1.2,2.7c-0.2-0.3-0.5-0.4-0.7-0.5c0.5-0.7,0.8-1.5,1-2.4L205.6,46.9z M206,46.1
			h-1.6c-0.3,0-0.4-0.1-0.4-0.4v-5.2h0.8V45c0,0.2,0.1,0.2,0.2,0.2h3.5v0.8h-1.7v3.7H206V46.1z M208.5,44.7c0,0.1,0,0.1-0.1,0.1h-3
			c-0.1,0-0.1,0-0.1-0.1v-4.8c0-0.1,0-0.1,0.1-0.1h3c0.1,0,0.1,0,0.1,0.1V44.7z M206.1,41.2h1.6v-0.6l0,0h-1.5c0,0,0,0,0,0V41.2z
			 M206.1,42.5h1.6v-0.6h-1.6V42.5z M207.7,43.3h-1.6V44l0,0h1.5l0,0V43.3z M207.8,48.6c-0.1-0.5-0.3-1-0.6-1.6l0.8-0.3
			c0.3,0.8,0.5,1.3,0.6,1.7L207.8,48.6z M210.3,46.8c-0.1,1.1-0.5,2-1,2.8c-0.3-0.2-0.5-0.4-0.7-0.5c0.5-0.7,0.7-1.6,0.8-2.5
			L210.3,46.8z M210.8,45.8L209,46c0-0.3-0.1-0.5-0.2-0.8l0.8-0.1c0.3-0.3,0.6-0.6,0.9-1c-0.6-0.6-1.2-1-1.8-1.4l0.4-0.7
			c0.1,0,0.2,0.1,0.5,0.4l0.8-1.4l-1.3,0l-0.1-0.9c1.8,0,3.2-0.2,4.2-0.4l0.1,0.9c-0.5,0.1-1.5,0.2-1.9,0.3c-0.3,0.5-0.7,1.2-1.2,2
			l0.7,0.6c0.4-0.6,0.7-1.2,0.9-1.7l0.8,0.3c-0.3,0.8-0.9,1.8-2,2.9l1.9-0.2l-0.4-0.9l0.8-0.3c0.4,0.6,0.7,1.5,1,2.5l-0.8,0.3
			l-0.2-0.6l-1.2,0.2v4.2h-0.9V45.8z M213,49.4c-0.3-1.1-0.6-1.9-0.9-2.6l0.8-0.3c0.4,0.7,0.7,1.5,0.9,2.6L213,49.4z"/>
		<path class="st0" d="M219.3,48.3v-7.1h-4.1v-1h9.1v1h-4v7.1h4.5v1h-10v-1H219.3z"/>
		<path class="st0" d="M226.8,45c0.2,0.6,0.4,1.1,0.6,1.6c0.4-0.8,0.6-1.6,0.6-2.3c0-0.1,0-0.1-0.1-0.1h-1.6l-0.4-0.6l1.5-2.7v0H226
			v-0.9h2.4l0.4,0.6l-1.6,2.7h1.4c0.2,0,0.3,0.1,0.3,0.3c0,1.4-0.4,2.8-0.9,4c0.5,0.5,1.1,1.1,3,1.1h4.9l-0.3,1h-4.3
			c-2.2-0.1-3-0.5-3.8-1.3c-0.3,0.5-0.7,1.1-1.2,1.6l-0.8-0.7c0.6-0.6,1-1.2,1.3-1.7c-0.3-0.5-0.6-1.2-1-2.3L226.8,45z M231.7,47.3
			H229v-0.9h2.7v-0.6h-2.3v-0.9h2.3v-0.7h-1.9v-0.8h1.9v-0.7h-2.8v-0.8h2.8v-0.7h-1.9v-0.8h1.9v-0.7h0.9v0.7h2.2
			c0.2,0,0.3,0.1,0.3,0.3v1.2h0.7v0.8h-0.7v1.3c0,0.2-0.1,0.3-0.3,0.3h-2.2v0.7h2.7v0.9h-2.7v0.6h3v0.9h-3v1.1h-0.9V47.3z
			 M232.6,41.2v0.7h1.6v-0.6c0-0.1,0-0.1-0.1-0.1H232.6z M232.6,42.7v0.7h1.5c0.1,0,0.1,0,0.1-0.1v-0.6H232.6z"/>
		<path class="st0" d="M237.8,44.3l-0.3,0.5l-0.9-0.4c1-1.5,1.6-3.1,1.8-4.8l0.9,0.1c-0.2,1-0.4,1.8-0.6,2.5v7.4h-0.9V44.3z
			 M246.8,49.8c-2.3,0-3.9-0.3-4.9-0.7c-0.6,0.3-1.4,0.6-2.4,0.8l-0.4-0.9c0.5,0,1.4-0.2,1.9-0.4c-0.5-0.4-1-1-1.5-1.7l0.7-0.6
			c0.6,0.8,1.1,1.4,1.6,1.8c0.5-0.5,0.7-1.2,0.7-2.2h-2.9c-0.1,0-0.1,0-0.1-0.1v-3.2c0-0.1,0-0.1,0.1-0.1h2.9v-1h-3.1v-0.9h3.1v-0.7
			h0.9v0.7h3.3v0.9h-3.3v1h2.9c0.1,0,0.1,0,0.1,0.1v3.2c0,0.1,0,0.1-0.1,0.1h-3c0,1.1-0.3,1.9-0.8,2.6c0.7,0.2,1.8,0.3,3.2,0.3
			c0.3,0,0.7,0,1.1,0L246.8,49.8z M242.5,44.9v-1.7h-2.1c0,0,0,0,0,0v1.6c0,0,0,0,0,0.1H242.5z M243.5,43.2v1.7h2.1l0-0.1v-1.6
			c0,0,0,0,0,0H243.5z"/>
		<path class="st0" d="M253.8,46.4c0.2,0.6,0.3,1.2,0.3,1.6c0,0.9-0.6,1.8-2.1,1.8c-0.6,0-1.4-0.2-2.2-0.5l0.1-1.1
			c0.9,0.5,1.7,0.7,2.1,0.7c0.5,0,1-0.3,1-1.2c0-0.4-0.1-0.8-0.3-1.3h-5v-0.9h4.6l-0.6-1.1h0.5l1.7-1.1v0h-4.4v-0.9h5.7l0.8,0.7
			l-2.9,1.8l0.3,0.6h4.3v0.9H253.8z M252.3,40.5v-0.9h1v0.9h3.8l0.8,0.4c-0.1,0.6-0.3,1.4-0.6,2.3l-0.9-0.3l0.4-1.3
			c0-0.1,0-0.1-0.1-0.1h-7.8c-0.1,0-0.1,0-0.1,0.1v1.6h-0.9v-2.4c0-0.1,0.1-0.2,0.2-0.2H252.3z"/>
		<path class="st0" d="M261.2,41h-0.7c-0.3,0.6-0.7,1.1-1,1.4l-0.8-0.5c0.7-0.7,1.2-1.5,1.5-2.3l0.8,0.3l-0.1,0.3h2.7V41H262
			c0.1,0.3,0.2,0.6,0.2,1l-0.8,0.1L261.2,41z M258.7,48.6c1.5-0.4,2.9-1,4-1.8H260l0,0.3l-0.9-0.2l0.3-2.5c0-0.2,0.1-0.2,0.2-0.2
			h3.8v-0.9h-3.8v-0.9h8.4c0,0,0.3,0,0.3,0.3v2.6h-0.9v-0.2h-3v0.8h4c0.2,0,0.2,0.1,0.2,0.3c0,2.2-0.1,2.7-0.5,2.9
			c-0.4,0.3-0.8,0.3-1,0.3c-0.4,0-0.9,0-1.5-0.2l0-1c0.7,0.2,1.2,0.2,1.5,0.2c0.5,0,0.6,0,0.6-1.4v-0.3c0,0-0.1-0.1-0.2-0.1h-3.2v3
			h-0.9v-2.5c-1.5,1.1-2.9,1.8-4.2,2.1L258.7,48.6z M263.4,45.9v-0.8h-3c-0.1,0-0.1,0-0.1,0.1l-0.1,0.8H263.4z M265.7,41h-0.9
			c-0.2,0.5-0.5,0.9-0.8,1.2l-0.8-0.5c0.6-0.6,1-1.4,1.3-2.2l0.8,0.3l-0.1,0.3h3.5V41h-2.1c0.1,0.1,0.2,0.4,0.3,0.9l-0.8,0.2
			L265.7,41z M264.3,43.3v0.9h3v-0.8c0-0.1,0-0.1-0.1-0.1H264.3z"/>
		<path class="st0" d="M275.4,44.6v1.8h-0.8v-1.9c-0.2,0.4-0.4,0.7-0.6,0.9l-0.5-0.2v0.1c0,1.7-0.3,3.1-1,4.2l-0.8-0.3
			c0.5-0.9,0.7-1.6,0.8-2.3c-0.7,0.4-1.5,0.9-2.4,1.3l-0.5-0.8l1.1-0.4v-4h-0.9v-0.9h0.9v-2.3h0.9v2.3h0.8v0.9h-0.8v3.6l0.7-0.5
			l0.3,0.5l0.1-1.5v-4.9c0-0.2,0.1-0.2,0.2-0.2h6.7v0.8h-6c-0.1,0-0.1,0-0.1,0.1v1.8h1.1v-0.5l-0.6,0.1l-0.2-0.8
			c0.8-0.1,1.5-0.3,2-0.4l0.2,0.8l-0.6,0.2v0.7h0.8v0.8h-0.8v0c0.4,0.4,0.7,0.7,1,1.1l-0.6,0.5L275.4,44.6z M274.2,48.7v-1.8h0.8
			v1.8h1v-2.6h0.8v0.9h2.2v0.8h-2.2v0.9h2.9v0.8h-6.4v-0.8H274.2z M274,44.1l0.3-0.6h-0.8v1.2L274,44.1z M279.1,45.7
			c-0.2-0.2-0.4-0.6-0.7-1v1.7h-0.8v-1.8c-0.1,0.2-0.5,0.8-0.7,1.1l-0.7-0.4c0.5-0.5,0.9-1.1,1.3-1.8h-0.7v-0.8h1v-0.5l-0.7,0.1
			l-0.2-0.8c1.1-0.1,1.9-0.3,2.5-0.5l0.2,0.8l-0.9,0.2v0.7h1.2v0.8h-1c0.4,0.7,0.8,1.3,1.3,1.8L279.1,45.7z"/>
		<path class="st0" d="M280.7,44.8c0-2.7,1-4.3,2.7-4.3c1.7,0,2.6,1.7,2.6,4.2c0,2.8-1,4.3-2.7,4.3
			C281.6,49.1,280.7,47.4,280.7,44.8z M284.8,44.8c0-2-0.4-3.2-1.4-3.2c-0.8,0-1.4,1.2-1.4,3.2c0,2.1,0.5,3.3,1.4,3.3
			C284.5,48.1,284.8,46.5,284.8,44.8z"/>
		<path class="st0" d="M286.9,44.8c0-2.7,1-4.3,2.7-4.3c1.7,0,2.6,1.7,2.6,4.2c0,2.8-1,4.3-2.7,4.3
			C287.8,49.1,286.9,47.4,286.9,44.8z M291,44.8c0-2-0.4-3.2-1.4-3.2c-0.8,0-1.4,1.2-1.4,3.2c0,2.1,0.5,3.3,1.4,3.3
			C290.6,48.1,291,46.5,291,44.8z"/>
		<path class="st0" d="M293.1,44.8c0-2.7,1-4.3,2.7-4.3c1.7,0,2.6,1.7,2.6,4.2c0,2.8-1,4.3-2.7,4.3C294,49.1,293.1,47.4,293.1,44.8z
			 M297.2,44.8c0-2-0.4-3.2-1.4-3.2c-0.8,0-1.4,1.2-1.4,3.2c0,2.1,0.5,3.3,1.4,3.3C296.8,48.1,297.2,46.5,297.2,44.8z"/>
		<path class="st0" d="M304.1,40.7v1.1h-2.9l-0.3,2c0.2,0,0.3,0,0.6,0c1.5,0,2.8,0.9,2.8,2.6c0,1.6-1.2,2.8-3,2.8
			c-0.8,0-1.6-0.2-1.9-0.5l0.3-1c0.3,0.2,0.9,0.4,1.6,0.4c0.9,0,1.8-0.6,1.8-1.7c0-1.1-0.7-1.7-2.2-1.7c-0.4,0-0.7,0-1,0.1l0.5-4
			H304.1z"/>
		<path class="st0" d="M309.9,49h-1.2v-2.2h-3.5v-0.8l3.2-5.3h1.4v5.1h1v1h-1V49z M306.5,45.8h2.3v-2.5c0-0.5,0-1,0.1-1.4h0
			c-0.3,0.5-0.5,0.9-0.7,1.4L306.5,45.8L306.5,45.8z"/>
		<path class="st0" d="M312.9,46.4l-0.1,0.3l-0.8-0.2c0.2-0.5,0.3-1.2,0.5-2.1h-0.9v-0.9h3.8v0.9h-2.1l-0.3,1.2h2
			c0.1,0,0.2,0.1,0.2,0.2c0,1-0.4,3.5-1.3,3.8c-0.2,0.1-0.5,0.1-0.7,0.1c-0.3,0-0.7-0.1-1.3-0.4l0-0.9c1,0.3,1.2,0.4,1.3,0.4
			c0.1,0,0.2,0,0.3-0.1c0.4-0.2,0.7-1.6,0.7-2.1c0,0,0-0.1-0.1-0.1H312.9z M315.3,42.8c0,0.1,0,0.1-0.1,0.1H312
			c-0.1,0-0.1,0-0.1-0.1v-2.7c0-0.1,0-0.1,0.1-0.1h3.2c0.1,0,0.1,0,0.1,0.1V42.8z M314.4,40.8h-1.7c0,0,0,0,0,0v1.2l0,0h1.7l0,0
			L314.4,40.8L314.4,40.8z M317.7,44.1h-1.1v1c0,1.9-0.4,3.5-1,4.7l-0.9-0.5c0.7-1.2,1-2.6,1-4v-3.6c0-0.2,0.1-0.2,0.2-0.2h1.6v-1.9
			h0.9v0.5h2.7V41h-2.7v0.6h2.6l0.7,0.4c0,0.7-0.2,1.3-0.4,1.9l-0.8-0.2c0.2-0.5,0.3-1,0.3-1.2c0-0.1,0-0.1-0.1-0.1h-2.2v0.8h1.8
			v0.8h-1.8v0.5c0,0.3,0.3,0.5,0.5,0.5h1.4c0.1,0,0.2,0,0.3-0.1c0,0,0.1-0.3,0.2-0.8l0.8,0.3c-0.1,0.7-0.2,1.1-0.3,1.1
			c-0.2,0.2-0.4,0.3-0.6,0.3h-2.2c-0.4,0-0.8-0.4-0.8-0.9V44.1z M317.4,46.3h0.9v0.9c0,0.2,0,0.5-0.1,0.7c-0.2,0.8-0.7,1.5-1.5,1.9
			l-0.6-0.7c1-0.5,1.3-1.2,1.4-1.9V46.3z M317.7,43.2v-0.8h-0.9c-0.1,0-0.1,0.1-0.1,0.1v0.7H317.7z M319.1,46.3h0.9v2
			c0,0.5,0.6,0.6,0.9,0.4c0,0,0.1-0.4,0.1-1.1l0.8,0.2c-0.1,0.9-0.2,1.4-0.2,1.5c-0.2,0.2-0.4,0.3-0.6,0.3h-1
			c-0.4,0-0.9-0.5-0.9-0.9V46.3z"/>
		<path class="st0" d="M331.7,45.1l-1.6,0.2c0-0.2-0.1-0.5-0.2-0.8l0.7-0.1c0.3-0.3,0.6-0.7,1-1.2c-0.6-0.6-1.2-1-1.7-1.3l0.4-0.7
			l0.5,0.3c0.3-0.5,0.5-1.2,0.8-1.8l0.8,0.4c-0.2,0.5-0.5,1.1-0.9,1.9l0.7,0.6c0.3-0.5,0.5-1.1,0.7-1.6l0.8,0.2
			c-0.2,0.8-0.8,1.9-1.8,3.2l1.3-0.2l-0.3-0.7l0.8-0.2c0.3,0.7,0.5,1.5,0.6,2.1l-0.8,0.2l-0.1-0.5l-0.8,0.1v4.8h-0.8V45.1z
			 M330,49.1c0.3-1.3,0.5-2.3,0.5-3.1l0.8,0.1c0,0.9-0.2,1.9-0.5,3.2L330,49.1z M333.7,45.9l0.3,2.3l-0.8,0.1l-0.3-2.3L333.7,45.9z
			 M335.2,45.2c-0.3-0.7-0.6-1.3-1-1.7c-0.2-0.2-0.2-0.3-0.2-0.5c0,0,0-0.1,0-0.1c0.4-0.5,0.8-1.1,1-1.8l0.7,0.4
			c-0.3,0.6-0.6,1.1-0.9,1.6c0,0,0,0,0,0.1c0,0,0,0,0,0.1c0.2,0.2,0.6,0.8,1.1,1.6L335.2,45.2z M336.7,48.7v-2.2h-2.2v-0.8h5.5v0.8
			h-2.4v2.2h2.6v0.8h-6.1v-0.8H336.7z M334.1,40h5.9v0.8h-5.9V40z M337.3,45.2c-0.4-0.7-0.7-1.3-1.1-1.7c-0.1-0.2-0.2-0.3-0.2-0.4
			c0-0.1,0-0.1,0-0.1c0.4-0.5,0.8-1.1,1.1-1.8l0.7,0.4c-0.3,0.6-0.6,1.1-1,1.6c0,0,0,0,0,0c0,0,0,0,0,0.1c0.3,0.3,0.7,0.8,1.1,1.5
			L337.3,45.2z M339.4,45.1c-0.3-0.6-0.6-1.1-1-1.6c-0.2-0.2-0.2-0.3-0.2-0.4c0,0,0-0.1,0-0.1c0.4-0.5,0.7-1.1,0.9-1.9l0.8,0.4
			c-0.3,0.6-0.6,1.2-0.9,1.6c0,0,0,0,0,0.1c0,0,0,0,0,0.1c0.2,0.2,0.6,0.7,1.1,1.4L339.4,45.1z"/>
		<path class="st0" d="M342.9,45.1l-1.7,0.2c0-0.3-0.1-0.5-0.2-0.9l0.9-0.1c0.3-0.3,0.6-0.6,0.9-1c-0.6-0.5-1.2-0.9-1.8-1.2l0.4-0.8
			c0.1,0,0.2,0.1,0.5,0.3c0.3-0.5,0.6-1.2,0.9-1.8l0.8,0.4c-0.2,0.5-0.5,1.1-1,1.9l0.7,0.6c0.5-0.8,0.8-1.5,1.1-2.3l0.9,0.3
			c-0.3,0.9-1,2.1-2.2,3.6l1.6-0.2l-0.3-0.8l0.8-0.3c0.5,1.2,0.7,2,0.8,2.4l-0.9,0.2l-0.2-0.6l-1,0.1v4.9h-0.9V45.1z M340.9,49.1
			c0.3-1.4,0.5-2.5,0.5-3.3l0.9,0.1c0,0.8-0.2,1.9-0.5,3.4L340.9,49.1z M345.2,45.7l0.5,3l-0.9,0.2l-0.4-2.9L345.2,45.7z
			 M349.7,43.5V41c0-0.1,0-0.1-0.1-0.1h-3.4V40h4.2c0.2,0,0.3,0.1,0.3,0.3v4.4h-0.9v-0.1h-2.6c-0.1,0-0.1,0-0.1,0.1v3.6
			c0,0.2,0,0.6,0.6,0.6h1.8c0.3,0,0.5-0.2,0.6-0.5c0.1-0.2,0.1-0.7,0.1-1.7l0.9,0.2c0,0.2,0,0.4,0,0.6c0,0.7-0.1,1.2-0.2,1.5
			c-0.3,0.7-0.8,0.8-1.2,0.8h-2.3c-1,0-1.4-0.6-1.4-1.2v-4.8c0-0.1,0.1-0.2,0.2-0.2H349.7z"/>
		<path class="st0" d="M360,48.5c-1.4-1.4-2.4-3-2.9-4.8c-0.7,2.6-1.9,4.4-4.3,6l-0.7-0.7c2.9-1.7,4.4-4.6,4.5-8.8v-0.6h1v1h0
			c0,2.4,0.7,5.3,4.6,8.5l-0.8,0.6L360,48.5z"/>
		<path class="st0" d="M367.8,40.1h0.7v9.4h-0.7V40.1z"/>
		<path class="st0" d="M375.6,44.4c-0.6-0.5-1.1-0.9-1.6-1.2l0.5-0.8c0.5,0.3,1,0.7,1.6,1.2L375.6,44.4z M374,49.3
			c0.7-1.7,1.1-3.1,1.3-4.2l0.9,0.2c-0.2,1.3-0.7,2.7-1.4,4.4L374,49.3z M375.6,41.9c-0.6-0.6-1.1-1-1.5-1.3l0.6-0.7
			c0.5,0.3,1,0.7,1.6,1.3L375.6,41.9z M377.9,43.8c-0.1,0.9-0.2,1.8-0.4,2.7c-0.4,1.5-0.8,2.6-1.3,3.2l-0.9-0.2
			c0.5-1,1.7-3.1,1.7-6.5v-1.1h-0.6V41h1.2v-1.2h0.9V41h1.2v0.8H378v1.1h1.5c0.1,0,0.2,0.1,0.2,0.2c0,0.4,0,0.8,0,1.1
			c0,2.7-0.2,4.4-0.4,5c-0.1,0.3-0.3,0.5-0.8,0.5c-0.3,0-0.8-0.1-1.3-0.3l0.1-0.9c0.5,0.2,0.9,0.3,1,0.3c0,0,0.1,0,0.1,0
			c0.3-0.2,0.4-1.9,0.4-5c0,0,0,0-0.1,0H377.9z M381.2,41.6c-0.3,0.7-0.6,1.3-0.8,1.7c-0.3-0.3-0.5-0.4-0.7-0.5
			c0.7-1.1,0.9-1.9,1.1-3.1l0.9,0.2l-0.2,0.9h2.7v0.9H381.2z M383.3,46.2c0.2,0.5,0.3,1,0.3,1.5c0,0.5-0.1,0.9-0.3,1.3
			c-0.4,0.7-0.8,0.7-1.2,0.7c-0.4,0-0.9-0.1-1.6-0.4l0.1-1c0.5,0.3,0.8,0.4,1.2,0.4c0.4,0,0.6-0.2,0.7-0.4c0.2-0.2,0.2-0.4,0.2-0.7
			c0-0.5-0.1-0.9-0.2-1.4v0h-2.1v-0.8h1.7l-0.4-0.6c-0.1-0.1-0.1-0.1-0.1-0.2c0,0,0-0.1,0-0.1l1.1-1.3v-0.1l-0.1,0H381v-0.8h2.7
			l0.5,0.5l-1.5,1.8c-0.1,0.1-0.1,0.1-0.1,0.2c0,0.1,0,0.2,0.1,0.2l0.3,0.5h1.2v0.8H383.3z"/>
		<path class="st0" d="M392.1,45.9h-1v3.7h-0.9v-3.7h-0.9c0,0-0.1,0-0.1,0.1v3.9h-0.9v-1.9c-0.8,0.4-1.8,0.9-2.9,1.2l-0.4-0.8
			l1.3-0.4v-3.3h-0.9v-0.8h0.9V41h-1v-0.8h2.7V41h-0.8v2.8h0.8v0.8h-0.8v3l0.8-0.4l0.4,0.6v-2.5c0-0.1,0.1-0.2,0.2-0.2h1.8l0.5-1
			h-2.5v-0.8h6.7V44h-3.2l-0.4,1h3.3c0.1,0,0.2,0.1,0.2,0.2v3.6c0,0.4-0.1,0.6-0.4,0.8c-0.2,0.1-0.4,0.2-0.7,0.2c-0.2,0-0.4,0-0.6,0
			l-0.1-1c0.2,0.1,0.4,0.1,0.6,0.1c0.1,0,0.3-0.2,0.3-0.4v-2.6c0,0,0-0.1-0.1-0.1H393v3.7h-0.9V45.9z M391.1,41.7v-2h0.9v2h1.6
			c0.1,0,0.1,0,0.1-0.1v-1.4h0.9v1.9c0,0.3-0.1,0.4-0.4,0.4h-5.4c-0.3,0-0.4-0.1-0.4-0.4v-1.9h0.9v1.4c0,0.1,0,0.1,0.1,0.1H391.1z"
			/>
		<path class="st0" d="M399.4,41.7c-0.8,0.4-1.9,0.7-3,1l-0.4-0.9c2.5-0.5,4.2-1.2,5.1-2.2l0.9,0.3l-0.1,0.1
			c1.3,0.8,2.8,1.3,4.4,1.6l-0.4,0.9c-1-0.3-1.9-0.6-2.6-0.9v0.7h-3.8V41.7z M404.8,42.9c0.2,0,0.4,0.1,0.4,0.3v2.9
			c0,0.2-0.1,0.4-0.4,0.4h-6.7c0,1.3-0.7,2.8-1.3,3.4l-0.8-0.6c0.8-0.9,1.2-2,1.2-3.3v-2.8c0-0.2,0.1-0.3,0.3-0.3H404.8z
			 M398.1,44.2h6.2v-0.3c0-0.1-0.1-0.1-0.2-0.1h-5.9c-0.1,0-0.1,0-0.1,0.1V44.2z M404.3,45h-6.2v0.5h6c0.1,0,0.2-0.1,0.2-0.2V45z
			 M399.3,49.4v0.5h-0.9v-2.8c0-0.1,0-0.2,0.1-0.2h6.8c0.1,0,0.2,0.1,0.2,0.2v2.8h-0.9v-0.5H399.3z M399.3,48.5h5.3v-0.5
			c0-0.1,0-0.1-0.1-0.1h-5c-0.1,0-0.1,0-0.1,0.1V48.5z M402.8,41.6c-0.5-0.3-1.1-0.6-1.7-0.9c-0.4,0.3-0.9,0.6-1.5,0.9H402.8z"/>
		<path class="st0" d="M408.9,50.4c-0.7-1-1.5-2.6-1.5-5.1c0-2.5,0.8-4.1,1.5-5.1h1c-0.8,1.2-1.4,2.8-1.4,5.1c0,2.2,0.6,3.8,1.4,5
			H408.9z"/>
		<path class="st0" d="M414.6,45.2c-0.4,0.5-1,0.8-1.7,0.8c-1.3,0-2.3-1-2.3-2.5c0-1.5,1-2.9,2.7-2.9c1.7,0,2.6,1.4,2.6,3.5
			c0,2.7-1.3,4.7-3.8,5c-0.3,0.1-0.7,0.1-0.9,0.1v-1c0.2,0,0.5,0,0.8,0C413.9,47.8,414.5,46.2,414.6,45.2L414.6,45.2z M411.9,43.4
			c0,1,0.5,1.7,1.3,1.7c0.6,0,1.1-0.4,1.3-0.8c0.1-0.1,0.1-0.3,0.1-0.5c0-1.4-0.5-2.3-1.4-2.3C412.4,41.5,411.9,42.3,411.9,43.4z"/>
		<path class="st0" d="M420.8,45.2c-0.4,0.5-1,0.8-1.7,0.8c-1.3,0-2.3-1-2.3-2.5c0-1.5,1-2.9,2.7-2.9c1.7,0,2.6,1.4,2.6,3.5
			c0,2.7-1.3,4.7-3.8,5c-0.3,0.1-0.7,0.1-0.9,0.1v-1c0.2,0,0.5,0,0.8,0C420,47.8,420.7,46.2,420.8,45.2L420.8,45.2z M418.1,43.4
			c0,1,0.5,1.7,1.3,1.7c0.6,0,1.1-0.4,1.3-0.8c0.1-0.1,0.1-0.3,0.1-0.5c0-1.4-0.5-2.3-1.4-2.3C418.6,41.5,418.1,42.3,418.1,43.4z"/>
		<path class="st0" d="M423.8,40.3c0.7,1,1.5,2.6,1.5,5.1c0,2.5-0.8,4.1-1.5,5.1h-1c0.8-1.2,1.4-2.8,1.4-5.1c0-2.2-0.6-3.9-1.4-5.1
			H423.8z"/>
		<path class="st0" d="M436.1,48c-1.2-0.6-2.2-1.4-3-2.3h-3.1c-1,1.1-2,1.9-2.9,2.3l-0.6-0.8c0.9-0.4,1.6-0.9,2.3-1.5h-2.2v-0.9h1.9
			v-3.7h-1.6v-0.8h1.6v-0.6h0.9v0.6h4.4v-0.6h0.9v0.6h1.7v0.8h-1.7v3.7h1.9v0.9h-2.4c0.6,0.6,1.4,1.1,2.5,1.6L436.1,48z M431,48.7
			v-1h-2.3v-0.8h2.3v-0.8h0.9v0.8h2.3v0.8H432v1h4.2v0.8h-9.4v-0.8H431z M429.3,41.8h4.4v-0.7h-4.4V41.8z M429.3,43.3h4.4v-0.7h-4.4
			V43.3z M429.3,44.8h4.4v-0.7h-4.4V44.8z"/>
		<path class="st0" d="M442,43.9h-2.9c-0.1,0-0.1,0-0.1,0.1v5.2h-1v-6c0-0.2,0.1-0.2,0.2-0.2h3.8v-1.4h-4.5v-0.9h4.5v-1h1v1h4.5v0.9
			H443v1.4h3.8c0.2,0,0.3,0.1,0.3,0.2V48c0,0.7-0.5,1.2-1.6,1.2c-0.4,0-0.9-0.1-1.4-0.2l0-1.1c0.6,0.2,1,0.2,1.4,0.2
			c0.6,0,0.7-0.3,0.7-0.5v-3.7c0-0.1,0-0.1-0.1-0.1h-3v5.9h-1V43.9z"/>
		<path class="st0" d="M454.6,46.4c0.2,0.6,0.3,1.2,0.3,1.6c0,0.9-0.6,1.8-2.1,1.8c-0.6,0-1.4-0.2-2.2-0.5l0.1-1.1
			c0.9,0.5,1.7,0.7,2.1,0.7c0.5,0,1-0.3,1-1.2c0-0.4-0.1-0.8-0.3-1.3h-5v-0.9h4.6l-0.6-1.1h0.5l1.7-1.1v0h-4.4v-0.9h5.7l0.8,0.7
			l-2.9,1.8l0.3,0.6h4.3v0.9H454.6z M453.1,40.5v-0.9h1v0.9h3.8l0.8,0.4c-0.1,0.6-0.3,1.4-0.6,2.3l-0.9-0.3l0.4-1.3
			c0-0.1,0-0.1-0.1-0.1h-7.8c-0.1,0-0.1,0-0.1,0.1v1.6h-0.9v-2.4c0-0.1,0.1-0.2,0.2-0.2H453.1z"/>
		<path class="st0" d="M461.9,41h-0.7c-0.3,0.6-0.7,1.1-1,1.4l-0.8-0.5c0.7-0.7,1.2-1.5,1.5-2.3l0.8,0.3l-0.1,0.3h2.7V41h-1.5
			c0.1,0.3,0.2,0.6,0.2,1l-0.8,0.1L461.9,41z M459.5,48.6c1.5-0.4,2.9-1,4-1.8h-2.7l0,0.3l-0.9-0.2l0.3-2.5c0-0.2,0.1-0.2,0.2-0.2
			h3.8v-0.9h-3.8v-0.9h8.4c0,0,0.3,0,0.3,0.3v2.6H468v-0.2h-3v0.8h4c0.2,0,0.2,0.1,0.2,0.3c0,2.2-0.1,2.7-0.5,2.9
			c-0.4,0.3-0.8,0.3-1,0.3c-0.4,0-0.9,0-1.5-0.2l0-1c0.7,0.2,1.2,0.2,1.5,0.2c0.5,0,0.6,0,0.6-1.4v-0.3c0,0-0.1-0.1-0.2-0.1h-3.2v3
			h-0.9v-2.5c-1.5,1.1-2.9,1.8-4.2,2.1L459.5,48.6z M464.1,45.9v-0.8h-3c-0.1,0-0.1,0-0.1,0.1l-0.1,0.8H464.1z M466.5,41h-0.9
			c-0.2,0.5-0.5,0.9-0.8,1.2l-0.8-0.5c0.6-0.6,1-1.4,1.3-2.2l0.8,0.3l-0.1,0.3h3.5V41h-2.1c0.1,0.1,0.2,0.4,0.3,0.9l-0.8,0.2
			L466.5,41z M465.1,43.3v0.9h3v-0.8c0-0.1,0-0.1-0.1-0.1H465.1z"/>
		<path class="st0" d="M470.5,44.8c0-2.7,1-4.3,2.7-4.3c1.7,0,2.6,1.7,2.6,4.2c0,2.8-1,4.3-2.7,4.3
			C471.4,49.1,470.5,47.4,470.5,44.8z M474.5,44.8c0-2-0.4-3.2-1.4-3.2c-0.8,0-1.4,1.2-1.4,3.2c0,2.1,0.5,3.3,1.4,3.3
			C474.2,48.1,474.5,46.5,474.5,44.8z"/>
		<path class="st0" d="M476.6,44.8c0-2.7,1-4.3,2.7-4.3c1.7,0,2.6,1.7,2.6,4.2c0,2.8-1,4.3-2.7,4.3
			C477.6,49.1,476.6,47.4,476.6,44.8z M480.7,44.8c0-2-0.4-3.2-1.4-3.2c-0.8,0-1.4,1.2-1.4,3.2c0,2.1,0.5,3.3,1.4,3.3
			C480.4,48.1,480.7,46.5,480.7,44.8z"/>
		<path class="st0" d="M482.8,44.8c0-2.7,1-4.3,2.7-4.3c1.7,0,2.6,1.7,2.6,4.2c0,2.8-1,4.3-2.7,4.3
			C483.7,49.1,482.8,47.4,482.8,44.8z M486.9,44.8c0-2-0.4-3.2-1.4-3.2c-0.8,0-1.4,1.2-1.4,3.2c0,2.1,0.5,3.3,1.4,3.3
			C486.6,48.1,486.9,46.5,486.9,44.8z"/>
		<path class="st0" d="M494.1,49h-5v-0.8l0.9-0.9c1.7-1.8,2.7-2.9,2.7-4.2c0-0.8-0.4-1.5-1.4-1.5c-0.6,0-1.2,0.3-1.6,0.6l-0.4-0.9
			c0.5-0.4,1.3-0.8,2.2-0.8c1.7,0,2.5,1.2,2.5,2.4c0,1.5-1,2.8-2.5,4.2l-0.7,0.7v0h3.3V49z"/>
		<path class="st0" d="M500.3,49h-5v-0.8l0.9-0.9c1.7-1.8,2.7-2.9,2.7-4.2c0-0.8-0.4-1.5-1.4-1.5c-0.6,0-1.2,0.3-1.6,0.6l-0.4-0.9
			c0.5-0.4,1.3-0.8,2.2-0.8c1.7,0,2.5,1.2,2.5,2.4c0,1.5-1,2.8-2.5,4.2l-0.7,0.7v0h3.3V49z"/>
		<path class="st0" d="M504.6,44.5c0.9,0.2,1.7,0.9,1.7,2.1c0,1.4-1,2.5-2.9,2.5c-0.9,0-1.6-0.3-2-0.5l0.3-1c0.3,0.2,1,0.5,1.6,0.5
			c1.2,0,1.7-0.8,1.7-1.5c0-1.1-0.9-1.6-1.9-1.6h-0.6v-0.9h0.5c0.7,0,1.6-0.4,1.6-1.3c0-0.6-0.4-1.2-1.3-1.2c-0.6,0-1.2,0.3-1.5,0.5
			l-0.3-0.9c0.4-0.3,1.2-0.6,2.1-0.6c1.6,0,2.3,0.9,2.3,2C506.1,43.4,505.6,44.1,504.6,44.5L504.6,44.5z"/>
		<path class="st0" d="M508.8,46.4l-0.1,0.3l-0.8-0.2c0.2-0.5,0.3-1.2,0.5-2.1h-0.9v-0.9h3.8v0.9h-2.1l-0.3,1.2h2
			c0.1,0,0.2,0.1,0.2,0.2c0,1-0.4,3.5-1.3,3.8c-0.2,0.1-0.5,0.1-0.7,0.1c-0.3,0-0.7-0.1-1.3-0.4l0-0.9c1,0.3,1.2,0.4,1.3,0.4
			c0.1,0,0.2,0,0.3-0.1c0.4-0.2,0.7-1.6,0.7-2.1c0,0,0-0.1-0.1-0.1H508.8z M511.2,42.8c0,0.1,0,0.1-0.1,0.1h-3.2
			c-0.1,0-0.1,0-0.1-0.1v-2.7c0-0.1,0-0.1,0.1-0.1h3.2c0.1,0,0.1,0,0.1,0.1V42.8z M510.3,40.8h-1.7c0,0,0,0,0,0v1.2l0,0h1.7l0,0
			L510.3,40.8L510.3,40.8z M513.6,44.1h-1.1v1c0,1.9-0.4,3.5-1,4.7l-0.9-0.5c0.7-1.2,1-2.6,1-4v-3.6c0-0.2,0.1-0.2,0.2-0.2h1.6v-1.9
			h0.9v0.5h2.7V41h-2.7v0.6h2.6l0.7,0.4c0,0.7-0.2,1.3-0.4,1.9l-0.8-0.2c0.2-0.5,0.3-1,0.3-1.2c0-0.1,0-0.1-0.1-0.1h-2.2v0.8h1.8
			v0.8h-1.8v0.5c0,0.3,0.3,0.5,0.5,0.5h1.4c0.1,0,0.2,0,0.3-0.1c0,0,0.1-0.3,0.2-0.8l0.8,0.3c-0.1,0.7-0.2,1.1-0.3,1.1
			c-0.2,0.2-0.4,0.3-0.6,0.3h-2.2c-0.4,0-0.8-0.4-0.8-0.9V44.1z M513.4,46.3h0.9v0.9c0,0.2,0,0.5-0.1,0.7c-0.2,0.8-0.7,1.5-1.5,1.9
			l-0.6-0.7c1-0.5,1.3-1.2,1.4-1.9V46.3z M513.6,43.2v-0.8h-0.9c-0.1,0-0.1,0.1-0.1,0.1v0.7H513.6z M515,46.3h0.9v2
			c0,0.5,0.6,0.6,0.9,0.4c0,0,0.1-0.4,0.1-1.1l0.8,0.2c-0.1,0.9-0.2,1.4-0.2,1.5c-0.2,0.2-0.4,0.3-0.6,0.3h-1
			c-0.4,0-0.9-0.5-0.9-0.9V46.3z"/>
		<path class="st0" d="M535.6,43.4c-1.7-0.7-3.2-1.6-4.5-2.7c-0.9,0.9-2.4,1.9-4.6,2.9l-0.5-0.9c2.5-0.9,4.1-1.9,4.9-3l0.9,0.2
			l-0.1,0.2c1.2,1.1,2.8,1.9,4.5,2.5L535.6,43.4z M530.6,48.5v-1.8h-3.3v-0.9h3.3V44h-2.8v-0.9h6.7V44h-2.9v1.8h3.3v0.9h-3.3v1.8
			h4.5v0.9h-9.9v-0.9H530.6z"/>
		<path class="st0" d="M546.7,49.6c-1.5-0.4-2.9-0.9-4.2-1.7v2h-0.9v-2c-1.6,1-3,1.5-4.2,1.7l-0.4-0.9c1.5-0.2,2.9-0.7,4.1-1.5h-4
			v-0.9h4.5v-0.7h0.9v0.7h4.5v0.9h-4c1.2,0.8,2.6,1.3,4.2,1.5L546.7,49.6z M545.1,43.1c-0.6,0.5-1.2,1-1.7,1.3L547,45l-0.4,0.8
			l-4.3-0.8c-1.1,0.5-2.4,0.7-4,0.7c-0.4,0-0.8,0-1.2,0l0.1-1c0.7,0.1,1.3,0.1,1.8,0.1c0.3,0,0.7,0,1,0l0.5-0.1l-1.7-0.4l-0.1-0.5
			l1-0.7h-2.5v-0.9h3.5l0.9-1l0.7,0.5l-0.5,0.5h5.2v0.9H545.1z M541.6,40.3v-0.7h0.9v0.7h3.9l0.8,0.4c0,0.4-0.2,0.9-0.4,1.5
			l-0.9-0.2l0.2-0.6c0-0.1,0-0.1-0.1-0.1h-7.9c-0.1,0-0.1,0-0.1,0.1V42h-0.9v-1.5c0-0.1,0.1-0.2,0.2-0.2H541.6z M542.2,44.2
			c0.4-0.2,1-0.5,1.7-1.1h-3.1l-0.6,0.5c0,0,0,0,0,0.1c0,0,0,0.1,0.1,0.1L542.2,44.2z"/>
		<path class="st0" d="M549.9,47.8h-2v-0.8h2v-1.1h-1.8V45h0.9l-0.3-1.6h-0.8v-0.9h2v-1h-1.8v-0.9h1.8v-1h0.9v1h1.7v0.9h-1.7v1h2
			v0.9H552l-0.3,1.6h0.9v0.8h-1.8v1.1h2v0.8h-2v2h-0.9V47.8z M549.9,45h0.9l0.3-1.6h-1.5L549.9,45z M554.5,46.7
			c-0.2,0.7-0.9,2.4-1.6,3.1l-0.9-0.3c1-1.1,1.6-2.4,1.9-3.9l-1.2-2l0.8-0.4l0.6,0.9v-2.6H553v-0.9h1.1v-0.9h0.9v0.9h1.6
			c0.3,0,0.3,0.1,0.3,0.2c0,1.4-0.1,2.5-0.1,3.5c0,2.1,0.1,3.5,0.2,4c0,0.1,0.1,0.1,0.2,0.1c0.1-0.3,0.1-1,0.1-1.6l0.9,0.2
			c-0.1,1.7-0.3,2.8-1,2.8c-0.2,0-0.3-0.1-0.5-0.2l-0.2-0.3c-0.4-0.7-0.6-2.6-0.6-5.7c0-0.3,0-1.7,0-2c0-0.1-0.1-0.1-0.1-0.1h-0.9
			V44c0,0.4-0.1,0.8-0.2,1.4c0.5,0.8,0.8,1.5,1.1,2.2l-0.8,0.4L554.5,46.7z"/>
		<path class="st0" d="M560.4,45.5l-0.7,0.7l-0.8-0.6c1.1-0.9,1.9-2,2.4-3.2l0.8,0.4c-0.3,0.6-0.6,1.1-0.8,1.5v5.5h-0.9V45.5z
			 M558.9,42.5c0.9-0.8,1.5-1.7,1.9-2.8l0.9,0.3c-0.6,1.4-1.2,2.4-2,3.1L558.9,42.5z M566.4,43.7h-3.9v-0.9h6.6v0.9h-1.7v4.9
			c0,0.7-0.5,1.2-1.6,1.2c-0.6,0-1.3-0.1-2.1-0.4l0-1c0.5,0.1,1.5,0.4,2,0.4c0.4,0,0.8-0.1,0.8-0.5V43.7z M562.9,40.2h5.8v0.9h-5.8
			V40.2z"/>
		<path class="st0" d="M574.7,40.1h0.7v9.4h-0.7V40.1z"/>
		<path class="st0" d="M583.8,48.9l-0.3-0.7H582c-0.1,0-0.1,0-0.1-0.1v-1.7c0-0.1,0-0.1,0.1-0.1h8c0.1,0,0.1,0,0.1,0.1V48
			c0,0.1,0,0.1-0.1,0.1h-1.4l-0.3,0.7h2.7v0.8h-10v-0.8H583.8z M581.1,45.1h9.8v0.8h-9.8V45.1z M587.8,43.4h-1v-0.7h1v-0.5h-1v-0.7
			h1v-0.6h-1v-0.7h1v-0.6h0.8v0.6h0.9v0.7h-0.9v0.6h0.9v0.7h-0.9v0.5h0.9v0.7h-0.9v0.5h1.2c0.1,0,0.1,0,0.1-0.1v-4h0.8v4.5
			c0,0.2-0.1,0.4-0.4,0.4h-8.7c-0.2,0-0.4-0.1-0.4-0.4v-4.5h0.8v4c0,0.1,0,0.1,0.1,0.1h1.2v-0.5h-1v-0.7h1v-0.6h-0.9v-0.7h0.9v-0.5
			h-1v-0.7h1v-0.6h0.8v0.6h0.9v0.7h-0.9v0.5h0.9v0.7h-0.9v0.6h0.9v0.7h-0.9v0.5h1.3v-4.2h0.8v4.2h1.4V43.4z M589.2,46.9h-6.4
			c0,0,0,0,0,0v0.5l0,0h6.4l0,0L589.2,46.9L589.2,46.9z M584.7,48.9h2.7l0.3-0.6l0.1-0.1h-3.3L584.7,48.9z"/>
		<path class="st0" d="M594.2,44.9v4.8h-0.9v-4.1c-0.2,0.5-0.4,0.9-0.6,1.2l-0.9-0.3c0.6-1,1.1-2,1.3-3.1H592v-0.9h1.3V41l-1.1,0.1
			l-0.2-0.9c1.3-0.1,2.4-0.3,3.1-0.5l0.2,0.9c-0.2,0.1-0.6,0.2-1.1,0.3v1.7h1v0.9h-1v0.2c0.5,0.5,1,1,1.5,1.6l-0.7,0.6L594.2,44.9z
			 M601.3,49.1c-0.6-0.6-1-1.1-1.2-1.6c-0.1,1.4-0.7,2.4-1.9,2.4c-0.4,0-1.2-0.2-1.6-0.3v-1c0.7,0.2,1.2,0.3,1.5,0.3
			c0.2,0,0.6,0,0.8-0.7c0.2-0.4,0.3-0.9,0.3-1.5c-1.1,1-2.4,1.7-4,2.2l-0.4-0.9l0.8-0.2c1.2-0.4,2.3-1.1,3.4-2.2l-0.2-0.6
			c-0.9,0.8-2,1.5-3.1,1.9l-0.5-0.7l0.3-0.1c1.2-0.5,2.1-1.1,2.9-1.8l-0.3-0.4c-0.7,0.5-1.4,0.9-2.2,1.2l-0.4-0.8
			c1.4-0.4,2.1-1,2.4-1.3h-1.4V42h4.2v0.9h-1.7l-0.3,0.3c0.8,0.9,1.2,2.2,1.2,2.2c0,0,0,0,0,0.1c0.4,1.1,1.2,2.1,2.2,3.2L601.3,49.1
			z M598.1,40.4v-0.7h0.9v0.7h2.3l0.8,0.4c0,0.5-0.2,1.1-0.4,1.7l-0.8-0.2c0.2-0.5,0.2-0.7,0.2-0.9c0-0.1,0-0.1-0.1-0.1h-4.6
			c-0.1,0-0.1,0-0.1,0.1v1.1h-0.8v-1.8c0-0.1,0.1-0.2,0.2-0.2H598.1z M600,44.7c0.5-0.5,0.9-1,1.1-1.4l0.7,0.6
			c-0.3,0.4-0.6,0.9-1.1,1.4L600,44.7z"/>
		<path class="st0" d="M610.2,48.3h-3.1l0.3,0.7c-1,0.5-1.9,0.8-2.8,0.8c0-0.1,0-0.2,0-0.3c0-0.2,0-0.4-0.1-0.6
			c0.7,0,1.4-0.3,2.1-0.6h-1.5c-0.1,0-0.1,0-0.1-0.1V45c0-0.1,0-0.1,0.1-0.1h3v-0.4h-3.7v0.1c0,1.9-0.2,3.6-0.6,5.1l-0.9-0.3
			c0.4-1.5,0.6-2.5,0.6-5.1v-3.9c0-0.2,0.1-0.2,0.2-0.2h4.3v-0.5h0.9v0.5h3.9V41h-1.9v0.5h1.5v0.7h-1.5v0.8c0,0.2-0.1,0.4-0.4,0.4
			h-4.1c-0.2,0-0.4-0.1-0.4-0.4v-0.8h-1.4v-0.7h1.4V41h-1.7c-0.1,0-0.1,0-0.1,0.1v2.6h8.4v0.8h-3.8v0.4h3c0.1,0,0.1,0,0.1,0.1v3.2
			c0,0.1,0,0.1-0.1,0.1h-1.4c0.6,0.2,1.4,0.4,2.2,0.7l-0.3,0.8c-1-0.4-1.9-0.7-2.6-0.8L610.2,48.3z M606,46.2h2.2v-0.5H606
			c0,0,0,0,0,0V46.2z M608.2,47H606v0.5l0,0h2.2V47z M610.2,41.4V41h-3.1v0.5H610.2z M607.1,42.1c0,0.4,0,0.4,0.1,0.4h2.8
			c0.1,0,0.1,0,0.1-0.4H607.1z M609.1,46.2h2.2v-0.5l0,0h-2.2V46.2z M611.3,47h-2.2v0.6h2.2l0,0V47z"/>
		<path class="st0" d="M618.6,43.7v-1.9h-3c-0.3,0.5-0.6,1-1,1.3l-0.8-0.5c0.8-0.9,1.4-1.8,1.7-2.9l0.9,0.3l-0.4,0.9h2.5v-1.2h1v1.2
			h3.8v0.9h-3.8v1.9h4.2v0.9h-9.7v-0.9H618.6z M616.1,49.2v0.5h-1v-4.1c0-0.1,0-0.2,0.2-0.2h7.5c0.1,0,0.2,0.1,0.2,0.2v4.1h-1v-0.5
			H616.1z M616.1,48.2h5.9v-1.7c0-0.1,0-0.1-0.1-0.1h-5.7c-0.1,0-0.2,0.1-0.1,0.1V48.2z"/>
	</g>
</g>
<g>
	<g>
		<g>
			<path class="st0" d="M3.3,13.5v-5H0.8V6.7h2.5V3.2h1.9v3.5h2.2v1.9H5.2v3.9l1.2-0.8l1,1.6l-2.3,1.4v6.6c0,0.6-0.3,2.1-2.1,2.1
				c-0.6,0-1.4-0.1-2.3-0.4l0-2l1.1,0.4c0.3,0.1,0.5,0.1,0.7,0.1c0.5,0,0.7-0.2,0.7-0.8v-5.1l-1.8,0.9l-1-1.6L3.3,13.5z M6.7,21.6
				c2.2-0.2,3.9-0.6,5.1-0.9l-3.5-1.2L8,18.4l2.3-2.5H7.3v-1.8h4.4l1.1-2H7.5v-1.8h3.3C10.5,9,10.3,7.7,10,6.5H8.1V4.7h5.1V2.9h1.9
				v1.8h5.4v1.8h-2.1l-0.9,3.7h3.5v1.8h-6.4l-1,2h7.4v1.8h-2.3c-0.6,1.7-1.5,3.1-2.8,4.3l5.2,1.7l-1.1,1.6l-5.8-2
				c-1.9,1-4.3,1.7-7.1,2L6.7,21.6z M14.1,19.5c0.7-0.6,2.1-1.7,2.8-3.7h-4.2c-0.6,0.8-1.2,1.5-2,2.3c-0.1,0-0.1,0.1-0.1,0.1
				c0,0,0.1,0.1,0.2,0.1L14.1,19.5z M11.9,6.5c0.4,1.6,0.6,2.9,0.8,3.7h3C16,9,16.4,7.8,16.6,6.5H11.9z"/>
			<path class="st0" d="M22.7,8.6c1.7-1.6,2.9-3.5,3.7-5.6l1.8,0.7c-1,2.7-2.3,4.7-3.8,6L22.7,8.6z M25.3,15.1l-1.1,1.1L22.7,15
				c1.9-1.8,3.4-3.9,4.3-6.2l1.7,0.7c-0.5,1.1-1,2.1-1.5,2.9v10.9h-1.9V15.1z M38.2,15.6H29v-1.9h9.2v-2.4H29V9.4h5.8V6.9h-5.2V5
				h5.2V2.9h1.9V5h5.5v1.9h-5.5v2.5h6.5v1.9h-3.1v2.4h3.1v1.9h-3.1v5.6c0,0.6-0.2,2.3-2.8,2.3c-0.9,0-2.1-0.2-3.5-0.6l0-2l1,0.3
				c0.9,0.2,1.7,0.3,2.2,0.3c1,0,1.2-0.4,1.2-0.9V15.6z M33,20.6c-0.7-1.1-1.5-2.1-2.4-3l1.5-1.2c0.7,0.7,1.6,1.8,2.5,3.1L33,20.6z"
				/>
			<path class="st0" d="M64.8,8.2c-1.6-0.3-3.6-0.9-5.8-1.6v1.2h-7.5V6.6c-1.7,0.6-3.6,1.1-5.9,1.5L45,6.4c4.9-0.6,8.3-1.8,10.1-3.5
				l1.6,0.7l-0.2,0.2c2.8,1.4,5.8,2.3,9.1,2.7L64.8,8.2z M63.7,14.1c0,0.2-0.1,0.2-0.2,0.2H46.9c-0.2,0-0.2-0.1-0.2-0.2V8.9
				c0-0.2,0.1-0.2,0.2-0.2h16.5c0.2,0,0.2,0.1,0.2,0.2V14.1z M49.9,22.5v0.8h-1.8v-7.5c0-0.2,0.1-0.3,0.3-0.3h13.8
				c0.2,0,0.4,0.1,0.4,0.4v7.5h-1.8v-0.8H49.9z M51.6,10.4c0.4,0.6,0.8,1.4,1.2,2.3h1.6v-2.4h-5.9c-0.1,0-0.1,0-0.1,0.1v2.3l0.1,0.1
				h2.4L50,11.3L51.6,10.4z M49.9,18.3h10.8v-1c0-0.2-0.1-0.2-0.3-0.2H50.1c-0.2,0-0.3,0.1-0.2,0.2V18.3z M60.7,19.8H49.9V21h10.8
				V19.8z M57.9,6.2l-2.7-1.3c-0.5,0.3-1.3,0.8-2.5,1.3H57.9z M60.6,11.4l-0.8,1.3h2.1l0.1-0.1v-2.3l-0.1-0.1h-5.8v2.4h1.5
				c0.7-0.9,1.2-1.7,1.5-2.3L60.6,11.4z"/>
			<path class="st0" d="M74.4,7c-0.8-0.6-1.6-1.3-2.4-2c-0.8,1-2,1.9-3.5,2.9l-1.5-1.2c2.2-1.2,3.7-2.4,4.3-3.5L73,3.4l-0.2,0.3
				c0.9,0.7,1.8,1.3,2.8,1.9L74.4,7z M74.4,22.2c-2.8,0.6-5.1,1-6.8,1.2l-0.4-1.8l1.1-0.1V9c0-0.3,0.2-0.5,0.5-0.5h2.2V6.7h1.7v1.8
				h2.1c0.4,0,0.5,0.2,0.5,0.5v8.2c0,0.4-0.2,0.6-0.6,0.6h-4.7v3.5l3.7-0.7L73,18.9l1.6-0.6c1,2.5,1.6,4,1.8,4.6l-1.6,0.5L74.4,22.2
				z M69.9,12.2h3.6v-1.6c0-0.3-0.2-0.4-0.4-0.4h-2.7c-0.3,0-0.4,0.1-0.4,0.4V12.2z M73.5,13.9h-3.6V16h3.3c0.2,0,0.3-0.1,0.3-0.3
				V13.9z M80.3,4.6V3.2h1.9v1.4h4l1.5,0.8c-0.1,1-0.4,2.2-0.9,3.6l-1.6-0.5c0.4-1.1,0.5-1.7,0.5-1.9c0-0.2-0.1-0.3-0.2-0.3h-7.8
				c-0.1,0-0.2,0.1-0.2,0.2v2.4h-1.7V4.9c0-0.2,0.1-0.3,0.3-0.3H80.3z M86.9,22.5c0,0.4-0.2,0.6-0.6,0.6h-8.5
				c-0.4,0-0.6-0.2-0.6-0.6V9.4c0-0.3,0.2-0.5,0.5-0.5h8c0.4,0,0.5,0.2,0.5,0.5v5c0,0.4-0.2,0.5-0.5,0.5H79v1.6h7.3
				c0.4,0,0.6,0.2,0.6,0.6V22.5z M79.2,10.6c-0.2,0-0.2,0.1-0.2,0.2v2.4h5.2c0.2,0,0.3-0.1,0.3-0.3v-2.1c0-0.2-0.1-0.2-0.3-0.2H79.2
				z M85,18.4c0-0.1-0.1-0.2-0.2-0.2H79v2.9c0,0.2,0.1,0.2,0.2,0.2h5.6c0.1,0,0.2-0.1,0.2-0.2V18.4z"/>
			<path class="st0" d="M98.8,3.8h1.4v19h-1.4V3.8z"/>
			<path class="st0" d="M116.2,12.5v11h-1.8V13.3c-0.4,1.2-1,2.5-1.6,3.9l-1.6-0.8c1.3-2.8,2.2-5.2,2.8-7.2h-2.5V7.4h2.9V3.1h1.8
				v4.4h2.1v1.9h-2.1v0.5c1,1.2,2,2.5,3,3.9l-1.5,1.2L116.2,12.5z M117,16.4c1.8-1,3.4-2.2,4.8-3.9V3.3h1.8v10.6
				c0,0.6-0.1,1.5-0.3,2.9c-0.6,2.8-2.1,5-4.4,6.6l-1.4-1.3c2.6-1.4,4-3.8,4.3-7.2c-1.2,1.2-2.4,2.2-3.4,2.8L117,16.4z M119.6,10.6
				c-0.3-1.8-0.8-3.7-1.5-5.6l1.7-0.4c0.7,2.1,1.2,4.1,1.5,5.8L119.6,10.6z M130.8,17c-1-1-2.3-2-3.7-3.1v6.3c0,0.6,0.4,1,1,1h1.3
				c0.2,0,0.4-0.1,0.5-0.2c0.1-0.1,0.2-0.9,0.2-2.5l1.8,0.3c-0.1,2.1-0.2,3.3-0.4,3.5c-0.4,0.5-0.9,0.7-1.3,0.7h-3.1
				c-0.8,0-1.8-0.8-1.8-1.8v-18h1.8V8c1-1.2,1.9-2.3,2.5-3.3l1.5,1c-1,1.5-2.3,3.1-4,4.9v1.3c1.7,1.2,3.3,2.4,4.8,3.7L130.8,17z"/>
			<path class="st0" d="M136.2,22.6v0.9h-1.8V4.2c0-0.4,0.2-0.6,0.6-0.6h17.4c0.4,0,0.6,0.2,0.6,0.6v19.3h-1.8v-0.9H136.2z
				 M137.2,8.7h5.7v-1h-5.1V6.3h5.1v-1h-6.5c-0.2,0-0.3,0.1-0.2,0.3v15.3h15.1V5.5c0-0.2-0.1-0.2-0.2-0.2h-6.4v1h5.2v1.5h-5.2v1h5.8
				v1.5h-13.2V8.7z M149.6,20.6c-3.2-0.7-5.2-2.4-6-5h-0.8v4.7H141V17c-1.1,1.1-2.2,1.9-3.1,2.4l-1.2-1.3c1.4-0.6,2.6-1.5,3.7-2.5
				h-2.1c-0.1,0-0.2-0.1-0.2-0.2v-4c0-0.2,0.1-0.2,0.2-0.2h11c0.1,0,0.2,0.1,0.2,0.2v4c0,0.2-0.1,0.2-0.2,0.2h-4
				c0.9,1.9,2.6,3,5.2,3.4L149.6,20.6z M147.7,12.6h-8c-0.1,0-0.1,0-0.1,0.1v1.4l0.1,0.1h8l0.1-0.1L147.7,12.6L147.7,12.6z
				 M147.8,16.9c0.9-0.5,1.6-1,2.1-1.4l0.9,1.3c-0.6,0.5-1.3,1-2.2,1.5L147.8,16.9z"/>
			<path class="st0" d="M164.8,11.5h-5.9c-0.1,0-0.2,0-0.2,0.2v10.5h-2v-12c0-0.3,0.2-0.5,0.5-0.5h7.6V6.9h-9V5h9V3.1h2V5h9v1.9h-9
				v2.7h7.7c0.3,0,0.5,0.1,0.5,0.5v9.8c0,1.5-1.1,2.4-3.2,2.4c-0.8,0-1.8-0.1-2.9-0.4l0-2.2c1.2,0.3,2.1,0.5,2.7,0.5
				c1.1,0,1.5-0.6,1.5-1.1v-7.5c0-0.1-0.1-0.2-0.2-0.2h-6.1v11.9h-2V11.5z"/>
			<path class="st0" d="M180.3,17.4v1h-2V7.5c0-0.5,0.2-0.7,0.7-0.7h8.1V3.1h1.9v3.7h7.9c0.5,0,0.7,0.2,0.7,0.7v10.8h-2v-1H189v6.1
				h-1.9v-6.1H180.3z M180.3,15.4h6.8V8.8h-6.5c-0.2,0-0.3,0.1-0.3,0.3V15.4z M189,15.4h6.7V9c0-0.2-0.1-0.3-0.3-0.3H189V15.4z"/>
			<path class="st0" d="M211.4,13v3.7h-1.6v-3.8c-0.4,0.7-0.8,1.3-1.2,1.8l-0.9-0.5v0.1c0,3.4-0.7,6.2-2,8.4l-1.6-0.7
				c0.9-1.7,1.5-3.3,1.6-4.5c-1.3,0.9-3,1.7-4.9,2.5l-1-1.6l2.1-0.8V9.6H200V7.9h1.9V3.2h1.7v4.7h1.6v1.7h-1.6v7.2l1.5-1l0.7,0.9
				l0.2-2.9V4c0-0.3,0.2-0.5,0.5-0.5H220v1.7h-12.1c-0.2,0-0.2,0.1-0.2,0.2v3.7h2.1V8.1l-1.2,0.2l-0.4-1.6c1.7-0.2,3-0.6,4-0.9
				l0.5,1.5l-1.3,0.4v1.4h1.6v1.6h-1.6v0c0.7,0.7,1.4,1.5,2.1,2.2l-1.2,1.1L211.4,13z M209,21.2v-3.7h1.7v3.7h1.9v-5.3h1.7v1.8h4.4
				v1.7h-4.4v1.8h5.9v1.7h-12.9v-1.7H209z M208.6,12l0.7-1.2h-1.6v2.5L208.6,12z M218.8,15.2c-0.4-0.5-0.9-1.1-1.4-2v3.3h-1.6v-3.6
				c-0.1,0.3-0.9,1.5-1.5,2.1l-1.5-0.8c1-1,1.9-2.2,2.5-3.6h-1.5V9h2V8l-1.5,0.2l-0.4-1.6c2.2-0.3,3.8-0.6,4.9-1l0.4,1.6l-1.8,0.5V9
				h2.4v1.6h-2c0.7,1.4,1.6,2.7,2.7,3.7L218.8,15.2z"/>
			<path class="st0" d="M223.1,5.5h-0.8V3.8h19.9v1.7H225v15c0,0.3,0.2,0.5,0.5,0.5H242v1.8h-18c-0.6,0-0.9-0.3-0.9-0.9V5.5z
				 M233.2,19.8c0,0.2-0.1,0.3-0.2,0.3h-6.5c-0.2,0-0.2-0.1-0.2-0.3v-6.5c0-0.1,0.1-0.2,0.2-0.2h6.5c0.2,0,0.2,0.1,0.2,0.2V19.8z
				 M239.9,11.6c0,0.2-0.1,0.3-0.2,0.3h-12.2c-0.2,0-0.2-0.1-0.2-0.3V6.9c0-0.1,0.1-0.2,0.2-0.2h12.2c0.2,0,0.2,0.1,0.2,0.2V11.6z
				 M231.4,14.7H228c-0.1,0-0.1,0-0.1,0.1v3.6l0.1,0.1h3.4l0.1-0.1L231.4,14.7L231.4,14.7z M238,8.3H229c-0.1,0-0.1,0-0.1,0.1v1.8
				l0.1,0.1h8.9l0.1-0.1L238,8.3L238,8.3z M241.4,19.8c0,0.2-0.1,0.2-0.3,0.2h-6.4c-0.2,0-0.2-0.1-0.2-0.2v-6.4
				c0-0.1,0.1-0.2,0.2-0.2h6.4c0.2,0,0.3,0.1,0.3,0.2V19.8z M239.6,14.7h-3.3c-0.1,0-0.1,0-0.1,0.1v3.5l0.1,0.1h3.3l0.1-0.1
				L239.6,14.7L239.6,14.7z"/>
			<path class="st0" d="M246.3,8.8L246,6h-1.4V4.4h3.7V3.1h1.9v1.3h3.6V6h-1.4l-0.4,2.8h2.3v1.7h-10.1V8.8H246.3z M246.5,19.9v3.5
				h-1.7V12.1c0-0.3,0.1-0.4,0.4-0.4h8.3c0.3,0,0.4,0.1,0.4,0.4v9.3c0,1.5-1.2,2-2.7,2c-0.6,0-1.4-0.1-2.3-0.3l0-1.9
				c0.9,0.2,1.6,0.4,2.1,0.4c1.2,0,1.2-0.8,1.2-0.9v-0.8H246.5z M246.5,15h5.7v-1.5c0-0.1,0-0.1-0.2-0.1h-5.4c-0.1,0-0.1,0-0.1,0.1
				V15z M246.5,18.2h5.7v-1.5h-5.7V18.2z M248,8.8h2.3c0.2-1.1,0.4-2.1,0.4-2.8h-3L248,8.8z M256.5,20.2c0,0.6,0,0.8,0.4,1.1
				c0.3,0.2,1.3,0.3,3.1,0.4c1.4,0,2.3-0.1,2.5-0.3c0.4-0.4,0.5-1.3,0.5-2l1.7,0.3c0.1,3.3-1.1,3.9-4.4,3.9c-2.6,0-4.1-0.2-4.7-0.7
				c-0.6-0.5-0.9-1.1-0.9-1.8V10.9c0-0.3,0.2-0.4,0.5-0.4h6.3c0.2,0,0.3-0.1,0.3-0.3V8.9c0-0.1-0.1-0.2-0.2-0.2h-6.2
				c-0.4,0-0.6-0.2-0.6-0.7V3.2h1.7v1h7.3v1.6h-7.3v1.1c0,0.2,0.1,0.3,0.3,0.3h6.3c0.3,0,0.5,0.2,0.5,0.4v3.7c0,0.5-0.2,0.7-0.8,0.7
				h-6.2c-0.1,0-0.1,0-0.1,0.1v1.2h6.3v1.4h-6.3v1.3h6.3v1.4h-6.3v1.2h6.3v1.4H256.5z"/>
			<path class="st0" d="M268.9,23.2H267V4.3c0-0.4,0.2-0.7,0.7-0.7h17.7c0.4,0,0.7,0.2,0.7,0.7v16.8c0,1.2-0.6,2.3-2.7,2.3
				c-0.7,0-1.6-0.1-2.7-0.3l-0.1-2.1c1.1,0.4,1.9,0.5,2.4,0.5c1,0,1.2-0.8,1.2-1V5.7c0-0.1-0.1-0.2-0.2-0.2h-15
				c-0.1,0-0.2,0-0.2,0.2V23.2z M275.6,18.7V12h-6v-1.8h8.3c0.9-1.7,1.5-3.1,1.8-4.3l1.8,0.7c-0.3,1.1-0.8,2.2-1.4,3.5h3.5V12h-6.1
				v6.7h2.8c0.2,0,0.3-0.1,0.3-0.3v-5.1h1.9v6.3c0,0.6-0.3,0.9-0.9,0.9h-10.2c-0.6,0-0.9-0.3-0.9-0.9v-6.3h1.9v5.1
				c0,0.2,0.1,0.3,0.3,0.3H275.6z M273.2,9.9c-0.6-1.3-1.1-2.3-1.6-2.9l1.6-1c0.6,0.8,1.2,1.8,1.7,3L273.2,9.9z"/>
			<path class="st0" d="M296.3,13.3c2.1-0.8,3.9-1.8,5.4-2.9c-0.8-0.8-1.7-1.9-2.5-3.1c-0.5,0.6-1.1,1.2-1.7,1.8l-1.2-1.3v2.9
				c0,0.2-0.1,0.3-0.3,0.3h-2.1v3.3h2.4V16h-2.4v4.1c1-0.3,1.8-0.5,2.4-0.8l0.6,1.7c-1.6,0.7-4.3,1.4-7.9,2.1l-0.6-1.7l0.9-0.2v-8.1
				h1.7v7.7l1.2-0.3V11h-2.7c-0.2,0-0.2-0.1-0.2-0.3V3.8c0-0.2,0.1-0.2,0.2-0.2h6.6c0.2,0,0.3,0.1,0.3,0.2v4c1.7-1.4,2.2-2,3.2-4.7
				l1.8-0.1L301,3.7h5.5l1.4,0.8c-0.9,2.4-2.1,4.3-3.6,5.9c1.2,1,2.8,1.8,4.7,2.6l-1.2,1.5c-1.7-0.8-3.3-1.8-4.8-3
				c-1.5,1.1-3.4,2.2-5.6,3.2L296.3,13.3z M294.5,5.3H291l-0.1,0.1v3.9l0.1,0.1h3.5c0.1,0,0.1,0,0.1-0.1L294.5,5.3L294.5,5.3z
				 M299.5,22.3v1h-1.8v-7.9c0-0.2,0.1-0.3,0.3-0.3h9.5c0.3,0,0.4,0.1,0.4,0.4v7.8h-1.8v-1H299.5z M299.5,20.5h6.6v-3.4
				c0-0.2-0.1-0.2-0.3-0.2h-6.1c-0.2,0-0.3,0.1-0.2,0.2V20.5z M300.3,5.6c0.9,1.5,1.8,2.7,2.7,3.6c1-1.2,1.8-2.3,2.4-3.3
				c0-0.1,0-0.2,0-0.3c0-0.1,0-0.2-0.2-0.2h-4.9L300.3,5.6z"/>
			<path class="st0" d="M310.9,20.1h19.9v2.1h-19.9V20.1z M312,4.2h17.7v2.1H312V4.2z"/>
			<path class="st0" d="M334,17.9V4.4c0-0.3,0.1-0.4,0.5-0.4c2.1,0,4.3-0.4,6.4-0.9l0.8,1.7c-1.6,0.4-3.5,0.8-5.7,0.8
				c-0.1,0-0.1,0.1-0.1,0.2v1.9h4.7v1.9h-4.7v2.8h4.6v1.9h-4.6v3.3c2.7-0.4,4.5-0.8,5.3-1l0.4,1.8c-0.8,0.2-2.7,0.6-5.8,1.1v3.8H334
				v-3.6l-1,0.1l-0.4-1.9L334,17.9z M352,23.5c-2-0.8-3.8-1.8-5.4-3c-1.9,1.3-3.9,2.3-5.9,2.9l-1.1-1.8c1.9-0.5,3.7-1.3,5.6-2.3
				c-1.1-1-2.2-2.3-3.3-3.8l1.4-1.1c1.2,1.7,2.3,2.9,3.3,3.9c2.6-2.1,3.4-4.3,3.4-4.3c0-0.2-0.2-0.2-0.4-0.2h-7.8v-1.9h9.3l1,1
				c-0.8,2.3-1.8,4.1-2.9,5.2l-1.4,1.3c1.4,0.9,3.1,1.7,5.2,2.4L352,23.5z M344.9,5.4c-0.1,0-0.2,0.1-0.2,0.2v1
				c0,0.4-0.2,1.2-0.5,2.4c-0.4,0.9-1.2,1.7-2.3,2.4l-1.3-1.5c1.1-0.5,2.3-1.2,2.3-3.9V4l0.1-0.3l0.3-0.1h6.5l0.3,0.1l0.1,0.3v4.4
				c0,0.7,0.3,0.8,0.7,0.8l0.5-0.1c0.1,0,0.2-0.3,0.2-0.8V6.4l1.7,0.2l-0.1,3c-0.1,1.1-1.2,1.5-1.7,1.5h-1.3c-1.4-0.1-1.8-1-1.8-1.8
				V5.7c0-0.2-0.1-0.3-0.3-0.3H344.9z"/>
			<path class="st0" d="M359.7,21.7V7.4h0l-2.8,1.5l-0.6-1.9l3.8-2h2.2v16.7H359.7z"/>
			<path class="st0" d="M377.6,21.7h-10.1v-1.6l1.7-1.8c3.5-3.6,5.5-5.9,5.5-8.4c0-1.6-0.8-3-2.9-3c-1.3,0-2.4,0.7-3.2,1.3l-0.8-1.8
				c1-0.8,2.6-1.5,4.5-1.5c3.4,0,4.9,2.3,4.9,4.8c0,3.1-2.1,5.6-5,8.5l-1.4,1.4v0h6.7V21.7z"/>
			<path class="st0" d="M387.9,14.2c-0.8,1-2,1.5-3.5,1.5c-2.7,0-4.6-2.1-4.6-5.1c0-3.1,2.1-5.9,5.4-5.9c3.4,0,5.3,2.9,5.3,7
				c0,5.3-2.6,9.5-7.6,10c-0.7,0.1-1.4,0.1-1.8,0.1v-2.1c0.5,0,1,0,1.6-0.1C386.4,19.3,387.6,16.2,387.9,14.2L387.9,14.2z
				 M382.4,10.5c0,2,1,3.4,2.7,3.4c1.2,0,2.2-0.7,2.7-1.6c0.1-0.2,0.2-0.5,0.2-1c0-2.7-1-4.7-2.8-4.7
				C383.5,6.7,382.4,8.2,382.4,10.5z"/>
			<path class="st0" d="M394.7,16.5l-0.2,0.6l-1.6-0.5c0.3-1.1,0.7-2.5,1.1-4.3h-1.7v-1.7h7.7v1.7h-4.2l-0.6,2.4h4
				c0.3,0,0.4,0.1,0.4,0.4c0,2-0.8,7-2.5,7.7c-0.5,0.2-0.9,0.3-1.4,0.3c-0.6,0-1.4-0.3-2.7-0.8l0.1-1.9c2,0.6,2.4,0.7,2.6,0.7
				c0.2,0,0.4,0,0.6-0.2c0.7-0.4,1.5-3.1,1.5-4.3c0-0.1-0.1-0.1-0.2-0.1H394.7z M399.6,9.3c0,0.2-0.1,0.3-0.3,0.3h-6.4
				c-0.2,0-0.2-0.1-0.2-0.3V3.9c0-0.2,0.1-0.2,0.2-0.2h6.4c0.2,0,0.3,0.1,0.3,0.2V9.3z M397.8,5.3h-3.3c-0.1,0-0.1,0-0.1,0.1v2.5
				l0.1,0.1h3.3l0.1-0.1L397.8,5.3L397.8,5.3z M404.4,11.9h-2.1v2c0,3.9-0.7,7.1-2.1,9.5l-1.7-0.9c1.4-2.5,2.1-5.2,2.1-8V7.3
				c0-0.3,0.1-0.5,0.5-0.5h3.3V3h1.8v1h5.4v1.7H406v1.2h5.3l1.4,0.9c0,1.3-0.3,2.6-0.9,3.9l-1.7-0.4c0.3-0.9,0.6-1.9,0.6-2.5
				c0-0.1-0.1-0.2-0.2-0.1h-4.4v1.7h3.6v1.7h-3.6v1c0,0.6,0.5,0.9,1,1h2.7c0.1,0,0.3-0.1,0.5-0.2c0,0,0.2-0.6,0.4-1.6l1.6,0.6
				c-0.3,1.4-0.5,2.1-0.6,2.3c-0.4,0.4-0.8,0.7-1.2,0.7h-4.4c-0.8,0-1.7-0.8-1.7-1.7V11.9z M403.9,16.3h1.8v1.8
				c0,0.5-0.1,0.9-0.2,1.5c-0.4,1.7-1.4,3-3,3.9l-1.3-1.4c2.1-0.9,2.7-2.4,2.7-3.9V16.3z M404.4,10.2V8.6h-1.8
				c-0.2,0-0.3,0.1-0.3,0.3v1.4H404.4z M407.2,16.4h1.8v4.1c0,1,1.2,1.2,1.8,0.8c0,0,0.2-0.8,0.3-2.1l1.7,0.4
				c-0.2,1.9-0.3,2.9-0.5,3c-0.4,0.4-0.8,0.7-1.2,0.7H409c-0.9,0-1.7-0.9-1.7-1.8V16.4z"/>
		</g>
		<g>
			<g>
				<path class="st1" d="M424.3,14.5c0-2.5,0.7-4.8,2-7c1.3-2.2,2.9-3.6,4.9-4.3v3.6c-1,0.7-1.8,1.8-2.5,3.2c-0.6,1.4-1,2.9-1,4.5
					c0,1.6,0.3,3.1,1,4.5c0.6,1.4,1.5,2.5,2.5,3.2v3.6c-1.9-0.7-3.5-2.1-4.9-4.3C425,19.3,424.3,17,424.3,14.5z"/>
				<path class="st1" d="M434.4,22.3c-1.2-1.2-1.7-2.6-1.7-4.4v-6.7c0-1.8,0.6-3.3,1.7-4.5c1.2-1.2,2.6-1.8,4.4-1.8
					c1.8,0,3.3,0.6,4.4,1.8c1.2,1.2,1.7,2.7,1.7,4.5v6.7c0,1.8-0.6,3.3-1.7,4.4c-1.2,1.2-2.6,1.7-4.4,1.7
					C437.1,24.1,435.6,23.5,434.4,22.3z M440.9,20.1c0.5-0.6,0.7-1.3,0.7-2.3v-6.7c0-1-0.2-1.7-0.7-2.3c-0.5-0.6-1.2-0.8-2.1-0.8
					c-0.9,0-1.6,0.3-2.1,0.8c-0.5,0.6-0.7,1.3-0.7,2.3v6.7c0,1,0.2,1.7,0.7,2.3c0.5,0.6,1.2,0.8,2.1,0.8
					C439.7,21,440.4,20.7,440.9,20.1z"/>
				<path class="st1" d="M454.4,9.8c0-0.6-0.1-1-0.4-1.3c-0.3-0.3-0.7-0.5-1.2-0.5c-0.5,0-0.9,0.2-1.2,0.4c-0.3,0.3-0.5,0.7-0.5,1.2
					h-3.3c0-1.4,0.5-2.5,1.4-3.4c0.9-0.9,2.1-1.3,3.4-1.3c1.5,0,2.7,0.5,3.6,1.4c1,0.9,1.4,2.1,1.4,3.5c0,1.3-0.5,2.4-1.5,3.2
					l-0.1,0c0.4,0.2,0.7,0.4,1,0.7c1.2,1,1.8,2.2,1.8,3.8c0,1.9-0.6,3.4-1.8,4.6c-1.2,1.2-2.7,1.8-4.5,1.8c-1.8,0-3.2-0.5-4.3-1.6
					c-1.1-1.1-1.8-2.5-1.9-4.3h3.3c0.1,0.9,0.4,1.6,0.9,2.1c0.5,0.5,1.2,0.7,2,0.7c0.9,0,1.6-0.3,2.1-0.8c0.5-0.5,0.8-1.3,0.8-2.2
					c0-0.9-0.3-1.6-0.9-2.2c-0.6-0.6-1.3-0.8-2.3-0.8h-1v-3.1h0.8c0.7,0,1.2-0.2,1.6-0.5C454.2,11,454.4,10.5,454.4,9.8z"/>
				<path class="st1" d="M467.5,14.5c0,2.5-0.7,4.8-2,7c-1.3,2.2-2.9,3.6-4.9,4.3v-3.6c1-0.7,1.8-1.8,2.5-3.2c0.6-1.4,1-2.9,1-4.5
					c0-1.6-0.3-3.1-1-4.5c-0.6-1.4-1.5-2.5-2.5-3.2V3.2c1.9,0.7,3.5,2.1,4.9,4.3C466.8,9.7,467.5,12,467.5,14.5z"/>
			</g>
			<path class="st1" d="M490.7,8.5c0,2-0.8,4-2.3,5.8c-1.2,1.4-3.9,4-8.1,7.6h10.4v4.5h-17v-2.2v-2.2c5.7-5.2,9.1-8.5,10.4-9.9
				c1.3-1.4,1.9-2.8,1.9-4.1c0-1.1-0.4-2.1-1.1-2.8c-0.7-0.7-1.7-1.1-2.9-1.1c-1.2,0-2.2,0.4-2.9,1.3c-0.7,0.9-1.1,2.1-1.1,3.7h-4.7
				c0-2.9,0.8-5.2,2.5-7c1.6-1.7,3.8-2.6,6.5-2.6c2.4,0,4.4,0.8,6,2.5C489.9,3.7,490.7,5.9,490.7,8.5z"/>
			<path class="st1" d="M506.8,11.8c0.5,0.3,1,0.7,1.5,1.1c1.7,1.5,2.5,3.4,2.5,5.6c0,2.4-0.8,4.4-2.5,6.1c-1.7,1.6-3.8,2.4-6.3,2.4
				c-2.5,0-4.6-0.8-6.3-2.4c-1.7-1.6-2.5-3.6-2.5-6.1c0-2.2,0.8-4.1,2.5-5.6c0.5-0.4,0.9-0.8,1.5-1.1l-0.4-0.3
				c-1.4-1.3-2.1-2.8-2.1-4.7c0-2,0.7-3.7,2.1-5.1c1.4-1.4,3.1-2.1,5.2-2.1c2.1,0,3.8,0.7,5.2,2.1c1.4,1.4,2.1,3.1,2.1,5.1
				c0,1.9-0.7,3.4-2.1,4.7L506.8,11.8z M502,14.3c-1.1,0-2.1,0.4-2.8,1.2c-0.8,0.8-1.1,1.8-1.1,2.9c0,1.2,0.4,2.1,1.1,2.9
				c0.8,0.8,1.7,1.2,2.8,1.2c1.1,0,2.1-0.4,2.8-1.2c0.8-0.8,1.1-1.8,1.1-2.9c0-1.2-0.4-2.2-1.1-3C504.1,14.7,503.1,14.3,502,14.3z
				 M502,9.7c0.8,0,1.5-0.3,2-0.8c0.5-0.5,0.8-1.2,0.8-2.1s-0.3-1.5-0.8-2.1c-0.5-0.6-1.2-0.8-2-0.8c-0.8,0-1.5,0.3-2,0.8
				c-0.5,0.6-0.8,1.2-0.8,2.1s0.3,1.5,0.8,2.1C500.5,9.5,501.2,9.7,502,9.7z"/>
			<path class="st1" d="M512.5,22.5v-1.8v-1.8l12-18.7h2.1h2.1V18h2.7v4.5h-2.7v3.9h-4.7v-3.9H512.5z M523.9,18V7.8L517.7,18H523.9z
				"/>
			<path class="st1" d="M536.7,11.6h9.9v4.2h-9.9V11.6z"/>
			<path class="st1" d="M555.1,4.6h-3.3V0.1h8v26.4h-2.4h-2.4V4.6z"/>
			<path class="st1" d="M569.8,26.4l9.9-21.7l0.1-0.1h-10.7V0.1h15.5v2.3v2.3l-9.5,21.7H569.8z"/>
			<path class="st1" d="M595,4.6h-3.3V0.1h8v26.4h-2.4H595V4.6z"/>
			<path class="st1" d="M609.7,26.4l9.9-21.7l0.1-0.1H609V0.1h15.5v2.3v2.3L615,26.4H609.7z"/>
		</g>
	</g>
</g>
</svg>
