<?xml version="1.0" encoding="utf-8"?>
<!-- Generator: Adobe Illustrator 25.2.3, SVG Export Plug-In . SVG Version: 6.00 Build 0)  -->
<svg version="1.1" id="圖層_1" xmlns="http://www.w3.org/2000/svg" xmlns:xlink="http://www.w3.org/1999/xlink" x="0px" y="0px"
	 viewBox="0 0 323 104" style="enable-background:new 0 0 323 104;" xml:space="preserve">
<style type="text/css">
	.st0{fill:#F5E800;}
</style>
<g>
	<g>
		<path class="st0" d="M51.4,18.4h0.7c2.6,0,3.9,1.7,3.9,5v1.1c0,3.4-2.3,7.8-6.8,13.2V38c0.5-0.2,2.3-0.3,5.5-0.5
			c0-0.7,1.2-1.2,3.7-1.4h0.4c0.3,0.1,0.4,0.2,0.4,0.4c0,1.3-0.7,2.2-2,2.5c0,0.1-0.8,0.2-2.3,0.2c0-0.3-0.1-0.5-0.4-0.5h-0.4
			c-2.7,0-6,0.4-10,1.2c-0.3-0.2-0.5-0.2-0.7-0.2c3.6-2.5,6.5-6.9,8.6-13.2c0.1-0.8,0.2-1.6,0.2-2.3V23c0-1.4-0.6-2.6-1.8-3.4
			c-1.3,0-2.9,1.8-4.8,5.5c-0.8,0.5-1.4,0.7-1.8,0.7h-0.7c-0.3,0-0.4-0.2-0.4-0.5v-0.4C44.4,20.6,47.4,18.4,51.4,18.4z"/>
		<path class="st0" d="M68.7,14.9l1.7-0.1c0.7,0,1.1,0.2,1.3,0.6v5.1c0.1,0.3,0.2,0.5,0.5,0.4l1.6-0.1c0.9,0,1.4,0.1,1.5,0.4v0.1
			c-1.8,0.4-2.9,0.5-3.4,0.5v7.1l0.4-0.2c0,0.1,0,0.1,0.1,0.1L71.9,30v9.9c-0.4,1.7-1.3,2.6-2.5,2.6l-1.2,0
			c-0.9,0.1-1.4-0.1-1.5-0.4V41c0-0.5-0.1-1.4-0.4-2.5l2.4,0.5v-6.1l-0.3,0c-1.4,1-2.3,1.5-2.7,1.5l-2,0.1c-0.2,0-0.3-0.1-0.3-0.3
			c2.2-1.7,3.9-2.9,5.1-3.4v-2c0-0.1,0.1-0.1,0.3-0.1l-0.3-0.5v-6c-2.8,0-4.1-0.1-4.1-0.5v-0.1l0.9-0.3l3.2-0.2v-5.4L68.7,14.9z
			 M80.3,12.9c1.3-0.1,1.9,0.4,1.9,1.4c0,0.4,0.1,0.7,0.3,0.6c1.5-0.1,3.7-0.3,6.7-0.5c0.6,0.1,0.9,0.3,0.9,0.5v0.1
			c-1.5,0.3-3.3,0.5-5.5,0.6l-2.4,0.1v2.5l0.5,0c1.3-0.1,3-0.2,4.9-0.4c0.8,0,1.4,0.3,1.9,0.9l-0.4,3.8c1.3,0.4,2,0.7,2,1l-0.9,0.2
			l-1,0.1v3c0,1.7-0.2,2.5-0.5,2.5l-1.8,0.1c-0.9,0-1.3-0.1-1.3-0.5L82.3,29v4.3c3.1-0.3,4.7-0.4,4.8-0.4c1,0,1.5,0.2,1.5,0.4v0.2
			c-1.5,0.3-3.6,0.6-6.3,0.7v4c0,1,3.2,1.9,9.5,2.7l0.2,0.3v0.3l-0.9,0.2h-0.2c-5.2,0.3-9.8-1.2-13.9-4.3c-0.3,1.3-1.4,2.7-3.1,4
			l-0.1,0V40c0.8-3.9,1.2-6.1,1.2-6.6v-0.6c0-0.2,0.4-0.4,1.1-0.6c1.1-0.1,1.7,0.3,1.9,1.2c-0.1,0.7-0.2,1.3-0.2,1.8v0.4
			c0.7,0.2,1.2,0.4,1.3,0.4v-6.7l-2.1,0.3l-2,0.1l-1.3-0.1v-0.1c0-0.5,1.8-0.8,5.3-1v-0.3c-0.1-1.3-0.2-2.4-0.2-3.1v-1.1l-3.8,0.2
			l-1.3-0.1v-0.3c0-0.2,0.1-0.4,0.3-0.4l4.8-0.3v-3.9l-0.9,0l-1.3-0.1v-0.1c0-0.2,0.1-0.3,0.3-0.4l1.8-0.1v-2.5l-2.5,0.3l-0.8,0
			l-1.9-0.1V16c3.6-0.4,5.3-0.8,5.3-1.1c0-1.3,0.3-1.9,0.9-1.9L80.3,12.9z M82.2,19.2v3.9l2.5-0.3l1,0v-1.3l0.2-2.5L82.2,19.2z
			 M82.6,23.9l-0.5,0v3.2l0.2,1.1l3.1-0.2v-1.2c0-0.5,0.1-1.1,0.2-1.8c-0.1-0.3-0.2-0.4-0.2-0.5c0.1-0.2,0.2-0.5,0.2-0.9l-0.3,0
			C84.3,23.8,83.3,23.9,82.6,23.9z"/>
		<path class="st0" d="M103.8,18.2c0,0.1,0.1,0.4,0.2,0.7c-0.4,2.2-0.8,7.9-1.1,17.1l2.7-0.2h0.9V36c0,0.3-1.2,0.8-3.7,1.4
			c0,0.7-1.4,1.1-4.1,1.4h-2.3c-0.3,0-0.4-0.2-0.4-0.5V38c1.6-0.6,2.6-0.9,2.7-0.9c0.3-9,0.6-14.5,0.9-16.4h-1.6v-0.4
			c0.1,0,1.1-0.7,2.7-2.1H103.8z"/>
		<path class="st0" d="M116.3,15.3l0.6,0c0.9,0,1.4,0.1,1.5,0.4v0.6c-0.3,1-0.4,1.5-0.4,1.7l0.7,0c0.5,0,1.3,0.3,2.4,1.1l0.6-0.4
			l3.2-0.2v-1.7c0-0.9,0.4-1.3,1.3-1.4l1,0c0.3,0.2,0.6,0.4,0.7,0.4v2.4l0.9,0l1.2-0.3c0.2,0.1,0.6,0.2,1.1,0.1v-1.3l-0.2-0.9
			l0.5-0.4l0.8,0c1.1,0.1,1.7,0.6,1.7,1.6v4.6c0.4,0,1.8-0.2,4-0.4c0.3,0.1,0.4,0.2,0.5,0.2v0.4c-2.9,0.4-4.3,0.7-4.3,1.1
			c0.1,1.5,0.5,3.4,1,5.8l0.5,0c0.6-2.3,1.1-3.7,1.6-4l0.2,0c0.7,0,1.2,0.3,1.5,0.8v0.2c0,0.8-0.9,3-2.6,6.7c0.5,1,1,2.3,1.4,3.9
			c0.2,0,0.6-0.6,1.3-1.6l0.5,0c0.4,0,0.5,0.9,0.5,2.7c0,2.1-0.4,3.1-1.3,3.1l-1.2,0.1c-1.1,0-1.7-0.5-1.7-1.7
			c-0.4,0-0.8-1.1-1.2-3.5l-0.3,0c0,0.7-1.5,2.2-4.5,4.6l-0.7,0v-0.1c2.2-3.2,3.8-5.6,4.5-7.3c-1.4-3.9-2.2-7.1-2.2-9.7
			c-1.7,0.5-3.9,0.8-6.6,0.9l-2.6,0.1c-1.3,0.1-1.9-0.1-1.9-0.5l-1.3,0.1V28l2.2-0.1l1.1,0.2v-0.9c0-1.5,0.4-2.3,1.3-2.4l0.4,0
			c0.7,0,1.1,0.2,1.1,0.6c0.7-0.3,1.5-0.5,2.6-0.6l0.8,0c0.7,0,1.1,0.2,1.3,0.7v2.4c0,0.9-0.6,1.4-1.7,1.6l-2.8-0.3
			c0,0.4-0.3,0.6-0.9,0.7l-1.2,0.1l-0.9-0.1v-1.4c-1.3,0.6-2.4,1-3.3,1v5.9c0.2,0,0.7-0.2,1.7-0.5l0.3,0V35c-0.2,0-0.7,0.5-1.6,1.5
			c-1.7,1.2-3.1,1.9-4.1,2l-2.5,0.1l-0.9-0.1v-0.1c0-0.3,0.9-0.6,2.6-0.9c0-0.2,0.6-0.5,1.8-0.9l-0.2-1.4v-5.8l-3.2,0.1
			c-0.6,0-1-0.1-1.1-0.4v-0.1c0.9-0.3,1.6-0.5,2.3-0.5l2-0.1v-4.9l-1.1-0.2l-0.9,0c0,0.5-1.1,1.6-3.4,3.2c0,0.3-0.1,0.4-0.3,0.4
			l-0.1,0v-0.1c0.4-0.4,0.7-1.5,1-3.4c1.9-3.3,3.2-5.9,3.9-7.9L116.3,15.3z M113.1,31.4c1-0.1,1.5,0.8,1.5,2.6v1
			c-0.2,0.6-0.5,0.9-0.7,1l-0.7,0c0-0.2-0.4-0.6-1.2-1.1l-0.2-1.3v-1.2C112.2,31.8,112.6,31.5,113.1,31.4z M117,19.1
			c0,0.2-0.7,1.4-2,3.4l0.5,0c3.9-0.2,5.8,0,5.8,0.5l3.3-0.2v-1l0.2-2.5l-2.6,0.1l0.7,0.9c0,0.2-0.1,0.3-0.3,0.3l-0.6,0
			c-1.5,0.1-3-0.4-4.5-1.6L117,19.1z M120.6,30.3l0.4,0c0.6,0,0.9,0.3,0.9,1l1.1-0.3l7.7-0.4c0.2,0,0.3,0.1,0.3,0.3v0.4
			c-0.5,0.1-1.7,0.2-3.5,0.3v0.4c0.4,0,0.6,0.4,0.6,1.2l1.8-0.1l0.9,0.1v0.1c0,0.3-0.9,0.7-2.6,1.3l-0.2,1.5l0.3,0
			c0.4-0.3,0.8-0.4,1.2-0.4l0.7,0v0.3c-1.7,2.2-4.1,3.3-7,3.5c-0.6,0-1-0.1-1.1-0.5c0-0.2,1-0.6,3-1.3c0-0.1,0.1-0.2,0.2-0.2l-0.2-1
			v-1.7l-2.8,0.1c-0.2,0-0.3-0.1-0.3-0.3v-0.3l0.9-0.2l2-0.1c0.3,0,0.5-0.6,0.7-1.8h0.4v-0.3l-3.4,0.2l-0.5-0.2
			c0,0.4-0.6,1.1-1.7,2.1l-0.9,0c0.3-2.1,0.4-3.2,0.5-3.2C120.1,30.4,120.4,30.3,120.6,30.3z M125.3,26.2v2.1l1,0l0.4,0.2l0.2-1.1
			v-1.5l-0.3,0L125.3,26.2z M127.9,19.3c0,1.2-0.1,2.2-0.4,3.1l0.3,0c1.8-0.2,2.9-0.4,3.4-0.4v-0.3c-0.1-1.5-0.2-2.7-0.2-3.4
			L127.9,19.3z M135.8,15.1c1,0,1.7,0.9,2.3,2.8c-0.1,1.1-0.3,1.7-0.5,1.7l-1.3,0.1c-1.2-1.8-1.7-3.2-1.7-4
			C135,15.3,135.4,15.1,135.8,15.1z"/>
		<path class="st0" d="M153.7,25.1c0.3,0.5,0.7,0.7,1.2,0.7v0.4c0,0-0.1,0.1-0.2,0.1l0.2,0.4v0.4c0,0-0.1,0.1-0.2,0.1
			c0,0.5,0.8,0.8,2.5,0.9c0.4,0.1,0.5,0.3,0.5,0.5c-0.3,0.8-1.3,1.2-3,1.3c0,0.2-0.1,0.3-0.2,0.3c0.1,0.3,0.2,0.4,0.2,0.5
			c-0.2,0.3-0.3,0.6-0.3,0.9v0.7l0.6,0v-0.3h0.1c0,0,0.1,0,0.1,0.2c0.5-0.3,0.8-0.4,0.9-0.4v0.2c0.2-0.1,0.9-0.3,1.8-0.4
			c0.2,0.1,0.4,0.1,0.6,0.1l0.3-0.2c0.5,0.1,0.8,0.2,0.8,0.3l-2.1,7.8c-0.4,1.3-1.3,2-2.8,2h-0.1l-0.3-0.1l-0.3,0.2
			c-0.7-0.1-1.1-0.3-1.1-0.4c0.8-0.6,1.2-1.5,1.2-2.6c0.5-1.4,0.9-2.9,1.2-4.5c0.2,0,0.3-0.4,0.3-1.1l-0.2,0c-0.9,0-1.4,0.9-1.6,2.5
			l-0.5,0.5l0.2,0.3c-0.4,1.9-1,2.9-1.9,3c-0.2,0.6-1,1.1-2.3,1.5c0,0-0.1-0.1-0.1-0.2l-0.8,0.2l-0.3,0c-0.1,0-0.3-0.2-0.5-0.5v-0.2
			c1.7-1.3,2.5-2.8,2.5-4.5c0.5-1.3,0.8-3,0.8-5.1v-0.8l-1,0.1L149,30c-1.2-0.2-1.9-0.4-1.9-0.7v-0.1c0-0.2,0.5-0.4,1.6-0.6v-0.1
			l1,0.1l1.4-0.1L151,28l0.2-0.4l-0.1,0l0.1-0.2c-0.2-0.9-0.3-1.4-0.3-1.4c0.8-0.3,1.3-0.5,1.6-0.6c0,0,0.1,0.1,0.1,0.2l0.4-0.2
			c0.2,0.1,0.4,0.1,0.7,0.1C153.6,25.2,153.6,25.1,153.7,25.1z M152,15.8c1.5,0.4,2.3,0.6,2.3,0.7c-0.3,0.7-0.4,1.1-0.4,1.4v0.4
			l0.5,0l0.9,0.1c0.1,0,0.2-0.1,0.2-0.1l0.7,0.1c0.6,0,1.3-0.1,1.9-0.2c0.7,0,1.3,0.2,1.7,0.6v0.2c-0.7,0.2-1.2,0.5-1.6,0.7
			c-0.2-0.1-0.3-0.1-0.5-0.1c0,0.1-0.1,0.1-0.2,0.2c0.2,0.4,0.4,0.6,0.4,0.7l-0.2,0c0.5,1.7,0.8,3,0.8,4c-0.6,0.3-1.1,0.5-1.3,0.5
			l-1,0.1c-0.1,0-0.1-0.1-0.1-0.2c-0.3,0.1-0.4,0.2-0.5,0.2c-0.7-0.1-1.1-1.2-1.1-3.4c-0.1,0-0.3-0.5-0.6-1.6
			c-0.2-0.1-0.4-0.2-0.6-0.1c-0.3,0.8-0.8,1.9-1.5,3.3c0,0.9-0.8,1.3-2.3,1.4c-0.2,0-0.7,0-1.7-0.1c0-0.1-0.1-0.3-0.4-0.7v-0.2
			c0.4,0,1.1-1.3,2.1-3.8c0.1,0,0.5-1.2,1.2-3.5l0.1,0c0,0,0.1,0.1,0.1,0.2L152,15.8z M162.7,23.3c1.1,0.1,1.8,0.2,2,0.2
			c-0.5,1-0.7,1.7-0.7,2.2v0.4l3-0.4v0.1c0.2,0,0.3-0.1,0.3-0.1l0.7,0.1l1,0c1.8-0.1,2.8,0,2.8,0.4v0.1l-1.2,0.3V26l-1,0.9l-0.7-0.1
			l-2.8,0.1l-0.9,0.2c0,0-0.1,0-0.1-0.1c-1.2,0.1-1.8,0.7-1.8,1.9l0.7,0c0.2,0,0.5-0.1,0.6-0.2l0.6,0.3c0.2-0.1,0.4-0.2,0.6-0.2
			c0.3,0.1,0.5,0.2,0.5,0.3c-0.3,0.5-0.4,1-0.4,1.3c0.3,0,0.5,0,0.7,0.1c1-0.2,1.7-0.3,1.8-0.5l1,0.1l0.2,0v-0.3l-0.2,0l0.1-0.1
			c0.4,0.2,1.2,0.4,2.3,0.6v0.3c-0.3,0-0.4,0.1-0.4,0.3c-0.1,0-0.2,0-0.4-0.1c-1.4,0.2-2.2,0.7-2.2,1.2c0,0.7-0.3,1.4-0.8,2.2l0.2,0
			c-0.1,0-0.1,0.1-0.1,0.4l0.4-0.2l1.2-0.1c0.2,0,0.4-0.1,0.6-0.2c0,0,0,0.1,0,0.2l0.8-0.2c0.2,0,0.4,0.1,0.8,0.3
			c0-0.2,0.1-0.3,0.2-0.4c0.4,0.1,0.5,0.2,0.5,0.3c-0.1,0.4-0.4,0.6-0.9,0.6c0-0.2-0.1-0.3-0.4-0.3v0.3h0.1
			c-0.1,0.2-0.1,0.3-0.2,0.3c-0.1,0-0.1,0-0.1-0.1l-0.8,0.2l-1.1,0v0.5l1.9,2.7c0,0.4,0.3,0.6,0.9,0.6c0,0.5,0.3,0.7,0.8,0.7
			c0,0.5,0.3,0.7,1,0.7V41l-0.1,0c-0.1,0-0.1-0.1-0.1-0.2l-0.4,0.2c-0.2-0.1-0.3-0.1-0.5-0.1l-0.2,0.4c0.1,0,0.2,0,0.2,0
			c-0.4,0-0.7,0.1-0.9,0.2l-0.3-0.1l-0.9,0.2l-0.1,0c-0.7-0.4-2.1-1.7-4.1-3.9c0,0.5-0.7,1.3-2.2,2.3c-1.2,1-2.3,1.6-3.1,1.6
			c-0.2-0.1-0.4-0.1-0.6-0.1c-0.1,0-0.3,0.1-0.5,0.2c-0.5-0.2-0.8-0.3-0.8-0.4c3.1-2.1,4.6-3.8,4.6-5.3l-3.9,0.2l-0.1-0.6
			c0.3-0.2,1.1-0.5,2.3-0.7c0,0,0.1,0.1,0.1,0.2l0.8-0.2l1.2,0c0.2,0,0.5-0.9,0.8-2.8v-0.2l-0.3,0c0,0.4-0.3,1.1-0.9,2
			c-0.8,0.2-1.7,0.4-2.8,0.4l-0.4-0.2c0,0.1,0,0.2,0,0.2v-0.8c1.2-2,1.8-3.4,1.8-4.1l-0.4,0l-0.7,0.2v-0.2c-0.2,0.2-0.8,0.3-1.8,0.4
			l-0.3-0.4V29c0.7-1.2,1.2-3,1.6-5.4h0.1c0.1,0,0.1,0.1,0.1,0.2L162.7,23.3z M165.5,13.8c1.2,0.1,1.9,0.4,1.9,0.8
			c-0.2,0-0.5,0.8-0.8,2.3c1.1-0.3,2.1-0.4,2.9-0.4c0.3,0.2,0.6,0.3,0.8,0.2l0.3-0.1c0.1,0.1,0.4,0.1,0.8,0.1V17l-0.1,0.7l-0.2-0.1
			l-0.4,0c-0.1,0-0.2,0.1-0.2,0.1l-0.2-0.1l-1,0.3v-0.2l-0.4,0.2l-0.4-0.1V18v-0.2l-0.6,0.3V18c-0.4,0.3-0.6,0.4-0.7,0.4
			c0-0.1-0.1-0.2-0.3-0.1l-0.2,0.4v0.3c2-0.1,3,1,3.3,3.3v0.5l-2,0.4l-0.3-0.2c-0.2,0.1-0.4,0.2-0.4,0.2c-0.4-0.3-0.6-0.6-0.7-1.1
			c-0.4-1-0.7-1.5-1-1.5c-0.4,1.1-1,1.7-1.9,1.7l-0.3,0.1l-0.3-0.1c-0.1,0-0.4,0.1-0.9,0.2c-0.5,0-0.9-0.2-1.1-0.6v-0.1l0.8-0.9
			l-0.1-0.7c0.2,0,0.5-0.4,0.7-1.1v-0.4c0.3-0.4,0.7-1.8,1.2-4.4C163.6,14.1,164.3,13.9,165.5,13.8z"/>
		<path class="st0" d="M185.9,15.6l1,0c1-0.1,1.5,0.6,1.5,2v4l0.7,0l0.9,0.1v0.5c-0.7,0.2-1.2,0.2-1.6,0.3v4.9h0.3
			c1-0.1,1.9-1.4,2.8-3.9c0.7-2.8,1.2-4.2,1.3-4.2c0.2-0.1,0.5-0.2,0.8-0.2l0.6,0c0.7,0.1,1.1,0.2,1.1,0.5c0,1.3-0.9,3.5-2.8,6.5
			l0.3,0c0.9-0.1,1.6-0.9,1.9-2.5c0.3-0.9,0.8-1.4,1.5-1.4l0.6,0c0.6,0,0.9,0.1,0.9,0.3c0,0.2-0.3,1.2-1,3v0.3h0.3
			c1.3-3.6,2-5.7,2-6.3v-0.5l0.9-0.2l0.8,0c0.7,0,1.1,0.3,1.1,1c-0.1,0.3-0.2,0.5-0.2,0.7l1.1-0.3l0.6,0c0.4,0,1.1,0.1,1.9,0.4v0.8
			c0,0.1-0.3,0.5-0.9,1h-0.2l-2.6-1.7l-1.7,2.4l7.5-0.4l0.9,0.1v0.1c0,0.2-0.6,0.5-1.7,0.6c-0.2-0.1-0.5-0.2-0.9-0.2l0.2,2v2.4
			l1.5-0.1l0.9,0.1V28c-1,0.3-1.8,0.5-2.4,0.5v3.7l1.7-0.1l0.9,0.1v0.5l-0.9,0.2l-1.6,0.1v0.3c-0.1,2.1-0.2,3.4-0.2,3.8l0.5,0
			c0.1,0,0.7-0.1,1.6-0.4l0.4,0c1-0.1,1.5,0.1,1.7,0.6c0,0.2-0.2,0.4-0.7,0.6c-3.5,0.3-6.4,0.5-8.7,0.6c-0.1,1.1-0.3,1.6-0.5,1.6
			l-2,0.1l-0.3-0.1c0.1-4.5,0.2-7.8,0.2-9.8v-4.8c-0.8,0.2-1.5,1-1.9,2.4c0,0.7-0.6,1.8-1.8,3.5l1,0c0.4-1,0.6-1.6,0.6-1.8l1.6-0.1
			v1.1c0,2.4-1.2,5-3.7,7.8c-1.8,0.9-2.8,1.3-2.9,1.3v-0.1c2.5-4.3,3.8-6.7,3.8-7.2l-0.3,0c-1.3,0.2-2.4,0.3-3.1,0.4l-0.9-0.1v-0.1
			c1.5-1.2,2.7-3,3.6-5.6l-2.5,0.3l-0.6,0c-0.2,0-0.8,0.8-2.1,2.3v8.9c0,1.8-0.6,2.7-1.7,2.8l-1,0c-1.5-0.2-2.3-1.2-2.3-3v-0.5
			l-0.4,0v-0.3c0.4,0,1,0.3,1.9,0.9c0.3,0,0.5-0.2,0.5-0.5v-5.6l-0.3,0c-0.7,0.6-1.3,0.8-1.7,0.9l-1.4,0.1c-0.2,0-0.3-0.1-0.3-0.3
			v-0.2c2.4-2.2,3.5-3.3,3.5-3.5c0.1-0.7,0.2-1.4,0.2-2v-4.6l-2.3,0.1c-0.9,0-1.4-0.1-1.5-0.4v-0.1l0.9-0.2l2.8-0.1v-3.4
			c0-0.5-0.1-1.4-0.4-2.5L185.9,15.6z M198.2,14.4l0.8,0c0.8,0,1.6,0.4,2.3,1.4v0.1l-0.9,1.2l1.6-0.3l5.3-0.3c0.2,0,0.3,0.1,0.3,0.3
			c0,0.2-0.2,0.3-0.5,0.3c-4.4,0.5-9.7,1-16.2,1.4c-0.5-0.1-0.7-0.3-0.7-0.5V18l0.9-0.2l6.7-0.3l2-0.3v-0.4c-0.5,0-1.4-0.6-2.6-2
			v-0.1L198.2,14.4z M199.4,23.5c0.6,0.7,0.9,1.9,0.9,3.4v1.1l2.3-0.1v-4.5L199.4,23.5z M200.3,28.6v3.9l2.3-0.1v-3.7
			C201.4,28.6,200.6,28.6,200.3,28.6z M200.3,33.1v4.7l2.3-0.1c0-0.2-0.1-0.3-0.2-0.3l0.2-1.3v-2.9l-0.9,0L200.3,33.1z"/>
		<path class="st0" d="M234.6,13.6l0.5,0c0.3,0,0.6,0,0.8,0.1l0.4-0.2c1.3,0.5,1.9,0.8,1.9,1v2.2l-0.2,1.5l2.1,0.1L242,18v0.2
			c0.2,0,0.3-0.1,0.3-0.2c1.3-0.1,2.3,0.3,2.8,1c0,0.2-0.4,0.5-1.3,0.8l-1-0.1l-3.6,0.2c-0.2,0-1.4,2-3.4,5.9
			c-0.1,0-0.4,0.5-0.8,1.5v0.3c0.9-0.2,1.8-1.4,2.7-3.4c0.6-1.7,1.3-2.6,2.1-2.7c1.7,0.3,2.5,0.6,2.5,1v0.4c-0.4,0-0.9,1-1.6,2.9
			c-0.2,0.2-0.6,0.8-1,1.8c-1.2,1.3-2.1,2.4-2.8,3.5c-0.3,0-0.9,0.7-1.8,2.1c-1.3,1.6-2.3,2.5-2.7,2.5l-1.2-0.1l-1.1,0.1
			c0-0.5-0.1-0.8-0.4-0.8c0-0.3,0.9-1.3,2.8-3l1.7-2.8l-1.1-0.2H233c-0.3,0-0.6,0.1-0.8,0.3c-1.6-0.1-2.5-0.3-2.7-0.7
			c-0.3,0.2-0.5,0.2-0.5,0.3v-0.2l-0.5,0.2l-0.5,0c0-0.3-0.4-0.7-1.3-1.3l-0.3,0l-0.2,1.1v0.4c0,6.7-0.3,10.1-0.8,10.1
			c0.3,0.6,0.5,1.4,0.6,2.4l-0.7,0c-0.3,0-0.6,0-0.8-0.1l-0.4,0.2c-1,0.1-1.5-0.5-1.5-1.6l0.2-0.4c0-0.2-0.1-0.3-0.2-0.3
			c0-0.2,0.1-0.2,0.2-0.3c-0.1-1.8-0.2-3.2-0.2-4v-2.6l0.2-1.6c-0.4,0.4-1.4,1.9-2.9,4.7c-0.5,0.4-0.9,0.6-1.3,0.6l-0.2-0.4l-1,0.3
			l-0.9,0v-0.3c3-4.7,5.1-9,6.4-12.8V22l-1.9,0.1c-0.7,0-1.8,0-3.3,0v-0.5l0.4-0.6l1,0.1l0.4,0c0.5,0,0.8-0.1,1-0.3l1.2,0.1l1.3,0
			c0-1.4,0.1-3.6,0.2-6.4l0.3-0.2c1.3,0.1,2.5,0.3,3.5,0.6c-0.2,1.9-0.4,3.8-0.6,5.6c0.1,0,0.2,0.1,0.2,0.2l0.5-0.2l1.8-0.1
			c0-0.9,0.3-1.4,0.9-1.4v0.4c0.7-0.3,1.5-0.5,2.6-0.6l1.2-0.1c0.8,0,1.3-0.5,1.3-1.3V16c0-0.5-0.1-1.1-0.2-1.8
			C234.6,13.9,234.6,13.7,234.6,13.6z M230.7,21.1c0,0.5-0.6,0.8-1.8,0.8v-0.3l-0.5,0.3l-1.8,0.1l-0.4,1.9c0.1,0.3,0.2,0.5,0.2,0.7
			l1.4-0.1c0,0.4,1.1,1.2,3.3,2.4c1.2-1.2,2.3-3.2,3.4-6c0.1-0.3,0.2-0.5,0.2-0.7C232,20.7,230.7,21,230.7,21.1z M241.5,26.8
			c0.8-0.1,1.9,0.1,3.1,0.6v0.1c0,0.9-1.2,3.3-3.6,7c1.1-0.1,2.7,1.2,4.6,3.9V40h-0.1c-0.6,0-1.1-0.1-1.6-0.3l-0.4,0.2
			c-0.8,0.1-1.3-0.6-1.7-2.1c-0.2,0-0.7-0.5-1.4-1.4l-6.4,5.3c-1.1-0.1-2-0.1-2.8,0c-0.3,0-0.6,0.1-0.8,0.2
			c-0.5-0.1-0.7-0.3-0.7-0.5v-0.5c2.2-0.8,3.4-1.5,3.4-2.2c3.6-3.1,6-6.3,7.4-9.5C240.9,27.7,241.2,26.9,241.5,26.8z"/>
		<path class="st0" d="M255.9,21.2c0.7,0,1.1,0.9,1.1,2.8c-0.4,6-0.9,9.1-1.5,9.1l-1.2,0.1c-0.7,0-1.4-0.1-2.3-0.3v-0.3
			c1.7-7.6,3-11.4,3.7-11.4L255.9,21.2z M262.2,20.3c1.1-0.1,1.7,1.2,1.7,3.8v10.4c0,1.6,1.9,2.4,5.6,2.2l1,0c0.2,0,0.4-0.3,0.7-0.7
			v-1.4c0-2.5,0.5-4.1,1.4-4.6l-0.2-0.4V29l0.2,0c0,0.4,0.7,1.4,2,2.8c0.7,1.3,1,2.5,1,3.7v1c0,1-2.9,1.7-8.6,1.9
			c-3.6,0.2-5.9-0.9-7-3.1c0.2-9.7,0.6-14.5,1.1-14.6C261.5,20.4,261.9,20.3,262.2,20.3z M267,16.9l1.4-0.1c1.3-0.1,1.9,1.3,1.9,4.2
			v2c0,1.2-0.3,2.4-1,3.6v0.3l-1.5,0.1c-0.9-1.1-1.3-2.8-1.3-5v-4.5C266.4,17.3,266.6,17.1,267,16.9z M276,21.8l0.4,0
			c2.4-0.1,3.7,2.2,4.1,6.8v0.6c0,0.5-0.4,1.3-1.3,2.4c-1,0.1-1.5-0.3-1.5-1.1c-0.4-0.3-1-2.4-1.8-6.2c-0.7-0.9-1-1.6-1-2.1
			C275.3,21.9,275.7,21.8,276,21.8z"/>
		<path class="st0" d="M58.9,44.2C63,44,65,45.3,65,48.3v3.4l0.4,0.6L67,52c2.2,0.2,3.6,0.3,4.1,0.3c0-0.4,0.9-0.8,2.8-1.2l2.1-0.1
			c3.8-0.2,6.3-0.8,7.7-1.7l0.8-0.1c3.6,0.2,5.4,1,5.4,2.3l0.3,2.6c0,5.4-1.3,8.1-3.9,8.2c-1.9,0.3-4.1,0.7-6.7,1.4
			c0.2,2.9,0.3,5.1,0.3,6.7v5.8c0,0.4,0.3,0.7,0.9,0.6c2.9-0.1,4.3-1.2,4.3-3.2c0-1.8,1-3.2,2.9-4.3l0.7,0c2.9,0.7,4.4,2.7,4.4,6
			c0,2.4-3.3,4-9.9,4.9c-4.6,0.2-7.9-0.6-9.9-2.4c-0.5-0.6-0.7-1.2-0.7-1.7v-4.3c-2.2,0.5-3.9,0.8-5.1,0.8l-1.7,0.1V78
			c0,3.1-0.4,4.6-1.1,4.7c0,1.6,4,2.4,12,2.5l2.1-0.1c2.6-0.5,3.9-0.7,4.2-0.7l1.1-0.1c5.9,0.2,8.8,0.6,8.8,1.3v0.5
			c0,0.3-0.1,0.4-0.4,0.4l-2.4,0.1c-2.5,0.8-4.9,1.3-7.3,1.4l-3.4,0.2c-10.1,0.5-17.1-0.6-21-3.4c-0.7-0.5-2-1.8-3.7-4l-0.4,0
			c0,2.2-1.7,4.8-5,7.9c-1.5,1.1-3,1.7-4.3,1.8c-0.2-0.3-0.3-1.1-0.5-2.2c2.2-6.3,3.9-13.5,5.3-21.8c0.2-0.5,0.6-0.7,1.4-0.8
			c3.8-0.2,5.7,0.7,5.7,2.7c-0.4,1.8-0.5,3.1-0.5,3.7c0.6,2.1,1.2,3.1,1.8,3.2c0-0.2,0.1-0.5,0.3-0.9c0-0.5-0.1-0.7-0.3-0.7l0.3-1.7
			v-7.1l0.3-1.4l-0.6-0.3l-6.1,0.3c-1.3,0.1-2.7-0.2-4.1-0.8v-0.9c1.4-0.4,2.2-0.6,2.5-0.6l6.6-0.3l0.6-0.4l-0.3-2.7v-2L55.7,56
			c-4.7,0.2-7-0.1-7-1.1v-0.3c0-0.5,1.2-0.8,3.6-1.1l2.9-0.2l2-0.4V46C57.1,44.8,57.7,44.2,58.9,44.2z M66.4,54.9v-0.4
			c-0.4,0.3-0.9,0.4-1.3,0.4v3.8l-0.3,1.5c3.3,0.4,5,0.8,5,1.5v0.5c-1.1,0.4-1.8,0.6-2.2,0.6l-1.9,0.1L65,63.2
			c0.4,0.7,0.6,1.4,0.6,2.2v4.3l0.4,0c2.9-0.1,5.1,0,6.4,0.5l0.3-0.6v-4c0-0.4,0.1-0.7,0.3-1.1c0-0.2-0.3-0.7-1-1.6v-0.9
			c0.8,0,1.3-0.7,1.6-1.9l0.5-0.3l2.9-0.2c0.1,0,1.1,0.2,2.9,0.6c1.1-0.2,1.7-0.4,1.7-0.7c0.2-3.3,0.3-5.3,0.3-6.2l-4.9,0.3
			c-2.7,0.1-4.4-0.2-5.3-0.9c-0.6,1.3-2.3,2-5,2.2H66.4z"/>
		<path class="st0" d="M126,44.3l0.3,0c2.7-0.1,4,0.3,4,1.2c-0.6,1.1-1.2,3.2-1.6,6.2v1.1c0.4,0,0.9,0.2,1.5,0.6
			c0.2-0.7,0.6-1.1,1.2-1.4c2.8,1.3,4.3,2.3,4.4,3c5.7-0.5,10.2-0.8,13.3-1v0.4c0.5-0.3,0.9-0.4,1.1-0.4l0.7,0.3l0.6-0.4l0.6,0.3
			l0.7-0.3c1-0.1,2.2,0.5,3.7,1.6v0.2l-1.5,0.1c-0.1,0-0.2-0.1-0.2-0.3c-0.4,0-0.6,0.1-0.6,0.3l-3.7-0.1l-6.1,0.3
			c-0.5,0-0.9,0.1-1.3,0.4l-0.6-0.3c-1.2,0.3-2.1,0.4-2.9,0.5l-1.6-0.3l-0.6,0.4l-1.9-0.2h-0.4l-0.4,2.3v1.3c0,1.2,0.1,2.7,0.3,4.4
			l-0.4,0.6l0.4,0.7l-0.3,2.9l0.3,5.1l-0.3,1.3c0.2,0.4,0.3,0.9,0.3,1.6c0,0.1-0.1,0.2-0.4,0.2l0.4,0.7v2.2c0,0.1-0.1,0.2-0.4,0.2
			l0.4,0.7c0,0.3-0.2,0.5-0.7,0.5c0.4,1,0.7,2.1,0.7,3.2c-0.4,1.2-1,1.9-2,2V86c-0.4,0-0.5,0.1-0.5,0.3c-3.5-0.2-5.2-0.9-5.2-2.2
			v-0.6c1.3-1.1,1.9-1.9,1.9-2.4c0-0.3-0.1-0.4-0.3-0.4l0.3-1.5V78c0-0.4-1.8-0.9-5.5-1.4c-0.5,0-1,2.5-1.4,7.4l-0.3,0.1
			c-1,2.6-2.5,4.7-4.4,6.2h-0.3c-2.2,0-3.4-0.2-3.4-0.6c0.8-2,1.6-3.3,2.2-3.9c0-0.8,0.5-1.9,1.4-3.4l-0.7,0.1
			c0.2-0.5,0.4-0.7,0.6-0.7c0-0.4-0.1-0.6-0.3-0.6c0.4-2.8,0.7-4.2,1-4.3c0-0.4-0.1-0.5-0.3-0.5c0.1-1.4,0.4-2,0.7-2.1l-0.4-0.7
			v-0.9l0.4-0.8l-1.8,0.1c-3.2,0.2-5.7,0.1-7.5-0.3v-0.7l3-0.5v0.4l0.8-0.4l0.6,0c0.1,0,0.2,0.1,0.2,0.4l0.7-0.4l0.6,0.3l0.6-0.4
			l1.3,0.3c0.4-0.2,0.7-0.4,0.8-0.4c0,0.2,0.2,0.3,0.5,0.3c0-0.8,0.1-1.3,0.3-1.7l-0.3-1.9v-1.6c0-0.2,0.1-0.2,0.3-0.2
			c0-0.4-0.1-0.6-0.3-0.6c0.4-4.5,1.2-6.8,2.4-6.9c2.7,0.4,4,0.9,4,1.5c-0.4,0.1-0.6,0.4-0.6,0.9l0.5,0l-0.3,0.6
			c0.5,0,1.9,0.5,4.1,1.5c0.2-1.8,0.4-2.7,0.7-2.7c-0.3-0.5-0.5-1.5-0.7-3.1l-1.4,0.1c-2.7,0.1-5.5,0.5-8.2,1c0-0.1-0.7-0.6-2.2-1.4
			c0-0.6,1.3-1,3.9-1.3V55c1.4-0.1,2.2-1.7,2.5-5l-0.3-0.6c0.5-3.1,0.9-4.7,1.2-4.7L126,44.3z M124.3,71.4l-0.7,3.2
			c0.9,0,2.8,0.4,5.7,1.4c0-1.9-0.2-3.3-0.6-4.2c0.2,0,0.3-0.2,0.3-0.6l-0.8,0.4c-0.2,0-0.5-0.1-0.9-0.3l-2,0.5H125L124.3,71.4z
			 M124.3,62.9c0,0.6,0.1,0.8,0.3,0.8c-0.2,2.2-0.4,3.3-0.8,3.3c0.3,0.3,0.5,1.3,0.5,2.9l0.8-0.5l3.1-0.2l0.8,0.4
			c0-1.7,0.1-2.6,0.3-2.6c0-0.4-0.1-0.5-0.3-0.5l0.3-1.5c0-0.9-1.4-1.5-4.1-1.8c0-0.2-0.1-0.3-0.4-0.3L124.3,62.9z M140,59.8
			l1.6-0.1c0.8,0,1.8,0.2,3.1,0.7v2c2.3-0.4,3.4-1.5,3.4-3.1l0.5,0c1.6-0.1,3.1,0.3,4.6,1c-0.8,3.8-1.4,5.7-1.6,5.7l0.4,0.7
			c-0.4,1.4-0.9,5-1.3,10.9c0.2,0.4,0.3,0.7,0.3,0.8l-0.4,0l0.4,0.7v1.2c0,3.8,1,5.9,3,6.4c0.9-0.1,1.8-1.9,2.7-5.6
			c0.8-0.7,1.4-1,1.7-1c1.2,1.1,1.8,3.3,1.8,6.5c-0.2,0.8-0.8,1.2-1.8,1.3l-1.3,0.1c-7.3,0.4-11-1.6-11-6c-0.2-2.5-0.3-4.2-0.3-5.3
			l0.4,0c-0.3-0.5-0.4-0.8-0.4-1c0-2.8,0.4-6.8,1.3-12l-0.5,0l-2,0.4l0.3,1.3c-0.4,1.4-0.6,2.4-0.6,2.9c0,0.5,0.1,0.9,0.3,1.3
			c-0.6,1.3-0.9,2.3-0.9,2.9c0,0.5,0.1,0.9,0.3,1.3c-0.7,7.2-1.5,10.8-2.5,10.8c-0.4,1.1-1.2,1.6-2.4,1.7c-0.4,0-1.4-0.2-3.1-0.5
			v-0.2c1-0.8,1.6-2,1.9-3.5h0.1v1.3l0.6,0v-1.5c-0.2,0-0.3,0-0.3-0.1l0.4,0l-0.4-0.7c0.4-3.5,0.7-6.3,0.7-8.3
			c0-0.5-0.1-0.9-0.3-1.3c0.4-1.5,0.7-4,1-7.3c-0.2-1.9-0.5-3-1-3.5v-0.5L140,59.8z M143.9,45.3c1.9-0.1,3.4,0.6,4.6,2.2
			c0,0.7-0.4,2-1.3,4l-2.1,0.1c-0.2,0-0.5-0.6-0.9-1.8c-1,0-1.6-1-1.9-3.1c-0.5-0.2-0.8-0.4-0.9-0.3V46
			C142.4,46,143.2,45.7,143.9,45.3z"/>
		<path class="st0" d="M181.7,46.5c1-0.1,1.5,0.3,1.5,1.2l24.1-1.2l2.3,0.2c0-0.9,0.9-1.4,2.7-1.4c2.4,0.1,3.7,0.5,3.7,1.3
			c0.2,14.4,0.3,23.6,0.3,27.5c0,7.9-0.9,11.9-2.8,12c0,1.1-0.8,1.6-2.4,1.7c-1.5,0.1-2.3-0.1-2.4-0.7l0.7-1.1l-1.8-0.6l-16.5-0.4
			l-8.9,0.4v1.7c0,1.2-0.6,1.8-1.8,1.9l-2.5,0.1l-1.5-0.2v-9.3c0-21.8,0.6-32.8,1.8-32.9L181.7,46.5z M184.6,58.1l-2,0.1
			c-0.2,5.4-0.3,9.4-0.3,11.8v14.1l0.8-0.5l11.9-0.6c5.5,0.2,10.3,0.2,14.6-0.1c0.4-1.4,0.7-3.4,0.7-6l-0.5,0
			c-0.4,0.2-0.8,0.4-1.2,0.4l-2.2,0.1c-1.4,0.1-2.4-0.9-3.1-2.8c-4,4.3-7.1,6.5-9.1,6.6v-1.1c4.4-5.8,6.7-9.3,6.7-10.5
			c-2.1-4.9-3.2-7.6-3.2-8.2l-0.5,0v4.2c0,2.2-0.9,3.4-2.7,3.5c-1.8-0.1-3.4-0.2-4.8-0.1l-1,0.7l-2.8,0.2c-0.3,0-0.6-0.3-0.8-0.8
			v-5.3c0-2.3,0.5-3.4,1.5-3.5l0.6-0.1c1,0,1.5,0.5,1.5,1.6c2.5-0.6,4.2-0.9,5.2-0.9l1.3-0.1l2.3,0.6V61c-0.8-2.1-1.3-3.5-1.3-4.2
			C190.7,57.6,186.9,58,184.6,58.1z M182.9,49c-0.2,3.9-0.3,6.5-0.3,7.8l2-0.1c2.2-0.1,5.8-0.6,10.9-1.5v-3.9c0.1-0.6,0.9-0.9,2.4-1
			c1.6,0,2.4,0.1,2.4,0.4c0.2,2.2,0.3,3.5,0.3,3.9l7.7-0.4c0.3,0,0.5,0.2,0.5,0.5v0.5l-2.1,0.4l-5.8,0.3c0.5,1.5,1.4,4,2.9,7.3
			c0.4,0,1.2-1.3,2.4-3.9l0.6-0.3l0.9-0.1c0.8,0.3,1.2,0.9,1.2,2c-1.1,4.9-2,7.3-2.6,7.3c0.8,2,1.5,3,2.3,3c0,0.4,0.4,1.2,1.3,2.4
			v0.4l0.6,0V48.3c-4,0-6.9,0-8.7,0.1l-13.9,0.7C186.7,49.1,185.1,49.1,182.9,49z M198.4,71.9v0.7c-0.4,0-1.2,0.6-2.5,1.7
			c-3.8,1.7-6.6,2.5-8.5,2.6l-1.9,0.1l-1.5-0.2v-0.2c0-0.7,4.5-2.2,13.5-4.6L198.4,71.9z M188.9,63.6l0.3,0.7v3.6l2.7-0.2l0.3-2.3
			v-2.7L188.9,63.6z M206.1,49.9l0.9,0c0.3,0,0.5,0.2,0.5,0.5V51c0,0.4-0.2,0.5-0.5,0.5l-1.5,0.1c0-0.3-0.3-0.7-0.8-1.3L206.1,49.9z
			"/>
		<path class="st0" d="M245.8,44.7c1.6,0.1,2.4,0.4,2.4,0.7v0.3c-0.4,0.3-1.5,2.2-3.2,5.9c-2.4,4.2-3.6,6.3-3.6,6.5v0.1
			c1.5,0.4,2.9,2,4.3,4.9c0.9,2.5,1.3,4.7,1.3,6.6c0,2.1-0.7,4.3-2,6.6c-0.9,0.5-1.8,0.8-2.8,0.8h-0.6c-1.2,0-2.5-0.4-4-1.2v10.7
			c0,2.1-0.2,3.2-0.7,3.2c-0.4,0.1-0.7,0.1-0.9,0.1h-1.2c-1.3,0-2-0.3-2-1V88c-0.1-6.6-0.2-10.2-0.2-11v-3.4
			c0.6-17.4,1-26.3,1.1-26.6c0.3,0,0.5-0.2,0.5-0.7c0.5-0.2,3.6-0.5,9.2-1C243.9,44.9,244.6,44.7,245.8,44.7z M238.5,59.1
			c-0.5,8.1-0.7,13.3-0.7,15.5h1.5c0.4,0,1,0.1,1.8,0.4c0.9-2.1,1.3-3.8,1.3-5.2v-0.6c0-3.5-1.1-6.6-3.2-9.3L238.5,59.1z
			 M238.9,47.4l-0.2,6c1.1-1.7,2.4-3.8,3.7-6.3C241.1,47.3,240,47.4,238.9,47.4z M254.5,43.2c1.3,0.1,2,0.3,2.3,0.7
			c0,0.4-0.5,1.8-1.6,4.4h0.1c1.6-0.3,2.7-0.4,3.2-0.4h0.8c1,0,1.6,0.3,2,0.8v0.5c0,1.1-1.8,4.6-5.3,10.3v0.1l0.1,0.5
			c-0.4,0-1,0.8-2,2.5c9.3-0.5,14.3-0.8,14.9-0.8c2.5,0.2,3.7,0.6,3.7,1V63c-0.5,0.5-1.5,0.8-2.9,0.8c-0.7,0-1.3-0.1-1.8-0.2
			c-8.9,0.5-13.9,0.8-14.9,0.8c-0.1-0.1-0.2-0.1-0.3-0.1c-0.4,0.7-1.1,1-2.2,1c-1.3,0-2.1-0.2-2.4-0.6v-0.1c1.4-1.5,2.4-3,3.1-4.4
			c-2.3-1.7-3.6-2.7-4-2.9c-1.2-0.2-1.8-0.5-1.8-0.7v-0.1c2.7-4.1,4.6-7.9,5.9-11.4c0.3-1.3,0.9-2,2-2H254.5z M272.3,68.2
			c1.6,0,2.6,0.3,3.1,0.9v0.2c0,0.6-3,0.9-9.1,1.1V84c0,4.6-0.6,6.9-1.7,6.9c-0.5,0.1-1,0.2-1.4,0.2h-0.9c-2.4,0-4.5-1.2-6.4-3.7
			c-0.1,0-0.8-0.9-2.2-2.6v-0.3c0-0.3,0.8-0.5,2.3-0.6c1.8,0,3.1,0.7,4,2.1c0.3,0.1,0.4,0.3,0.4,0.5h0.2c0.1-1.4,0.1-2.4,0.1-3.1
			v-1.5c0-2.6,0-6.3,0.1-11c-4.4,0.1-7.7,0.2-9.9,0.2h-1c-1.3,0-2.2-0.3-2.7-0.9v-0.2c0-0.6,3.4-0.9,10.1-0.9
			c2.4-0.1,4.2-0.3,5.1-0.6h0.1c1.1,0,2.1,0,3.1,0.1C267.9,68.3,270.1,68.2,272.3,68.2z M255.1,75.1h0.1c1.6,0.1,2.5,0.3,2.5,0.8
			c-1.3,3-3.2,5.7-5.5,8c-0.3,0.3-0.7,0.4-1.3,0.4h-1c-0.9,0-1.5-0.2-1.7-0.6v-0.2c2.3-2.5,4.1-5.2,5.4-8.1
			C253.9,75.2,254.5,75.1,255.1,75.1z M252,54.2l-1,1.7c0.2,0,0.9,0.4,2.1,1.3h0.1c0-0.1,0.4-0.8,1.2-2.1c-1.4-0.7-2.2-1-2.3-1H252z
			 M254.7,49.7h-0.1c-0.2,0-0.6,0.8-1.3,2.5c1.4,0.7,2.2,1,2.5,1c1.2-2.2,1.8-3.5,1.8-3.9h-0.1C256.4,49.6,255.5,49.7,254.7,49.7z
			 M265.2,45.2h0.6c1.5,0,2.3,0.5,2.3,1.5c0.1,0,0.1,0.1,0.2,0.3c1.3-0.1,2.2-0.1,2.8-0.1h2.9c2.1,0,3.2,0.4,3.2,1.3
			c-0.7,2.6-1.9,4.7-3.7,6.2c0,0.1-0.4,0.4-1.3,1c1.5,2.7,3.7,5.1,6.6,7.3V63c-0.1,0.3-0.6,0.4-1.6,0.5h-1c-1.9,0-3.1-0.6-3.7-1.8
			c-1.9-2.2-3.2-3.9-3.9-5.2c-1.2-0.2-1.8-0.4-1.8-0.7v-0.1c0-0.2,0.3-0.4,1-0.7c-1-1.9-2-4.1-3-6.7c-0.3,0-0.5-0.2-0.7-0.5v-0.1
			l0.4-0.4c-0.3-0.9-0.5-1.4-0.5-1.6C264,45.3,264.5,45.2,265.2,45.2z M268.8,48.6v0.1c0.8,2,1.3,3.1,1.5,3.4
			c1.1-1.6,1.7-2.8,1.7-3.6h-1.2C270.4,48.5,269.7,48.5,268.8,48.6z M271.1,75.9h0.1c2.2,0,3.8,0.9,4.8,2.8c1.2,1.6,2.2,3.4,3,5.3
			v0.1c-0.5,0.3-1,0.5-1.7,0.5h-1.2c-1.6,0-2.6-0.4-3-1.1c-0.9-2.5-2.2-4.6-3.9-6.4c-0.3-0.1-0.4-0.2-0.4-0.3v-0.3
			C269,76.1,269.8,75.9,271.1,75.9z"/>
	</g>
	<g>
		<rect x="0.2" y="0.1" class="st0" width="1.7" height="103.9"/>
	</g>
	<g>
		<rect x="321.2" y="0.1" class="st0" width="1.7" height="103.9"/>
	</g>
</g>
</svg>
