<?xml version="1.0" encoding="utf-8"?>
<!-- Generator: Adobe Illustrator 25.2.3, SVG Export Plug-In . SVG Version: 6.00 Build 0)  -->
<svg version="1.1" id="圖層_1" xmlns="http://www.w3.org/2000/svg" xmlns:xlink="http://www.w3.org/1999/xlink" x="0px" y="0px"
	 viewBox="0 0 354 243" style="enable-background:new 0 0 354 243;" xml:space="preserve">
<style type="text/css">
	.st0{fill:#000005;}
</style>
<g>
	<g>
		<path class="st0" d="M83,53.9H0V34.7h83V53.9z"/>
		<path class="st0" d="M169.7,7v17.8c-6.2,17.3-13.9,30.9-22.9,40.5c-9.7,10.2-22,17.3-37,21.4L94.6,70.3
			c14.7-2.6,26.5-6.9,35.3-13.1c-4.8-4-11-8.2-18.7-12.6l13-12.7c6.7,3.8,12.7,7.6,18,11.6c3.3-5.1,6.5-11.3,9.7-18.7h-27.4
			c-4.3,6.6-11,13.5-20,20.8l-15.7-9.7c8.3-5.7,14.4-11.1,18.1-16c3.9-4.9,6.8-11.5,8.8-19.8l17.3,2.9c-0.4,1.5-0.7,2.8-1.1,4.1
			H169.7z"/>
		<path class="st0" d="M221.8,84.5v2.1h-15.3V64.9h15.3v5.7h2.9v-7.4h-20.8v-9.3l-3.2,0.9v19.8c0,8.2-4.9,12.3-14.7,12.3h-1.8
			l-4.7-17.1h4.6c1.8,0,2.7-0.9,2.7-2.7v-8.6l-5,1.3l-3.4-17.1l8.4-1.8v-8.3h-6.4V16.1h6.4V0.4h13.9v15.7h2.3
			c5.9-4.4,10.5-9.7,13.9-15.7h18c-0.5,1.1-1.1,2.2-1.6,3.2h25.8v13.9c-4.8,7.1-12.1,13.4-21.9,19h22.6v11.8h-20v2.2H262v12.5H240
			v7.4h2.9v-5.7h16v21.7h-16v-2.1H221.8z M200.7,37.8l3.9-0.9v9.1c1.9-1.4,3.5-2.7,4.8-3.8l-6.9-9.8h-1.8V37.8z M204.6,50.6h4.5
			l-4.5-2.9V50.6z M204.9,31.7c3.6-0.9,6.9-1.8,10.2-2.5c-0.6-0.7-1.4-1.4-2.4-2.1c-0.9,0.6-1.9,1.2-2.8,1.9l-5-4.7V31.7z
			 M224.6,48.4h-2.2c-0.8,0.8-1.5,1.5-2,2.2h4.2V48.4z M225.3,25.7c0.6-0.4,1.3-0.6,2.1-0.9c-0.5-0.6-2.3-2.4-5.3-5.3
			c-0.5,0.4-1.1,0.9-1.6,1.4c0.7,0.6,1.3,1.3,1.9,1.8C223.4,23.6,224.3,24.6,225.3,25.7z M232.9,17.6c0.9,0.9,1.8,1.9,2.7,3
			c1.3-0.9,2.7-1.9,4.1-3H232.9z"/>
		<path class="st0" d="M272.4,61l-1.1-14.6h7.7V19v-6.7V5.8h20.5l0.9-5.4l17.4,0.8L317,5.8h9.3h7.6h7.7v23.7c0.5-0.6,1-1.2,1.5-1.8
			l10.9,9.7c-4.2,5.3-8.4,10.1-12.4,14.4v20.9c-0.1,9-5.9,13.5-17.5,13.5h-8.1L312,73.7c-9.2,4.6-20.1,8.4-32.6,11.6l-9.7-14.5
			c13.3-3,24.7-6.7,34.3-11.1L272.4,61z M326.2,19h-32v2.2h32V19z M326.2,30.9h-32v2.5h32V30.9z M326.2,45.5v-2.3h-32v2.9
			L326.2,45.5C326.1,45.5,326.2,45.5,326.2,45.5z M317.3,70.9h6.1c1.9-0.1,2.8-1,2.8-2.8v-2.9c-1.6,1.2-3.2,2.2-4.7,3.2
			C320,69.2,318.6,70.1,317.3,70.9z"/>
		<path class="st0" d="M35.4,126.2c-4.5,22.9-11,40.3-19.5,52.1L0.4,163.7c6.7-10.3,12-24.6,16-42.8L35.4,126.2z M37.3,181
			c2.1,0,3.2-1.1,3.2-3.2v-75.7h19.7v85c0,9.6-5.8,14.4-17.3,14.4H31.2L25.6,181H37.3z M100.3,163.3l-16.8,14.5
			c-8.1-13.4-15-30.4-20.5-50.8l19.1-6.1C86.5,135.5,92.6,149.6,100.3,163.3z"/>
		<path class="st0" d="M142.3,119.1v12.4h-17.6v-12.4v-7v-6.9h37.8v-4.2h20.5v4.2h19.7h8.8h8.9v26.3h-17.6v-12.4H142.3z M147.8,202
			h-18v-32.2v-6.6v-6.5h66.8h9h9.1V202h-18v-2.5h-48.8V202z M191,154.5h-37.2h-9.3h-9.2v-20.9h9.2h9.3H191h9.2h9.3v20.9h-9.3H191z
			 M199.4,131h-53.6v-9h53.6V131z M163,169.8h-15.2v2.8H163V169.8z M163,186.4v-2.8h-15.2v2.8H163z M191,142.6h-37.2v3H191V142.6z
			 M181.4,172.6h15.2v-2.8h-15.2V172.6z M196.6,186.4v-2.8h-15.2v2.8H196.6z"/>
		<path class="st0" d="M299.8,200l-6.3-11.6v4.4c-0.1,5.8-6.5,8.7-19.4,8.7h-5.1l-2.6-8.6c-3.1,1.7-7.8,3.9-14,6.8l-7.1-14.7
			c9.6-4.1,17.2-8.4,22.8-12.7l7.7,9.8c0.3-0.3,0.4-0.9,0.4-1.5v-20.3h-6l4.3,5c-6.7,5.2-14.1,9.9-22.4,14.2l-7.5-13.7
			c4.7-2.3,8.3-4.2,10.7-5.5h-7.7v-18h28.6h8.6h8.7v23.3c3.9-2.2,6.9-4,9-5.3h-6.1v-18h16.2c-0.8-1.4-1.5-2.8-2.4-4.2
			c-14.2,2-29.7,2.9-46.7,2.6l-2.8-12.1c-2.4,1.2-4.9,2.3-7.4,3.4l-8.8-17.6c6-1.9,10.7-3.8,14-5.7c3.4-1.9,7.9-5,13.7-9.4l15.5,9.3
			c-0.8,0.8-1.6,1.6-2.3,2.3l15.9,0.8l-8.1,13.3c2.7-0.3,5.4-0.4,8-0.5c-1.2-1.7-2.4-3.3-3.6-5.1l10.8-3.4c-3.2-2.7-5.8-5.3-7.9-7.8
			l13.9-8.8c9.3,7.2,19.5,12.4,30.6,15.7l-8.4,17.8c-4.7-1.7-9.3-3.8-13.7-6.4c2.8,3.8,5.2,7.5,7.1,11l-8.9,4.7h1.2h8.6h8.7v50.6
			c0,5.8-5.8,8.7-17.3,8.7h-5.1l-2.9-9.6C311.8,193.8,306.9,196.4,299.8,200z M267.4,124.9c2.5,0,5,0,7.5,0.1l5.5-9.5
			C277.1,118.3,272.8,121.4,267.4,124.9z M322.5,180.6v-20.3h-6l4.6,4.7c-6.9,5.8-13.9,10.7-21.1,14.6l-6.5-10.5v15.9
			c8.5-4.3,15.4-8.6,20.6-12.9l8.1,9.6C322.5,181.4,322.5,181,322.5,180.6z"/>
	</g>
	<g>
		<path class="st0" d="M4.5,228.4l-1,1.4L1.7,229c2.2-3,3.6-6.4,4.2-10l2,0.4c-0.4,1.9-0.9,3.5-1.4,4.9v16.3h-2V228.4z M23.4,235
			c0,2.7-0.4,4.4-1.1,5.1c-0.3,0.3-0.5,0.4-0.8,0.4c-1.9,0-4.9-6.2-5.4-12.4h-5.3v6.3l0.8-0.2c1.8-0.4,3.1-0.8,4-1.1l0.6,2
			c-2.1,0.7-5,1.4-8.8,1.9l-0.5-2l2-0.3v-14c0-0.3,0.1-0.5,0.5-0.5h1.1c4,0,7.9-0.4,11.6-1.2l0.8,1.9c-1.6,0.3-3.4,0.6-5.2,0.8
			c0,1.5,0,2.9,0.2,4.3h5.5v2H18c0.5,3.9,1.3,6.8,2.4,8.8c0.4,0.7,0.6,1.1,0.8,1.1c0.3,0,0.3-0.9,0.3-1.5c0-0.5,0-1.2-0.1-1.9
			L23.4,235z M8.1,238.2H18v2H8.1V238.2z M15.9,226.2c-0.1-1.3-0.2-2.7-0.2-4.1c-1.5,0.1-3.1,0.1-4.7,0.1c-0.1,0-0.1,0.1-0.1,0.2
			v3.8H15.9z"/>
		<path class="st0" d="M25.3,238.2c2.3-0.3,4.1-0.5,5.5-0.9c0.7-2.1,1.1-3.8,1.3-5.1l1.9,0.4c-0.2,1.2-0.5,2.6-0.9,4.1l1.9-0.7
			l0.8,1.8c-2.6,1-5.9,1.8-9.8,2.3L25.3,238.2z M25.6,219.8h9.3v1.8h-9.3V219.8z M34.4,231.1c0,0.2-0.1,0.3-0.3,0.3h-8
			c-0.2,0-0.3-0.1-0.3-0.3v-7.6c0-0.2,0.1-0.3,0.3-0.3h8c0.2,0,0.3,0.1,0.3,0.3V231.1z M27.4,237.3c-0.3-1.9-0.6-3.3-1-4.4l1.9-0.5
			c0.5,1.2,0.8,2.7,1.1,4.5L27.4,237.3z M32.4,225.1h-4.5c-0.1,0-0.1,0-0.1,0.1v4.4l0.1,0.1h4.5l0.1-0.1L32.4,225.1L32.4,225.1z
			 M40.1,239c-1.7,1-3.4,1.6-5,1.9c0-0.8-0.1-1.4-0.2-1.9c1.5-0.2,2.9-0.8,4.2-1.7L40.1,239z M46.3,236.9c0,0.2-0.1,0.3-0.3,0.3
			h-9.4c-0.2,0-0.3-0.1-0.3-0.3v-13.1c0-0.2,0.1-0.3,0.3-0.3h2.6l0.8-1.9H36v-1.8h10.8v1.8h-4.8l-0.4,1.1l-0.4,0.8H46
			c0.2,0,0.3,0.1,0.3,0.3V236.9z M38.2,227.5h6.3v-2.1l-0.1-0.1h-6.1l-0.1,0.1V227.5z M38.2,231.4h6.3v-2.1h-6.3V231.4z M44.5,233.2
			h-6.3v2l0.1,0.1h6.1c0.1,0,0.1,0,0.1-0.1V233.2z M46.4,240.8c-1.5-0.8-2.8-1.3-3.8-1.5l0.7-1.7c1.1,0.3,2.4,0.8,3.8,1.6
			L46.4,240.8z"/>
		<path class="st0" d="M48.7,237.8c0.8-1.7,1.4-3.2,1.7-4.3l1.7,0.6c-0.3,1.3-0.9,2.7-1.8,4.4L48.7,237.8z M53.5,224.1v-1.7H49v-1.8
			h4.5v-1.7h2v1.7h4v1.8h-4v1.7h3.5v1.8h-9.3v-1.8H53.5z M53.7,232.4H49v-1.8h10.6v1.8h-3.9v6.1c0,0.3-0.1,2.3-2.4,2.3
			c-0.6,0-1.4-0.1-2.3-0.4v-2.1l1.2,0.3c0.3,0,0.5,0.1,0.7,0.1c0.7,0,0.8-0.3,0.8-0.8V232.4z M50.1,227.4h8.2v1.8h-8.2V227.4z
			 M57.9,237.5c-0.5-1.4-1-2.5-1.4-3.3l1.7-0.7c0.5,1.1,1,2.3,1.5,3.4L57.9,237.5z M68.8,240.5c-1.8-2.3-3.1-4.8-3.9-7.5l-0.5,1.6
			c-1,2.5-2.6,4.5-4.5,6.1l-1.6-1.4c3.6-2.3,5.4-6.5,5.5-12.3v-3.9h-1.1c-0.5,2.5-1.1,4.4-1.8,5.7l-1.9-0.5c1.5-2.9,2.2-6,2.2-9.2
			H63l-0.1,2h6.3l1.2,0.8c-0.3,2.8-0.9,5.4-1.7,7.8l-1.9-0.4c1.1-2.9,1.7-4.8,1.7-5.7c0-0.2,0-0.3,0-0.4l-0.2-0.1h-2.6v3.9
			c0,1,0.1,2.1,0.4,3.5c0.5,3.1,2.1,6.1,4.6,9.1L68.8,240.5z"/>
		<path class="st0" d="M85.1,229.6c0,0.9-0.9,2-2,2c-1.2,0-2.1-1.2-2.1-2c0-1.2,1-2.2,2-2.2c0.6,0,1.1,0.2,1.5,0.6
			C84.9,228.6,85.1,229.1,85.1,229.6z"/>
		<path class="st0" d="M105.6,220.6v-1.6h2v1.6h9.6v1.9H95.9v-1.9H105.6z M112.4,238.4c0,0.1,0,0.2-0.1,0.2c0.5,0.1,0.9,0.2,1.2,0.2
			c1,0,1-0.9,1-1v-5.9c0-0.1,0-0.1-0.1-0.1H98.8c-0.1,0-0.1,0-0.1,0.1v8.7h-2v-10.2c0-0.3,0.2-0.5,0.5-0.5H116
			c0.3,0,0.5,0.2,0.5,0.5v8.2c0,0.5-0.1,2.3-2.7,2.3c-0.7,0-1.5-0.1-2.4-0.3l0-1.9H101c-0.2,0-0.3-0.1-0.3-0.3v-5
			c0-0.2,0.1-0.3,0.3-0.3h11.1c0.2,0,0.3,0.1,0.3,0.3V238.4z M114,228.7c0,0.2-0.1,0.3-0.3,0.3H99.4c-0.2,0-0.3-0.1-0.3-0.3V224
			c0-0.2,0.1-0.3,0.3-0.3h14.4c0.2,0,0.3,0.1,0.3,0.3V228.7z M112,225.6C112,225.5,112,225.5,112,225.6l-10.9-0.1
			c-0.1,0-0.1,0-0.1,0.1v1.5c0,0.1,0,0.1,0.1,0.1h10.8l0.1-0.1V225.6z M110.5,234.8h-7.8c-0.1,0-0.1,0-0.1,0v2l0.1,0.1h7.8l0.1-0.1
			L110.5,234.8L110.5,234.8z"/>
		<path class="st0" d="M121.9,230.9v-5.9h-2.6v-2h2.6v-3.9h2v3.9h2.4v2h-2.4v4.9l1.6-1l1.1,1.6c-1.1,0.8-2,1.2-2.8,1.6v6.3
			c0,0.4-0.2,2.3-2.1,2.3c-0.7,0-1.5-0.2-2.6-0.5l0.1-2.1c0.7,0.3,1.6,0.6,2,0.6c0.1,0,0.6,0,0.6-0.8V233l-1.9,0.8l-1-1.8
			L121.9,230.9z M139.8,240.8c-2.3-0.8-4.6-2-6.6-3.4c-2.3,1.5-4.8,2.7-7.4,3.3l-1.1-1.9c2.8-0.6,5.2-1.5,7-2.7
			c-1.3-1.1-2.6-2.5-3.9-4.2l1.5-1.2c1.4,1.8,2.7,3.2,3.9,4.2c2.3-1.9,3.6-4.5,3.6-4.8c0-0.2-0.1-0.2-0.3-0.2h-8.7v-2h10.8l0.9,0.8
			c-0.8,2.6-2.2,4.8-4.2,6.8l-0.6,0.6c1.6,1.1,3.8,2,6.3,2.8L139.8,240.8z M130.9,221.4c-0.2,0-0.3,0.1-0.3,0.3v1.5
			c0,2.7-2,4-3.6,4.7l-1.1-1.7c1.4-0.6,2.8-1.2,2.8-3.6v-2.6l0.1-0.3l0.3-0.1h6.9l0.3,0.1l0.1,0.3v4.5c0,0.8,0.3,0.8,0.9,0.9h0.8
			l0.6-0.1c0.1,0,0.1-0.3,0.1-0.8v-1.6l1.8,0.1l-0.1,2.8c0,0.8-1,1.4-1.7,1.4h-2.3c-1.7-0.1-1.9-1.3-1.9-1.9v-3.6
			c0-0.2-0.1-0.3-0.3-0.3H130.9z"/>
		<path class="st0" d="M148.8,225h4v1.8h-9.9V225h4v-2.1h-3.7v-1.8h3.7v-2.2h1.9v2.2h3.8v1.8h-3.8V225z M146.9,237h-3.8v-1.8h3.8
			v-2.3h-3.7V231h5.6c0.6-1.5,1-2.8,1.2-3.8l1.7,0.5c-0.2,1-0.5,2.1-1,3.3h1.9v1.8h-4v2.3h4v1.8h-4v3.8h-1.9V237z M145,230.9
			c-0.4-1.2-0.9-2.2-1.3-2.9l1.6-0.8c0.5,0.8,0.9,1.8,1.4,3L145,230.9z M155.6,239.4c1-0.6,2.1-1.5,3.3-2.7
			c-1.6-2.3-2.5-4.9-2.7-7.7h-0.8v11.7h-1.9v-20.6c0-0.3,0.1-0.5,0.4-0.5h8.8c0.9,0,1.1,0.4,1.1,1.3c0,1-0.4,4.3-1.1,4.7
			c-0.4,0.3-1.1,0.5-1.8,0.5s-1.7-0.2-2.8-0.5l0.1-1.9l1.8,0.4c0.7,0,1.1,0,1.3-0.2c0.4-0.2,0.5-1.7,0.5-1.9c0-0.3,0-0.3-0.3-0.4
			h-6.1c-0.2,0-0.2,0.1-0.2,0.2v5.3h7.5l1,0.6c-0.3,3.5-1.2,6.5-2.7,8.9c1,1.2,1.4,1.7,3.2,3.1l-1.7,1.2c-1.2-1.1-2.1-2-2.7-2.7
			c-0.8,0.8-1.7,1.7-2.8,2.6L155.6,239.4z M158,229c0.1,1.6,0.6,3.3,1.4,4.9l0.7,1.2c1.1-1.8,1.8-3.6,2.1-5.5v-0.1
			c0-0.5-0.3-0.5-0.7-0.4H158z"/>
		<path class="st0" d="M176.6,218.2h0.8v23.5h-0.8V218.2z"/>
		<path class="st0" d="M192.7,235.6v-6.5h-2.6v-1.8h2.6v-5.7H190v-1.8h7.5v1.8h-2.8v5.7h2.5v1.8h-2.5v5.7l2.5-1.2l0.9,1.8
			c-1.8,1-4.3,2.1-7.7,3.1l-0.8-1.8L192.7,235.6z M205,233.2h-2.3v0.6c0,1.5-0.7,4.9-6.8,7l-1-1.8c1.9-0.5,3.4-1.2,4.3-2.1
			c1.5-1.2,1.5-2.6,1.5-3.7h-1.9c-0.2,0-0.3-0.1-0.3-0.3v-13.1c0-0.2,0.1-0.3,0.3-0.3H210c0.2,0,0.3,0.1,0.3,0.3v13.1
			c0,0.2-0.1,0.3-0.3,0.3h-3v4.4c0,0.4,0.2,0.6,0.6,0.6h1.4c0.1,0,0.2-0.2,0.2-0.5l0.3-2.2l1.9,0.6c-0.1,2.2-0.4,3.4-0.9,3.7
			c-0.4,0.3-0.8,0.4-1.3,0.4H206c-0.7,0-1-0.4-1-1V233.2z M200.5,223.5h7.8v-2c0-0.1,0-0.1-0.1-0.1h-7.7c-0.1,0-0.1,0,0,0.1V223.5z
			 M208.3,229.4h-7.8v1.9c0,0.1,0,0.1,0,0.1h7.7l0.1-0.1V229.4z M200.5,227.6h7.8v-2.2h-7.8V227.6z"/>
		<path class="st0" d="M227.4,237.3h-7.3l0.6,1.5c-1.9,0.8-4.2,1.5-6.9,2.1l-0.5-1.9c2.4-0.5,4.4-1.1,5.9-1.7h-3.6
			c-0.2,0-0.3-0.1-0.3-0.3v-10.4c0-0.2,0.1-0.3,0.3-0.3h17c0.2,0,0.3,0.1,0.3,0.3V237c0,0.2-0.1,0.3-0.3,0.3h-4.2
			c1.9,0.3,4.1,0.8,6.5,1.7l-0.5,2c-3-1-5.4-1.6-7.2-1.8L227.4,237.3z M233.9,225c0,0.1-0.1,0.2-0.2,0.2h-19.6
			c-0.2,0-0.2-0.1-0.2-0.2v-5.3c0-0.2,0.1-0.2,0.2-0.2h19.6c0.1,0,0.2,0.1,0.2,0.2V225z M220,223.6v-2.5h-4.3c-0.1,0-0.1,0-0.1,0
			v2.3l0.1,0.1H220z M217.1,229.5h13.7v-1.4l-0.1-0.1h-13.5c-0.1,0-0.1,0-0.1,0.1V229.5z M217.1,232.6h13.7v-1.3h-13.7V232.6z
			 M230.8,234.3h-13.7v1.1l0.1,0.1h13.5l0.1-0.1V234.3z M226.1,223.6v-2.5h-4.3v2.5H226.1z M227.9,221.1v2.5h4.1l0.1-0.1v-2.3
			l-0.1,0H227.9z"/>
		<path class="st0" d="M239.6,235.6v-6.5h-2.6v-1.8h2.6v-5.7h-2.7v-1.8h7.5v1.8h-2.8v5.7h2.5v1.8h-2.5v5.7l2.5-1.2l0.9,1.8
			c-1.8,1-4.3,2.1-7.7,3.1l-0.8-1.8L239.6,235.6z M251.9,233.2h-2.3v0.6c0,1.5-0.7,4.9-6.8,7l-1-1.8c1.9-0.5,3.4-1.2,4.3-2.1
			c1.5-1.2,1.5-2.6,1.5-3.7h-1.9c-0.2,0-0.3-0.1-0.3-0.3v-13.1c0-0.2,0.1-0.3,0.3-0.3h11.3c0.2,0,0.3,0.1,0.3,0.3v13.1
			c0,0.2-0.1,0.3-0.3,0.3h-3v4.4c0,0.4,0.2,0.6,0.6,0.6h1.4c0.1,0,0.2-0.2,0.2-0.5l0.3-2.2l1.9,0.6c-0.1,2.2-0.4,3.4-0.9,3.7
			c-0.4,0.3-0.8,0.4-1.3,0.4h-3.3c-0.7,0-1-0.4-1-1V233.2z M247.4,223.5h7.8v-2c0-0.1,0-0.1-0.1-0.1h-7.7c-0.1,0-0.1,0,0,0.1V223.5z
			 M255.2,229.4h-7.8v1.9c0,0.1,0,0.1,0,0.1h7.7l0.1-0.1V229.4z M247.4,227.6h7.8v-2.2h-7.8V227.6z"/>
		<path class="st0" d="M265.5,231.1v9.5h-1.9v-9.2c-0.6,1.6-1.2,2.9-1.9,3.9l-1.9-0.8c1.7-2.3,2.8-4.9,3.4-7.5h-2.9v-2h3.3v-3.1
			l-2.9,0.4l-0.5-1.9c3.4-0.4,6-0.9,7.7-1.4l0.5,1.9l-3,0.7v3.5h3v2h-3v0.8c1.2,1.7,2.3,3.4,3.3,5.1L267,234L265.5,231.1z
			 M269.5,238v-17.5c0-0.4,0.2-0.7,0.7-0.7h9.6c0.5,0,0.7,0.2,0.7,0.7V238h1.3v2h-13.8v-2H269.5z M271.5,225.9h7v-3.8
			c0-0.2-0.1-0.3-0.3-0.3h-6.4c-0.2,0-0.3,0.1-0.3,0.3V225.9z M271.5,232.1h7v-4.1h-7V232.1z M271.5,238h7v-4h-7V238z"/>
		<path class="st0" d="M283.3,235.2c1.9-5,3.1-9.1,3.6-12.3l2.1,0.3c-0.6,3.6-1.8,7.8-3.8,12.7L283.3,235.2z M293.7,219.4h2.2v18
			c0,0.9-0.7,2.3-1.8,2.8c-0.8,0.3-1.3,0.4-2,0.4c-0.9,0-2.1-0.1-3.4-0.4l-0.1-2.4c1.4,0.3,2.4,0.5,3.2,0.5c1,0,1.9-0.3,1.9-1.3
			V219.4z M303.1,235.6c-0.8-5.1-2.9-11.6-3.2-12.4l2.1-0.5c1.5,5.1,2.7,9.2,3.2,12.5L303.1,235.6z"/>
		<path class="st0" d="M325.5,239.5l-17.8,1.1c0-0.6-0.2-1.2-0.4-2l2.4-0.1c0.8-0.8,1.6-1.8,2.3-3h-5v-1.8h3.8v-7
			c-1.1,0.5-2.3,1-3.4,1.3l-0.7-1.8c2.8-0.9,5.2-2,7-3.4h-6.3v-1.9h8.3l1.7-1.8l1.5,1.2l-0.5,0.6h9.7v1.9h-6.2
			c1.8,1.6,4.1,2.8,6.9,3.5l-1,1.8c-1.2-0.4-2.4-0.8-3.5-1.4h-11.1c-0.2,0-0.2,0.1-0.2,0.2v1h11.8v1.7h-11.8v1.2h11.9v1.7h-11.9v1.2
			h15.4v1.8h-4c1.6,1.5,2.9,2.9,4,4.2l-1.5,1.2L325.5,239.5z M322.6,236.5l1.1-1.1h-9.4c-0.4,0.8-1.1,1.7-2,2.9l11.3-0.7
			L322.6,236.5z M316.6,222.6c-0.8,0.8-1.7,1.5-2.5,2.1h7.3c-0.7-0.6-1.5-1.3-2.2-2.1H316.6z"/>
		<path class="st0" d="M339.8,235.2c-0.9,2.2-2.5,3.9-4.8,5.6l-1.6-1.4c3.2-1.9,4.9-4.5,5.1-7.6h-3.8V230h6.2v-1.6h-7v2.2
			c0,3.5-0.6,6.8-1.7,9.7l-1.9-1.1c1-2.6,1.6-5.5,1.6-8.6v-9.9c0-0.5,0.2-0.8,0.5-0.8c1.1,0,2.1,0,3.1,0c4.9,0,9.4-0.3,13.6-1
			l0.7,2.1c-5.4,0.7-9.9,0.8-15.6,0.8c-0.2,0-0.4,0.1-0.3,0.3v0.9h16.4c0.4,0,0.6,0.2,0.6,0.6v4c0,0.4-0.2,0.6-0.6,0.6h-7.4v1.6h8.3
			v1.8h-10.7l-0.2,1.4h9.6c0.5,0.1,0.8,0.2,0.8,1.1c0,3-0.3,4.7-0.8,5.3c-0.8,0.8-1.9,1-3.3,1c-1.2,0-2.6-0.2-4.3-0.7v-2.3
			c1.7,0.5,3.1,0.8,4.2,0.8c2.1,0,2.3-0.7,2.3-2.5c0-0.3,0-0.9-0.4-0.9H339.8z M349,225.2c0-0.1-0.1-0.2-0.2-0.2h-14.9v1.6h14.9
			c0.1,0,0.2-0.1,0.2-0.2V225.2z"/>
	</g>
</g>
</svg>
